<svg width="44" height="44" viewBox="0 0 44 44" fill="none" xmlns="http://www.w3.org/2000/svg">
<path d="M13.4062 29.7209H4.8125C4.33787 29.7209 3.95312 30.1058 3.95312 30.5803V41.7522C3.95312 42.2267 4.33787 42.6116 4.8125 42.6116H13.4062C13.8809 42.6116 14.2656 42.2267 14.2656 41.7522V30.5803C14.2656 30.1058 13.8809 29.7209 13.4062 29.7209ZM12.5469 40.8928H5.67188V31.4397H12.5469V40.8928Z" fill="black"/>
<path d="M26.2969 23.7053H17.7031C17.2285 23.7053 16.8438 24.0902 16.8438 24.5647V41.7522C16.8438 42.2267 17.2285 42.6116 17.7031 42.6116H26.2969C26.7714 42.6116 27.1562 42.2267 27.1562 41.7522V24.5647C27.1562 24.0902 26.7714 23.7053 26.2969 23.7053ZM25.4375 40.8928H18.5625V25.4241H25.4375V40.8928Z" fill="black"/>
<path d="M39.1875 14.2522H30.5938C30.1192 14.2522 29.7344 14.6369 29.7344 15.1116V41.7522C29.7344 42.2267 30.1192 42.6116 30.5938 42.6116H39.1875C39.662 42.6116 40.0469 42.2267 40.0469 41.7522V15.1116C40.0469 14.6369 39.662 14.2522 39.1875 14.2522ZM38.3281 40.8928H31.4531V15.9709H38.3281V40.8928Z" fill="black"/>
<path d="M35.75 36.5959C36.2245 36.5959 36.6094 36.2111 36.6094 35.7366V21.1272C36.6094 20.6526 36.2245 20.2678 35.75 20.2678C35.2755 20.2678 34.8906 20.6526 34.8906 21.1272V35.7366C34.8906 36.2111 35.2755 36.5959 35.75 36.5959Z" fill="black"/>
<path d="M4.50337 21.3436L6.47882 22.8412L5.76098 25.214C5.65502 25.5641 5.78238 25.943 6.07835 26.158C6.37432 26.3731 6.77402 26.3771 7.07437 26.1681L9.10911 24.7523L11.1439 26.1683C11.2915 26.271 11.4631 26.3223 11.6346 26.3223C12.2105 26.3223 12.6239 25.7649 12.4572 25.214L11.7394 22.8413L13.7148 21.3437C14.0064 21.1226 14.1261 20.7413 14.013 20.3933C13.8999 20.0453 13.5789 19.8071 13.2131 19.7996L10.7347 19.7492L9.92079 17.4077C9.80073 17.0619 9.47495 16.8303 9.10911 16.8303C8.74327 16.8303 8.41748 17.0619 8.29734 17.4076L7.48343 19.7491L5.00499 19.7995C4.63924 19.807 4.31827 20.0452 4.20517 20.3932C4.09216 20.7412 4.21179 21.1226 4.50337 21.3436ZM8.11636 21.4553C8.47575 21.448 8.7926 21.2178 8.91059 20.8782L9.10911 20.3071L9.30762 20.8782C9.4257 21.2178 9.74255 21.4479 10.1019 21.4553L10.7063 21.4676L10.2245 21.8329C9.93806 22.0501 9.81706 22.4225 9.92113 22.7665L10.0962 23.3452L9.5999 22.9999C9.30522 22.7949 8.91386 22.7941 8.61815 22.9999L8.12186 23.3452L8.29691 22.7665C8.40098 22.4225 8.27998 22.0501 7.99355 21.8329L7.5117 21.4676L8.11636 21.4553Z" fill="black"/>
<path d="M17.394 15.328L19.3694 16.8256L18.6516 19.1983C18.5456 19.5485 18.673 19.9273 18.969 20.1424C19.2649 20.3575 19.6647 20.3616 19.965 20.1526L21.9997 18.7367L24.0346 20.1527C24.1822 20.2554 24.3539 20.3067 24.5254 20.3067C25.1012 20.3067 25.5147 19.7493 25.3479 19.1984L24.6301 16.8257L26.6054 15.328C26.897 15.107 27.0166 14.7256 26.9036 14.3777C26.7906 14.0297 26.4695 13.7915 26.1038 13.784L23.6253 13.7336L22.8113 11.392C22.6914 11.0463 22.3656 10.8147 21.9997 10.8147C21.6339 10.8147 21.3081 11.0463 21.188 11.3919L20.3741 13.7335L17.8956 13.7839C17.5299 13.7914 17.2089 14.0296 17.0958 14.3776C16.9828 14.7255 17.1024 15.1069 17.394 15.328ZM21.007 15.4397C21.3664 15.4324 21.6832 15.2022 21.8012 14.8626L21.9998 14.2915L22.1984 14.8626C22.3164 15.2022 22.6333 15.4323 22.9926 15.4397L23.5971 15.452L23.1154 15.8172C22.8289 16.0344 22.7079 16.4068 22.812 16.7509L22.9871 17.3296L22.4908 16.9842C22.1958 16.779 21.8041 16.7789 21.509 16.9842L21.0127 17.3296L21.1878 16.7509C21.2919 16.4069 21.1709 16.0344 20.8844 15.8172L20.4027 15.452L21.007 15.4397Z" fill="black"/>
<path d="M30.2846 5.87484L32.2599 7.37247L31.5421 9.7452C31.4361 10.0954 31.5635 10.4742 31.8595 10.6893C32.1554 10.9042 32.5552 10.9084 32.8555 10.6995L34.8904 9.28355L36.9252 10.6995C37.0729 10.8022 37.2446 10.8535 37.4161 10.8535C37.9919 10.8535 38.4054 10.2962 38.2386 9.74529L37.5208 7.37256L39.496 5.87492C39.7876 5.65389 39.9072 5.2725 39.7942 4.92454C39.6812 4.57658 39.3602 4.33836 38.9944 4.33088L36.516 4.28044L35.702 1.9389C35.582 1.59317 35.2562 1.36157 34.8904 1.36157C34.5245 1.36157 34.1988 1.59317 34.0787 1.93881L33.2647 4.28035L30.7863 4.3308C30.4205 4.33828 30.0995 4.57649 29.9864 4.92446C29.8734 5.27242 29.9931 5.65381 30.2846 5.87484ZM33.8976 5.98656C34.257 5.97925 34.5738 5.74903 34.6918 5.40949L34.8904 4.83835L35.089 5.40949C35.207 5.74903 35.5238 5.97917 35.8831 5.98656L36.4876 5.99885L36.0059 6.36408C35.7195 6.58124 35.5985 6.9537 35.7026 7.29779L35.8776 7.87649L35.3813 7.53111C35.0862 7.32581 34.6947 7.32581 34.3996 7.53111L33.9033 7.87649L34.0784 7.29779C34.1824 6.95378 34.0614 6.58124 33.775 6.36408L33.2933 5.99885L33.8976 5.98656Z" fill="black"/>
</svg>
