<svg width="163" height="157" viewBox="0 0 163 157" fill="none" xmlns="http://www.w3.org/2000/svg">
<path d="M97.3659 133.145V145.503H93.1211L102.271 156.162L110.855 145.722H106.516V133.145H97.3659Z" fill="#C9CEDD"/>
<path d="M113.556 40.0573V44.4079H112.062L115.283 48.1604L118.305 44.4846H116.777V40.0573H113.556Z" fill="#C9CEDD"/>
<path d="M152.176 80.4105V89.3422H149.107L155.721 97.0466L161.926 89.5001H158.789V80.4105H152.176Z" fill="#C9CEDD"/>
<path d="M10.7218 116.509V125.441H7.65332L14.2669 133.145L20.4716 125.599H17.3354V116.509H10.7218Z" fill="#C9CEDD"/>
<path d="M65.6486 131.11V137.777H63.3584L68.2944 143.527L72.9254 137.895H70.5846V131.11H65.6486Z" fill="#C9CEDD"/>
<path d="M50.7321 22.0728C51.0441 19.8053 47.8438 17.9396 45.439 17.746C44.292 17.6537 43.1011 17.829 42.0145 17.4503C39.6606 16.63 38.7203 13.589 36.4235 12.6201C34.7064 11.8958 32.7294 12.5404 31.0648 13.3783C29.4002 14.2161 27.755 15.2704 25.8953 15.3895C24.2777 15.4931 22.5208 14.8931 21.1053 15.6833C20.0507 16.2721 19.4981 17.4876 18.5262 18.2044C17.5751 18.906 16.3347 19.0546 15.1546 19.1186C13.9745 19.183 12.753 19.195 11.6783 19.6869C10.6036 20.1788 9.7151 21.315 9.93778 22.4757L50.7321 22.0728Z" fill="#D7DBE6"/>
<path d="M162.535 64.3818C162.806 62.4092 160.022 60.7864 157.93 60.6177C156.932 60.5372 155.896 60.6899 154.951 60.3603C152.903 59.6465 152.085 57.0014 150.087 56.1587C148.594 55.5286 146.874 56.0894 145.426 56.8182C143.977 57.547 142.546 58.4641 140.929 58.5677C139.521 58.6578 137.993 58.1357 136.762 58.8235C135.844 59.3359 135.364 60.3927 134.518 61.0169C133.691 61.6272 132.612 61.7561 131.585 61.8119C130.559 61.8678 129.496 61.8782 128.562 62.3061C127.627 62.7339 126.854 63.7223 127.048 64.7318L162.535 64.3818Z" fill="#D7DBE6"/>
<path d="M71.3743 4.31718C71.5073 3.35269 70.1458 2.55876 69.1225 2.47647C68.6347 2.43699 68.1279 2.51184 67.6657 2.3506C66.6644 2.00167 66.2644 0.707998 65.2873 0.295765C64.5567 -0.0121992 63.7158 0.261878 63.0075 0.618253C62.2993 0.974628 61.5995 1.42335 60.8082 1.474C60.12 1.51794 59.3727 1.26286 58.7705 1.59912C58.3218 1.84974 58.0868 2.36661 57.6731 2.6716C57.2687 2.96988 56.7406 3.03319 56.2387 3.06037C55.7367 3.08755 55.2168 3.09277 54.7599 3.30205C54.303 3.51133 53.9246 3.99469 54.0196 4.48847L71.3743 4.31718Z" fill="#D7DBE6"/>
<path d="M160.744 147.189C160.988 145.415 158.485 143.956 156.604 143.805C155.707 143.733 154.776 143.87 153.926 143.574C152.085 142.932 151.349 140.553 149.553 139.796C148.21 139.229 146.663 139.734 145.362 140.389C144.059 141.044 142.773 141.869 141.318 141.962C140.052 142.043 138.678 141.574 137.572 142.192C136.747 142.652 136.314 143.603 135.554 144.163C134.81 144.712 133.84 144.828 132.917 144.878C131.994 144.929 131.038 144.938 130.198 145.323C129.358 145.707 128.662 146.596 128.837 147.504L160.744 147.189Z" fill="#D7DBE6"/>
<path d="M67.2272 39.3988L64.355 34.3369C65.6256 32.2743 66.3599 29.8463 66.3599 27.2459C66.3599 19.768 60.2978 13.7059 52.8203 13.7059C45.3424 13.7059 39.2803 19.768 39.2803 27.2459C39.2803 34.7239 45.3424 40.7856 52.8203 40.7856C55.9427 40.7856 58.8161 39.7258 61.1066 37.9502L61.1022 37.9562L67.2272 39.3988Z" fill="#FAFAFA"/>
<path d="M67.2273 39.3988C66.8918 39.3225 64.9792 38.8876 61.0908 38.0035L61.0181 37.9871L61.0636 37.9272L61.068 37.9212L61.1358 37.9886C59.6046 39.1884 57.4004 40.3566 54.6339 40.7324C53.9458 40.8206 53.2267 40.8772 52.4879 40.8415C52.1188 40.8206 51.7427 40.8117 51.3636 40.78C50.9871 40.7231 50.6051 40.6657 50.2182 40.6072C48.6836 40.3045 47.1139 39.7225 45.6501 38.8142C44.187 37.9093 42.8322 36.6804 41.746 35.1704C40.6616 33.663 39.8394 31.8755 39.4543 29.9331C39.073 27.9934 39.1046 25.9143 39.6141 23.9019C40.1268 21.8966 41.0854 19.9375 42.5198 18.3258C43.9714 16.6795 45.7659 15.3616 47.7437 14.5964C49.7132 13.8147 51.8135 13.5172 53.821 13.6628C55.8293 13.8076 57.7504 14.3841 59.3986 15.3121C61.052 16.2326 62.4463 17.4619 63.5217 18.8345C64.6009 20.2079 65.3609 21.7227 65.8316 23.2309C66.299 24.7461 66.4252 26.2487 66.4192 27.6396C66.3396 30.4411 65.4 32.7417 64.3935 34.3608L64.3942 34.3135C66.1958 37.5466 67.0672 39.1114 67.2273 39.3988C67.0627 39.114 66.1664 37.5634 64.3145 34.3597L64.3007 34.3362L64.3153 34.3124C65.3025 32.6962 66.2193 30.4105 66.2859 27.6362C66.2852 26.2588 66.1549 24.7726 65.6875 23.276C65.2172 21.7864 64.4612 20.2916 63.3917 18.9376C62.3256 17.5844 60.9463 16.3738 59.313 15.4681C57.6845 14.555 55.7887 13.9897 53.8076 13.8493C51.8269 13.7078 49.7564 14.0031 47.8155 14.7751C45.8661 15.5303 44.098 16.8307 42.6665 18.4535C41.2518 20.0421 40.3074 21.9733 39.8003 23.9496C39.2968 25.9329 39.2636 27.9837 39.6375 29.897C40.0148 31.8129 40.8236 33.5773 41.8908 35.0669C42.96 36.559 44.295 37.7752 45.738 38.6727C47.1817 39.5731 48.7305 40.1533 50.2472 40.4575C50.6297 40.5168 51.0069 40.5748 51.3793 40.6322C51.7543 40.6646 52.1259 40.6746 52.4912 40.6966C53.2222 40.735 53.9342 40.6814 54.6157 40.5972C57.3557 40.2367 59.5472 39.092 61.0766 37.9123L61.3738 37.6829L61.1448 37.9797L61.1403 37.9856L61.1131 37.9093C64.9878 38.8533 66.8933 39.3177 67.2273 39.3988Z" fill="#1D191F"/>
<path d="M56.7806 34.705H48.0053C47.5822 34.705 47.2393 34.362 47.2393 33.939V20.9695C47.2393 20.5465 47.5822 20.2035 48.0053 20.2035H56.7806C57.2036 20.2035 57.5466 20.5465 57.5466 20.9695V33.939C57.5466 34.362 57.2036 34.705 56.7806 34.705Z" fill="#1D191F"/>
<path d="M57.0217 21.0753H47.7188V31.9129H57.0217V21.0753Z" fill="#FAFAFA"/>
<path d="M52.3932 34.079C52.8245 34.079 53.1741 33.7294 53.1741 33.2981C53.1741 32.8668 52.8245 32.5172 52.3932 32.5172C51.9619 32.5172 51.6123 32.8668 51.6123 33.2981C51.6123 33.7294 51.9619 34.079 52.3932 34.079Z" fill="#1E397D"/>
<path d="M53.6973 24.377L57.1288 28.4282L60.3455 24.377H58.6776V18.8012L55.3414 18.7603L55.3812 24.3855L53.6973 24.377Z" fill="#5D80D9"/>
<path d="M53.9087 25.9008C53.9475 25.9377 53.2935 26.6862 52.4482 27.5721C51.6025 28.4584 50.8861 29.1466 50.8473 29.1097C50.8086 29.0728 51.4625 28.3247 52.3078 27.4384C53.1535 26.5525 53.87 25.864 53.9087 25.9008Z" fill="#1D191F"/>
<path d="M53.2339 25.4133C53.2659 25.4562 52.9032 25.8732 52.4232 26.3443C51.9432 26.8154 51.5231 27.1665 51.4852 27.1289C51.4472 27.0913 51.8099 26.6746 52.2958 26.1979C52.7818 25.7217 53.2019 25.3705 53.2339 25.4133Z" fill="#1D191F"/>
<path d="M137.911 24.124V30.4215H135.748L140.411 35.8539L144.786 30.5328H142.574V24.124H137.911Z" fill="#5D80D9"/>
<path opacity="0.3" d="M137.911 24.124V30.4215H135.748L140.411 35.8539L144.786 30.5328H142.574V24.124H137.911Z" fill="#1D191F"/>
<path d="M153.119 10.0737C151.724 4.6685 146.831 0.669434 140.989 0.669434C137.029 0.669434 133.503 2.50977 131.204 5.37678C130.808 5.33098 130.407 5.30156 129.998 5.30156C124.245 5.30156 119.581 9.96534 119.581 15.7184C119.581 21.4714 124.245 26.1351 129.998 26.1351H152.679C157.12 26.1351 160.721 22.5349 160.721 18.0934C160.721 13.8006 157.355 10.3035 153.119 10.0737Z" fill="#5D80D9"/>
<path d="M155.517 23.3282C155.497 23.2991 155.948 23.0172 156.545 22.4188C157.142 21.8267 157.864 20.8783 158.302 19.6673C158.74 18.4559 158.791 17.265 158.711 16.4279C158.634 15.5855 158.467 15.0806 158.502 15.0712C158.513 15.0675 158.566 15.1893 158.638 15.4187C158.709 15.6477 158.791 15.9866 158.847 16.413C158.964 17.2609 158.935 18.4872 158.484 19.7328C158.034 20.9784 157.273 21.9399 156.641 22.5171C156.325 22.8091 156.045 23.0176 155.843 23.1476C155.642 23.2783 155.524 23.3382 155.517 23.3282Z" fill="#1D191F"/>
<path d="M131.492 8.4233C131.485 8.45905 130.917 8.31419 129.984 8.2926C129.057 8.26727 127.751 8.4125 126.449 8.98226C125.147 9.55164 124.154 10.4126 123.543 11.1105C122.926 11.8102 122.647 12.3252 122.616 12.3058C122.606 12.2999 122.665 12.1662 122.797 11.9372C122.927 11.7078 123.139 11.3875 123.439 11.0211C124.032 10.2886 125.036 9.38816 126.372 8.80426C127.706 8.21998 129.049 8.09374 129.989 8.15518C130.462 8.18349 130.841 8.24568 131.098 8.30526C131.356 8.36447 131.494 8.41176 131.492 8.4233Z" fill="#1D191F"/>
<path d="M138.527 3.27853C138.53 3.31428 138.114 3.34035 137.472 3.50942C136.832 3.6755 135.972 4.02182 135.152 4.61392C134.335 5.21011 133.74 5.921 133.384 6.47883C133.025 7.03667 132.871 7.42395 132.838 7.41055C132.825 7.4057 132.855 7.30591 132.92 7.12865C132.981 6.9499 133.098 6.70115 133.267 6.40733C133.432 6.11166 133.668 5.78135 133.96 5.44062C134.259 5.10621 134.62 4.76473 135.038 4.45714C135.46 4.15476 135.896 3.91755 136.306 3.73694C136.721 3.56416 137.108 3.44238 137.44 3.37647C137.772 3.30758 138.044 3.27295 138.234 3.26997C138.423 3.26252 138.527 3.26513 138.527 3.27853Z" fill="#1D191F"/>
<path d="M148.282 26.0471C148.282 26.1008 145.219 26.144 141.442 26.144C137.663 26.144 134.601 26.1004 134.601 26.0471C134.601 25.9939 137.663 25.9503 141.442 25.9503C145.219 25.9503 148.282 25.9935 148.282 26.0471Z" fill="#1D191F"/>
<path d="M149.05 44.8094C148.996 44.8094 148.953 42.3006 148.953 39.2068C148.953 36.1119 148.997 33.6039 149.05 33.6039C149.104 33.6039 149.147 36.1119 149.147 39.2068C149.147 42.3006 149.104 44.8094 149.05 44.8094Z" fill="#1D191F"/>
<path d="M151.239 49.7036C151.186 49.7036 151.143 46.4739 151.143 42.4912C151.143 38.5071 151.186 35.2781 151.239 35.2781C151.293 35.2781 151.336 38.5071 151.336 42.4912C151.336 46.4739 151.293 49.7036 151.239 49.7036Z" fill="#1D191F"/>
<path d="M78.6589 121.131V139.179H72.459L85.8232 154.748L98.3608 139.499H92.0231V121.131H78.6589Z" fill="#5D80D9"/>
<path opacity="0.3" d="M78.6589 121.131V139.179H72.459L85.8232 154.748L98.3608 139.499H92.0231V121.131H78.6589Z" fill="#1D191F"/>
<path d="M122.245 80.8647C118.247 65.3734 104.221 53.9132 87.4808 53.9132C76.1304 53.9132 66.0253 59.1873 59.4378 67.4041C58.3016 67.273 57.1517 67.1881 55.9805 67.1881C39.4931 67.1881 26.127 80.5538 26.127 97.0416C26.127 113.529 39.4927 126.895 55.9805 126.895H120.984C133.713 126.895 144.031 116.577 144.031 103.848C144.031 91.5452 134.383 81.5231 122.245 80.8647Z" fill="#5D80D9"/>
<path d="M63.3407 86.2996C63.334 86.2996 63.3251 86.2315 63.3143 86.1023C63.3042 85.9511 63.2916 85.7645 63.2767 85.5374C63.2696 85.4122 63.2621 85.2763 63.2539 85.1296C63.2413 84.981 63.216 84.8202 63.1958 84.6474C63.1482 84.3022 63.1191 83.9059 63.0216 83.4777C62.9795 83.2621 62.9355 83.0368 62.8897 82.8026C62.8421 82.5683 62.7669 82.3304 62.7036 82.0812C62.5859 81.5793 62.3937 81.0628 62.2079 80.515C61.7934 79.4347 61.2483 78.2803 60.5418 77.1456C59.8209 76.0195 59.0124 75.0312 58.2148 74.1926C57.8 73.7889 57.416 73.3938 57.0131 73.0717C56.815 72.9071 56.6329 72.7369 56.4415 72.5936C56.2497 72.4517 56.0654 72.3154 55.8885 72.1847C55.5437 71.9125 55.1985 71.7162 54.9072 71.5248C54.7598 71.4321 54.6253 71.3405 54.4969 71.2652C54.368 71.1949 54.2485 71.1297 54.1383 71.0697C53.9398 70.9584 53.7767 70.8672 53.6445 70.7931C53.5324 70.7279 53.4747 70.6907 53.4776 70.6843C53.4806 70.6784 53.5436 70.7037 53.6616 70.7577C53.7986 70.8232 53.9677 70.9044 54.1736 71.0027C54.2868 71.0586 54.4097 71.1189 54.5423 71.1844C54.6745 71.2556 54.8123 71.3431 54.9635 71.4317C55.2618 71.6153 55.6152 71.8056 55.9678 72.0726C56.1484 72.2011 56.3368 72.3355 56.5331 72.4748C56.7282 72.6163 56.9148 72.7853 57.117 72.9484C57.5281 73.2683 57.9199 73.6627 58.3425 74.0671C59.1554 74.9068 59.9773 75.9033 60.7061 77.0414C61.4207 78.1879 61.967 79.3576 62.3758 80.4524C62.5594 81.0077 62.7471 81.5308 62.8596 82.0395C62.9203 82.292 62.9925 82.5329 63.0365 82.7702C63.0782 83.007 63.1184 83.2349 63.1571 83.4531C63.2469 83.8862 63.2666 84.2869 63.3042 84.6354C63.3195 84.8101 63.3392 84.9721 63.3467 85.1222C63.3489 85.27 63.3508 85.407 63.3522 85.5329C63.353 85.7612 63.3534 85.9489 63.3537 86.1008C63.3519 86.2315 63.3474 86.2996 63.3407 86.2996Z" fill="#1D191F"/>
<path d="M51.1271 80.5269C51.1025 80.5522 50.7108 80.1646 50.0021 79.6369C49.2957 79.1085 48.2478 78.4676 46.9884 77.9902C45.7271 77.5169 44.5169 77.3058 43.6373 77.2361C42.7566 77.1643 42.2066 77.197 42.2051 77.1617C42.2043 77.1483 42.3406 77.1307 42.5894 77.1103C42.8378 77.0861 43.1997 77.0805 43.6462 77.0991C44.5381 77.1345 45.7744 77.3274 47.0565 77.8089C48.3368 78.2945 49.3925 78.9659 50.0855 79.5286C50.433 79.809 50.7011 80.0525 50.8717 80.235C51.0456 80.4141 51.1364 80.5176 51.1271 80.5269Z" fill="#1D191F"/>
<path d="M64.8036 106.01C64.8032 106.024 64.5932 106.029 64.2134 106.028C63.8335 106.028 63.2843 106.016 62.6061 105.992C61.2495 105.945 59.3764 105.834 57.3141 105.632C55.2515 105.429 53.3925 105.173 52.0523 104.956C51.3824 104.848 50.8413 104.753 50.4689 104.679C50.0962 104.606 49.8913 104.56 49.8936 104.547C49.8958 104.533 50.1047 104.555 50.4808 104.605C50.8908 104.66 51.4263 104.733 52.072 104.821C53.4156 105.003 55.2738 105.237 57.3328 105.439C59.3909 105.641 61.2592 105.773 62.6125 105.855C63.263 105.895 63.8026 105.928 64.2156 105.953C64.5947 105.977 64.804 105.997 64.8036 106.01Z" fill="#1D191F"/>
<path d="M121.27 80.6803C121.27 80.687 121.198 80.6963 121.061 80.7078C120.902 80.7186 120.704 80.732 120.462 80.7484C120.201 80.7607 119.884 80.7801 119.516 80.8266C119.149 80.8694 118.729 80.8981 118.27 80.9812C118.04 81.0173 117.799 81.0553 117.549 81.0947C117.298 81.1353 117.042 81.1986 116.774 81.2523C116.235 81.3524 115.674 81.5126 115.079 81.6686C113.9 82.0153 112.626 82.4703 111.337 83.0647C110.054 83.6713 108.886 84.3568 107.864 85.0383C107.363 85.3939 106.879 85.722 106.457 86.0702C106.244 86.2411 106.03 86.3975 105.838 86.5636C105.647 86.7301 105.464 86.8906 105.288 87.0436C104.93 87.3415 104.638 87.6454 104.37 87.8997C104.099 88.1518 103.879 88.3827 103.703 88.5745C103.535 88.7499 103.397 88.8933 103.288 89.0076C103.191 89.1052 103.137 89.1547 103.132 89.1502C103.127 89.1457 103.171 89.088 103.258 88.9819C103.361 88.8605 103.49 88.7089 103.647 88.5235C103.816 88.3231 104.028 88.0837 104.293 87.823C104.555 87.5605 104.842 87.2481 105.196 86.9416C105.37 86.7841 105.552 86.6198 105.741 86.4489C105.932 86.2787 106.144 86.1186 106.357 85.9436C106.777 85.5876 107.261 85.2521 107.763 84.8897C108.788 84.1949 109.962 83.4992 111.255 82.8878C112.554 82.289 113.841 81.835 115.031 81.4954C115.631 81.3427 116.198 81.1875 116.741 81.0936C117.012 81.043 117.271 80.983 117.524 80.9461C117.776 80.9108 118.018 80.8769 118.251 80.8445C118.713 80.7696 119.137 80.7503 119.507 80.7175C119.876 80.6814 120.196 80.6724 120.458 80.6721C120.701 80.6702 120.901 80.6687 121.06 80.6676C121.198 80.6698 121.27 80.6739 121.27 80.6803Z" fill="#1D191F"/>
<path d="M119.428 127.098C119.428 127.152 105.036 127.195 87.2867 127.195C69.5313 127.195 55.1426 127.151 55.1426 127.098C55.1426 127.044 69.5313 127.001 87.2867 127.001C105.036 127.001 119.428 127.045 119.428 127.098Z" fill="#1D191F"/>
<path d="M41.8032 140.016C41.7496 140.016 41.7061 137.323 41.7061 134.002C41.7061 130.681 41.7496 127.989 41.8032 127.989C41.8569 127.989 41.9001 130.681 41.9001 134.002C41.9004 137.323 41.8569 140.016 41.8032 140.016Z" fill="#1D191F"/>
<path d="M44.2462 151.103C44.1926 151.103 44.1494 147.317 44.1494 142.647C44.1494 137.976 44.193 134.19 44.2462 134.19C44.2995 134.19 44.3431 137.976 44.3431 142.647C44.3431 147.317 44.2995 151.103 44.2462 151.103Z" fill="#1D191F"/>
<path d="M11.2296 56.1057V59.9636H9.9043L12.7613 63.2917L15.4413 60.0322H14.0866V56.1057H11.2296Z" fill="#5D80D9"/>
<path opacity="0.3" d="M11.2296 56.1057V59.9636H9.9043L12.7613 63.2917L15.4413 60.0322H14.0866V56.1057H11.2296Z" fill="#1D191F"/>
<path d="M20.5469 47.4978C19.6922 44.1861 16.6941 41.7366 13.1155 41.7366C10.689 41.7366 8.52879 42.8642 7.12079 44.6203C6.878 44.5924 6.63222 44.5742 6.3816 44.5742C2.85696 44.5742 0 47.4315 0 50.9558C0 54.4804 2.85733 57.3374 6.3816 57.3374H20.2772C22.9983 57.3374 25.2039 55.1317 25.2039 52.4107C25.2039 49.7809 23.1416 47.6385 20.5469 47.4978Z" fill="#5D80D9"/>
<path d="M22.0155 55.6179C21.9973 55.5911 22.2676 55.4108 22.627 55.0414C22.986 54.6757 23.4205 54.0974 23.6861 53.362C23.9519 52.6265 23.9877 51.9037 23.9456 51.3931C23.9058 50.8796 23.813 50.5679 23.8439 50.559C23.8637 50.5512 24.0048 50.8517 24.0819 51.3782C24.1608 51.9 24.1471 52.6578 23.8685 53.4279C23.5903 54.1976 23.1167 54.7893 22.7223 55.1401C22.3261 55.4957 22.0256 55.6365 22.0155 55.6179Z" fill="#1D191F"/>
<path d="M7.29691 46.4865C7.2902 46.5186 6.9409 46.4392 6.37264 46.4329C5.80736 46.4243 5.01417 46.5171 4.22322 46.8634C3.4319 47.2093 2.82528 47.7292 2.44805 48.15C2.06672 48.5715 1.88798 48.8817 1.86005 48.865C1.84143 48.856 1.97884 48.5179 2.34378 48.0606C2.70388 47.6052 3.32092 47.0459 4.14539 46.6854C4.96948 46.3246 5.79916 46.2512 6.37785 46.2955C6.96139 46.3383 7.30324 46.4668 7.29691 46.4865Z" fill="#1D191F"/>
<path d="M11.6069 43.3344C11.6091 43.3665 11.3555 43.3922 10.9667 43.5016C10.5783 43.6093 10.0585 43.8234 9.56096 44.1827C9.06494 44.5447 8.70074 44.9729 8.47806 45.3088C8.25388 45.6444 8.15073 45.8775 8.12094 45.8656C8.10083 45.8589 8.15892 45.6045 8.36113 45.237C8.56073 44.8705 8.92715 44.4047 9.44701 44.0256C9.96835 43.6487 10.5243 43.4447 10.9347 43.368C11.3466 43.2898 11.6065 43.3136 11.6069 43.3344Z" fill="#1D191F"/>
<path d="M17.5832 57.2841C17.5832 57.3377 15.7068 57.3809 13.3924 57.3809C11.0773 57.3809 9.20117 57.3373 9.20117 57.2841C9.20117 57.2305 11.0773 57.1873 13.3924 57.1873C15.7068 57.1869 17.5832 57.2305 17.5832 57.2841Z" fill="#1D191F"/>
<path d="M18.0529 68.7784C17.9992 68.7784 17.9561 67.2416 17.9561 65.3461C17.9561 63.4499 17.9996 61.9135 18.0529 61.9135C18.1061 61.9135 18.1497 63.4499 18.1497 65.3461C18.1501 67.2416 18.1065 68.7784 18.0529 68.7784Z" fill="#1D191F"/>
<path d="M19.3947 71.7767C19.341 71.7767 19.2979 69.7982 19.2979 67.358C19.2979 64.917 19.3414 62.9388 19.3947 62.9388C19.4483 62.9388 19.4915 64.917 19.4915 67.358C19.4915 69.7982 19.4479 71.7767 19.3947 71.7767Z" fill="#1D191F"/>
<g opacity="0.3">
<path d="M130.488 92.8265C129.758 88.5754 124.11 84.2635 119.253 85.2321C115.023 86.0759 110.467 87.0586 106.285 88.1147C104.559 88.5504 102.77 86.4535 101.324 85.4153C100.564 84.8697 100.119 84.0017 99.6446 83.1958C96.9533 78.6203 92.5238 75.1858 87.574 73.2684C82.6242 71.3513 77.1807 70.8925 71.9039 71.4709C67.8125 71.9192 63.323 73.3302 61.4198 76.98C60.6534 78.4498 60.3499 80.2175 59.1594 81.3712C57.5749 82.9069 55.0609 82.7844 52.996 83.5619C48.8655 85.1174 46.7711 91.0275 47.291 95.4105C47.8112 99.7958 51.7131 105.442 59.9086 106.343C59.9086 106.343 89.5994 106.603 104.261 107.314C109.343 107.56 110.876 106.86 115.963 106.728C124.933 106.494 131.827 100.62 130.488 92.8265Z" fill="#1D191F"/>
</g>
<path d="M75.9457 114.18C76.4444 114.057 77.0003 113.541 77.4308 113.264C78.488 112.584 79.5341 111.885 80.5682 111.17C76.8518 110.088 73.6965 109.236 69.9805 108.18C69.8725 109.635 69.9745 111.213 70.3905 112.611C70.7331 113.762 71.3892 114.985 72.5503 115.291C73.606 115.568 74.6785 114.987 75.6076 114.413C75.694 114.36 75.7804 114.307 75.8664 114.253" fill="#D7DBE6"/>
<path d="M76.5858 112.128C76.5288 112.122 76.5523 111.639 76.4208 111.07C76.2957 110.5 76.067 110.074 76.1162 110.044C76.1557 110.014 76.4752 110.419 76.61 111.028C76.7492 111.635 76.6346 112.139 76.5858 112.128Z" fill="#1D191F"/>
<path d="M77.3857 111.934C77.3306 111.922 77.376 111.549 77.3261 111.099C77.281 110.648 77.1593 110.293 77.2107 110.271C77.2554 110.246 77.4695 110.591 77.519 111.079C77.5719 111.566 77.4345 111.948 77.3857 111.934Z" fill="#1D191F"/>
<path d="M72.4757 108.884C72.5088 108.891 72.402 109.27 72.3964 109.892C72.3882 110.508 72.5073 111.387 72.9777 112.204C73.4517 113.031 73.9969 113.709 74.4996 114.07C74.9979 114.44 75.3922 114.515 75.3803 114.551C75.3781 114.562 75.2787 114.555 75.1062 114.507C74.9331 114.461 74.6907 114.358 74.4211 114.183C73.874 113.834 73.2905 113.14 72.8097 112.301C72.3148 111.44 72.2154 110.52 72.2593 109.888C72.2802 109.569 72.329 109.314 72.377 109.143C72.4247 108.971 72.4642 108.88 72.4757 108.884Z" fill="#1E397D"/>
<path d="M75.3802 109.745C75.423 109.727 75.8177 110.672 75.9857 111.918C76.1555 113.163 76.0266 114.179 75.9805 114.173C75.9201 114.171 75.9604 113.164 75.7935 111.944C75.6293 110.723 75.3225 109.763 75.3802 109.745Z" fill="#1E397D"/>
<path d="M74.5383 113.704C74.5215 113.723 74.288 113.552 73.9488 113.23C73.6133 112.908 73.1645 112.422 72.8402 111.77C72.5158 111.117 72.4362 110.435 72.5036 109.965C72.5665 109.489 72.7311 109.233 72.7478 109.243C72.7795 109.255 72.6648 109.524 72.6402 109.977C72.6108 110.427 72.7065 111.063 73.0145 111.684C73.3232 112.306 73.741 112.792 74.0475 113.135C74.3569 113.476 74.558 113.683 74.5383 113.704Z" fill="#5D80D9"/>
<path d="M79.7456 111.686C79.7687 111.735 79.1818 112.1 78.4356 112.503C77.6886 112.906 77.0607 113.195 77.0332 113.149C77.0056 113.104 77.5921 112.738 78.3436 112.332C79.0947 111.927 79.7225 111.638 79.7456 111.686Z" fill="#5D80D9"/>
<path d="M73.8188 113.758C73.856 113.791 73.4144 114.25 72.686 114.489C71.9598 114.735 71.3309 114.633 71.3409 114.585C71.3428 114.527 71.9412 114.538 72.6246 114.306C73.3105 114.082 73.7823 113.713 73.8188 113.758Z" fill="#1E397D"/>
<path d="M72.554 111.85C72.5596 111.907 72.0528 111.976 71.492 112.235C70.9278 112.488 70.5424 112.824 70.5029 112.782C70.4642 112.751 70.8109 112.329 71.4119 112.059C72.0104 111.784 72.5559 111.8 72.554 111.85Z" fill="#1E397D"/>
<path d="M72.3101 110.156C72.2803 110.206 71.778 109.906 71.0834 109.815C70.3904 109.713 69.8255 109.865 69.8103 109.808C69.7868 109.765 70.3655 109.516 71.1099 109.623C71.8554 109.723 72.3444 110.12 72.3101 110.156Z" fill="#1E397D"/>
<path d="M100.819 104.773C100.841 104.807 86.8504 108.18 86.8504 108.18L84.793 103.356L85.7377 101.9C85.7377 101.9 91.6501 100.564 96.4632 97.8422L100.819 104.773Z" fill="#CDD8F3"/>
<path d="M67.9874 91.0518C67.9874 91.0518 67.3503 90.1186 64.6329 88.7896C62.3804 87.6881 56.5976 86.7612 54.2571 91.2861C51.9167 95.811 53.7108 102.754 57.6116 104.236C61.5123 105.719 67.9874 107.747 70.6399 108.605C73.2924 109.463 82.0301 111.647 82.0301 111.647L85.6188 109.541L86.0419 102.844C86.0419 102.844 81.094 97.7612 76.8811 96.3569C72.6683 94.9526 67.9874 91.0518 67.9874 91.0518Z" fill="#1D191F"/>
<path d="M59.9082 87.8965C59.9462 87.8411 63.879 87.9509 66.7486 89.0338C67.8293 89.4416 68.8857 89.8754 68.8857 89.8754L70.4728 85.3554L82.3628 81.3943H95.5278L99.811 89.8754V90.3037C99.811 90.3037 104.951 90.3893 107.178 89.3611C109.406 88.3334 116.345 85.3349 118.144 84.7354C119.943 84.1358 127.995 82.9822 129.794 87.885C131.593 92.7879 130.317 97.8992 127.31 99.7664C125.893 100.646 101.953 106.837 101.953 106.837L96.2986 97.8423C96.2986 97.8423 87.6794 102.112 84.793 101.648C81.907 101.183 59.9082 87.8965 59.9082 87.8965Z" fill="#1D191F"/>
<path d="M84.187 83.5799C84.1933 83.5784 84.2134 83.6376 84.2458 83.7526C84.2816 83.8901 84.3255 84.0565 84.378 84.2576C84.4853 84.6978 84.6249 85.3394 84.7653 86.1374C85.0554 87.7323 85.3444 89.9536 85.57 92.4147C85.7905 94.8773 85.9122 97.1124 85.9607 98.7312C85.9867 99.5404 85.9942 100.196 85.9934 100.649C85.9904 100.857 85.9878 101.029 85.9856 101.171C85.9815 101.29 85.9763 101.352 85.9696 101.353C85.9629 101.353 85.9551 101.291 85.9465 101.171C85.9387 101.03 85.9294 100.858 85.9178 100.651C85.894 100.169 85.8623 99.5221 85.8236 98.7371C85.7406 97.1217 85.5968 94.8911 85.3771 92.4323C85.1518 89.9749 84.8852 87.7562 84.6301 86.1601C84.5076 85.361 84.3888 84.7179 84.3043 84.2736C84.2659 84.0695 84.2339 83.9009 84.2078 83.7616C84.1877 83.6439 84.1803 83.5814 84.187 83.5799Z" fill="#1E397D"/>
<path d="M99.6779 90.5134C99.6839 90.5667 96.6985 90.9421 93.0111 91.3513C89.3222 91.7609 86.3282 92.0499 86.3223 91.9967C86.3163 91.9434 89.301 91.5684 92.9899 91.1588C96.6773 90.7492 99.672 90.4606 99.6779 90.5134Z" fill="#1E397D"/>
<path d="M97.714 90.5329C97.7114 90.546 97.5602 90.5333 97.2884 90.4987C97.0173 90.4622 96.6241 90.4145 96.1385 90.3624C95.1673 90.2574 93.8196 90.1635 92.3301 90.1881C90.8401 90.2153 89.4966 90.3561 88.5295 90.495C88.0457 90.5639 87.6547 90.6253 87.3851 90.6711C87.1152 90.715 86.964 90.7333 86.961 90.7203C86.958 90.7072 87.1036 90.664 87.3699 90.597C87.6358 90.5281 88.0245 90.4458 88.5079 90.3594C89.4739 90.1851 90.826 90.0213 92.3267 89.9941C93.8271 89.9692 95.1837 90.0857 96.1552 90.2261C96.6412 90.2957 97.0326 90.3643 97.3007 90.4238C97.5696 90.4819 97.7167 90.5199 97.714 90.5329Z" fill="#1E397D"/>
<path d="M99.5334 90.0186C99.5036 90.0748 98.4591 89.3878 96.9822 89.0712C95.5083 88.7379 94.2719 88.9226 94.2686 88.859C94.2652 88.8366 94.5672 88.7603 95.0692 88.7264C95.5701 88.6918 96.2717 88.7171 97.0239 88.8817C97.7754 89.0485 98.4229 89.32 98.8624 89.562C99.3036 89.8037 99.5461 89.9999 99.5334 90.0186Z" fill="#1E397D"/>
<path d="M88.5693 97.3817C88.5998 97.4216 88.0978 97.8286 87.3639 98.1202C86.631 98.4155 85.9871 98.4668 85.9816 98.4169C85.9719 98.3607 86.583 98.2263 87.2916 97.9399C88.0025 97.6584 88.5376 97.3344 88.5693 97.3817Z" fill="#1E397D"/>
<path d="M87.9366 99.0492C87.9541 99.0976 87.5251 99.2905 86.9557 99.3706C86.3863 99.4533 85.9205 99.3881 85.9238 99.3367C85.9257 99.2812 86.3793 99.2585 86.9282 99.1785C87.4775 99.1014 87.9191 98.9963 87.9366 99.0492Z" fill="#1E397D"/>
<path d="M108.17 89.6895C108.174 89.6955 108.113 89.7364 107.996 89.809C107.859 89.891 107.686 89.9938 107.476 90.1192C106.997 90.3948 106.344 90.7705 105.548 91.229C103.889 92.1618 101.637 93.4279 99.1488 94.827C96.6489 96.207 94.3874 97.456 92.7214 98.3758C91.9122 98.8119 91.2493 99.1697 90.763 99.4315C90.5455 99.5444 90.3679 99.6364 90.226 99.7101C90.102 99.7719 90.0357 99.8013 90.0324 99.7954C90.029 99.7894 90.0893 99.7484 90.2074 99.6754C90.3448 99.5935 90.5165 99.4907 90.7269 99.3649C91.2057 99.0893 91.8589 98.7136 92.6554 98.2552C94.3141 97.3223 96.5659 96.0566 99.0546 94.6572C101.553 93.2778 103.814 92.0292 105.48 91.1094C106.289 90.6734 106.953 90.3155 107.439 90.0533C107.657 89.9405 107.834 89.8481 107.976 89.7748C108.1 89.7133 108.167 89.6839 108.17 89.6895Z" fill="#1E397D"/>
<path d="M118.212 87.7929C118.213 87.7996 118.13 87.8205 117.971 87.854C117.793 87.8909 117.563 87.9382 117.277 87.997C116.675 88.1214 115.807 88.3217 114.75 88.62C112.632 89.2073 109.777 90.2738 106.779 91.7812C103.779 93.2868 101.181 94.8724 99.3015 96.0167C98.378 96.5828 97.6231 97.0449 97.078 97.3789C96.8277 97.5286 96.6259 97.6497 96.4695 97.7431C96.3291 97.8247 96.2539 97.8649 96.2501 97.8589C96.2464 97.8534 96.3149 97.8023 96.4482 97.71C96.5994 97.6087 96.7949 97.4776 97.0374 97.3149C97.5513 96.9756 98.2986 96.49 99.2289 95.9002C101.091 94.7253 103.682 93.1181 106.692 91.6077C109.7 90.0954 112.577 89.043 114.713 88.4878C115.779 88.2052 116.654 88.0246 117.262 87.9229C117.566 87.8667 117.804 87.8391 117.964 87.8157C118.126 87.7944 118.211 87.7862 118.212 87.7929Z" fill="#1E397D"/>
<path d="M124.11 86.1013C124.106 86.134 123.675 86.0964 122.982 86.1165C122.289 86.1352 121.331 86.2361 120.312 86.5168C119.293 86.801 118.421 87.2069 117.817 87.5476C117.212 87.8876 116.862 88.1412 116.842 88.1151C116.834 88.1043 116.914 88.0314 117.067 87.9073C117.218 87.7815 117.45 87.6169 117.748 87.4296C118.341 87.0538 119.223 86.6193 120.261 86.3303C121.299 86.0443 122.279 85.9631 122.981 85.9799C123.333 85.9873 123.616 86.0093 123.811 86.0395C124.005 86.0663 124.111 86.0879 124.11 86.1013Z" fill="#1E397D"/>
<path d="M122.037 87.6746C122.028 87.7323 121.04 87.602 119.819 87.6474C118.598 87.6857 117.621 87.8838 117.609 87.8265C117.594 87.7799 118.569 87.4928 119.813 87.4537C121.056 87.4076 122.048 87.6269 122.037 87.6746Z" fill="#1E397D"/>
<path d="M117.719 86.1546C117.745 86.2063 116.888 86.6614 115.934 87.373C114.975 88.0798 114.291 88.7687 114.25 88.7285C114.212 88.6969 114.843 87.9372 115.818 87.2174C116.789 86.4931 117.7 86.1095 117.719 86.1546Z" fill="#1E397D"/>
<path d="M130.317 90.404C130.32 90.4059 130.308 90.4323 130.28 90.483C130.246 90.5429 130.205 90.6159 130.154 90.7049C130.042 90.8989 129.867 91.1808 129.619 91.5279C129.131 92.2254 128.325 93.185 127.115 94.1227C125.903 95.0559 124.33 95.9861 122.497 96.8288C120.665 97.6753 118.575 98.4178 116.386 99.1868C112.009 100.718 108.047 102.103 105.16 103.113C103.733 103.603 102.573 104 101.751 104.282C101.36 104.412 101.049 104.515 100.821 104.591C100.723 104.621 100.643 104.646 100.577 104.666C100.522 104.682 100.493 104.689 100.492 104.685C100.491 104.682 100.518 104.669 100.571 104.647C100.635 104.622 100.713 104.591 100.808 104.553C101.033 104.469 101.339 104.355 101.726 104.21C102.543 103.915 103.696 103.497 105.115 102.983C107.997 101.96 111.951 100.555 116.321 99.0032C118.511 98.2342 120.597 97.4988 122.423 96.6657C124.249 95.8368 125.821 94.9237 127.031 94.0132C128.241 93.0983 129.054 92.1628 129.558 91.4825C129.814 91.1443 129.999 90.8703 130.121 90.6833C130.178 90.5984 130.225 90.5292 130.263 90.4718C130.296 90.4253 130.314 90.4022 130.317 90.404Z" fill="#1E397D"/>
<path d="M85.2226 109.779C85.22 109.786 85.1262 109.752 84.9504 109.684C84.7583 109.606 84.5032 109.504 84.184 109.375C83.5212 109.101 82.5656 108.696 81.3919 108.179C79.0429 107.149 75.8217 105.671 72.3045 103.955C68.7899 102.23 65.6484 100.585 63.4268 99.2999C62.3133 98.662 61.4293 98.1165 60.8264 97.7277C60.5404 97.5367 60.3118 97.384 60.1393 97.2685C59.9837 97.1617 59.9036 97.1032 59.9074 97.0976C59.9111 97.092 59.9982 97.1397 60.1609 97.2358C60.3378 97.343 60.5728 97.4856 60.8666 97.6636C61.4807 98.0323 62.374 98.5589 63.4942 99.1807C65.7296 100.433 68.8778 102.057 72.3894 103.781C75.904 105.496 79.114 106.993 81.4474 108.055C82.6014 108.577 83.5417 109.002 84.2135 109.306C84.5266 109.449 84.7765 109.563 84.9649 109.648C85.137 109.728 85.2252 109.773 85.2226 109.779Z" fill="#1E397D"/>
<path d="M60.8323 90.2445C60.8263 90.2341 60.941 90.1548 61.1618 90.0341C61.3823 89.9131 61.7137 89.7582 62.1397 89.6092C62.9858 89.3083 64.2474 89.0719 65.6245 89.2487C66.9852 89.413 68.2052 89.7608 68.9968 90.2058C69.3938 90.4229 69.6906 90.6407 69.8783 90.8094C70.0667 90.977 70.1576 91.0835 70.1498 91.0917C70.1252 91.1219 69.7305 90.7204 68.9343 90.3279C68.1448 89.9239 66.9491 89.6044 65.6003 89.4413C64.2586 89.2692 63.026 89.4774 62.1825 89.7399C61.3331 90.0002 60.8483 90.2765 60.8323 90.2445Z" fill="#1E397D"/>
<path d="M86.0418 102.844C86.0373 102.849 85.9774 102.802 85.8675 102.709C85.7424 102.602 85.5849 102.467 85.3909 102.301C84.9783 101.945 84.3687 101.445 83.6079 100.836C82.0874 99.6166 79.9417 97.9882 77.5771 96.181C76.9879 95.7278 76.4126 95.285 75.8566 94.8575C75.2958 94.4431 74.7253 94.0826 74.1749 93.7504C73.0715 93.089 72.0512 92.5256 71.2439 91.9711C70.4309 91.4252 69.8266 90.9054 69.4441 90.514C69.2467 90.3241 69.1123 90.1587 69.0188 90.0492C68.9261 89.939 68.8799 89.8794 68.8852 89.875C68.9008 89.8612 69.0971 90.0913 69.4966 90.4596C69.8925 90.8316 70.5032 91.3295 71.3195 91.8568C72.1305 92.3927 73.1527 92.9412 74.2665 93.597C74.8221 93.9265 75.3997 94.287 75.9695 94.7048C76.5366 95.1268 77.1008 95.5773 77.6951 96.0276C80.059 97.834 82.1935 99.4814 83.6943 100.73C84.445 101.353 85.0423 101.871 85.4408 102.245C85.643 102.428 85.7919 102.579 85.894 102.681C85.9956 102.783 86.0466 102.839 86.0418 102.844Z" fill="#1E397D"/>
<path d="M76.2238 93.5598C76.2357 93.5333 76.7359 93.7385 77.5491 94.0543C78.3624 94.3705 79.4926 94.7875 80.7602 95.1897C82.029 95.5908 83.1934 95.9006 84.0402 96.1103C84.887 96.3203 85.414 96.4406 85.4084 96.4689C85.4058 96.4819 85.271 96.4681 85.0289 96.4316C84.7865 96.3959 84.4383 96.3326 84.0097 96.244C83.1525 96.0678 81.9765 95.7777 80.7018 95.3744C79.4278 94.9704 78.2995 94.5302 77.4974 94.1809C77.096 94.0063 76.7746 93.8577 76.556 93.7475C76.3367 93.638 76.2182 93.5717 76.2238 93.5598Z" fill="#1E397D"/>
<path d="M80.3412 90.2586C80.3442 90.2865 79.8322 90.3651 79.0047 90.4891C78.1773 90.6134 77.0355 90.7885 75.7798 91.0126C74.5238 91.2379 73.3921 91.4699 72.5728 91.6405C71.7536 91.811 71.246 91.9149 71.2393 91.8878C71.236 91.8747 71.3589 91.8319 71.5838 91.7649C71.8083 91.6975 72.136 91.6092 72.5423 91.5068C73.3552 91.302 74.4858 91.0477 75.746 90.822C77.0054 90.5971 78.1542 90.4429 78.9876 90.3531C79.4043 90.3085 79.742 90.2775 79.9763 90.2627C80.2098 90.2478 80.3397 90.2455 80.3412 90.2586Z" fill="#1E397D"/>
<path d="M78.5768 88.0731C78.5787 88.1044 78.0641 88.1468 77.2422 88.2701C76.4203 88.3926 75.2924 88.6157 74.0821 88.9899C72.8722 89.3668 71.8161 89.8218 71.0695 90.186C70.3221 90.5498 69.8741 90.806 69.8578 90.7792C69.8507 90.7677 69.9557 90.6917 70.1516 90.564C70.3467 90.4344 70.6387 90.2627 71.0069 90.0639C71.7428 89.6658 72.8019 89.1854 74.0244 88.8045C75.2473 88.4261 76.392 88.2224 77.2243 88.1342C77.6407 88.0891 77.9784 88.0656 78.2126 88.0619C78.4469 88.0563 78.5761 88.0597 78.5768 88.0731Z" fill="#1E397D"/>
<path d="M93.5407 106.875L91.3135 112.081C92.1353 112.82 95.2641 113.302 96.3679 113.246C97.472 113.191 99.0629 113.203 100.161 113.078C101.555 112.918 102.964 113.022 104.365 113.108C105.766 113.194 107.181 113.262 108.566 113.032C109.95 112.801 111.319 112.249 112.304 111.249C113.29 110.25 113.835 108.76 113.487 107.4C113.187 106.224 112.257 105.269 111.155 104.76C110.053 104.25 108.797 104.148 107.59 104.271C106.382 104.395 105.208 104.734 104.044 105.075C102.805 105.438 101.534 105.81 100.248 105.708C99.9856 105.687 99.7253 105.696 99.4669 105.649C97.7845 105.339 96.029 105.322 94.5138 106.276C94.2017 106.473 93.8569 106.643 93.5407 106.875Z" fill="#D7DBE6"/>
<path d="M93.8644 107.472C93.8603 107.467 93.9266 107.402 94.0607 107.284C94.1985 107.172 94.4063 107.009 94.7008 106.84C95.2806 106.508 96.2481 106.127 97.4758 106.242C98.0799 106.301 98.7289 106.424 99.4268 106.529C100.123 106.631 100.875 106.723 101.655 106.638C102.438 106.559 103.239 106.328 104.068 106.083C104.896 105.84 105.774 105.585 106.704 105.522C107.627 105.447 108.549 105.506 109.394 105.754C109.816 105.876 110.219 106.04 110.592 106.24C110.965 106.433 111.312 106.694 111.582 106.996C112.132 107.596 112.487 108.305 112.651 109.008C112.731 109.359 112.755 109.722 112.684 110.055C112.618 110.388 112.488 110.691 112.327 110.952C112.006 111.479 111.571 111.848 111.168 112.109C110.762 112.372 110.382 112.541 110.071 112.671C109.758 112.799 109.511 112.886 109.343 112.944C109.176 113.001 109.086 113.027 109.084 113.021C109.081 113.015 109.167 112.976 109.33 112.907C109.493 112.838 109.735 112.74 110.041 112.602C110.345 112.462 110.716 112.284 111.108 112.019C111.498 111.754 111.909 111.391 112.209 110.881C112.514 110.379 112.68 109.72 112.494 109.045C112.332 108.373 111.981 107.689 111.451 107.118C110.928 106.54 110.154 106.181 109.342 105.937C108.522 105.699 107.625 105.643 106.719 105.716C104.902 105.849 103.291 106.677 101.673 106.817C100.866 106.899 100.101 106.798 99.4022 106.689C98.7018 106.576 98.0553 106.445 97.4621 106.378C96.2716 106.25 95.319 106.599 94.7369 106.907C94.1482 107.225 93.8775 107.489 93.8644 107.472Z" fill="#1E397D"/>
<path d="M109.084 113.021C109.073 113.029 109.002 112.949 108.882 112.794C108.819 112.719 108.751 112.621 108.679 112.502C108.605 112.385 108.519 112.251 108.443 112.094C108.272 111.787 108.121 111.396 107.976 110.957C107.845 110.512 107.737 110.013 107.678 109.481C107.627 108.948 107.632 108.437 107.67 107.975C107.722 107.515 107.79 107.101 107.896 106.767C107.938 106.597 107.995 106.449 108.044 106.319C108.09 106.188 108.137 106.078 108.183 105.991C108.27 105.816 108.323 105.723 108.336 105.728C108.369 105.743 108.185 106.133 108.029 106.801C107.942 107.133 107.89 107.54 107.848 107.99C107.821 108.442 107.821 108.941 107.871 109.461C107.928 109.981 108.029 110.469 108.148 110.906C108.28 111.338 108.414 111.726 108.566 112.033C108.854 112.656 109.113 113 109.084 113.021Z" fill="#1D191F"/>
<path d="M94.9134 106.147C94.9607 106.174 94.9022 106.367 94.8073 106.591C94.7116 106.814 94.6121 106.991 94.5604 106.975C94.5097 106.959 94.5284 106.749 94.6289 106.515C94.7283 106.28 94.8672 106.121 94.9134 106.147Z" fill="#1E397D"/>
<path d="M96.5039 105.526C96.553 105.549 96.5136 105.741 96.4406 105.965C96.3668 106.188 96.2849 106.366 96.232 106.355C96.1803 106.344 96.1788 106.139 96.2562 105.904C96.333 105.669 96.4555 105.504 96.5039 105.526Z" fill="#1E397D"/>
<path d="M98.546 105.489C98.597 105.506 98.5706 105.725 98.4876 105.979C98.4045 106.232 98.2958 106.425 98.2448 106.408C98.1937 106.391 98.2202 106.172 98.3032 105.918C98.3866 105.664 98.4954 105.472 98.546 105.489Z" fill="#1E397D"/>
<path d="M100.465 105.728C100.516 105.743 100.498 105.963 100.424 106.22C100.35 106.477 100.248 106.673 100.196 106.658C100.145 106.643 100.163 106.423 100.237 106.166C100.311 105.909 100.413 105.713 100.465 105.728Z" fill="#1E397D"/>
<path d="M102.082 106.741C102.029 106.74 101.986 106.481 101.988 106.161C101.99 105.841 102.035 105.582 102.089 105.583C102.142 105.583 102.184 105.842 102.182 106.162C102.181 106.482 102.135 106.741 102.082 106.741Z" fill="#1E397D"/>
<path d="M103.883 106.284C103.83 106.292 103.754 106.062 103.714 105.77C103.674 105.479 103.684 105.237 103.737 105.23C103.79 105.223 103.866 105.453 103.906 105.744C103.946 106.035 103.936 106.277 103.883 106.284Z" fill="#1E397D"/>
<path d="M105.537 104.655C105.59 104.644 105.676 104.863 105.728 105.143C105.781 105.422 105.781 105.657 105.729 105.667C105.676 105.677 105.591 105.458 105.538 105.178C105.485 104.899 105.485 104.665 105.537 104.655Z" fill="#1E397D"/>
<path d="M107.682 104.261C107.735 104.272 107.714 104.578 107.637 104.945C107.559 105.311 107.453 105.6 107.401 105.588C107.349 105.577 107.369 105.271 107.447 104.904C107.524 104.538 107.63 104.249 107.682 104.261Z" fill="#1E397D"/>
<path d="M109.521 104.312C109.57 104.334 109.439 104.673 109.228 105.069C109.017 105.465 108.81 105.763 108.764 105.735C108.718 105.706 108.85 105.367 109.057 104.978C109.265 104.588 109.473 104.29 109.521 104.312Z" fill="#1E397D"/>
<path d="M111.396 104.806C111.44 104.835 111.268 105.179 111.011 105.573C110.753 105.968 110.508 106.264 110.463 106.235C110.418 106.206 110.59 105.862 110.848 105.468C111.105 105.073 111.351 104.777 111.396 104.806Z" fill="#1E397D"/>
<path d="M112.601 105.936C112.644 105.966 112.481 106.277 112.236 106.63C111.99 106.984 111.755 107.245 111.711 107.215C111.667 107.184 111.831 106.873 112.076 106.519C112.322 106.167 112.557 105.905 112.601 105.936Z" fill="#1E397D"/>
<path d="M113.445 107.374C113.487 107.405 113.321 107.707 113.038 108.019C112.756 108.332 112.472 108.527 112.437 108.487C112.4 108.446 112.62 108.193 112.895 107.889C113.17 107.586 113.401 107.342 113.445 107.374Z" fill="#1E397D"/>
<path d="M113.322 109.567C113.364 109.598 113.267 109.779 113.047 109.875C112.828 109.973 112.629 109.922 112.634 109.87C112.635 109.815 112.795 109.777 112.969 109.698C113.144 109.623 113.28 109.531 113.322 109.567Z" fill="#1E397D"/>
<path d="M112.13 111.444C112.147 111.495 112.094 111.557 112.014 111.543C111.933 111.529 111.904 111.452 111.938 111.411C111.971 111.368 112.017 111.348 112.047 111.352C112.077 111.359 112.113 111.393 112.13 111.444Z" fill="#1E397D"/>
<path d="M99.1436 112.188C99.0911 112.157 99.5785 111.453 99.7524 110.443C99.9409 109.436 99.7286 108.607 99.7889 108.596C99.8303 108.572 100.14 109.418 99.9435 110.478C99.7588 111.539 99.1741 112.225 99.1436 112.188Z" fill="#1D191F"/>
<path d="M100.679 112.011C100.627 111.979 101.087 111.335 101.236 110.401C101.4 109.47 101.176 108.711 101.235 108.698C101.275 108.671 101.599 109.447 101.428 110.433C101.268 111.422 100.709 112.049 100.679 112.011Z" fill="#1D191F"/>
<path d="M102.611 112.023C102.559 111.99 103.105 111.312 103.285 110.293C103.482 109.277 103.214 108.449 103.274 108.437C103.296 108.429 103.393 108.624 103.467 108.966C103.541 109.307 103.573 109.8 103.476 110.328C103.378 110.857 103.172 111.305 102.981 111.597C102.789 111.891 102.628 112.038 102.611 112.023Z" fill="#1D191F"/>
<path d="M104.793 111.893C104.738 111.866 105.171 111.124 105.295 110.099C105.432 109.076 105.198 108.249 105.258 108.236C105.299 108.213 105.629 109.052 105.487 110.124C105.356 111.197 104.827 111.927 104.793 111.893Z" fill="#1D191F"/>
<path d="M98.7534 110.257C98.7556 110.268 98.6454 110.307 98.4372 110.301C98.2309 110.294 97.9267 110.225 97.6083 110.03C97.2884 109.836 96.9756 109.515 96.6825 109.134C96.5384 108.946 96.3694 108.742 96.2807 108.469C96.2383 108.334 96.22 108.184 96.2472 108.032C96.2729 107.881 96.3582 107.731 96.48 107.631C96.7246 107.427 97.0557 107.389 97.3279 107.471C97.6016 107.552 97.8172 107.719 97.9926 107.891C98.3423 108.24 98.5627 108.633 98.6923 108.978C98.8219 109.324 98.8632 109.622 98.8744 109.825C98.8837 110.03 98.8666 110.142 98.855 110.142C98.8182 110.147 98.8413 109.685 98.565 109.029C98.4253 108.706 98.2026 108.34 97.8682 108.02C97.7021 107.863 97.5044 107.718 97.2761 107.654C97.0542 107.588 96.7879 107.625 96.6054 107.778C96.4192 107.927 96.3913 108.189 96.4625 108.413C96.5321 108.639 96.6836 108.835 96.8248 109.026C97.1056 109.405 97.3923 109.718 97.6831 109.914C98.2741 110.319 98.7608 110.224 98.7534 110.257Z" fill="#1D191F"/>
<path d="M98.6492 110.2C98.6615 110.205 98.6365 110.306 98.577 110.484C98.5155 110.661 98.425 110.919 98.2597 111.218C98.0955 111.513 97.84 111.86 97.4304 112.088C97.2282 112.202 96.9854 112.282 96.7247 112.282C96.4685 112.28 96.1676 112.195 95.9986 111.929C95.8347 111.651 95.9353 111.334 96.079 111.125C96.2287 110.911 96.4331 110.756 96.6398 110.655C97.0565 110.451 97.4606 110.391 97.7864 110.326C98.4437 110.203 98.8529 110.139 98.8585 110.165C98.8641 110.191 98.4653 110.302 97.8154 110.46C97.4926 110.542 97.099 110.618 96.7225 110.813C96.5352 110.91 96.362 111.049 96.2365 111.231C96.117 111.408 96.0555 111.653 96.1654 111.828C96.2726 112.006 96.5128 112.09 96.7262 112.091C96.9481 112.094 97.1619 112.029 97.3459 111.931C97.7197 111.733 97.9696 111.423 98.1424 111.148C98.4768 110.584 98.6149 110.184 98.6492 110.2Z" fill="#1D191F"/>
<path d="M98.5105 111.786C98.4677 111.749 98.6822 111.464 98.7451 111.048C98.8173 110.633 98.7049 110.294 98.757 110.273C98.7991 110.242 99.0173 110.599 98.9365 111.079C98.8609 111.559 98.541 111.828 98.5105 111.786Z" fill="#1D191F"/>
<path d="M99.3403 109.184C99.3905 109.199 99.3466 109.482 99.1824 109.788C99.0193 110.095 98.8081 110.288 98.7679 110.255C98.7251 110.221 98.858 109.986 99.0114 109.697C99.1664 109.409 99.2881 109.167 99.3403 109.184Z" fill="#1D191F"/>
<path d="M105.305 106.414C105.315 106.435 105.006 106.603 104.475 106.805C103.945 107.006 103.188 107.227 102.33 107.356C101.471 107.483 100.683 107.492 100.117 107.453C99.5511 107.415 99.207 107.344 99.21 107.32C99.2141 107.257 100.609 107.423 102.302 107.164C103.996 106.919 105.283 106.355 105.305 106.414Z" fill="#5D80D9"/>
<path d="M104.379 112.451C104.383 112.505 103.468 112.611 102.336 112.688C101.204 112.766 100.283 112.785 100.279 112.732C100.276 112.679 101.191 112.572 102.323 112.495C103.455 112.418 104.376 112.398 104.379 112.451Z" fill="#5D80D9"/>
<path d="M109.321 112.596C109.308 112.553 109.902 112.6 110.633 112.111C110.988 111.868 111.364 111.491 111.606 110.976C111.852 110.466 111.931 109.817 111.808 109.172C111.681 108.526 111.374 107.955 110.983 107.54C110.594 107.119 110.146 106.841 109.752 106.659C108.951 106.302 108.384 106.301 108.392 106.26C108.392 106.25 108.531 106.239 108.78 106.267C109.028 106.294 109.387 106.365 109.806 106.533C110.22 106.705 110.696 106.982 111.113 107.418C111.532 107.848 111.865 108.452 111.998 109.136C112.129 109.819 112.039 110.511 111.767 111.054C111.499 111.599 111.09 111.986 110.708 112.226C110.32 112.464 109.959 112.564 109.71 112.595C109.46 112.626 109.32 112.604 109.321 112.596Z" fill="#5D80D9"/>
<path d="M85.7649 103.442L95.4611 107.742C95.4611 107.742 95.6555 109.73 94.8657 111.346C94.1563 112.798 92.0065 112.507 92.0065 112.507L83.4893 110.526L85.3873 109.412L85.7649 103.442Z" fill="#CDD8F3"/>
<path d="M94.4171 112.108C94.0458 111.825 93.6705 111.539 93.3759 111.177C93.0813 110.815 92.871 110.364 92.8855 109.898C92.8985 109.474 93.0921 109.078 93.3029 108.711C93.5364 108.303 93.8254 107.886 94.2652 107.721C94.801 107.52 95.3961 107.75 95.907 108.008L96.0102 110.166L94.4171 112.108Z" fill="#D7DBE6"/>
<path d="M95.461 107.742C95.4394 107.791 93.2509 106.868 90.5738 105.68C87.8956 104.492 85.7428 103.49 85.7648 103.441C85.7864 103.392 87.9746 104.315 90.6524 105.503C93.3295 106.691 95.4826 107.693 95.461 107.742Z" fill="#5D80D9"/>
<path d="M106.471 68.6967C106.858 68.7094 107.187 68.41 107.2 68.0234C107.31 64.965 105.291 58.0297 104.323 55.1522C103.731 53.392 101.732 52.1098 100.333 51.1632C98.6423 50.02 92.6625 48.6206 90.6959 48.0754L90.0331 48.0761L80.8988 47.3936L75.8697 49.8048C75.8697 49.8048 68.8949 52.4457 66.8728 56.1245C64.8511 59.8037 63.3131 70.6 63.3131 70.6C63.3131 70.6 62.3866 73.6822 63.3131 75.0746C63.89 75.9411 66.0372 76.6923 67.971 77.0635C66.9249 80.5483 67.7498 83.1349 67.7125 83.5796C67.6362 84.4964 66.9335 86.6283 68.5817 86.4968C70.2299 86.3654 83.132 82.9607 86.9616 82.808C90.7912 82.6553 94.1587 83.9169 96.2515 85.0881C98.1839 86.1691 98.1667 86.2492 98.8545 84.3389C99.5423 82.4285 97.3441 80.2865 97.3441 80.2865C97.3441 80.2865 99.3204 73.1557 100.237 68.4949L106.471 68.6967Z" fill="#1E397D"/>
<path d="M75.7631 64.5593C75.7527 64.5675 75.6499 64.4565 75.4737 64.2491C75.2719 64.0093 75.0243 63.7147 74.7323 63.3677C74.0993 62.6326 73.229 61.6044 72.1141 60.6362C71.5559 60.154 70.9932 59.7313 70.4476 59.3999C69.8984 59.0778 69.386 58.8122 68.9309 58.6499C68.0282 58.3051 67.4268 58.2209 67.4346 58.1811C67.4369 58.1676 67.5862 58.1851 67.8569 58.2283C67.9929 58.2462 68.1574 58.2786 68.3444 58.3319C68.5328 58.3803 68.7488 58.4328 68.9778 58.5214C69.4467 58.6696 69.9747 58.9273 70.5392 59.2468C71.0997 59.5756 71.6754 60.0013 72.2407 60.4899C73.3709 61.4715 74.23 62.5212 74.8381 63.2809C75.1386 63.6648 75.3758 63.9799 75.533 64.2026C75.6916 64.4245 75.7739 64.5511 75.7631 64.5593Z" fill="#1D191F"/>
<path d="M74.0953 74.8539C74.0953 74.8673 73.9348 74.8792 73.6447 74.8897C73.3542 74.9008 72.9342 74.906 72.4147 74.9012C71.3765 74.8904 69.9376 74.8353 68.3646 74.6026C66.7913 74.3683 65.3989 73.9665 64.4322 73.5789C63.9485 73.3863 63.5642 73.2124 63.3076 73.0743C63.0495 72.9395 62.9102 72.8598 62.9162 72.8479C62.9318 72.8162 63.5075 73.1018 64.4802 73.4504C65.4514 73.8023 66.8326 74.1784 68.3933 74.4108C69.9536 74.6417 71.3835 74.7184 72.4184 74.7642C72.9047 74.7839 73.3151 74.8007 73.645 74.8141C73.9348 74.8271 74.0953 74.8405 74.0953 74.8539Z" fill="#1D191F"/>
<path d="M93.4336 78.3487C93.4452 78.3558 93.3971 78.4534 93.3003 78.625C93.2057 78.7978 93.0501 79.0373 92.8426 79.3221C92.4297 79.8926 91.7743 80.627 90.9245 81.2924C90.0724 81.9557 89.2007 82.4133 88.5475 82.6759C88.2209 82.8081 87.9509 82.9008 87.7603 82.9507C87.5704 83.0028 87.4639 83.0255 87.4601 83.0129C87.4501 82.982 87.8612 82.8431 88.4928 82.5504C89.1243 82.2592 89.9682 81.7914 90.8053 81.1398C91.6402 80.4859 92.2986 79.7806 92.7343 79.2387C93.1715 78.6965 93.4057 78.3316 93.4336 78.3487Z" fill="#1D191F"/>
<path d="M93.5995 81.2094C93.6137 81.2284 93.3932 81.4272 92.9925 81.689C92.5926 81.9512 92.0049 82.2655 91.3149 82.5109C90.6241 82.7548 89.9695 82.8803 89.4936 82.928C89.0173 82.9764 88.7209 82.9607 88.7197 82.9373C88.7138 82.8754 89.8954 82.8148 91.2497 82.328C92.6086 81.854 93.5656 81.1576 93.5995 81.2094Z" fill="#1D191F"/>
<path d="M104.323 55.1526C104.336 55.1559 104.32 55.2676 104.279 55.468C104.241 55.6687 104.167 55.9554 104.059 56.3051C103.846 57.0044 103.469 57.9503 102.908 58.9185C102.343 59.8856 101.707 60.6806 101.204 61.2117C100.953 61.4776 100.741 61.6835 100.585 61.8164C100.431 61.9509 100.341 62.0201 100.332 62.0101C100.31 61.987 100.631 61.6701 101.102 61.1201C101.574 60.5712 102.184 59.7746 102.74 58.8209C103.294 57.8661 103.685 56.943 103.929 56.2615C104.174 55.5804 104.292 55.1451 104.323 55.1526Z" fill="#1D191F"/>
<path d="M106.668 67.0612C106.668 67.0873 106.323 67.1159 105.766 67.1316C105.209 67.1472 104.438 67.1472 103.587 67.1148C102.737 67.0817 101.968 67.0221 101.414 66.9636C100.859 66.9052 100.518 66.8504 100.521 66.8244C100.523 66.7972 100.868 66.8035 101.424 66.827C102.051 66.8541 102.785 66.8858 103.595 66.9212C104.406 66.9487 105.139 66.9733 105.767 66.9945C106.323 67.0135 106.668 67.0336 106.668 67.0612Z" fill="#1D191F"/>
<path d="M99.3916 56.3837C99.4047 56.3815 99.4497 56.5568 99.5194 56.8756C99.5942 57.232 99.6892 57.6856 99.8031 58.2281C100.033 59.3714 100.364 60.9529 100.561 62.7292C100.758 64.5069 100.702 66.1376 100.539 67.2972C100.456 67.8767 100.37 68.3433 100.288 68.6598C100.211 68.9778 100.162 69.1517 100.149 69.1488C100.136 69.1458 100.16 68.9663 100.214 68.6449C100.273 68.325 100.337 67.8581 100.403 67.2809C100.53 66.1257 100.564 64.5151 100.369 62.75C100.173 60.9864 99.8642 59.4037 99.6687 58.2538C99.5696 57.6788 99.4914 57.213 99.4456 56.8894C99.3983 56.5658 99.3786 56.3859 99.3916 56.3837Z" fill="#1D191F"/>
<path d="M75.763 65.848C75.7764 65.8499 75.7668 66.0026 75.7385 66.2774C75.7102 66.5522 75.6621 66.9488 75.5977 67.4381C75.467 68.4164 75.2696 69.7663 74.9978 71.2488C74.7256 72.7316 74.4168 74.0644 74.1204 75.0099C73.9752 75.4832 73.8277 75.8574 73.7171 76.1114C73.595 76.3613 73.5224 76.4957 73.5101 76.4898C73.4807 76.4756 73.7417 75.9248 73.9886 74.9712C74.2493 74.0231 74.5353 72.6925 74.8067 71.2134C75.0782 69.7346 75.2968 68.39 75.4618 67.4177C75.5415 66.9637 75.6089 66.579 75.6636 66.2666C75.7154 65.9955 75.75 65.8462 75.763 65.848Z" fill="#1D191F"/>
<path d="M74.5091 59.913C74.5318 59.9029 74.6837 60.1781 74.8807 60.6451C75.0781 61.1121 75.313 61.7742 75.5033 62.5249C75.6925 63.2764 75.8005 63.9709 75.8485 64.4755C75.8969 64.9804 75.8943 65.2944 75.8694 65.2962C75.8105 65.3014 75.6947 64.058 75.3153 62.5726C74.9436 61.0856 74.4547 59.9361 74.5091 59.913Z" fill="#1D191F"/>
<path d="M85.0496 73.1207C85.0448 73.1177 85.0805 73.0451 85.1539 72.9077C85.2366 72.7572 85.3457 72.5584 85.4831 72.3089C85.7851 71.7745 86.21 71.0238 86.7377 70.0902C87.8288 68.1918 89.3448 65.5541 91.0864 62.5244L91.2089 62.6562C90.1096 63.1906 88.9217 63.7194 87.6783 64.2121C86.1798 64.806 84.7048 65.308 83.327 65.7146L83.0361 65.8003L83.2287 65.5668C85.3323 63.0133 87.1488 60.8084 88.4529 59.2258C89.096 58.4564 89.6121 57.8394 89.9797 57.3992C90.1521 57.1981 90.2895 57.038 90.3938 56.9163C90.4895 56.8075 90.5409 56.7528 90.5453 56.7561C90.5494 56.7595 90.5062 56.8213 90.4187 56.9364C90.3204 57.063 90.1908 57.2294 90.0281 57.4383C89.6706 57.8863 89.1686 58.5153 88.543 59.2992C87.2527 60.8926 85.4544 63.1128 83.3724 65.6837L83.2741 65.5359C84.6452 65.1255 86.1139 64.6232 87.6068 64.0311C88.8457 63.5399 90.0299 63.0152 91.127 62.486L91.4052 62.352L91.2495 62.6182C89.4844 65.6346 87.9479 68.2603 86.8423 70.1502C86.2942 71.0718 85.8536 71.8132 85.5397 72.3409C85.3911 72.5841 85.2727 72.7773 85.1833 72.9237C85.0999 73.0563 85.0545 73.1237 85.0496 73.1207Z" fill="#FAFAFA"/>
<g opacity="0.3">
<path d="M91.7291 83.3125C92.1674 83.4268 93.0119 82.0955 93.4975 81.2818C92.002 82.1089 90.572 83.0994 88.9019 82.7382C90.7765 82.278 92.2861 80.8022 92.9244 78.9805C91.6911 80.791 90.0991 82.0754 88.0313 82.7971C88.0305 82.7967 91.0319 83.1304 91.7291 83.3125Z" fill="#1D191F"/>
</g>
<path d="M74.5089 43.7613C74.5159 43.7434 74.764 43.8674 75.2432 43.9732C75.7113 44.0689 76.4661 44.156 77.2519 43.7758C77.6354 43.5847 78.0127 43.2693 78.264 42.8333C78.5199 42.4035 78.62 41.8353 78.4264 41.3061C78.2443 40.7863 77.7907 40.2947 77.1942 40.2046C76.6114 40.1156 75.9496 40.4869 75.7124 41.0685C75.5914 41.3575 75.6145 41.6856 75.7471 41.9596C75.8822 42.233 76.112 42.456 76.3771 42.599C76.64 42.7461 76.9387 42.8232 77.2269 42.818C77.5178 42.8139 77.803 42.7391 78.0592 42.6225C78.5757 42.3875 78.9865 42.0062 79.303 41.6081C79.6206 41.2067 79.8552 40.7855 80.0176 40.3804C80.349 39.5689 80.4079 38.8454 80.4067 38.3575C80.4 37.866 80.3457 37.596 80.3639 37.593C80.3706 37.5919 80.3878 37.6582 80.4142 37.7863C80.4399 37.9144 80.4678 38.1062 80.482 38.3553C80.5062 38.8498 80.4686 39.5905 80.145 40.4306C79.9863 40.8499 79.7525 41.2879 79.4292 41.7072C79.1064 42.1235 78.6837 42.5279 78.1329 42.7845C77.8592 42.9115 77.5517 42.9956 77.2299 43.0027C76.9063 43.0098 76.5771 42.9264 76.2848 42.7647C75.991 42.6069 75.7307 42.36 75.5732 42.0431C75.4175 41.7276 75.3899 41.3337 75.5318 40.9959C75.8122 40.3234 76.5417 39.9164 77.2225 40.0162C77.9091 40.1256 78.3999 40.6771 78.5947 41.2465C78.8036 41.8297 78.6837 42.4594 78.4026 42.9137C78.1259 43.3784 77.7207 43.7043 77.3118 43.8983C76.4725 44.2826 75.6975 44.1649 75.2257 44.0458C74.984 43.9817 74.8034 43.9102 74.6843 43.8558C74.5655 43.8019 74.5063 43.7668 74.5089 43.7613Z" fill="#1D191F"/>
<path d="M103.705 35.5647C103.85 34.0535 103.359 32.4698 102.301 31.3809C101.243 30.292 99.616 29.7528 98.1384 30.101C97.0831 30.3494 96.0534 30.7646 95.3056 31.5783C94.998 31.9235 94.94 31.989 94.7288 32.4005C94.7042 32.4474 94.6804 32.4958 94.6573 32.545C94.6279 32.6061 94.6003 32.6679 94.5732 32.7301C94.5687 32.7405 94.5638 32.7498 94.5594 32.7602L94.562 32.7561C94.1103 33.8085 93.9751 34.9964 94.2339 36.1113C94.6268 37.8046 95.9365 39.2699 97.5947 39.7917C99.2529 40.3137 101.198 39.8427 102.39 38.578C103.156 37.7659 103.599 36.6759 103.705 35.5647Z" fill="#1D191F"/>
<path d="M103.037 38.0488C103.003 38.0555 102.936 37.6265 102.675 36.989C102.419 36.3545 101.93 35.5144 101.148 34.8173C100.366 34.1198 99.475 33.731 98.8152 33.5493C98.1516 33.3631 97.7181 33.3459 97.7207 33.3117C97.7211 33.2994 97.8298 33.2908 98.0257 33.2987C98.2219 33.3061 98.5053 33.3385 98.849 33.4163C99.5331 33.5675 100.466 33.9492 101.277 34.6724C102.088 35.3948 102.574 36.2778 102.803 36.9399C102.92 37.2724 102.984 37.5502 103.015 37.7442C103.045 37.9382 103.049 38.047 103.037 38.0488Z" fill="#1E397D"/>
<path d="M101.583 35.1081C101.604 35.1159 101.502 35.4619 101.242 35.9828C100.983 36.5023 100.544 37.1886 99.9185 37.8258C99.291 38.4611 98.6114 38.9109 98.0964 39.1779C97.5795 39.446 97.2355 39.5529 97.2273 39.5328C97.1911 39.4714 98.5537 38.9422 99.7804 37.6899C101.013 36.4439 101.521 35.0727 101.583 35.1081Z" fill="#1E397D"/>
<path d="M97.5646 33.5084C97.5069 33.4756 97.9538 32.7576 98.325 31.8095C98.7071 30.857 98.6591 30.0116 98.7161 30.0101C98.7388 30.0079 98.7876 30.2172 98.7809 30.5631C98.776 30.9083 98.6941 31.3861 98.5068 31.878C98.1214 32.8597 97.5978 33.5311 97.5646 33.5084Z" fill="#5D80D9"/>
<path d="M91.0796 51.7228C91.0763 51.7819 91.0796 51.7228 91.0796 51.7228V51.7228Z" fill="#CDD8F3"/>
<path d="M97.6205 32.2107C97.797 27.8593 94.5666 23.9403 90.1564 23.4994C85.4773 23.0313 81.4101 26.4528 81.1085 31.0075L80.3577 49.3893C80.3432 49.7449 80.4508 50.0938 80.6571 50.3839C81.7646 51.9394 83.7413 53.1355 85.4892 53.3451C87.1829 53.5481 88.8884 53.077 90.3091 52.2514C90.7902 51.9718 91.0788 51.4493 91.0784 50.8926L91.0765 46.7811C91.0765 46.7654 91.0881 46.7528 91.1041 46.7535C91.3588 46.7673 92.0079 46.7651 92.2555 46.6999C93.3381 46.4146 96.0889 45.2975 96.942 41.2135C97.2243 39.8588 97.4656 36.025 97.6205 32.2107Z" fill="#CDD8F3"/>
<path d="M91.6959 38.3265C91.6944 38.2859 92.1487 38.2323 92.8838 38.1776C93.07 38.1683 93.2469 38.1411 93.2838 38.0182C93.3333 37.889 93.2648 37.6886 93.1847 37.4723C93.0309 37.0228 92.8697 36.5517 92.7002 36.058C92.0296 34.0448 91.5529 32.3937 91.6352 32.3683C91.7175 32.343 92.3282 33.954 92.9989 35.9671C93.1598 36.4631 93.3139 36.936 93.4603 37.3885C93.521 37.5989 93.6308 37.8398 93.5236 38.1079C93.4677 38.2416 93.327 38.3332 93.2067 38.3586C93.0864 38.388 92.9821 38.3846 92.8902 38.3854C92.1532 38.3872 91.697 38.3675 91.6959 38.3265Z" fill="#1D191F"/>
<path d="M95.8514 34.9524C95.848 35.3032 95.5434 35.5873 95.1706 35.5881C94.799 35.5888 94.4996 35.3058 94.503 34.955C94.5067 34.6046 94.8113 34.3197 95.1829 34.319C95.5553 34.3182 95.8547 34.602 95.8514 34.9524Z" fill="#1D191F"/>
<path d="M96.5211 32.9288C96.4548 33.0014 95.9144 32.9668 95.227 33.1995C94.5388 33.4267 94.089 33.7923 94.0015 33.7707C93.959 33.7626 94.0164 33.6523 94.2111 33.4896C94.4025 33.3287 94.7474 33.1187 95.1764 32.9753C95.6054 32.8323 95.9904 32.7977 96.2224 32.8171C96.4592 32.8361 96.5542 32.8953 96.5211 32.9288Z" fill="#1D191F"/>
<path d="M88.865 34.4946C88.8617 34.845 88.5567 35.1296 88.1843 35.1303C87.8127 35.131 87.5133 34.848 87.5166 34.4976C87.52 34.1472 87.825 33.8623 88.1966 33.8616C88.5694 33.8605 88.8684 34.1438 88.865 34.4946Z" fill="#1D191F"/>
<path d="M89.1025 33.5249C88.9971 33.5298 88.6016 33.1023 87.8941 32.7645C87.1899 32.4219 86.5687 32.3597 86.5162 32.2785C86.4894 32.2409 86.6149 32.2011 86.8879 32.2253C87.1564 32.2476 87.5802 32.3478 88.0207 32.5597C88.4605 32.7719 88.7859 33.0326 88.9524 33.2196C89.1222 33.4095 89.1531 33.5242 89.1025 33.5249Z" fill="#1D191F"/>
<path d="M91.0762 46.7521C91.0762 46.7521 88.2647 46.8355 84.8555 44.587C84.8555 44.587 85.7946 48.2834 91.0784 48.067L91.0762 46.7521Z" fill="#5D80D9"/>
<path d="M91.3108 40.0297C91.0654 39.6774 90.6166 39.4678 90.1605 39.4927C89.8443 39.5099 89.5192 39.6432 89.3163 39.8852C89.1133 40.1276 89.0571 40.4833 89.2198 40.7324C89.4034 41.0128 89.8093 41.0962 90.1601 41.0173C90.5109 40.9383 90.8188 40.7294 91.1119 40.5201C91.1931 40.4624 91.2758 40.4021 91.3286 40.3198C91.3811 40.2375 91.3968 40.1277 91.3398 40.0543" fill="#5D80D9"/>
<path d="M89.5381 38.7113C89.6565 38.7105 89.6226 39.4847 90.2717 40.0683C90.9193 40.6536 91.7627 40.6093 91.7638 40.7181C91.7728 40.7672 91.5702 40.8588 91.2153 40.8503C90.8671 40.8443 90.3648 40.7088 89.9674 40.3516C89.5716 39.9938 89.4152 39.5354 89.4029 39.2162C89.388 38.8911 89.4845 38.7038 89.5381 38.7113Z" fill="#1D191F"/>
<path d="M89.5933 30.6453C89.4905 30.8245 88.7912 30.6096 87.9347 30.5634C87.0789 30.5001 86.361 30.6241 86.2787 30.4331C86.2429 30.3422 86.3911 30.1828 86.6961 30.045C86.9985 29.9073 87.4614 29.8067 87.9749 29.8391C88.488 29.8726 88.9364 30.0313 89.2216 30.207C89.5091 30.3821 89.6387 30.5597 89.5933 30.6453Z" fill="#1D191F"/>
<path d="M96.5076 30.7565C96.3724 30.9122 95.8804 30.7185 95.2798 30.6802C94.6806 30.621 94.1649 30.7323 94.0554 30.5573C94.0081 30.4724 94.0956 30.3141 94.3246 30.1722C94.5507 30.0307 94.923 29.9242 95.3353 29.9577C95.7475 29.9916 96.0987 30.1566 96.3001 30.3331C96.5053 30.51 96.5675 30.6802 96.5076 30.7565Z" fill="#1D191F"/>
<path d="M90.7849 22.5684C90.3936 21.9305 89.6823 21.649 88.8925 21.5443C85.6676 21.1176 82.1132 23.1214 80.3622 25.8629C78.6112 28.6044 78.5904 32.646 79.9656 35.5941L81.1755 35.7826C83.6854 35.5852 87.7809 28.5057 91.2314 24.573C91.6597 24.0848 91.1249 23.1225 90.7849 22.5684Z" fill="#1D191F"/>
<path d="M96.9815 24.5631C95.6074 23.0583 93.3868 21.2325 90.6141 22.3482C90.2175 23.138 91.065 24.1371 91.7681 24.7173C92.7974 25.5667 93.6937 26.1368 94.37 26.746C95.7374 27.9775 97.4414 30.0253 97.6161 32.3285C97.6272 32.473 97.7378 32.492 97.8827 32.4667C98.0704 32.4343 98.4856 31.4847 98.6837 30.2286C99.1064 27.55 98.3556 26.0679 96.9815 24.5631Z" fill="#1D191F"/>
<path d="M81.3716 31.575C81.229 30.9643 80.933 30.3867 80.5248 29.9045C80.2563 29.5868 79.9402 29.3094 79.5846 29.0942C78.286 28.3081 76.5716 28.3196 75.2299 29.0301C73.8881 29.7403 72.9333 31.0957 72.6056 32.5782C72.3647 33.6682 72.4507 34.842 72.9292 35.8504C73.6744 37.4207 75.3796 38.4679 77.1179 38.4817C78.8562 38.4958 80.5531 37.5049 81.4487 36.015C82.0803 34.9637 81.915 33.1085 81.3716 31.575Z" fill="#1D191F"/>
<path d="M81.9469 34.3015C81.8716 34.262 78.8784 33.1426 78.7481 36.271C78.6177 39.3995 81.7856 38.8848 81.7946 38.7955C81.8039 38.7061 81.9469 34.3015 81.9469 34.3015Z" fill="#CDD8F3"/>
<path d="M80.8889 37.5707C80.8755 37.5599 80.8327 37.6065 80.7389 37.6448C80.6472 37.6821 80.492 37.704 80.3311 37.6363C80.0056 37.5011 79.749 36.9648 79.7576 36.4003C79.7613 36.1154 79.8325 35.8466 79.9427 35.6265C80.0477 35.4016 80.2026 35.2478 80.3702 35.2251C80.5374 35.1938 80.651 35.298 80.6856 35.3878C80.724 35.4772 80.7016 35.5386 80.718 35.5446C80.7262 35.5528 80.7873 35.495 80.7675 35.3647C80.7571 35.3021 80.7236 35.2269 80.6528 35.1636C80.5802 35.0992 80.4711 35.0638 80.3549 35.0716C80.1129 35.0783 79.8865 35.291 79.7654 35.533C79.631 35.7754 79.5446 36.0771 79.5401 36.397C79.5338 37.0282 79.8321 37.6314 80.279 37.7811C80.4968 37.8478 80.683 37.7889 80.7809 37.7193C80.88 37.6459 80.8997 37.5767 80.8889 37.5707Z" fill="#5D80D9"/>
<path d="M97.6252 25.1893C97.6275 25.2131 97.2812 25.2753 96.7136 25.3092C96.1469 25.3435 95.3582 25.3383 94.4953 25.2347C93.6329 25.1297 92.8654 24.9472 92.3228 24.7789C91.7799 24.611 91.4581 24.468 91.466 24.4453C91.4753 24.4173 91.8119 24.5138 92.3589 24.6467C92.906 24.78 93.6671 24.9387 94.5184 25.0422C95.3697 25.1442 96.1469 25.1711 96.7095 25.1722C97.273 25.1737 97.6226 25.1603 97.6252 25.1893Z" fill="#1E397D"/>
<path d="M98.6795 27.433C98.6847 27.455 98.4296 27.5425 97.9984 27.5943C97.5686 27.6468 96.9605 27.6445 96.3103 27.5038C95.6605 27.3608 95.1068 27.109 94.7377 26.8823C94.3672 26.6555 94.1725 26.4697 94.1862 26.4518C94.2183 26.3978 95.0829 27.0461 96.3517 27.3146C97.6163 27.5995 98.6728 27.3705 98.6795 27.433Z" fill="#1E397D"/>
<path d="M79.9639 26.9306C79.9691 26.8911 80.642 27.0114 81.7338 26.9812C82.2801 26.9786 82.9266 26.897 83.6386 26.7861C84.3476 26.6524 85.1185 26.4617 85.9087 26.1981C86.6974 25.9281 87.4254 25.6097 88.0741 25.2924C88.715 24.9606 89.284 24.6426 89.7372 24.3361C90.6525 23.7377 91.1634 23.2875 91.1873 23.315C91.1962 23.3251 91.0737 23.4431 90.8443 23.6487C90.7315 23.7541 90.5866 23.8747 90.4123 24.0069C90.2399 24.1421 90.0444 24.297 89.8143 24.4493C89.367 24.7729 88.7992 25.1066 88.1557 25.4511C87.5044 25.7806 86.7696 26.1079 85.9716 26.3809C85.1717 26.6479 84.389 26.8356 83.6695 26.9615C82.9463 27.0646 82.2898 27.1324 81.7368 27.1175C81.4605 27.1249 81.211 27.1056 80.9924 27.0884C80.7735 27.0765 80.5858 27.0553 80.4338 27.0263C80.1281 26.9771 79.9617 26.9436 79.9639 26.9306Z" fill="#1E397D"/>
<path d="M90.9788 24.4114C90.99 24.4185 90.901 24.5727 90.7293 24.8464C90.6448 24.9842 90.5383 25.151 90.399 25.3335C90.2608 25.5167 90.1152 25.7349 89.9238 25.952C89.56 26.4015 89.0874 26.9061 88.5173 27.4174C87.9416 27.9216 87.2691 28.4336 86.5094 28.8879C85.7456 29.3355 84.9729 29.68 84.2523 29.9395C83.5277 30.1887 82.8563 30.3555 82.285 30.4482C82.0016 30.5078 81.7395 30.5246 81.512 30.5529C81.2844 30.583 81.0867 30.5908 80.9251 30.5942C80.6022 30.6046 80.4242 30.6039 80.4238 30.5905C80.4212 30.5506 81.1366 30.535 82.2601 30.3134C82.822 30.2047 83.4808 30.0263 84.192 29.7716C84.8996 29.5065 85.6577 29.1624 86.4103 28.7215C87.1588 28.2738 87.8247 27.7737 88.3993 27.2833C88.9683 26.7858 89.4453 26.2972 89.8188 25.8638C90.5684 24.9965 90.9464 24.3898 90.9788 24.4114Z" fill="#1E397D"/>
<path d="M88.8916 21.5444C88.8905 21.5239 89.1359 21.4904 89.5195 21.5872C89.8982 21.6855 90.4024 21.9432 90.8049 22.3971C90.9036 22.5118 90.9941 22.6291 91.0664 22.7558C91.1423 22.8835 91.1833 23.0254 91.2205 23.1389C91.3002 23.378 91.3676 23.6018 91.3974 23.7966C91.4607 24.1906 91.3713 24.4322 91.3512 24.4248C91.3196 24.4207 91.3561 24.1842 91.263 23.8238C91.2183 23.6435 91.1412 23.4346 91.0518 23.1978C91.0053 23.0734 90.9699 22.9594 90.9021 22.8511C90.8362 22.7397 90.7513 22.6314 90.6601 22.5252C90.2847 22.1022 89.8267 21.8434 89.4789 21.7175C89.1273 21.5939 88.8898 21.5771 88.8916 21.5444Z" fill="#1E397D"/>
<path d="M80.6354 34.0295C80.6038 34.0195 80.6987 33.7063 80.7643 33.1902C80.8306 32.6759 80.8458 31.9483 80.6485 31.1834C80.4489 30.4185 80.0556 29.8052 79.7026 29.4287C79.3492 29.0503 79.0714 28.8738 79.0919 28.8433C79.099 28.8321 79.1723 28.8682 79.3008 28.945C79.4319 29.0172 79.6043 29.1501 79.8005 29.3326C80.1923 29.6972 80.628 30.3347 80.8361 31.1342C81.0421 31.933 81.0026 32.6897 80.8998 33.2114C80.797 33.7365 80.6544 34.037 80.6354 34.0295Z" fill="#5D80D9"/>
<path d="M80.8694 33.3401C80.8511 33.3677 80.4668 33.1197 79.8092 32.7946C79.1527 32.4688 78.2083 32.0885 77.1176 31.8435C76.0257 31.6018 75.0095 31.5445 74.2766 31.5605C73.543 31.575 73.0898 31.6365 73.085 31.6037C73.0828 31.5907 73.1941 31.5635 73.3982 31.5255C73.6019 31.4849 73.9001 31.4484 74.2707 31.4238C75.011 31.3724 76.0481 31.4082 77.1597 31.6547C78.2697 31.9042 79.2238 32.312 79.8721 32.6736C80.1968 32.8534 80.4519 33.0132 80.6188 33.1364C80.7875 33.2571 80.8768 33.329 80.8694 33.3401Z" fill="#1E397D"/>
<path d="M78.0209 32.0977C78.0425 32.1033 77.9811 32.4615 77.787 33.0153C77.5941 33.5682 77.2501 34.31 76.7388 35.0481C76.2253 35.7851 75.6503 36.3667 75.1993 36.7402C74.748 37.1152 74.4337 37.2977 74.421 37.2795C74.3782 37.2303 75.578 36.3958 76.5798 34.9375C77.5964 33.4904 77.9598 32.0746 78.0209 32.0977Z" fill="#1E397D"/>
<path d="M80.0805 38.173C80.1033 38.113 80.2157 38.0788 80.4019 38.1272C80.5848 38.1752 80.8443 38.3134 81.0573 38.6154C81.2726 38.9099 81.394 39.4175 81.2148 39.9117C81.1288 40.1578 80.9646 40.408 80.7155 40.5909C80.4693 40.7715 80.1673 40.8698 79.8586 40.8773C79.5518 40.8873 79.2375 40.7972 78.9932 40.6356C78.7481 40.4766 78.5683 40.2632 78.4495 40.0379C78.3311 39.8059 78.2711 39.5847 78.2715 39.33C78.2771 39.0943 78.3352 38.9099 78.4067 38.7468C78.5515 38.4243 78.7817 38.2102 78.9801 38.1398C79.1786 38.0668 79.2978 38.1167 79.3123 38.1767C79.335 38.3108 79.1 38.4906 79.0621 38.949C79.0509 39.0578 79.0502 39.1848 79.0744 39.2846C79.0941 39.3642 79.1485 39.4927 79.22 39.5858C79.3711 39.7884 79.5845 39.9187 79.8351 39.9087C80.0973 39.8971 80.2779 39.7813 80.3881 39.5746C80.4984 39.3646 80.511 39.1363 80.4511 38.936C80.3289 38.5197 80.0258 38.2992 80.0805 38.173Z" fill="#1E397D"/>
<path d="M83.251 33.224C83.2469 33.1778 84.0028 33.2485 85.1349 32.8933C86.2599 32.5533 87.7219 31.6931 88.8539 30.2836C89.9852 28.8707 90.587 27.3119 90.9415 26.1855C91.1192 25.6187 91.2406 25.1525 91.3221 24.8296C91.404 24.5067 91.4506 24.328 91.4644 24.3306C91.4767 24.3328 91.4551 24.5168 91.3958 24.8456C91.3366 25.1744 91.235 25.6481 91.0726 26.2246C90.7494 27.3693 90.1603 28.9612 89.0047 30.405C87.8466 31.8476 86.334 32.7115 85.1744 33.0244C84.5938 33.1875 84.1064 33.2444 83.7708 33.2493C83.6033 33.2601 83.4726 33.2444 83.3847 33.2422C83.2964 33.237 83.2506 33.2307 83.251 33.224Z" fill="#1D191F"/>
<path d="M90.9741 49.5114C90.9763 49.5069 91.0441 49.5345 91.1614 49.6075C91.2784 49.6812 91.4407 49.8115 91.6049 50.0197C91.7692 50.2268 91.9259 50.5202 92.0157 50.8874C92.1077 51.2523 92.1181 51.7003 91.9818 52.1587C91.7237 53.083 90.8691 53.9894 89.6994 54.4388C89.1189 54.6719 88.4758 54.8138 87.8077 54.9002C87.1393 54.9862 86.4388 55.0242 85.7231 54.9844C84.2927 54.9073 82.9376 54.4865 81.9054 53.7801C80.8642 53.0867 80.1604 52.1479 79.8133 51.272C79.6379 50.8341 79.55 50.4051 79.5616 50.0264C79.5694 49.6469 79.6807 49.3278 79.8152 49.1003C79.9492 48.8698 80.1052 48.7275 80.2173 48.6463C80.3309 48.5659 80.3998 48.5402 80.402 48.5447C80.4203 48.5626 80.1265 48.6825 79.8811 49.1368C79.7619 49.361 79.6673 49.6659 79.6699 50.0275C79.6688 50.3887 79.7619 50.7984 79.9403 51.2199C80.2933 52.0637 80.9867 52.9645 82.0044 53.6311C83.0132 54.3092 84.3307 54.714 85.7339 54.7904C86.4355 54.8295 87.1244 54.7933 87.7831 54.7114C88.4415 54.6291 89.0697 54.4936 89.6332 54.2724C90.7667 53.8464 91.5878 52.991 91.85 52.1185C92.1274 51.2396 91.8343 50.4662 91.5439 50.0644C91.2415 49.6481 90.9581 49.5315 90.9741 49.5114Z" fill="#1D191F"/>
<path d="M82.7802 54.3398C82.7296 54.3398 82.7195 53.9078 82.962 53.4494C83.201 52.9888 83.5619 52.7512 83.5906 52.7929C83.6278 52.8357 83.3511 53.1173 83.1336 53.5395C82.911 53.9585 82.8368 54.3461 82.7802 54.3398Z" fill="#1D191F"/>
<path d="M86.2752 55.0011C86.2216 54.9989 86.1918 54.6496 86.2089 54.2202C86.2257 53.7909 86.2827 53.4449 86.3363 53.4472C86.3899 53.4494 86.4193 53.7987 86.4026 54.2281C86.3858 54.657 86.3285 55.003 86.2752 55.0011Z" fill="#1D191F"/>
<path d="M89.7824 54.4824C89.7299 54.4932 89.6077 54.1149 89.5098 53.6375C89.4119 53.16 89.3746 52.7642 89.4271 52.7534C89.4797 52.7426 89.6014 53.1209 89.6997 53.5983C89.798 54.0757 89.8349 54.4716 89.7824 54.4824Z" fill="#1D191F"/>
<path d="M91.8309 52.25C91.7817 52.276 91.635 52.0809 91.3941 51.9245C91.1561 51.7629 90.92 51.7033 90.9249 51.6478C90.923 51.5961 91.2153 51.5715 91.5013 51.7629C91.7888 51.9524 91.8793 52.2314 91.8309 52.25Z" fill="#1D191F"/>
<path d="M80.928 50.8591C80.9362 50.9139 80.7307 50.9858 80.5326 51.1466C80.3307 51.3034 80.2146 51.4874 80.1628 51.4669C80.1125 51.4535 80.165 51.1894 80.4119 50.9947C80.6573 50.7988 80.9266 50.807 80.928 50.8591Z" fill="#1D191F"/>
<path d="M87.0537 75.7765C86.5026 75.759 86.1391 75.1892 86.3629 74.6854C87.3673 72.422 90.1107 68.0643 90.2924 67.7843C90.5504 67.387 90.689 66.9014 91.5224 66.8008C91.8441 66.7621 96.8725 66.647 98.0511 66.6206C98.244 66.6161 98.4357 66.6794 98.575 66.8131C98.8096 67.038 99.0524 67.4622 98.6823 68.1273C98.2641 68.8784 95.2261 73.5906 93.9917 75.4093C93.7474 75.7694 93.3351 75.9783 92.9002 75.9642L87.0537 75.7765Z" fill="#1D191F"/>
<path d="M94.8101 68.2469C94.7356 68.1088 94.4928 68.0942 94.4087 68.137C94.2668 68.1747 94.1633 68.264 94.0553 68.3635C93.9473 68.4629 93.8955 68.6401 93.9819 68.7589C94.0553 68.8599 94.1968 68.8833 94.3212 68.8721C94.4776 68.8584 94.6355 68.7999 94.7401 68.683C94.8451 68.566 94.8846 68.3847 94.8101 68.2469Z" fill="#FAFAFA"/>
<path d="M97.3972 69.2721C97.3853 69.2657 97.4557 69.1112 97.5927 68.8375C97.668 68.6904 97.7521 68.5254 97.8467 68.3411C97.8977 68.2432 97.9513 68.1404 98.0076 68.0324C98.0642 67.9181 98.1379 67.8153 98.1342 67.701C98.1375 67.5859 98.0821 67.4626 97.9811 67.3882C97.8772 67.3055 97.7562 67.3074 97.5857 67.3196C97.2617 67.3327 96.9191 67.3468 96.5597 67.3617C95.8325 67.3874 95.04 67.4157 94.2085 67.4448C93.3766 67.469 92.5838 67.4917 91.8561 67.5129C91.7679 67.5155 91.6807 67.5177 91.5947 67.5204C91.5239 67.5271 91.4558 67.5542 91.4014 67.5974C91.3024 67.6768 91.2227 67.8555 91.1329 67.9806C90.9616 68.2487 90.8004 68.5005 90.6507 68.7343C90.3677 69.1667 90.1301 69.5298 89.9409 69.8184C89.7696 70.072 89.6694 70.209 89.6583 70.2019C89.6471 70.1948 89.7253 70.0444 89.8769 69.7785C90.0519 69.481 90.2723 69.1071 90.5341 68.6617C90.6775 68.4238 90.832 68.1679 90.9963 67.8957C91.038 67.8268 91.0804 67.7568 91.1236 67.6861C91.1635 67.6209 91.2122 67.5278 91.2949 67.4645C91.3735 67.4001 91.4729 67.358 91.5772 67.3465C91.6673 67.3424 91.7585 67.3386 91.8509 67.3342C92.5782 67.3085 93.371 67.2802 94.2029 67.2507C95.0348 67.2265 95.8273 67.2038 96.5545 67.1826C96.9139 67.174 97.2568 67.1662 97.5812 67.1584C97.7264 67.148 97.9409 67.1487 98.0739 67.2697C98.2113 67.3781 98.2809 67.5479 98.272 67.7054C98.2675 67.784 98.2474 67.8603 98.2109 67.9248C98.1789 67.9817 98.1472 68.0372 98.1163 68.0916C98.0556 68.197 97.9975 68.2972 97.9424 68.3929C97.8374 68.5716 97.7436 68.731 97.6598 68.8736C97.5015 69.1361 97.4088 69.2784 97.3972 69.2721Z" fill="#1E397D"/>
<path d="M105.813 68.7054C105.813 68.7054 105.303 72.2524 104.78 74.5307C104.314 76.5605 103.575 83.4181 101.689 84.2827C99.8024 85.1474 97.456 84.6078 96.5865 82.9369C95.717 81.266 94.7882 76.8123 94.7882 76.8123L90.8428 75.1511C90.8428 75.1511 89.9345 71.8428 90.4507 71.47C90.9668 71.0972 96.0607 71.6562 96.0607 71.6562L97.4273 71.3456C97.4273 71.3456 95.2544 71.0351 94.7878 70.9107C94.3212 70.7863 94.0144 70.4139 94.1243 69.979C94.2341 69.544 94.3213 69.1091 95.5013 69.1091C96.6814 69.1091 98.5236 68.9326 98.8558 69.0469C99.271 69.1899 99.7414 69.4308 99.8341 70.4757C99.9246 71.4979 99.4326 73.4615 99.4326 73.4615L99.5399 73.6261L100.236 68.4946L105.813 68.7054Z" fill="#CDD8F3"/>
<path d="M99.1835 74.8286C99.1872 74.8413 99.0737 74.8864 98.8636 74.9564C98.6547 75.029 98.3457 75.1135 97.9591 75.1999C97.1875 75.3719 96.0897 75.5138 94.878 75.436C93.6659 75.3552 92.5956 75.0651 91.8583 74.7776C91.4889 74.6342 91.1966 74.5024 91.0022 74.3963C90.8063 74.2931 90.7017 74.2306 90.7072 74.2187C90.7218 74.1881 91.1627 74.3981 91.9045 74.6488C92.6451 74.8998 93.6997 75.163 94.8906 75.2427C96.0812 75.3191 97.1618 75.2014 97.9327 75.0655C98.7046 74.9292 99.1746 74.797 99.1835 74.8286Z" fill="#5D80D9"/>
<path d="M98.4362 73.4056C98.4388 73.4183 98.3252 73.4555 98.1159 73.508C97.9067 73.5605 97.6013 73.6257 97.2203 73.6883C96.4603 73.8123 95.3863 73.9199 94.2059 73.7992C93.0247 73.6797 91.9913 73.3252 91.3076 72.9603C90.9639 72.7797 90.701 72.6072 90.5289 72.4758C90.3561 72.3451 90.2694 72.2624 90.2768 72.2527C90.2965 72.2248 90.6775 72.5141 91.3683 72.837C92.055 73.164 93.0686 73.4891 94.226 73.6064C95.3834 73.7248 96.4424 73.641 97.2014 73.5524C97.9618 73.4619 98.4302 73.3762 98.4362 73.4056Z" fill="#5D80D9"/>
<path d="M99.6658 69.7458C99.6889 69.7394 99.7601 69.9189 99.7437 70.2232C99.7321 70.3732 99.709 70.5587 99.5966 70.7471C99.5456 70.8413 99.4361 70.9292 99.3433 70.9776C99.2469 71.0335 99.1411 71.0789 99.0313 71.1158C98.5937 71.2554 98.1841 71.2927 97.8948 71.3098C97.6069 71.3258 97.4386 71.3701 97.4274 71.3459C97.4148 71.3213 97.5842 71.2256 97.8765 71.1739C98.164 71.1225 98.5587 71.0629 98.9691 70.9322C99.1665 70.86 99.3635 70.781 99.4465 70.6496C99.5411 70.5103 99.5809 70.3427 99.607 70.2072C99.6565 69.9301 99.6368 69.7506 99.6658 69.7458Z" fill="#5D80D9"/>
<path d="M97.7915 75.7107C97.8079 75.6992 97.9241 75.9557 97.7952 76.356C97.73 76.5504 97.6031 76.7705 97.396 76.953C97.1897 77.1369 96.9071 77.268 96.598 77.3209C96.2885 77.3734 95.9873 77.3496 95.7266 77.2818C95.4659 77.2118 95.2522 77.1064 95.0779 77.0174C94.7323 76.832 94.5204 76.7262 94.5275 76.7024C94.5357 76.6748 94.7763 76.74 95.1349 76.893C95.4894 77.0446 95.9969 77.2334 96.5648 77.1302C96.843 77.0826 97.0944 76.9705 97.2802 76.8171C97.4675 76.664 97.5926 76.4763 97.6667 76.3073C97.8153 75.9624 97.758 75.7133 97.7915 75.7107Z" fill="#5D80D9"/>
<path d="M99.4331 69.3883C99.4365 69.3838 99.4603 69.3976 99.5054 69.4296C99.5486 69.4628 99.6052 69.5231 99.6614 69.6128C99.7724 69.7938 99.8558 70.0947 99.8833 70.4727C99.9377 71.2316 99.8104 72.291 99.5232 73.4849L99.5206 73.4298C99.6975 73.9068 99.9392 74.4051 100.227 74.9C100.631 75.5945 101.076 76.2212 101.508 76.7697C101.935 77.3142 102.388 77.7804 102.612 78.285C102.845 78.7855 102.824 79.2614 102.72 79.5463C102.669 79.6907 102.605 79.792 102.555 79.8538C102.503 79.9149 102.471 79.9417 102.467 79.938C102.451 79.9268 102.572 79.804 102.648 79.5243C102.724 79.2502 102.721 78.8052 102.488 78.3442C102.263 77.8754 101.813 77.4304 101.368 76.8811C100.925 76.3333 100.469 75.7028 100.059 74.9972C99.7668 74.4945 99.5221 73.985 99.3456 73.4931L99.3359 73.4663L99.343 73.438C99.6372 72.265 99.7876 71.2171 99.766 70.479C99.7552 70.1103 99.6927 69.821 99.6059 69.6426C99.5188 69.4646 99.4231 69.4006 99.4331 69.3883Z" fill="#5D80D9"/>
<path d="M64.5855 76.0139C64.5855 76.0139 64.0094 83.9298 67.6901 85.257C72.7668 87.0876 78.5548 82.0291 78.5768 81.9479C78.5988 81.8668 84.7357 76.9241 84.7357 76.9241L82.8239 71.663C82.8239 71.663 82.0594 71.663 80.8164 72.5481C80.3673 72.868 73.2535 76.6187 73.2535 76.6187C73.2535 76.6187 70.1493 76.5926 64.5855 76.0139Z" fill="#CDD8F3"/>
<path d="M73.5113 76.5009C73.5363 76.5605 72.1961 77.1042 70.5777 77.8296C69.7696 78.196 69.0568 78.5639 68.547 78.8436C68.038 79.1236 67.7278 79.308 67.7114 79.2838C67.698 79.2636 67.9821 79.0384 68.4774 78.7255C68.9727 78.4135 69.6836 78.0221 70.4969 77.6534C71.3094 77.2829 72.0624 76.9925 72.6098 76.7902C73.1579 76.5888 73.5013 76.4763 73.5113 76.5009Z" fill="#5D80D9"/>
<path d="M89.6296 68.7961C89.6296 68.7961 88.6692 67.4346 88.2879 67.4391C87.9062 67.4436 85.6193 67.8182 85.6193 67.8182L82.3833 71.3283C82.3833 71.3283 82.1606 72.473 82.8603 72.8864C82.8603 72.8864 82.625 74.685 83.49 75.2008C83.49 75.2008 84.132 76.8925 84.7364 76.9242C85.3404 76.9558 85.5047 76.9242 85.5047 76.9242C85.5047 76.9242 85.3721 77.9415 86.2941 78.0052C86.9659 78.0514 88.3229 77.847 89.0099 77.7323C89.2777 77.6876 89.5149 77.5386 89.672 77.317L90.4641 76.2021C90.7166 75.8469 90.7151 75.3702 90.4608 75.0164C90.4608 75.0164 90.8406 74.5625 90.9359 74.1853C91.0312 73.8084 90.9359 73.1225 90.9359 73.1225C90.9359 73.1225 92.3029 71.9655 92.335 71.6627C92.3666 71.36 92.3033 71.071 91.6989 71.1041C91.6989 71.1041 91.572 70.168 90.8086 70.1918C90.0455 70.2156 86.4315 70.1918 86.4315 70.1918L87.1182 69.5215C87.1182 69.5215 88.9176 70.2063 89.1071 69.7513L89.6296 68.7961Z" fill="#CDD8F3"/>
<path d="M84.4395 72.8462C84.4395 72.8321 84.6476 72.825 85.0256 72.8049C85.4036 72.7852 85.9517 72.752 86.6287 72.6719C87.3057 72.5926 88.1119 72.4616 88.999 72.2512C89.4421 72.1446 89.9054 72.018 90.3813 71.8676C90.8415 71.7395 91.2426 71.3824 91.6321 71.0349L91.6559 71.0137L91.682 71.0096C91.8392 70.9854 92.0224 70.9608 92.2086 71.0603C92.3006 71.1116 92.3672 71.2085 92.3951 71.3019C92.4249 71.3961 92.4294 71.4881 92.4309 71.5727C92.4287 71.617 92.4368 71.6311 92.4264 71.6955C92.4156 71.7659 92.3907 71.7901 92.3713 71.8333C92.3277 71.9015 92.2808 71.9618 92.2332 72.0195C92.1371 72.1342 92.0358 72.2381 91.9345 72.3405C91.7308 72.5442 91.5238 72.7345 91.3145 72.9185L91.3119 72.9207L91.3085 72.9233C90.5261 73.5065 89.8041 74.0885 89.0794 74.5089C88.3573 74.9387 87.6263 75.155 87.0138 75.2444C86.3975 75.3327 85.8936 75.2839 85.5618 75.2087C85.395 75.1729 85.2691 75.1334 85.1861 75.101C85.103 75.0694 85.0606 75.05 85.0628 75.0444C85.0647 75.0016 85.7841 75.326 86.9948 75.1219C87.591 75.018 88.2966 74.7946 88.9949 74.3656C89.6998 73.944 90.4096 73.3616 91.1953 72.7703L91.1894 72.7747C91.3934 72.5937 91.599 72.4035 91.7975 72.2042C91.8961 72.1041 91.9948 72.002 92.0842 71.8951C92.1285 71.8415 92.1698 71.7872 92.2052 71.7328C92.216 71.7101 92.2369 71.6743 92.2339 71.6706C92.2413 71.6643 92.2354 71.6039 92.2365 71.5756C92.2369 71.417 92.2075 71.2796 92.1095 71.2267C92.0094 71.1694 91.8552 71.1742 91.7152 71.1992L91.7651 71.1738C91.564 71.3608 91.3592 71.531 91.1428 71.6862C90.932 71.8382 90.6863 71.9823 90.4364 72.0441C89.9545 72.1927 89.4861 72.3163 89.0377 72.4183C88.1402 72.6202 87.3258 72.7379 86.6421 72.8004C85.9584 72.8641 85.4065 72.8775 85.0267 72.8753C84.8368 72.8756 84.6897 72.8693 84.5903 72.8637C84.4912 72.8581 84.4395 72.8522 84.4395 72.8462Z" fill="#5D80D9"/>
<path d="M90.9357 73.1223C90.9539 73.1209 90.9949 73.3268 91.0135 73.6887C91.018 73.7792 91.0202 73.8798 91.0172 73.9893C91.0157 74.044 91.0131 74.1014 91.0072 74.1609C91.0046 74.2224 90.9762 74.3017 90.9513 74.3542C90.8988 74.473 90.8347 74.5888 90.7647 74.7102C90.7286 74.7705 90.6917 74.832 90.6545 74.8942L90.5949 74.9884C90.5811 75.0085 90.5819 75.0111 90.5543 75.0468C90.5465 75.0554 90.5376 75.0629 90.5279 75.0692C90.5111 75.0677 90.5335 75.096 90.4389 75.0617C90.386 75.0193 90.4035 74.9649 90.4069 74.9578C90.4125 74.9433 90.4162 74.9385 90.4162 74.9385L90.4199 74.9321L90.4355 74.9065L90.5867 74.9966C90.3685 75.3947 90.0501 75.8076 89.6379 76.1603C88.8808 76.819 87.9688 77.0764 87.3291 77.1151C87.0062 77.1382 86.7444 77.1181 86.5668 77.0935C86.3892 77.0633 86.2927 77.0402 86.295 77.0272C86.2987 76.99 86.6927 77.0577 87.3157 76.9788C87.9324 76.9062 88.7911 76.6407 89.5124 76.0132C89.9056 75.6769 90.2143 75.287 90.4341 74.9102L90.5852 75.0003C91.0317 74.0232 90.8787 73.1086 90.9357 73.1223Z" fill="#5D80D9"/>
<path d="M87.2038 69.5531C87.19 69.5948 86.8244 69.4589 86.6516 69.0265C86.5719 68.815 86.5853 68.6057 86.621 68.4706C86.6575 68.3335 86.7082 68.2605 86.732 68.268C86.7923 68.2814 86.7033 68.6121 86.8333 68.9588C86.964 69.3051 87.2414 69.5043 87.2038 69.5531Z" fill="#5D80D9"/>
<path d="M85.5837 76.9591C85.5863 76.9695 85.4884 77.0119 85.2981 77.0268C85.1101 77.0417 84.8233 77.0242 84.5079 76.8779C84.194 76.736 83.8633 76.4388 83.6857 76.0091C83.5933 75.8017 83.555 75.538 83.5509 75.3105C83.5401 75.1965 83.5151 75.125 83.4302 75.0595C83.3464 74.9951 83.2202 74.9091 83.1353 74.804C82.8966 74.5236 82.8005 74.174 82.7756 73.8563C82.7502 73.5361 82.7845 73.2408 82.8113 72.9756L82.8527 73.0557C82.3395 72.7313 82.2121 72.1936 82.2267 71.8745C82.2419 71.5382 82.3641 71.3762 82.3723 71.3837C82.3954 71.3915 82.3105 71.5628 82.325 71.8734C82.3373 72.1702 82.487 72.6476 82.9372 72.9105L82.9826 72.9369L82.9789 72.9905C82.9599 73.2564 82.9342 73.5439 82.9625 73.8396C82.9893 74.1319 83.0813 74.4413 83.2831 74.6774C83.3595 74.7698 83.4433 74.8253 83.5542 74.9109C83.6734 74.994 83.7408 75.1709 83.7408 75.2941C83.7449 75.5436 83.7732 75.7428 83.8521 75.9421C84.0037 76.332 84.2893 76.6094 84.5701 76.755C85.1488 77.0495 85.5882 76.9188 85.5837 76.9591Z" fill="#5D80D9"/>
<g opacity="0.3">
<path d="M75.6943 66.3153C75.2586 70.2656 74.6438 73.2816 73.7158 76.0097C75.0058 74.9134 75.8913 73.3601 76.1378 71.6851C76.3843 70.0105 75.993 67.9814 75.6943 66.3153Z" fill="#1D191F"/>
</g>
<g opacity="0.3">
<path d="M101.06 64.1457C100.946 62.7433 100.538 61.3792 100.02 60.071C100.602 62.8561 100.669 65.7481 100.215 68.557L100.351 68.2539C100.982 66.996 101.174 65.5481 101.06 64.1457Z" fill="#1D191F"/>
</g>
</svg>
