<svg width="166" height="134" viewBox="0 0 166 134" fill="none" xmlns="http://www.w3.org/2000/svg">
<path d="M29.1895 22.3466L1.18652 22.3122C1.18652 22.3122 2.58127 20.8661 4.11692 20.6869C4.11692 20.6869 7.11539 13.5931 12.1138 13.5485C16.7607 13.5071 18.6149 17.9213 18.6149 17.9213C18.6149 17.9213 20.7712 15.9449 22.8261 16.8524C24.881 17.7598 26.0407 20.3516 26.0407 20.3516C26.0407 20.3516 28.3521 21.35 29.1895 22.3466Z" fill="#EBEBEB"/>
<path d="M129.402 28.6667L164.814 28.71C164.814 28.71 164.818 26.9027 159.939 26.543C159.939 26.543 155.5 18.6403 148.698 19.6928C144.462 20.3484 142.288 24.9889 142.288 24.9889C142.288 24.9889 139.096 21.331 136.534 22.0352C133.973 22.7394 132.446 26.6271 132.446 26.6271C132.446 26.6271 129.804 27.6454 129.402 28.6667Z" fill="#EBEBEB"/>
<path d="M123.568 55.7103L147.648 55.7397C147.648 55.7397 145.379 54.0478 144.368 54.0468C143.358 54.0455 140.422 48.3718 136.655 48.6085C132.888 48.8453 130.882 53.0651 130.882 53.0651C130.882 53.0651 126.306 51.9133 123.568 55.7103Z" fill="#EBEBEB"/>
<path d="M119.98 6.87954L140.572 6.90482C140.572 6.90482 139.55 5.83904 138.422 5.70439C138.422 5.70439 136.237 0.48262 132.561 0.440899C129.144 0.402022 127.769 3.64457 127.769 3.64457C127.769 3.64457 126.189 2.1875 124.675 2.85092C123.162 3.51435 122.302 5.41835 122.302 5.41835C122.302 5.41835 120.599 6.14847 119.98 6.87954Z" fill="#EBEBEB"/>
<path d="M14.8496 46.6772L35.4411 46.7025C35.4411 46.7025 34.4196 45.6367 33.2908 45.5024C33.2908 45.5024 31.1057 40.2806 27.4304 40.2389C24.0136 40.2003 22.6379 43.4425 22.6379 43.4425C22.6379 43.4425 21.0579 41.9855 19.544 42.6489C18.0305 43.3123 17.1705 45.216 17.1705 45.216C17.1705 45.216 15.4682 45.9461 14.8496 46.6772Z" fill="#EBEBEB"/>
<path d="M3.12012 48.5061V108.879H162.88V73.8523H149.02V87.2948H145.452V79.6863H127.829V91.7355H125.496V44.175H110.18V71.2173H102.325V80.8764H99.9471V74.8021H86.0221V92.9252H81.9511V78.1942H69.2155V67.0009H60.5573V60.6293H50.5404V88.8969H47.1683V57.8156H30.6692V74.7019H28.3886V60.9204H11.654V48.5061H3.12012Z" fill="#EBEBEB"/>
<path d="M158.836 78.1136H161.181V75.544H158.836V78.1136Z" fill="#FAFAFA"/>
<path d="M154.771 78.1136H157.116V75.544H154.771V78.1136Z" fill="#FAFAFA"/>
<path d="M150.707 78.1136H153.052V75.544H150.707V78.1136Z" fill="#FAFAFA"/>
<path d="M158.836 81.9802H161.181V79.4103H158.836V81.9802Z" fill="#FAFAFA"/>
<path d="M154.771 81.9802H157.116V79.4103H154.771V81.9802Z" fill="#FAFAFA"/>
<path d="M150.707 81.9802H153.052V79.4103H150.707V81.9802Z" fill="#FAFAFA"/>
<path d="M158.836 85.8473H161.181V83.2773H158.836V85.8473Z" fill="#FAFAFA"/>
<path d="M154.771 85.8473H157.116V83.2773H154.771V85.8473Z" fill="#FAFAFA"/>
<path d="M150.707 85.8473H153.052V83.2773H150.707V85.8473Z" fill="#FAFAFA"/>
<path d="M158.836 89.7139H161.181V87.1442H158.836V89.7139Z" fill="#FAFAFA"/>
<path d="M154.771 89.7139H157.116V87.1442H154.771V89.7139Z" fill="#FAFAFA"/>
<path d="M150.707 89.7139H153.052V87.1442H150.707V89.7139Z" fill="#FAFAFA"/>
<path d="M77.6491 82.1727H79.9941V80.0288H77.6491V82.1727Z" fill="#FAFAFA"/>
<path d="M73.5847 82.1727H75.9297V80.0288H73.5847V82.1727Z" fill="#FAFAFA"/>
<path d="M69.5202 82.1727H71.8652V80.0288H69.5202V82.1727Z" fill="#FAFAFA"/>
<path d="M77.6491 85.3989H79.9941V83.255H77.6491V85.3989Z" fill="#FAFAFA"/>
<path d="M73.5847 85.3989H75.9297V83.255H73.5847V85.3989Z" fill="#FAFAFA"/>
<path d="M69.5202 85.3989H71.8652V83.255H69.5202V85.3989Z" fill="#FAFAFA"/>
<path d="M77.6491 88.6243H79.9941V86.4804H77.6491V88.6243Z" fill="#FAFAFA"/>
<path d="M73.5847 88.6243H75.9297V86.4804H73.5847V88.6243Z" fill="#FAFAFA"/>
<path d="M69.5202 88.6243H71.8652V86.4804H69.5202V88.6243Z" fill="#FAFAFA"/>
<path d="M77.6491 91.8507H79.9941V89.7065H77.6491V91.8507Z" fill="#FAFAFA"/>
<path d="M73.5847 91.8507H75.9297V89.7065H73.5847V91.8507Z" fill="#FAFAFA"/>
<path d="M69.5202 91.8507H71.8652V89.7065H69.5202V91.8507Z" fill="#FAFAFA"/>
<path d="M77.6491 95.1558H79.9941V93.0119H77.6491V95.1558Z" fill="#FAFAFA"/>
<path d="M73.5847 95.1558H75.9297V93.0119H73.5847V95.1558Z" fill="#FAFAFA"/>
<path d="M69.5202 95.1558H71.8652V93.0119H69.5202V95.1558Z" fill="#FAFAFA"/>
<path d="M77.6491 98.4623H79.9941V96.3184H77.6491V98.4623Z" fill="#FAFAFA"/>
<path d="M73.5847 98.4623H75.9297V96.3184H73.5847V98.4623Z" fill="#FAFAFA"/>
<path d="M69.5202 98.4623H71.8652V96.3184H69.5202V98.4623Z" fill="#FAFAFA"/>
<path d="M77.6491 101.768H79.9941V99.6238H77.6491V101.768Z" fill="#FAFAFA"/>
<path d="M73.5847 101.768H75.9297V99.6238H73.5847V101.768Z" fill="#FAFAFA"/>
<path d="M69.5202 101.768H71.8652V99.6238H69.5202V101.768Z" fill="#FAFAFA"/>
<path d="M77.6491 105.073H79.9941V102.929H77.6491V105.073Z" fill="#FAFAFA"/>
<path d="M73.5847 105.073H75.9297V102.929H73.5847V105.073Z" fill="#FAFAFA"/>
<path d="M69.5202 105.073H71.8652V102.929H69.5202V105.073Z" fill="#FAFAFA"/>
<path d="M129.951 82.941H143.451V81.3338H129.951V82.941Z" fill="#FAFAFA"/>
<path d="M129.951 86.0591H143.451V84.4519H129.951V86.0591Z" fill="#FAFAFA"/>
<path d="M129.951 89.1785H143.451V87.5713H129.951V89.1785Z" fill="#FAFAFA"/>
<path d="M129.951 92.2968H143.451V90.6895H129.951V92.2968Z" fill="#FAFAFA"/>
<path d="M129.951 95.4147H143.451V93.8075H129.951V95.4147Z" fill="#FAFAFA"/>
<path d="M129.951 98.5333H143.451V96.9261H129.951V98.5333Z" fill="#FAFAFA"/>
<path d="M129.951 101.652H143.451V100.045H129.951V101.652Z" fill="#FAFAFA"/>
<path d="M129.951 104.77H143.451V103.163H129.951V104.77Z" fill="#FAFAFA"/>
<path d="M32.7634 60.9237H45.1748V59.3165H32.7634V60.9237Z" fill="#FAFAFA"/>
<path d="M32.7634 64.0425H45.1748V62.4353H32.7634V64.0425Z" fill="#FAFAFA"/>
<path d="M32.7634 67.16H45.1748V65.5528H32.7634V67.16Z" fill="#FAFAFA"/>
<path d="M32.7634 70.2792H45.1748V68.672H32.7634V70.2792Z" fill="#FAFAFA"/>
<path d="M45.1741 71.7906H32.7627V73.3979H45.1741V71.7906Z" fill="#FAFAFA"/>
<path d="M32.7634 76.516H45.1748V74.9088H32.7634V76.516Z" fill="#FAFAFA"/>
<path d="M32.7634 79.6348H45.1748V78.0276H32.7634V79.6348Z" fill="#FAFAFA"/>
<path d="M32.7634 82.7535H45.1748V81.1463H32.7634V82.7535Z" fill="#FAFAFA"/>
<path d="M32.7634 85.7163H45.1748V84.1091H32.7634V85.7163Z" fill="#FAFAFA"/>
<path d="M32.7634 88.6794H45.1748V87.0722H32.7634V88.6794Z" fill="#FAFAFA"/>
<path d="M32.7634 91.6429H45.1748V90.0357H32.7634V91.6429Z" fill="#FAFAFA"/>
<path d="M32.7634 94.6061H45.1748V92.9989H32.7634V94.6061Z" fill="#FAFAFA"/>
<path d="M12.6953 64.6906H25.8057V63.0833H12.6953V64.6906Z" fill="#FAFAFA"/>
<path d="M12.6953 67.8091H25.8057V66.2019H12.6953V67.8091Z" fill="#FAFAFA"/>
<path d="M12.6953 70.9271H25.8057V69.3199H12.6953V70.9271Z" fill="#FAFAFA"/>
<path d="M12.6953 74.0459H25.8057V72.4387H12.6953V74.0459Z" fill="#FAFAFA"/>
<path d="M12.6953 77.1642H25.8057V75.557H12.6953V77.1642Z" fill="#FAFAFA"/>
<path d="M12.6953 80.2833H25.8057V78.6761H12.6953V80.2833Z" fill="#FAFAFA"/>
<path d="M12.6953 83.4016H25.8057V81.7944H12.6953V83.4016Z" fill="#FAFAFA"/>
<path d="M12.6953 86.5204H25.8057V84.9132H12.6953V86.5204Z" fill="#FAFAFA"/>
<path d="M12.6953 89.3115H25.8057V87.7043H12.6953V89.3115Z" fill="#FAFAFA"/>
<path d="M12.6953 92.1027H25.8057V90.4955H12.6953V92.1027Z" fill="#FAFAFA"/>
<path d="M12.6953 94.8938H25.8057V93.2866H12.6953V94.8938Z" fill="#FAFAFA"/>
<path d="M91.7066 77.8101H95.875V76.2578H91.7066V77.8101Z" fill="#FAFAFA"/>
<path d="M91.7066 80.8218H95.875V79.2696H91.7066V80.8218Z" fill="#FAFAFA"/>
<path d="M91.7066 83.833H95.875V82.2808H91.7066V83.833Z" fill="#FAFAFA"/>
<path d="M91.7066 86.8452H95.875V85.293H91.7066V86.8452Z" fill="#FAFAFA"/>
<path d="M91.7066 89.8563H95.875V88.3041H91.7066V89.8563Z" fill="#FAFAFA"/>
<path d="M91.7066 92.8683H95.875V91.3161H91.7066V92.8683Z" fill="#FAFAFA"/>
<path d="M91.7066 95.8793H95.875V94.3271H91.7066V95.8793Z" fill="#FAFAFA"/>
<path d="M91.7066 98.8912H95.875V97.339H91.7066V98.8912Z" fill="#FAFAFA"/>
<path d="M86.0318 77.8101H90.2002V76.2578H86.0318V77.8101Z" fill="#FAFAFA"/>
<path d="M86.0318 80.8218H90.2002V79.2696H86.0318V80.8218Z" fill="#FAFAFA"/>
<path d="M86.0318 83.833H90.2002V82.2808H86.0318V83.833Z" fill="#FAFAFA"/>
<path d="M86.0318 86.8452H90.2002V85.293H86.0318V86.8452Z" fill="#FAFAFA"/>
<path d="M86.0318 89.8563H90.2002V88.3041H86.0318V89.8563Z" fill="#FAFAFA"/>
<path d="M86.0318 92.8683H90.2002V91.3161H86.0318V92.8683Z" fill="#FAFAFA"/>
<path d="M86.0318 95.8793H90.2002V94.3271H86.0318V95.8793Z" fill="#FAFAFA"/>
<path d="M86.0318 98.8912H90.2002V97.339H86.0318V98.8912Z" fill="#FAFAFA"/>
<path d="M118.83 48.2507H123.173V45.8031H118.83V48.2507Z" fill="#FAFAFA"/>
<path d="M112.355 48.2507H116.698V45.8031H112.355V48.2507Z" fill="#FAFAFA"/>
<path d="M118.83 51.8463H123.173V49.3987H118.83V51.8463Z" fill="#FAFAFA"/>
<path d="M112.355 51.8463H116.698V49.3987H112.355V51.8463Z" fill="#FAFAFA"/>
<path d="M118.83 55.4421H123.173V52.9945H118.83V55.4421Z" fill="#FAFAFA"/>
<path d="M112.355 55.4421H116.698V52.9945H112.355V55.4421Z" fill="#FAFAFA"/>
<path d="M118.83 59.0374H123.173V56.5897H118.83V59.0374Z" fill="#FAFAFA"/>
<path d="M112.355 59.0374H116.698V56.5897H112.355V59.0374Z" fill="#FAFAFA"/>
<path d="M118.83 62.6332H123.173V60.1855H118.83V62.6332Z" fill="#FAFAFA"/>
<path d="M112.355 62.6332H116.698V60.1855H112.355V62.6332Z" fill="#FAFAFA"/>
<path d="M118.83 66.2283H123.173V63.7806H118.83V66.2283Z" fill="#FAFAFA"/>
<path d="M112.355 66.2283H116.698V63.7806H112.355V66.2283Z" fill="#FAFAFA"/>
<path d="M118.83 69.8243H123.173V67.3767H118.83V69.8243Z" fill="#FAFAFA"/>
<path d="M112.355 69.8243H116.698V67.3767H112.355V69.8243Z" fill="#FAFAFA"/>
<path d="M118.83 73.42H123.173V70.9724H118.83V73.42Z" fill="#FAFAFA"/>
<path d="M112.355 73.42H116.698V70.9724H112.355V73.42Z" fill="#FAFAFA"/>
<path d="M104.33 74.7245H108.673V72.2768H104.33V74.7245Z" fill="#FAFAFA"/>
<path d="M104.33 78.3196H108.673V75.8719H104.33V78.3196Z" fill="#FAFAFA"/>
<path d="M104.33 81.9156H108.673V79.468H104.33V81.9156Z" fill="#FAFAFA"/>
<path d="M104.33 85.5115H108.673V83.0638H104.33V85.5115Z" fill="#FAFAFA"/>
<path d="M104.33 89.1072H108.673V86.6595H104.33V89.1072Z" fill="#FAFAFA"/>
<path d="M104.33 92.7028H108.673V90.2548H104.33V92.7028Z" fill="#FAFAFA"/>
<path d="M118.83 76.9727H123.173V74.525H118.83V76.9727Z" fill="#FAFAFA"/>
<path d="M112.355 76.9727H116.698V74.525H112.355V76.9727Z" fill="#FAFAFA"/>
<path d="M104.33 96.2554H108.673V93.8077H104.33V96.2554Z" fill="#FAFAFA"/>
<path d="M118.83 80.5253H123.173V78.0773H118.83V80.5253Z" fill="#FAFAFA"/>
<path d="M112.355 80.5253H116.698V78.0773H112.355V80.5253Z" fill="#FAFAFA"/>
<path d="M104.33 99.808H108.673V97.36H104.33V99.808Z" fill="#FAFAFA"/>
<path d="M118.83 84.0786H123.173V81.631H118.83V84.0786Z" fill="#FAFAFA"/>
<path d="M112.355 84.0786H116.698V81.631H112.355V84.0786Z" fill="#FAFAFA"/>
<path d="M104.33 103.361H108.673V100.913H104.33V103.361Z" fill="#FAFAFA"/>
<path d="M118.83 87.6312H123.173V85.1836H118.83V87.6312Z" fill="#FAFAFA"/>
<path d="M112.355 87.6312H116.698V85.1836H112.355V87.6312Z" fill="#FAFAFA"/>
<path d="M118.83 91.1838H123.173V88.7362H118.83V91.1838Z" fill="#FAFAFA"/>
<path d="M112.355 91.1838H116.698V88.7362H112.355V91.1838Z" fill="#FAFAFA"/>
<path d="M65.1003 70.7224H67.4453V68.5785H65.1003V70.7224Z" fill="#FAFAFA"/>
<path d="M61.0358 70.7224H63.3809V68.5785H61.0358V70.7224Z" fill="#FAFAFA"/>
<path d="M65.1003 73.9486H67.4453V71.8047H65.1003V73.9486Z" fill="#FAFAFA"/>
<path d="M61.0358 73.9486H63.3809V71.8047H61.0358V73.9486Z" fill="#FAFAFA"/>
<path d="M65.1003 77.1743H67.4453V75.0304H65.1003V77.1743Z" fill="#FAFAFA"/>
<path d="M61.0358 77.1743H63.3809V75.0304H61.0358V77.1743Z" fill="#FAFAFA"/>
<path d="M65.1003 80.4001H67.4453V78.2563H65.1003V80.4001Z" fill="#FAFAFA"/>
<path d="M61.0358 80.4001H63.3809V78.2563H61.0358V80.4001Z" fill="#FAFAFA"/>
<path d="M65.1003 83.7057H67.4453V81.5618H65.1003V83.7057Z" fill="#FAFAFA"/>
<path d="M61.0358 83.7057H63.3809V81.5618H61.0358V83.7057Z" fill="#FAFAFA"/>
<path d="M65.1003 87.0112H67.4453V84.8673H65.1003V87.0112Z" fill="#FAFAFA"/>
<path d="M61.0358 87.0112H63.3809V84.8673H61.0358V87.0112Z" fill="#FAFAFA"/>
<path d="M65.1003 90.3173H67.4453V88.173H65.1003V90.3173Z" fill="#FAFAFA"/>
<path d="M61.0358 90.3173H63.3809V88.173H61.0358V90.3173Z" fill="#FAFAFA"/>
<path d="M65.1003 93.6238H67.4453V91.4799H65.1003V93.6238Z" fill="#FAFAFA"/>
<path d="M61.0358 93.6238H63.3809V91.4799H61.0358V93.6238Z" fill="#FAFAFA"/>
<path d="M65.1003 96.9637H67.4453V94.8199H65.1003V96.9637Z" fill="#FAFAFA"/>
<path d="M61.0358 96.9637H63.3809V94.8199H61.0358V96.9637Z" fill="#FAFAFA"/>
<path d="M65.1003 100.305H67.4453V98.161H65.1003V100.305Z" fill="#FAFAFA"/>
<path d="M61.0358 100.305H63.3809V98.161H61.0358V100.305Z" fill="#FAFAFA"/>
<path d="M65.1003 103.646H67.4453V101.502H65.1003V103.646Z" fill="#FAFAFA"/>
<path d="M61.0358 103.646H63.3809V101.502H61.0358V103.646Z" fill="#FAFAFA"/>
<path d="M7.83856 52.1702H10.1836V49.6441H7.83856V52.1702Z" fill="#FAFAFA"/>
<path d="M3.77411 52.1702H6.11914V49.6441H3.77411L3.77411 52.1702Z" fill="#FAFAFA"/>
<path d="M7.83856 55.9712H10.1836V53.4455H7.83856V55.9712Z" fill="#FAFAFA"/>
<path d="M3.77411 55.9712H6.11914V53.4455H3.77411L3.77411 55.9712Z" fill="#FAFAFA"/>
<path d="M7.83856 59.7711H10.1836V57.2454H7.83856V59.7711Z" fill="#FAFAFA"/>
<path d="M3.77411 59.7711H6.11914V57.2454H3.77411L3.77411 59.7711Z" fill="#FAFAFA"/>
<path d="M7.83856 63.5717H10.1836V61.0459H7.83856V63.5717Z" fill="#FAFAFA"/>
<path d="M3.77411 63.5717H6.11914V61.0459H3.77411L3.77411 63.5717Z" fill="#FAFAFA"/>
<path d="M7.83856 67.4668H10.1836V64.9408H7.83856V67.4668Z" fill="#FAFAFA"/>
<path d="M3.77411 67.4668H6.11914V64.9408H3.77411L3.77411 67.4668Z" fill="#FAFAFA"/>
<path d="M7.83856 71.3608H10.1836V68.8351H7.83856V71.3608Z" fill="#FAFAFA"/>
<path d="M3.77411 71.3608H6.11914V68.8351H3.77411L3.77411 71.3608Z" fill="#FAFAFA"/>
<path d="M7.83856 75.2557H10.1836V72.73H7.83856V75.2557Z" fill="#FAFAFA"/>
<path d="M3.77411 75.2557H6.11914V72.73H3.77411L3.77411 75.2557Z" fill="#FAFAFA"/>
<path d="M7.83856 79.1499H10.1836V76.6242H7.83856V79.1499Z" fill="#FAFAFA"/>
<path d="M3.77411 79.1499H6.11914V76.6242H3.77411L3.77411 79.1499Z" fill="#FAFAFA"/>
<path d="M7.83856 83.0856H10.1836V80.5599H7.83856V83.0856Z" fill="#FAFAFA"/>
<path d="M3.77411 83.0856H6.11914V80.5599H3.77411L3.77411 83.0856Z" fill="#FAFAFA"/>
<path d="M7.83856 87.0221H10.1836V84.4964H7.83856V87.0221Z" fill="#FAFAFA"/>
<path d="M3.77411 87.0221H6.11914V84.4964H3.77411L3.77411 87.0221Z" fill="#FAFAFA"/>
<path d="M7.83856 90.958H10.1836V88.4323H7.83856V90.958Z" fill="#FAFAFA"/>
<path d="M3.77411 90.958H6.11914V88.4323H3.77411L3.77411 90.958Z" fill="#FAFAFA"/>
<path d="M7.83856 94.8938H10.1836V92.3681H7.83856V94.8938Z" fill="#FAFAFA"/>
<path d="M3.77411 94.8938H6.11914V92.3681H3.77411L3.77411 94.8938Z" fill="#FAFAFA"/>
<path d="M56.4093 70.7224H58.7539V68.5785H56.4093V70.7224Z" fill="#FAFAFA"/>
<path d="M52.3444 70.7224H54.6895V68.5785H52.3444V70.7224Z" fill="#FAFAFA"/>
<path d="M56.4093 67.4148H58.7539V65.2709H56.4093V67.4148Z" fill="#FAFAFA"/>
<path d="M52.3444 67.4148H54.6895V65.2709H52.3444V67.4148Z" fill="#FAFAFA"/>
<path d="M56.4093 64.1074H58.7539V61.9635H56.4093V64.1074Z" fill="#FAFAFA"/>
<path d="M52.3444 64.1074H54.6895V61.9635H52.3444V64.1074Z" fill="#FAFAFA"/>
<path d="M56.4093 73.9486H58.7539V71.8047H56.4093V73.9486Z" fill="#FAFAFA"/>
<path d="M52.3444 73.9486H54.6895V71.8047H52.3444V73.9486Z" fill="#FAFAFA"/>
<path d="M56.4093 77.1743H58.7539V75.0304H56.4093V77.1743Z" fill="#FAFAFA"/>
<path d="M52.3444 77.1743H54.6895V75.0304H52.3444V77.1743Z" fill="#FAFAFA"/>
<path d="M56.4093 80.4001H58.7539V78.2563H56.4093V80.4001Z" fill="#FAFAFA"/>
<path d="M52.3444 80.4001H54.6895V78.2563H52.3444V80.4001Z" fill="#FAFAFA"/>
<path d="M56.4093 83.7057H58.7539V81.5618H56.4093V83.7057Z" fill="#FAFAFA"/>
<path d="M52.3444 83.7057H54.6895V81.5618H52.3444V83.7057Z" fill="#FAFAFA"/>
<path d="M56.4093 87.0112H58.7539V84.8673H56.4093V87.0112Z" fill="#FAFAFA"/>
<path d="M52.3444 87.0112H54.6895V84.8673H52.3444V87.0112Z" fill="#FAFAFA"/>
<path d="M56.4093 90.3173H58.7539V88.173H56.4093V90.3173Z" fill="#FAFAFA"/>
<path d="M52.3444 90.3173H54.6895V88.173H52.3444V90.3173Z" fill="#FAFAFA"/>
<path d="M56.4093 93.6238H58.7539V91.4799H56.4093V93.6238Z" fill="#FAFAFA"/>
<path d="M52.3444 93.6238H54.6895V91.4799H52.3444V93.6238Z" fill="#FAFAFA"/>
<path d="M56.4093 96.9637H58.7539V94.8199H56.4093V96.9637Z" fill="#FAFAFA"/>
<path d="M52.3444 96.9637H54.6895V94.8199H52.3444V96.9637Z" fill="#FAFAFA"/>
<path d="M56.4093 100.305H58.7539V98.161H56.4093V100.305Z" fill="#FAFAFA"/>
<path d="M52.3444 100.305H54.6895V98.161H52.3444V100.305Z" fill="#FAFAFA"/>
<path d="M56.4093 103.646H58.7539V101.502H56.4093V103.646Z" fill="#FAFAFA"/>
<path d="M52.3444 103.646H54.6895V101.502H52.3444V103.646Z" fill="#FAFAFA"/>
<path d="M83.0008 133.861C128.534 133.861 165.447 130.742 165.447 126.895C165.447 123.047 128.534 119.928 83.0008 119.928C37.4671 119.928 0.554688 123.047 0.554688 126.895C0.554688 130.742 37.4671 133.861 83.0008 133.861Z" fill="#EBEBEB"/>
<path d="M165.576 106.581H0.424805V108.879H165.576V106.581Z" fill="#C7C7C7"/>
<path d="M12.0029 106.582C12.1577 106.964 12.1925 107.347 12.1993 107.73C12.1933 108.113 12.1589 108.496 12.0029 108.879C11.8474 108.496 11.8126 108.113 11.8066 107.73C11.8134 107.347 11.8482 106.964 12.0029 106.582Z" fill="#1D191F"/>
<path d="M24.9112 106.582C25.0659 106.965 25.1007 107.348 25.1075 107.73C25.1015 108.113 25.0671 108.496 24.9112 108.879C24.7552 108.496 24.7208 108.113 24.7148 107.73C24.7216 107.348 24.7564 106.965 24.9112 106.582Z" fill="#1D191F"/>
<path d="M37.8203 106.582C37.9751 106.965 38.0099 107.348 38.0166 107.73C38.0107 108.113 37.9759 108.496 37.8203 108.879C37.6644 108.496 37.6296 108.113 37.624 107.73C37.6308 107.348 37.6656 106.965 37.8203 106.582Z" fill="#1D191F"/>
<path d="M50.7285 106.582C50.8833 106.965 50.9181 107.348 50.9248 107.73C50.9189 108.113 50.8845 108.496 50.7285 108.879C50.573 108.496 50.5382 108.113 50.5322 107.73C50.539 107.348 50.5738 106.965 50.7285 106.582Z" fill="#1D191F"/>
<path d="M63.6367 106.582C63.7915 106.965 63.8263 107.348 63.8331 107.73C63.8275 108.113 63.7927 108.496 63.6367 108.879C63.4812 108.496 63.4464 108.113 63.4404 107.73C63.4472 107.348 63.482 106.965 63.6367 106.582Z" fill="#1D191F"/>
<path d="M76.5459 106.582C76.7007 106.965 76.7355 107.348 76.7422 107.73C76.7367 108.113 76.7019 108.496 76.5459 108.879C76.3904 108.496 76.3555 108.113 76.3496 107.73C76.3563 107.348 76.3912 106.965 76.5459 106.582Z" fill="#1D191F"/>
<path d="M89.4541 106.582C89.6089 106.965 89.6437 107.348 89.6504 107.73C89.6449 108.113 89.6097 108.496 89.4541 108.879C89.2986 108.496 89.2637 108.113 89.2578 107.73C89.2645 107.348 89.2994 106.965 89.4541 106.582Z" fill="#1D191F"/>
<path d="M102.362 106.582C102.517 106.965 102.552 107.348 102.559 107.73C102.553 108.113 102.518 108.496 102.362 108.879C102.207 108.496 102.172 108.113 102.166 107.73C102.173 107.348 102.208 106.965 102.362 106.582Z" fill="#1D191F"/>
<path d="M115.272 106.582C115.426 106.965 115.461 107.348 115.468 107.73C115.462 108.113 115.427 108.496 115.272 108.879C115.116 108.496 115.081 108.113 115.075 107.73C115.082 107.348 115.116 106.965 115.272 106.582Z" fill="#1D191F"/>
<path d="M128.18 106.582C128.335 106.965 128.369 107.348 128.376 107.73C128.37 108.113 128.335 108.496 128.18 108.879C128.024 108.496 127.989 108.113 127.983 107.73C127.99 107.348 128.025 106.965 128.18 106.582Z" fill="#1D191F"/>
<path d="M141.089 106.582C141.244 106.965 141.278 107.348 141.285 107.73C141.28 108.113 141.245 108.496 141.089 108.879C140.933 108.496 140.899 108.113 140.893 107.73C140.899 107.348 140.934 106.965 141.089 106.582Z" fill="#1D191F"/>
<path d="M153.997 106.582C154.152 106.965 154.187 107.348 154.193 107.73C154.187 108.113 154.153 108.496 153.997 108.879C153.841 108.496 153.806 108.113 153.801 107.73C153.808 107.348 153.842 106.965 153.997 106.582Z" fill="#1D191F"/>
<path d="M0.424805 108.879L21.0686 108.803L41.7127 108.775L83.0003 108.722L124.288 108.774L144.932 108.802L165.576 108.879L144.932 108.957L124.288 108.984L83.0003 109.037L41.7127 108.984L21.0686 108.956L0.424805 108.879Z" fill="#1D191F"/>
<path d="M150.555 85.9001C152.727 82.3345 156.528 80.5036 160.812 81.5153C165.096 82.527 165.76 87.2975 162.562 88.502C159.364 89.7065 156.166 86.189 154.477 85.4665C152.787 84.7436 150.555 85.9001 150.555 85.9001Z" fill="#5D80D9"/>
<path d="M148.452 95.3916C148.463 94.9617 148.484 94.5322 148.503 94.1026C148.541 93.2445 148.578 92.3861 148.618 91.5279C148.691 89.9587 148.902 88.4175 149.716 86.9705C150.447 85.6728 151.63 84.5365 153.162 83.7991C153.733 83.5244 154.343 83.3143 154.974 83.1752C155.503 82.7014 156.332 82.3945 157.088 82.2478C158.078 82.0557 159.097 82.0977 160.101 82.1875C160.137 82.1906 160.136 82.2361 160.099 82.2327C159.148 82.1397 158.173 82.1856 157.249 82.3948C156.852 82.4846 156.465 82.5993 156.1 82.7517C155.864 82.8503 155.648 82.9663 155.436 83.0879C156.292 82.9505 157.178 82.946 158.054 83.1082C158.365 83.1657 158.667 83.2507 158.962 83.3478C159.192 83.3 159.448 83.2953 159.676 83.2994C159.988 83.3048 160.301 83.3446 160.603 83.405C161.227 83.5292 161.811 83.7656 162.366 84.0197C162.397 84.0343 162.368 84.0722 162.336 84.0583C161.796 83.8209 161.218 83.6496 160.616 83.5406C160.325 83.4878 160.031 83.4533 159.733 83.4372C159.568 83.4284 159.404 83.4347 159.24 83.4404C160.445 83.8946 161.459 84.6667 162.01 85.6446C162.025 85.6712 161.975 85.6933 161.961 85.6664C161.318 84.5071 159.948 83.7154 158.431 83.4066C158.336 83.3873 158.24 83.3772 158.144 83.3623C158.178 83.4729 158.172 83.6 158.19 83.7071C158.218 83.8807 158.255 84.0532 158.299 84.2249C158.388 84.5773 158.504 84.9275 158.647 85.2685C158.793 85.6143 158.964 85.9534 159.166 86.2806C159.372 86.6143 159.589 86.9705 159.89 87.2569C159.917 87.2819 159.868 87.3113 159.845 87.2835C159.588 86.9614 159.288 86.6649 159.053 86.3302C158.829 86.0103 158.633 85.6781 158.472 85.3349C158.31 84.9869 158.18 84.631 158.09 84.2663C158.043 84.0741 158.006 83.8807 157.978 83.6863C157.961 83.5737 157.928 83.4467 157.951 83.3323C157.448 83.2691 156.937 83.2653 156.429 83.3076C156.619 84.1578 156.824 85.0444 157.42 85.7831C157.44 85.8074 157.388 85.8308 157.371 85.8049C157.105 85.4044 156.832 85.015 156.635 84.5883C156.448 84.185 156.304 83.7526 156.267 83.3212C155.384 83.4129 154.52 83.6499 153.752 83.9951C152.269 84.661 151.144 85.7059 150.404 86.9206C149.6 88.2396 149.277 89.6593 149.163 91.1136C149.02 92.936 148.991 94.7699 148.763 96.5869C148.748 96.7055 148.512 96.7456 148.483 96.6116C148.398 96.2096 148.442 95.7974 148.452 95.3916Z" fill="#1D191F"/>
<path d="M153.472 83.5132C153.593 83.3713 153.802 83.2578 153.966 83.1494C154.143 83.0315 154.326 82.9181 154.517 82.8147C154.898 82.6086 155.307 82.4537 155.751 82.3577C155.787 82.3501 155.801 82.3956 155.765 82.4016C155.318 82.4787 154.913 82.6655 154.547 82.8798C154.365 82.986 154.191 83.1004 154.021 83.2183C153.864 83.328 153.707 83.4765 153.523 83.5565C153.491 83.5701 153.45 83.5388 153.472 83.5132Z" fill="#1D191F"/>
<path d="M160.406 84.8058C160.755 85.1447 161.109 85.4867 161.402 85.8584C161.696 86.2316 161.95 86.6179 162.143 87.0316C162.148 87.0439 162.124 87.0509 162.117 87.0398C161.59 86.2835 161.061 85.504 160.364 84.8368C160.341 84.8147 160.382 84.7831 160.406 84.8058Z" fill="#1D191F"/>
<path d="M155.732 84.4528C155.779 84.6753 155.86 84.8927 155.978 85.0979C156.092 85.297 156.24 85.4869 156.391 85.6693C156.401 85.6813 156.378 85.694 156.366 85.6839C155.98 85.3555 155.765 84.9038 155.677 84.4635C155.672 84.4351 155.726 84.4237 155.732 84.4528Z" fill="#1D191F"/>
<path d="M148.755 85.9878C148.755 85.9878 145.68 82.9007 139.743 83.995C134.101 85.0348 131.497 93.2975 137.199 94.2862C142.9 95.2748 141.895 87.6285 143.973 86.331C145.497 85.379 147.69 85.5835 148.755 85.9878Z" fill="#5D80D9"/>
<path d="M135.158 88.5076C135.548 88.2399 135.95 87.9829 136.381 87.7588C136.784 87.5493 137.223 87.3527 137.685 87.2389C137.918 86.9598 138.172 86.6915 138.459 86.444C138.989 85.9879 139.594 85.6061 140.253 85.303C140.194 85.3001 140.135 85.2951 140.076 85.2935C139.76 85.2853 139.447 85.2837 139.132 85.3011C138.495 85.3362 137.883 85.4544 137.3 85.6655C137.267 85.6775 137.242 85.6358 137.276 85.6244C137.861 85.4259 138.478 85.2711 139.105 85.1841C139.41 85.1421 139.724 85.1184 140.032 85.1206C140.199 85.1219 140.366 85.1307 140.531 85.1437C140.562 85.1462 140.594 85.1475 140.626 85.1497C141.169 84.9306 141.743 84.7628 142.337 84.6471C142.282 84.6354 142.228 84.6215 142.172 84.6114C141.882 84.5583 141.588 84.5239 141.292 84.4961C140.697 84.4401 140.11 84.4515 139.516 84.5179C139.48 84.522 139.47 84.4768 139.506 84.4733C140.098 84.4151 140.705 84.3968 141.301 84.4155C141.79 84.4306 142.309 84.4746 142.794 84.57C143.15 84.5185 143.511 84.4837 143.877 84.4714C145.946 84.4015 148.203 85.0195 149.477 86.3779C150.756 87.7405 151.001 89.5522 151.227 91.1929C151.54 93.4765 151.684 95.7924 151.454 98.0835C151.44 98.2191 151.202 98.1945 151.197 98.0655C151.119 96.1173 151.033 94.1687 150.8 92.2271C150.692 91.3282 150.572 90.4258 150.384 89.5348C150.225 88.7734 149.997 88.0133 149.566 87.3179C149.117 86.5922 148.437 86.0078 147.562 85.5975C146.701 85.1933 145.717 84.9692 144.724 84.9003C143.823 84.8377 142.923 84.9126 142.061 85.0994C142.099 85.2357 142.091 85.3785 142.076 85.5189C142.057 85.6949 142.013 85.8687 141.946 86.0369C141.883 86.1959 141.797 86.3498 141.698 86.4968C141.588 86.6595 141.45 86.8046 141.327 86.9608C141.307 86.9854 141.258 86.9576 141.281 86.9345C141.537 86.6776 141.667 86.3182 141.741 85.9999C141.778 85.8406 141.801 85.6785 141.812 85.5166C141.82 85.3946 141.807 85.2714 141.814 85.15C140.878 85.3795 139.995 85.7493 139.222 86.2427C139.078 86.3349 138.938 86.4326 138.802 86.5331C139.005 86.6659 139.169 86.8659 139.305 87.0268C139.508 87.2654 139.686 87.5142 139.833 87.7778C140.123 88.2987 140.277 88.8651 140.382 89.4267C140.388 89.4555 140.331 89.4637 140.326 89.4349C140.23 88.8799 139.975 88.3663 139.651 87.8723C139.494 87.633 139.319 87.3991 139.125 87.1779C139.025 87.0638 138.921 86.951 138.813 86.8416C138.755 86.7828 138.691 86.7231 138.636 86.6599C137.941 87.2029 137.366 87.8483 136.953 88.5531C136.956 88.5547 136.96 88.5547 136.964 88.5572C137.257 88.7753 137.465 89.0787 137.66 89.3556C137.873 89.6597 138.058 89.9795 138.216 90.3044C138.52 90.9315 138.721 91.5858 138.924 92.2375C138.933 92.2657 138.875 92.2745 138.868 92.2457C138.704 91.5814 138.389 90.9521 138.026 90.3421C137.849 90.0446 137.662 89.7526 137.464 89.4637C137.278 89.1922 137.051 88.9229 136.906 88.635C136.515 89.3275 136.276 90.0734 136.229 90.831C136.227 90.8601 136.169 90.8563 136.172 90.8269C136.291 89.6458 136.73 88.47 137.505 87.457C137.142 87.5806 136.777 87.6997 136.428 87.8499C135.983 88.0414 135.565 88.2687 135.194 88.5424C135.168 88.562 135.13 88.5269 135.158 88.5076Z" fill="#1D191F"/>
<path d="M139.512 88.6829C139.69 89.151 139.914 89.6055 140.075 90.0783C140.229 90.5328 140.336 91.0003 140.337 91.4722C140.337 91.4848 140.311 91.4858 140.309 91.4731C140.135 90.5363 139.878 89.5849 139.458 88.6968C139.444 88.6661 139.5 88.6513 139.512 88.6829Z" fill="#1D191F"/>
<path d="M135.751 87.5213C135.988 87.3433 136.246 87.1891 136.538 87.0728C136.827 86.9571 137.139 86.8901 137.447 86.8158C137.482 86.8076 137.494 86.854 137.458 86.8604C137.148 86.9157 136.861 87.0301 136.582 87.1483C136.303 87.2662 136.029 87.3951 135.775 87.544C135.756 87.5551 135.734 87.5342 135.751 87.5213Z" fill="#1D191F"/>
<path d="M145.832 81.8653C145.832 81.8653 145.265 76.3195 140.102 74.5217C135.791 73.0207 133.322 76.8894 136.37 79.2577C138.836 81.1734 142.79 80.3089 145.832 81.8653Z" fill="#5D80D9"/>
<path d="M137.325 75.5956C138.107 75.8621 138.882 76.126 139.621 76.4638C140.241 76.7467 140.833 77.0666 141.404 77.4089C141.318 77.2686 141.244 77.1219 141.157 76.9851C141.023 76.7711 140.878 76.5612 140.719 76.3583C140.39 75.9408 140.029 75.5498 139.581 75.2087C139.555 75.1885 139.597 75.1566 139.623 75.1775C140.049 75.5264 140.469 75.8905 140.819 76.2903C140.996 76.492 141.163 76.7012 141.31 76.9177C141.445 77.115 141.597 77.334 141.657 77.5565C141.676 77.5679 141.695 77.578 141.714 77.5897C142.62 78.1596 143.438 78.8126 144.18 79.5164C144.165 79.4618 144.151 79.4074 144.133 79.3575C144.037 79.0869 143.932 78.8186 143.821 78.5515C143.586 77.9901 143.297 77.4294 142.888 76.9338C142.868 76.9095 142.919 76.8871 142.938 76.912C143.328 77.4263 143.719 77.9355 144.018 78.4895C144.161 78.7547 144.281 79.0303 144.375 79.3094C144.431 79.4754 144.52 79.6764 144.543 79.8667C144.768 80.0939 144.989 80.3237 145.197 80.5607C147.413 83.0804 148.526 86.1283 148.793 89.1777C148.873 90.0874 148.889 90.9983 148.851 91.9098C148.812 92.8217 148.771 93.7547 148.548 94.6517C148.534 94.7089 148.422 94.6919 148.424 94.6356C148.449 93.8344 148.553 93.0366 148.573 92.2344C148.592 91.4316 148.557 90.6269 148.476 89.8266C148.314 88.232 147.935 86.6375 147.35 85.1074C146.752 83.5432 145.867 82.0368 144.724 80.671C144.507 80.6366 144.291 80.5895 144.078 80.5456C143.82 80.4925 143.562 80.44 143.305 80.3825C142.812 80.2722 142.323 80.1473 141.866 79.9608C141.834 79.9479 141.864 79.9074 141.896 79.9223C142.346 80.1328 142.847 80.2434 143.356 80.3243C143.76 80.3885 144.179 80.4305 144.584 80.5048C144.21 80.0692 143.811 79.6473 143.384 79.2449C142.403 79.3214 141.404 79.2522 140.446 79.0698C139.936 78.9728 139.432 78.8464 138.943 78.6959C138.426 78.5369 137.936 78.3325 137.426 78.1621C137.388 78.1495 137.414 78.1043 137.449 78.1213C138.325 78.5458 139.425 78.7636 140.426 78.8995C141.35 79.025 142.278 79.0705 143.212 79.0831C142.845 78.7471 142.466 78.4197 142.061 78.1122C140.705 77.0808 139.094 76.1329 137.309 75.6389C137.274 75.6291 137.292 75.5842 137.325 75.5956Z" fill="#1D191F"/>
<path d="M141.527 75.6127C141.757 75.8465 141.973 76.094 142.159 76.3519C142.357 76.6257 142.501 76.9101 142.615 77.212C142.619 77.2218 142.6 77.2278 142.594 77.2186C142.422 76.9465 142.276 76.6645 142.102 76.3937C141.929 76.1256 141.726 75.8763 141.485 75.6439C141.462 75.6212 141.504 75.5899 141.527 75.6127Z" fill="#1D191F"/>
<path d="M136.726 77.4591C137.061 77.614 137.418 77.7174 137.785 77.8119C138.138 77.9032 138.498 77.9851 138.863 78.0429C138.88 78.0455 138.875 78.0688 138.858 78.0673C138.478 78.0316 138.104 77.9731 137.742 77.8719C137.382 77.7717 137.038 77.6317 136.697 77.4974C136.664 77.4851 136.694 77.4443 136.726 77.4591Z" fill="#1D191F"/>
<path d="M149.845 80.8666C149.878 81.1062 150.627 78.8532 154.992 76.8528C158.956 75.0364 163.688 70.3118 159.801 67.3268C156.663 64.9178 148.397 70.1699 149.845 80.8666Z" fill="#5D80D9"/>
<path d="M146.841 93.7837C146.906 91.4394 147.135 89.0977 147.533 86.7742C147.899 84.6376 148.476 82.5348 149.378 80.5003C149.703 79.7673 150.074 79.0457 150.476 78.3355C150.434 78.0653 150.478 77.7672 150.494 77.5062C150.516 77.1512 150.556 76.7969 150.597 76.4432C150.637 76.0892 150.683 75.7352 150.736 75.3825C150.788 75.0323 150.882 74.6773 150.9 74.3252C150.902 74.2927 150.966 74.2996 150.956 74.3322C150.849 74.6938 150.835 75.0847 150.799 75.4545C150.766 75.7965 150.741 76.1385 150.728 76.4815C150.715 76.8247 150.717 77.1676 150.717 77.5109C150.717 77.6348 150.725 77.766 150.731 77.8981C151.142 77.2052 151.582 76.5235 152.058 75.8591C151.762 74.4137 152.146 72.9029 152.515 71.4895C152.523 71.461 152.577 71.4743 152.57 71.5027C152.377 72.2389 152.303 72.9921 152.282 73.743C152.265 74.3366 152.3 74.9302 152.303 75.5234C152.407 75.3812 152.512 75.2387 152.619 75.0983C153.185 74.36 153.79 73.6368 154.432 72.9345C154.363 72.597 154.413 72.2392 154.475 71.9051C154.545 71.5255 154.653 71.1465 154.791 70.7793C154.931 70.4098 155.09 70.0476 155.275 69.6907C155.464 69.3241 155.715 68.9773 155.898 68.6094C155.913 68.5788 155.97 68.6 155.949 68.6278C155.702 68.9584 155.55 69.356 155.403 69.7214C155.26 70.0763 155.138 70.4404 155.046 70.8058C154.954 71.1728 154.878 71.5407 154.813 71.9114C154.771 72.1567 154.744 72.4108 154.691 72.6586C155.63 71.6573 156.646 70.7015 157.747 69.8178C157.774 69.7969 157.81 69.8291 157.787 69.8506C156.129 71.3542 154.63 72.9481 153.348 74.672C153.3 74.7361 153.255 74.8015 153.208 74.866C153.448 74.7456 153.725 74.6502 153.951 74.5496C154.374 74.3619 154.798 74.1751 155.224 73.9915C155.637 73.8132 156.049 73.633 156.461 73.451C156.672 73.3571 156.881 73.2598 157.096 73.1716C157.341 73.0717 157.616 72.9759 157.836 72.8441C157.869 72.8242 157.905 72.8647 157.869 72.8805C157.449 73.0647 157.078 73.3391 156.672 73.5458C156.263 73.7541 155.849 73.9539 155.426 74.1429C154.65 74.4886 153.807 74.7374 153.043 75.0949C152.512 75.8354 152.025 76.5959 151.574 77.3699C152.037 77.1326 152.511 76.9075 152.992 76.692C153.301 76.5535 153.611 76.4173 153.925 76.2855C154.228 76.1581 154.542 76.0402 154.804 75.8613C154.832 75.8424 154.869 75.8737 154.843 75.8942C154.349 76.2804 153.759 76.5494 153.166 76.8263C152.605 77.088 152.038 77.3405 151.455 77.569C150.988 78.3858 150.566 79.2183 150.192 80.0638C148.355 84.2185 147.679 88.6292 147.357 93.01C147.261 94.3163 147.211 95.621 147.191 96.9292C147.17 98.2355 147.257 99.5396 147.254 100.845C147.254 100.884 147.174 100.893 147.167 100.853C146.971 99.6948 146.936 98.5168 146.873 97.3505C146.809 96.1634 146.808 94.9709 146.841 93.7837Z" fill="#1D191F"/>
<path d="M154.772 74.9743C155.574 74.7114 156.338 74.3567 157.092 74.0163C157.85 73.6737 158.586 73.3049 159.294 72.8997C159.306 72.893 159.32 72.9088 159.309 72.9161C158.638 73.3453 157.933 73.7464 157.194 74.0972C156.426 74.4614 155.615 74.73 154.799 75.0142C154.766 75.0255 154.739 74.9851 154.772 74.9743Z" fill="#1D191F"/>
<path d="M153.508 70.2775C153.573 70.0749 153.653 69.8758 153.738 69.6779C153.729 69.6732 153.722 69.6656 153.727 69.6548C153.782 69.5423 153.84 69.4311 153.898 69.3195C153.904 69.3043 153.911 69.2901 153.918 69.2793C153.929 69.2579 153.94 69.2367 153.951 69.2152C153.954 69.2082 153.968 69.2114 153.965 69.2187C153.949 69.2569 153.937 69.2961 153.922 69.3343C153.915 69.3561 153.91 69.3761 153.898 69.3985C153.601 70.1722 153.404 70.9659 153.251 71.7655C153.247 71.7905 153.198 71.7915 153.2 71.7646C153.238 71.2614 153.352 70.7655 153.508 70.2775Z" fill="#1D191F"/>
<path d="M142.229 94.626L142.54 97.5746L143.493 106.567H153.708L154.661 97.5746L154.973 94.626H142.229Z" fill="#1E397D"/>
<path d="M142.229 94.626L142.54 97.5746H154.661L154.973 94.626H142.229Z" fill="#1D191F"/>
<path d="M141.227 96.2721H155.976V93.4433H141.227V96.2721Z" fill="#1E397D"/>
<path d="M127.488 120.239H38.5812C36.3498 120.239 34.541 118.794 34.541 117.012V7.63842C34.541 5.85642 36.3498 4.41199 38.5812 4.41199H127.488C129.719 4.41199 131.528 5.85642 131.528 7.63842V117.013C131.528 118.794 129.719 120.239 127.488 120.239Z" fill="#1E397D"/>
<path d="M127.433 12.5906H38.6855V112.287H127.433V12.5906Z" fill="#FAFAFA"/>
<path d="M72.4424 9.3949V8.98054C72.4424 8.76213 72.664 8.58545 72.9371 8.58545H93.068C93.3414 8.58545 93.5627 8.76245 93.5627 8.98054V9.3949C93.5627 9.61331 93.341 9.78999 93.068 9.78999H72.9371C72.664 9.78999 72.4424 9.61331 72.4424 9.3949Z" fill="#1E397D"/>
<path d="M83.0028 118.834C81.4941 118.834 80.2715 117.857 80.2715 116.652C80.2715 115.448 81.4945 114.471 83.0028 114.471C84.5115 114.471 85.7345 115.448 85.7345 116.652C85.7345 117.857 84.5115 118.834 83.0028 118.834Z" fill="#1E397D"/>
<path d="M100.326 92.2422H65.6797V100.774H100.326V92.2422Z" fill="#1E397D"/>
<path d="M75.4867 95.5059C75.4424 95.467 75.3783 95.4253 75.294 95.381C75.2097 95.3368 75.1115 95.2954 74.9983 95.2562C74.8855 95.2173 74.7617 95.1857 74.6267 95.1607C74.4917 95.1361 74.3532 95.1238 74.2119 95.1238C73.8977 95.1238 73.6661 95.1696 73.5181 95.2616C73.3697 95.3535 73.2957 95.4806 73.2957 95.6434C73.2957 95.7353 73.319 95.8103 73.3653 95.8687C73.4116 95.9269 73.4837 95.9784 73.581 96.0223C73.6784 96.0666 73.8003 96.1058 73.9463 96.139C74.0924 96.1728 74.2626 96.2088 74.4577 96.2477C74.6968 96.2935 74.9124 96.345 75.1052 96.4016C75.2975 96.4582 75.4602 96.5271 75.5932 96.6086C75.7258 96.6899 75.8287 96.7894 75.9019 96.908C75.9751 97.0265 76.0115 97.1706 76.0115 97.3403C76.0115 97.5312 75.966 97.6956 75.8754 97.8334C75.7848 97.9712 75.6609 98.0834 75.5038 98.1697C75.3466 98.2563 75.1642 98.3202 74.956 98.3606C74.7478 98.4014 74.5242 98.4216 74.2851 98.4216C73.9266 98.4216 73.5802 98.3786 73.2462 98.2917C72.9118 98.2048 72.6098 98.079 72.3398 97.9124L72.6782 97.4036C72.7356 97.4494 72.8187 97.5006 72.9272 97.5572C73.0356 97.6141 73.1619 97.6659 73.3056 97.7139C73.4492 97.7617 73.6052 97.8021 73.7738 97.8356C73.942 97.8694 74.1169 97.8859 74.2982 97.8859C74.5903 97.8859 74.8159 97.8454 74.9754 97.7642C75.1349 97.683 75.2144 97.5629 75.2144 97.4039C75.2144 97.3084 75.1848 97.2288 75.1246 97.1649C75.0648 97.1017 74.9797 97.0458 74.8689 96.998C74.7581 96.9503 74.6231 96.907 74.464 96.8681C74.3045 96.8293 74.1233 96.7885 73.9194 96.7461C73.6847 96.6965 73.4801 96.6447 73.3052 96.5894C73.1302 96.535 72.9854 96.4683 72.8702 96.3909C72.755 96.3128 72.668 96.2218 72.6078 96.1178C72.548 96.0138 72.5183 95.8874 72.5183 95.7385C72.5183 95.5546 72.5627 95.3911 72.6509 95.2483C72.7392 95.1051 72.8599 94.985 73.0127 94.8876C73.1655 94.7906 73.3455 94.7173 73.5537 94.6677C73.7615 94.6184 73.9875 94.5934 74.2309 94.5934C74.5495 94.5934 74.844 94.6338 75.1139 94.7151C75.3838 94.7963 75.6205 94.8971 75.8243 95.0172L75.4867 95.5059Z" fill="#FAFAFA"/>
<path d="M80.4462 95.1453H78.8793V98.385H78.1293V95.1453H76.5557V94.6206H80.4466V95.1453H80.4462Z" fill="#FAFAFA"/>
<path d="M82.2652 94.6201H82.9159L84.7749 98.3845H83.9916L83.4937 97.3611H81.6747L81.1835 98.3845H80.3936L82.2652 94.6201ZM83.3473 96.9214L82.5902 95.3044L81.8069 96.9214H83.3473Z" fill="#FAFAFA"/>
<path d="M85.625 98.385V94.6206H87.6768C87.8889 94.6206 88.0852 94.656 88.2641 94.7265C88.4434 94.7973 88.597 94.8902 88.7256 95.0049C88.8538 95.12 88.9547 95.2505 89.0276 95.3972C89.1004 95.5438 89.1372 95.693 89.1372 95.8451C89.1372 95.9724 89.1146 96.0941 89.0707 96.2108C89.0264 96.3274 88.9643 96.4355 88.8847 96.5341C88.8055 96.633 88.7078 96.719 88.5926 96.7914C88.4774 96.8638 88.3516 96.9178 88.2142 96.9529L89.3232 98.3847H88.4798L87.4575 97.0752H86.3683V98.3847H85.625V98.385ZM86.3687 96.5502H87.67C87.7765 96.5502 87.8727 96.5316 87.9589 96.4946C88.0448 96.4576 88.1188 96.4064 88.181 96.3407C88.2427 96.2752 88.2914 96.2003 88.327 96.1156C88.3623 96.0306 88.3801 95.9405 88.3801 95.8451C88.3801 95.7496 88.3591 95.6595 88.3171 95.5745C88.2748 95.4898 88.2198 95.4155 88.1509 95.352C88.0824 95.2885 88.0025 95.2379 87.9119 95.2009C87.8212 95.1639 87.727 95.1453 87.6301 95.1453H86.3683V96.5502H86.3687Z" fill="#FAFAFA"/>
<path d="M93.665 95.1453H92.0981V98.385H91.3477V95.1453H89.7744V94.6206H93.665V95.1453Z" fill="#FAFAFA"/>
<path d="M98.8619 101.472H67.1433L65.6797 100.773H100.326L98.8619 101.472Z" fill="#1D191F"/>
<path d="M154.383 125.779C154.45 126.481 151.937 126.683 150.888 126.228C150.556 126.084 149.615 125.449 148.469 124.641C145.951 122.862 142.467 120.259 142.467 120.259L139.887 121.185L127.282 124.536L121.965 113.552C121.965 113.552 128.064 111.491 133.864 109.646C134.755 109.363 135.634 109.089 136.49 108.823C136.543 108.806 136.596 108.79 136.648 108.773C140.54 107.577 143.765 106.673 144.095 106.859C144.986 107.354 154.316 125.072 154.383 125.779Z" fill="#C8D4F2"/>
<path d="M154.383 125.778C154.451 126.482 151.937 126.682 150.888 126.23C150.556 126.084 149.614 125.449 148.47 124.64C145.949 122.863 142.466 120.259 142.466 120.259L139.886 121.185L139.466 121.296L133.676 109.706C133.739 109.683 133.798 109.664 133.862 109.645C134.756 109.364 135.635 109.089 136.49 108.824C136.541 108.805 136.597 108.789 136.648 108.773C140.539 107.578 143.764 106.671 144.097 106.858C144.987 107.354 154.316 125.073 154.383 125.778Z" fill="#EBEBEB"/>
<path d="M154.607 126.038C154.552 125.318 145.333 107.183 144.433 106.671C144.095 106.472 140.708 107.39 136.655 108.594C136.613 108.607 136.571 108.62 136.528 108.633L142.312 120.386L142.559 120.301C142.559 120.301 149.975 125.982 151.039 126.462C152.099 126.937 154.665 126.757 154.607 126.038Z" fill="#5D80D9"/>
<path d="M153.622 126.118C151.974 123.091 145.685 110.76 144.344 107.668C144.333 107.643 144.354 107.636 144.368 107.66C146.083 110.632 152.247 123.003 153.685 126.098C153.715 126.163 153.657 126.182 153.622 126.118Z" fill="#1D191F"/>
<path d="M143.016 121.674C142.124 120.563 141.607 119.016 142.213 117.749C142.236 117.7 142.323 117.727 142.327 117.771C142.462 119.11 142.725 120.315 143.204 121.607C143.238 121.699 143.08 121.754 143.016 121.674Z" fill="#1D191F"/>
<path d="M144.113 122.33C143.22 121.218 142.703 119.672 143.309 118.405C143.333 118.356 143.42 118.383 143.424 118.427C143.559 119.766 143.822 120.971 144.3 122.263C144.334 122.354 144.177 122.409 144.113 122.33Z" fill="#1D191F"/>
<path d="M145.209 122.986C144.317 121.874 143.8 120.328 144.406 119.061C144.429 119.012 144.516 119.039 144.521 119.083C144.656 120.422 144.918 121.628 145.397 122.92C145.431 123.011 145.273 123.066 145.209 122.986Z" fill="#1D191F"/>
<path d="M142.397 123.069C142.793 121.95 142.569 120.732 142.524 119.59C142.52 119.471 142.357 119.429 142.24 119.462C142.226 119.444 142.199 119.433 142.172 119.451C141.08 120.187 140.105 121.332 139.663 122.423C139.39 123.096 139.47 124.095 140.526 124.304C141.525 124.501 142.166 123.722 142.397 123.069ZM141.341 123.768C139.796 124.516 139.943 122.818 140.169 122.328C140.315 122.013 140.511 121.706 140.708 121.41C141.122 120.791 141.638 120.23 142.125 119.649C142.104 120.212 142.143 120.771 142.148 121.333C142.153 122.003 142.193 123.356 141.341 123.768Z" fill="#1D191F"/>
<path d="M137.834 116.179C137.043 116.775 137.587 117.677 138.239 118.156C139.295 118.933 140.848 119.548 142.251 119.761C142.286 119.766 142.303 119.747 142.305 119.725C142.427 119.708 142.543 119.607 142.474 119.502C141.81 118.49 141.258 117.341 140.224 116.521C139.621 116.043 138.583 115.616 137.834 116.179ZM141.074 118.131C141.416 118.623 141.725 119.125 142.09 119.607C141.308 119.292 140.514 119.006 139.772 118.628C139.418 118.448 139.059 118.258 138.739 118.041C138.241 117.702 137.069 116.28 138.874 116.326C139.869 116.351 140.667 117.545 141.074 118.131Z" fill="#1D191F"/>
<path opacity="0.1" d="M154.605 126.036C154.664 126.757 152.099 126.937 151.039 126.46C149.974 125.98 142.557 120.3 142.557 120.3L142.312 120.385L137.74 111.096L146.744 110.448C149.76 115.938 154.569 125.518 154.605 126.036Z" fill="#1D191F"/>
<path d="M137.594 123.217C137.594 123.217 110.192 128.242 100.112 126.791C95.2878 126.097 91.8057 121.14 94.1242 117.342C96.2879 113.799 109.515 110.203 113.252 108.119C114.429 107.467 114.303 104.876 114.303 104.876L124.12 104.771C124.12 104.771 127.619 109.21 126.136 111.372C126.114 111.409 126.086 111.441 126.053 111.479L130.481 110.134L137.594 123.217Z" fill="#1E397D"/>
<path d="M131.527 117.3C130.436 115.404 129.236 113.551 128.125 111.664C128.104 111.628 128.031 111.648 128.051 111.685C129.1 113.587 130.069 115.516 131.16 117.404C132.255 119.299 133.435 121.156 134.581 123.031C134.61 123.079 134.709 123.054 134.681 123.003C133.623 121.104 132.615 119.189 131.527 117.3Z" fill="#1D191F"/>
<path d="M126.117 111.57C125.441 111.884 124.795 112.25 124.138 112.589C123.489 112.923 122.837 113.253 122.174 113.568C120.835 114.204 119.463 114.799 118.076 115.365C115.278 116.507 112.391 117.508 109.426 118.339C107.774 118.803 106.104 119.256 104.404 119.593C104.366 119.6 104.384 119.645 104.421 119.639C105.659 119.402 106.896 119.169 108.121 118.894C107.471 119.22 106.834 119.56 106.188 119.892C106.156 119.908 106.187 119.948 106.22 119.932C106.926 119.592 107.641 119.265 108.341 118.917C108.381 118.897 108.381 118.862 108.361 118.838C108.57 118.789 108.78 118.743 108.988 118.692C110.502 118.317 111.998 117.897 113.468 117.422C116.377 116.483 119.179 115.36 121.846 114.04C122.597 113.667 123.341 113.285 124.074 112.89C124.795 112.501 125.536 112.101 126.188 111.64C126.238 111.605 126.171 111.545 126.117 111.57Z" fill="#1D191F"/>
<path d="M164.901 128.468C164.968 129.17 162.455 129.371 161.406 128.917C161.074 128.772 160.132 128.138 158.987 127.33C156.469 125.551 152.985 122.948 152.985 122.948L150.405 123.874L138.175 127.214L132.482 116.241C132.482 116.241 138.582 114.18 144.381 112.335C145.273 112.052 146.152 111.777 147.008 111.511C147.06 111.494 147.113 111.478 147.166 111.461C151.057 110.266 154.282 109.361 154.613 109.547C155.504 110.042 164.834 127.761 164.901 128.468Z" fill="#C8D4F2"/>
<path d="M164.9 128.468C164.967 129.169 162.454 129.372 161.405 128.916C161.073 128.771 160.131 128.136 158.987 127.33C156.47 125.55 152.983 122.946 152.983 122.946L150.406 123.875L150.062 123.97L144.05 112.44C144.161 112.405 144.271 112.37 144.382 112.335C145.273 112.051 146.151 111.776 147.006 111.511C147.062 111.495 147.113 111.479 147.165 111.46C151.059 110.265 154.281 109.361 154.613 109.548C155.504 110.041 164.832 127.76 164.9 128.468Z" fill="#EBEBEB"/>
<path d="M165.13 128.625C165.063 127.906 155.532 109.874 154.623 109.372C154.282 109.177 150.91 110.133 146.879 111.381C146.837 111.394 146.795 111.408 146.753 111.421L152.739 123.109L152.984 123.021C152.984 123.021 160.498 128.62 161.571 129.088C162.638 129.552 165.201 129.344 165.13 128.625Z" fill="#5D80D9"/>
<path d="M164.146 128.717C162.446 125.709 155.945 113.448 154.55 110.371C154.539 110.346 154.56 110.34 154.574 110.363C156.341 113.315 162.718 125.618 164.209 128.696C164.24 128.761 164.182 128.781 164.146 128.717Z" fill="#1D191F"/>
<path d="M153.465 124.391C152.553 123.289 152.01 121.748 152.594 120.474C152.616 120.425 152.704 120.451 152.709 120.495C152.867 121.832 153.15 123.035 153.651 124.322C153.687 124.413 153.53 124.47 153.465 124.391Z" fill="#1D191F"/>
<path d="M154.573 125.034C153.661 123.932 153.118 122.392 153.702 121.118C153.725 121.069 153.812 121.095 153.817 121.139C153.975 122.476 154.259 123.679 154.76 124.966C154.795 125.056 154.639 125.113 154.573 125.034Z" fill="#1D191F"/>
<path d="M155.681 125.679C154.769 124.577 154.225 123.036 154.81 121.762C154.832 121.713 154.92 121.739 154.925 121.783C155.083 123.121 155.366 124.323 155.867 125.61C155.903 125.701 155.746 125.757 155.681 125.679Z" fill="#1D191F"/>
<path d="M152.87 125.792C153.246 124.668 153.001 123.454 152.937 122.311C152.93 122.193 152.766 122.152 152.65 122.187C152.635 122.169 152.608 122.158 152.582 122.177C151.503 122.924 150.548 124.08 150.124 125.175C149.863 125.852 149.961 126.85 151.02 127.047C152.022 127.233 152.65 126.448 152.87 125.792ZM151.826 126.503C150.294 127.267 150.412 125.568 150.629 125.075C150.769 124.759 150.959 124.45 151.152 124.152C151.555 123.529 152.061 122.962 152.538 122.376C152.527 122.938 152.576 123.497 152.59 124.059C152.608 124.729 152.67 126.081 151.826 126.503Z" fill="#1D191F"/>
<path d="M148.189 118.953C147.408 119.557 147.968 120.453 148.628 120.926C149.697 121.691 151.26 122.289 152.667 122.486C152.702 122.491 152.719 122.471 152.72 122.449C152.842 122.432 152.956 122.329 152.885 122.225C152.204 121.22 151.632 120.077 150.584 119.269C149.973 118.797 148.928 118.382 148.189 118.953ZM151.462 120.869C151.812 121.357 152.13 121.856 152.503 122.334C151.716 122.028 150.917 121.75 150.169 121.381C149.812 121.204 149.449 121.018 149.126 120.804C148.622 120.472 147.425 119.063 149.231 119.089C150.227 119.103 151.044 120.288 151.462 120.869Z" fill="#1D191F"/>
<path d="M117.679 104.825L134.558 104.622C134.558 104.622 138.139 111.897 136.656 114.061C135.173 116.225 119.626 119.317 119.626 119.317L140.999 112.824L148.111 125.903C148.111 125.903 122.126 130.426 108.343 129.304C103.17 128.883 99.9236 123.487 102.954 119.341C106.141 114.979 117.707 109.012 117.707 109.012L117.679 104.825Z" fill="#1E397D"/>
<path d="M140.443 112.79C133.901 115.177 127.302 117.459 120.553 119.449C119.615 119.726 118.677 120 117.736 120.269C116.76 120.548 115.792 120.87 114.794 121.094C114.745 121.105 114.771 121.168 114.818 121.153C115.678 120.896 116.572 120.712 117.444 120.484C118.299 120.26 119.152 120.033 120.001 119.797C120.367 119.696 120.733 119.59 121.099 119.486C121.024 119.528 120.95 119.569 120.877 119.608C120.54 119.787 120.204 119.968 119.873 120.154C119.189 120.537 118.555 120.992 117.837 121.334C117.794 121.355 117.839 121.41 117.88 121.387C118.561 121.001 119.328 120.712 120.029 120.347C120.368 120.17 120.7 119.986 121.03 119.798C121.322 119.631 121.654 119.463 121.911 119.256C122.986 118.948 124.059 118.636 125.126 118.311C128.488 117.288 131.809 116.189 135.087 115.003C136.917 114.341 138.731 113.653 140.523 112.925C140.616 112.887 140.54 112.755 140.443 112.79Z" fill="#1D191F"/>
<path d="M142.423 119.873C141.332 117.978 140.132 116.125 139.021 114.238C139 114.202 138.926 114.222 138.947 114.259C139.995 116.161 140.964 118.09 142.055 119.978C143.15 121.873 144.331 123.73 145.477 125.605C145.506 125.653 145.604 125.627 145.576 125.577C144.519 123.677 143.51 121.762 142.423 119.873Z" fill="#1D191F"/>
<path d="M117.402 109.154C115.535 109.967 113.778 110.969 112.071 111.979C110.379 112.981 108.738 114.041 107.176 115.17C106.387 115.74 105.625 116.335 104.889 116.947C104.186 117.532 103.512 118.143 102.949 118.819C101.942 120.027 101.412 121.477 101.549 122.931C101.621 123.697 101.835 124.474 102.219 125.179C102.608 125.894 103.168 126.506 103.782 127.107C103.806 127.131 103.85 127.095 103.823 127.073C103.215 126.555 102.802 125.892 102.504 125.229C102.219 124.597 102.027 123.936 101.982 123.265C101.888 121.868 102.256 120.497 103.163 119.295C104.2 117.922 105.723 116.783 107.171 115.689C108.666 114.56 110.235 113.5 111.865 112.497C112.78 111.935 113.711 111.389 114.65 110.852C115.591 110.314 116.549 109.799 117.467 109.237C117.529 109.2 117.473 109.123 117.402 109.154Z" fill="#1D191F"/>
<path d="M122.309 109.696C120.936 109.314 119.437 109.165 117.997 109.037C116.557 108.909 115.117 108.848 113.671 108.832C113.631 108.831 113.635 108.877 113.672 108.879C115.138 108.982 116.602 109.13 118.057 109.304C119.465 109.473 120.875 109.716 122.294 109.807C122.378 109.812 122.378 109.716 122.309 109.696Z" fill="#1D191F"/>
<path d="M133.786 109.856C132.882 109.847 131.993 109.763 131.098 109.661C130.36 109.577 129.604 109.49 128.99 109.122C127.793 108.405 127.306 107.144 127.052 106.018C127.046 105.992 126.989 105.999 126.993 106.026C127.197 107.251 127.266 108.657 128.613 109.48C129.28 109.887 130.085 110.01 130.907 110.052C131.862 110.1 132.844 110.016 133.788 109.909C133.829 109.904 133.83 109.857 133.786 109.856Z" fill="#1D191F"/>
<path d="M135.644 111.798C135.569 111.091 135.375 110.384 135.17 109.695C134.959 108.984 134.706 108.282 134.424 107.586C134.103 106.798 133.732 106.022 133.343 105.253C133.329 105.225 133.273 105.237 133.286 105.267C133.843 106.568 134.351 107.886 134.776 109.219C134.986 109.88 135.173 110.544 135.34 111.213C135.502 111.865 135.584 112.522 135.355 113.171C135.125 113.825 134.65 114.411 134.003 114.851C133.997 114.855 134.006 114.864 134.013 114.86C135.172 114.126 135.768 112.969 135.644 111.798Z" fill="#1D191F"/>
<path d="M138.532 115.796C137.393 116.034 136.277 116.347 135.158 116.636C134.036 116.926 132.916 117.217 131.798 117.515C129.561 118.11 127.333 118.726 125.104 119.341C123.839 119.69 122.582 120.063 121.325 120.429C121.289 120.44 121.305 120.484 121.342 120.475C125.845 119.359 130.319 118.17 134.767 116.921C136.028 116.567 137.309 116.24 138.544 115.828C138.568 115.82 138.558 115.79 138.532 115.796Z" fill="#1D191F"/>
<path d="M105.878 94.6462C106.106 94.6844 107.171 94.8661 108.728 95.1351C109.465 94.4221 110.443 93.111 110.641 91.0749C110.671 90.7373 111.197 92.7823 110.175 95.3845C113.184 95.901 117.278 96.6017 120.861 97.1867C121.197 96.0773 121.571 95.0608 121.571 95.0608C121.502 95.8867 121.545 96.6478 121.639 97.3163C122.128 97.3994 122.609 97.4734 123.07 97.5477C123.378 95.7929 124.47 92.8196 124.47 92.8196C124.294 94.9764 124.737 96.7872 125.109 97.8713C127.388 98.2234 128.896 98.4222 128.82 98.3214C126.121 94.6389 129.08 93.203 128.761 90.2718C128.376 86.7593 124.903 85.6837 125.606 83.1962C126.171 81.1712 127.368 77.5231 124.333 76.244C124.333 76.244 122.257 73.5536 117.84 74.1914C112.376 74.9766 112.897 81.5653 112.246 82.7904C111.318 84.5411 110.077 85.0193 108.769 86.978C107.439 88.9591 108.307 90.5404 108.104 91.9896C107.893 93.4366 105.307 94.5551 105.878 94.6462Z" fill="#1D191F"/>
<path d="M129.028 97.8853C128.702 97.2512 128.433 96.5947 128.345 95.9335C128.232 95.2729 128.496 94.6541 128.809 94.0216C129.121 93.3927 129.467 92.7536 129.708 92.0724C129.938 91.3926 130.08 90.6621 129.955 89.9367C129.846 89.212 129.501 88.5163 129.012 87.9212C128.531 87.3184 127.939 86.8023 127.369 86.2953C126.807 85.7842 126.246 85.2785 125.876 84.6805C125.493 84.0895 125.337 83.4077 125.395 82.7206C125.201 83.39 125.26 84.122 125.589 84.7817C125.912 85.4445 126.445 86.0191 126.979 86.5567C127.513 87.0978 128.056 87.6181 128.479 88.1838C128.898 88.749 129.196 89.3609 129.28 90.0012C129.368 90.64 129.281 91.2943 129.068 91.9356C128.866 92.5804 128.558 93.2125 128.287 93.8721C128.156 94.2027 128.028 94.5409 127.958 94.8975C127.886 95.2546 127.912 95.6314 128 95.9765C128.194 96.6693 128.56 97.3072 129.028 97.8853Z" fill="#1D191F"/>
<path d="M114.404 76.0906C113.823 76.8027 113.477 77.6178 113.132 78.4165C112.806 79.2234 112.53 80.0408 112.266 80.8569L111.862 82.0734C111.725 82.4799 111.568 82.8567 111.348 83.217C110.914 83.9414 110.221 84.5258 109.456 85.1109C109.082 85.4099 108.7 85.7221 108.366 86.0727C108.03 86.4222 107.739 86.8022 107.509 87.2036C107.294 87.6122 107.118 88.0178 106.983 88.4407C106.845 88.862 106.771 89.3035 106.765 89.741C106.757 90.1797 106.811 90.6041 106.843 91.0166C106.877 91.4285 106.862 91.8438 106.797 92.248C106.685 93.0521 105.971 93.7639 105.045 94.1609C106.036 93.8739 106.881 93.1706 107.12 92.2957C107.236 91.8703 107.282 91.4392 107.288 91.009C107.297 90.5795 107.261 90.1616 107.298 89.7577C107.36 88.9546 107.68 88.1556 108.099 87.4223C108.324 87.0623 108.583 86.7193 108.896 86.403C109.205 86.085 109.566 85.7948 109.942 85.5012C110.312 85.2044 110.698 84.9004 111.046 84.5593C111.393 84.2186 111.705 83.8444 111.937 83.4404C112.166 83.0365 112.325 82.6067 112.445 82.1954C112.574 81.7817 112.682 81.3683 112.788 80.9552C113.008 80.1303 113.211 79.3056 113.457 78.4895C113.691 77.6703 113.963 76.8586 114.404 76.0906Z" fill="#1D191F"/>
<path d="M121.337 88.1529C118.373 91.9125 112.583 96.9946 108.573 98.7819C106.845 99.5522 99.2822 99.8364 94.6816 99.5159C92.9631 99.3961 94.7738 92.1221 96.6554 92.0882C97.9366 92.0652 104.617 92.9445 105.572 92.6862C107.331 92.2112 113.84 88.2862 118.31 86.3086C120.805 85.2049 123.181 85.8146 121.337 88.1529Z" fill="#C8D4F2"/>
<path d="M99.5732 92.6553C96.4695 91.7298 92.6755 90.4264 88.9943 90.9447C88.2724 91.0465 87.9205 91.3939 87.9205 91.3939C86.2653 91.6028 85.8917 92.2896 85.8917 92.2896C84.4245 92.8614 84.1637 93.6057 84.1637 93.6057C84.1637 93.6057 82.224 93.868 82.2275 94.8308C82.2279 95.9102 84.9521 95.3308 86.6944 95.7436C90.6863 96.6899 96.6167 99.069 97.734 99.4331L99.5732 92.6553Z" fill="#C8D4F2"/>
<path d="M91.7433 94.3909C90.5615 94.1311 89.4093 93.8514 88.1895 93.7209C86.8514 93.5777 85.5338 93.6191 84.1905 93.6343C84.1486 93.6346 84.1434 93.5884 84.1846 93.5827C86.61 93.2474 89.5008 93.5752 91.7587 94.3483C91.8137 94.3669 91.8027 94.4042 91.7433 94.3909Z" fill="#1D191F"/>
<path d="M92.8083 92.5503C91.6407 92.3487 89.5862 92.0045 85.8884 92.3256C85.8765 92.3266 85.8702 92.3108 85.8832 92.3079C88.2492 91.8446 90.51 91.9413 92.8202 92.5061C92.8918 92.5235 92.8859 92.5639 92.8083 92.5503Z" fill="#1D191F"/>
<path d="M93.3573 91.552C91.3558 91.2691 90.0493 91.2932 87.9215 91.4038C87.9097 91.4044 87.9049 91.388 87.918 91.3861C90.3192 91.0577 91.237 91.156 93.379 91.4983C93.4526 91.5103 93.4356 91.5631 93.3573 91.552Z" fill="#1D191F"/>
<path d="M91.4142 97.1271C91.8729 97.4147 91.6869 97.6091 90.6503 97.6094C89.6011 97.6119 85.509 96.9096 85.3238 98.0734C85.1354 99.2413 90.9487 99.9338 92.6739 100.053C95.5707 100.252 97.7341 99.4331 97.7341 99.4331C96.6484 99.0731 93.5324 97.8556 91.4142 97.1271Z" fill="#C8D4F2"/>
<path d="M110.657 89.5094L115.514 95.3826C115.514 95.3826 120.337 91.1786 121.758 88.2458C123.179 85.313 121.265 85.1945 118.607 86.1041C115.948 87.0137 110.657 89.5094 110.657 89.5094Z" fill="#5D80D9"/>
<path d="M112.256 89.3099C112.225 89.2707 112.182 89.2758 112.211 89.3153C113.675 91.2983 115.531 93.4975 116.312 94.2311C116.324 94.2425 116.345 94.2283 116.337 94.2163C115.793 93.3452 112.596 89.7391 112.256 89.3099Z" fill="#1D191F"/>
<path opacity="0.1" d="M121.758 88.2463C120.337 91.1795 115.513 95.3832 115.513 95.3832L112.224 91.4039L121.374 85.6324C122.284 85.7905 122.581 86.5459 121.758 88.2463Z" fill="#1D191F"/>
<path d="M114.122 99.8135L113.585 107.105C113.585 107.105 131.274 106.278 136.166 106.003C136.166 106.003 131.15 91.6431 125.889 87.0816C123.258 84.8002 120.168 84.9706 118.199 86.5658C117.701 86.9694 112.822 93.0983 112.196 95.4953C111.65 97.6098 114.122 99.8135 114.122 99.8135Z" fill="#5D80D9"/>
<path d="M120.804 98.671C119.857 98.6125 118.902 98.579 117.953 98.6327C117.482 98.6596 117.015 98.7035 116.546 98.7557C116.313 98.7816 116.08 98.8015 115.845 98.8202C115.605 98.8395 115.348 98.8527 115.108 98.824C115.086 98.8214 115.081 98.847 115.103 98.8508C115.334 98.8897 115.555 98.9264 115.792 98.9403C116.016 98.9536 116.244 98.9479 116.469 98.9368C116.948 98.9131 117.425 98.872 117.903 98.8445C118.868 98.7889 119.833 98.7339 120.801 98.7342C120.846 98.7339 120.849 98.6735 120.804 98.671Z" fill="#1D191F"/>
<path d="M122.957 99.6647C122.207 99.4915 121.436 99.3445 120.665 99.2405C120.278 99.1881 119.89 99.1542 119.499 99.128C119.312 99.1157 119.125 99.1059 118.937 99.098C118.731 99.0891 118.523 99.1024 118.318 99.0914C118.297 99.0901 118.291 99.1163 118.313 99.1182C118.506 99.1334 118.698 99.1742 118.89 99.1985C119.083 99.2228 119.276 99.2459 119.469 99.2699C119.856 99.3183 120.242 99.3701 120.629 99.4156C121.405 99.5067 122.176 99.6034 122.947 99.7159C122.989 99.7216 122.996 99.6736 122.957 99.6647Z" fill="#1D191F"/>
<path opacity="0.3" d="M124.083 85.9133L118.748 86.1757C118.811 86.1377 118.874 86.0998 118.938 86.0619L123.865 85.8217C123.936 85.8501 124.012 85.8785 124.083 85.9133ZM125.048 86.4475L117.976 86.7951C117.948 86.8299 117.912 86.8647 117.881 86.9058L125.195 86.5454C125.147 86.5107 125.1 86.4759 125.048 86.4475ZM125.899 87.0891L117.37 87.5063C117.346 87.5411 117.315 87.579 117.283 87.6169L126.006 87.1871C125.975 87.1523 125.935 87.1207 125.899 87.0891ZM126.58 87.7402L116.8 88.2206C116.773 88.2554 116.745 88.2933 116.713 88.3281L126.679 87.8413C126.651 87.8066 126.616 87.775 126.58 87.7402ZM127.182 88.3913L116.25 88.9286C116.226 88.9665 116.199 89.0013 116.171 89.0392L127.265 88.4924C127.237 88.4577 127.209 88.4261 127.182 88.3913ZM127.72 89.0519L115.716 89.6398C115.692 89.6777 115.664 89.7125 115.637 89.7504L127.799 89.153C127.775 89.1182 127.748 89.0835 127.72 89.0519ZM128.219 89.7093L115.201 90.3478C115.174 90.3825 115.15 90.4205 115.126 90.4584L128.294 89.8104C128.27 89.7757 128.246 89.7441 128.219 89.7093ZM128.69 90.3699L114.695 91.0589C114.671 91.0968 114.647 91.1316 114.62 91.1664L128.757 90.471C128.737 90.4363 128.713 90.4047 128.69 90.3699ZM129.129 91.0305L114.216 91.7637C114.188 91.7985 114.164 91.8364 114.145 91.8712L129.196 91.1316C129.173 91.0968 129.153 91.0652 129.129 91.0305ZM129.553 91.6974L113.749 92.4717C113.725 92.5065 113.701 92.5444 113.682 92.5792L129.616 91.7985C129.592 91.7638 129.572 91.7321 129.553 91.6974ZM129.952 92.358L113.309 93.1766C113.29 93.2113 113.266 93.2493 113.246 93.284L130.012 92.4591C129.992 92.4243 129.972 92.3927 129.952 92.358ZM130.344 93.0249L112.906 93.8814C112.886 93.9193 112.866 93.9541 112.85 93.9889L130.399 93.126C130.38 93.0912 130.36 93.0596 130.344 93.0249ZM130.712 93.6886L112.55 94.5799C112.53 94.6179 112.514 94.6526 112.498 94.6874L130.768 93.7898C130.752 93.755 130.732 93.7202 130.712 93.6886ZM131.072 94.3555L112.261 95.2816C112.249 95.3164 112.237 95.3511 112.229 95.3859L131.128 94.4567C131.112 94.4219 131.092 94.3871 131.072 94.3555ZM131.425 95.0224L112.122 95.9706C112.122 96.0054 112.118 96.0402 112.118 96.0749L131.48 95.1236C131.46 95.0888 131.444 95.0572 131.425 95.0224ZM131.769 95.6893L112.17 96.6533C112.174 96.6881 112.181 96.7229 112.189 96.7576L131.82 95.7905C131.801 95.7557 131.785 95.7241 131.769 95.6893ZM132.097 96.3562L112.356 97.3266C112.371 97.3582 112.383 97.3929 112.399 97.4277L132.149 96.4574C132.133 96.4226 132.117 96.3878 132.097 96.3562ZM132.422 97.0231L112.672 97.9966C112.692 98.0314 112.712 98.063 112.732 98.0978L132.473 97.1274C132.458 97.0927 132.438 97.0579 132.422 97.0231ZM132.739 97.69L113.1 98.6572C113.127 98.692 113.151 98.7267 113.175 98.7584L132.786 97.7975C132.774 97.7627 132.754 97.728 132.739 97.69ZM133.051 98.3601L113.634 99.3146C113.662 99.3494 113.693 99.3842 113.721 99.4158L133.095 98.4644C133.083 98.4296 133.067 98.3949 133.051 98.3601ZM133.356 99.027L114.109 99.9752L114.101 100.08L133.4 99.1345C133.384 99.0997 133.368 99.0649 133.356 99.027ZM133.649 99.7002L114.058 100.661L114.05 100.769L133.692 99.8014C133.681 99.7698 133.665 99.735 133.649 99.7002ZM133.938 100.367L114.01 101.347L114.002 101.454L133.985 100.471C133.969 100.437 133.954 100.402 133.938 100.367ZM134.227 101.037L113.959 102.033L113.951 102.14L134.27 101.142C134.254 101.107 134.239 101.072 134.227 101.037ZM134.504 101.707L113.907 102.719L113.899 102.826L134.551 101.812C134.535 101.777 134.52 101.742 134.504 101.707ZM134.777 102.377L113.856 103.408L113.852 103.512L134.82 102.482C134.809 102.447 134.793 102.412 134.777 102.377ZM135.046 103.047L113.808 104.09L113.8 104.198L135.09 103.155C135.078 103.12 135.062 103.082 135.046 103.047ZM135.311 103.721L113.757 104.779L113.749 104.884L135.351 103.822C135.339 103.787 135.327 103.755 135.311 103.721ZM135.568 104.391L113.705 105.462L113.697 105.573L135.608 104.495C135.596 104.46 135.584 104.425 135.568 104.391ZM135.826 105.061L113.658 106.151L113.65 106.256L135.861 105.165C135.849 105.133 135.838 105.096 135.826 105.061ZM136.071 105.731L113.606 106.837L113.598 106.945L136.107 105.838C136.095 105.807 136.083 105.772 136.071 105.731Z" fill="#1E397D"/>
<path d="M127.974 89.4929C130.463 93.9188 134.454 102.563 133.338 104.732C131.094 109.096 122.084 113.008 119.463 113.885C118.235 114.296 112.474 108.138 113.453 107.314C114.522 106.416 123.936 101.928 124.098 100.931C124.235 100.089 123.591 94.7412 123.198 90.6346C122.702 85.4539 125.868 85.7462 127.974 89.4929Z" fill="#C8D4F2"/>
<path d="M116.185 105.873C116.185 105.873 112.123 106.426 109.488 106.887C108.018 107.145 105.547 107.766 104.575 108.349C103.122 109.222 97.7415 113.614 99.0472 114.679C100.229 115.643 104.251 111.401 104.251 111.401C104.251 111.401 99.7185 115.395 101.408 116.346C103.098 117.298 106.845 112.022 106.845 112.022C106.845 112.022 102.303 116.21 104.24 116.97C105.704 117.546 109.435 112.92 109.435 112.92C109.435 112.92 105.562 116.54 107.035 117.184C108.664 117.894 112.443 113.798 112.443 113.798C116.533 114.929 119.06 114.132 120.773 113.394C121.189 113.215 116.185 105.873 116.185 105.873Z" fill="#C8D4F2"/>
<path d="M105.501 110.133C101.881 112.872 101.157 115.1 101.191 115.044C102 113.719 103.761 111.938 104.262 111.446C104.763 110.955 105.025 110.639 105.525 110.148C105.538 110.136 105.515 110.123 105.501 110.133Z" fill="#1D191F"/>
<path d="M107.963 111.352C106.144 112.56 104.595 114.388 104.185 115.084C104.153 115.141 104.189 115.138 104.237 115.088C104.853 114.449 107.33 111.976 107.982 111.364C107.992 111.354 107.975 111.344 107.963 111.352Z" fill="#1D191F"/>
<path d="M110.172 112.287C108.647 113.465 108.113 114.115 107.354 115.245C107.318 115.3 107.376 115.295 107.423 115.244C108.336 114.247 109.044 113.459 110.211 112.318C110.229 112.3 110.196 112.269 110.172 112.287Z" fill="#1D191F"/>
<path d="M122.734 95.9409L131.498 95.1988C131.498 95.1988 129.042 89.8455 126.435 87.4886C123.828 85.1316 122.816 86.4342 122.604 88.7377C122.393 91.0415 122.734 95.9409 122.734 95.9409Z" fill="#5D80D9"/>
<path d="M123.248 94.7153C123.19 94.7194 123.176 94.7526 123.233 94.7501C126.111 94.6234 129.41 94.3196 130.585 94.1031C130.603 94.0999 130.597 94.0788 130.58 94.0788C129.361 94.0636 123.881 94.672 123.248 94.7153Z" fill="#1D191F"/>
<path d="M122.489 90.5359C122.503 92.3473 122.587 94.2522 122.669 96.0222C122.67 96.0542 123.037 95.972 123.189 95.9473C123.246 95.9378 123.217 95.893 123.161 95.8974C123.019 95.9084 122.982 95.9047 122.836 95.899C122.754 94.1103 122.666 92.3211 122.516 90.5353C122.515 90.5214 122.489 90.5223 122.489 90.5359Z" fill="#1D191F"/>
<path d="M122.576 86.5416C122.48 86.8542 120.584 88.8726 118.792 88.7914C118.209 88.7642 118.252 86.2145 118.252 86.2145L118.202 86.0255L117.495 83.3819L121.399 81.4235L121.963 81.1647C121.963 81.1647 122.097 81.8983 122.252 82.8127C122.259 82.855 122.267 82.8974 122.274 82.9429C122.284 82.9944 122.295 83.0431 122.302 83.0914C122.327 83.2277 122.353 83.367 122.374 83.5064C122.391 83.6123 122.408 83.7154 122.42 83.8269C122.436 83.9388 122.449 84.0475 122.466 84.1594C122.596 85.2654 122.614 86.4089 122.576 86.5416Z" fill="#C8D4F2"/>
<path d="M122.252 82.8136C121.28 84.9056 119.169 85.7454 118.202 86.0261L117.495 83.3825L121.399 81.4241L121.963 81.1653C121.963 81.1656 122.097 81.8989 122.252 82.8136Z" fill="#1D191F"/>
<path d="M113.638 77.2326C110.461 81.2413 113.109 83.2136 114.192 83.7598C115.175 84.2557 118.602 85.8439 122.281 82.1191C125.96 78.3939 124.63 75.9472 122.457 74.7183C120.283 73.4891 116.815 73.2239 113.638 77.2326Z" fill="#C8D4F2"/>
<path d="M114.937 77.0359C115.067 77.0773 115.196 77.0982 115.331 77.1285C115.482 77.1626 115.599 77.2025 115.755 77.1617C115.838 77.1399 115.895 77.0473 115.876 76.9803C115.832 76.8241 115.66 76.7454 115.48 76.6983C115.284 76.6471 115.117 76.6478 114.925 76.7066C114.74 76.7641 114.765 76.9812 114.937 77.0359Z" fill="#1D191F"/>
<path d="M118.28 78.5749C118.164 78.5108 118.072 78.4362 117.966 78.3631C117.847 78.281 117.742 78.2253 117.698 78.0986C117.675 78.031 117.74 77.9415 117.821 77.9175C118.008 77.8609 118.185 77.9327 118.334 78.0272C118.495 78.1296 118.586 78.2415 118.63 78.4017C118.673 78.5572 118.432 78.6596 118.28 78.5749Z" fill="#1D191F"/>
<path d="M116.872 79.3284C116.882 79.3189 116.89 79.3543 116.881 79.3657C116.67 79.6413 116.486 79.9852 116.738 80.2232C116.746 80.2304 116.734 80.244 116.723 80.2377C116.366 80.0171 116.617 79.5626 116.872 79.3284Z" fill="#1D191F"/>
<path d="M117.395 79.1782C117.985 79.401 117.384 80.3265 116.837 80.1201C116.299 79.9172 116.901 78.9914 117.395 79.1782Z" fill="#1D191F"/>
<path d="M117.59 79.3216C117.658 79.4157 117.697 79.5494 117.813 79.6095C117.947 79.6793 118.116 79.6266 118.269 79.5716C118.285 79.5659 118.289 79.5782 118.282 79.5905C118.17 79.7691 117.966 79.9158 117.711 79.8437C117.478 79.778 117.424 79.5561 117.485 79.3547C117.496 79.3174 117.564 79.2836 117.59 79.3216Z" fill="#1D191F"/>
<path d="M114.925 78.373C114.929 78.3609 114.888 78.3752 114.881 78.3872C114.709 78.6796 114.451 78.9915 114.064 78.9545C114.052 78.9533 114.043 78.9681 114.056 78.9719C114.483 79.0889 114.821 78.672 114.925 78.373Z" fill="#1D191F"/>
<path d="M114.795 77.9412C114.237 77.6703 113.6 78.5803 114.116 78.8312C114.624 79.0784 115.262 78.1684 114.795 77.9412Z" fill="#1D191F"/>
<path d="M114.515 77.8956C114.391 77.9035 114.241 77.9516 114.129 77.9092C114 77.8599 113.977 77.7205 113.963 77.5903C113.961 77.5767 113.947 77.5805 113.938 77.5922C113.81 77.7635 113.755 77.9769 113.941 78.1036C114.111 78.2193 114.356 78.1327 114.529 77.9826C114.561 77.9551 114.565 77.8925 114.515 77.8956Z" fill="#1D191F"/>
<path d="M115.482 81.562C115.355 81.5983 115.212 81.6603 115.074 81.6201C114.941 81.5816 114.818 81.4801 114.722 81.4005C114.713 81.3926 114.695 81.3979 114.697 81.4096C114.728 81.5572 114.887 81.702 115.071 81.7409C115.251 81.7791 115.4 81.6947 115.51 81.5882C115.526 81.5737 115.501 81.5569 115.482 81.562Z" fill="#1D191F"/>
<path d="M114.679 79.896C114.679 79.896 114.321 80.2902 114.187 80.4909C114.175 80.5099 114.229 80.5446 114.312 80.5851C114.316 80.5879 114.317 80.5901 114.322 80.5895C114.729 80.8341 115.258 80.9024 115.721 80.7279C115.751 80.7156 115.733 80.6815 115.702 80.684C115.24 80.7371 114.841 80.6309 114.444 80.4684C114.463 80.4052 115.085 79.8098 115.047 79.7905C114.916 79.7225 114.596 79.6817 114.407 79.6505C115.123 78.8119 116.002 78.0723 116.7 77.2291C116.724 77.1984 116.673 77.1649 116.643 77.188C115.653 77.9114 114.803 78.8615 114.035 79.7121C113.938 79.8173 114.556 79.8875 114.679 79.896Z" fill="#1D191F"/>
<path d="M114.397 80.525C114.397 80.525 114.451 80.8983 114.715 81.1458C114.812 81.2375 114.934 81.312 115.093 81.3462C115.42 81.4176 115.577 81.2128 115.654 81.0108C115.717 80.8449 115.724 80.6799 115.724 80.6799C115.724 80.6799 115.085 80.7987 114.397 80.525Z" fill="#1D191F"/>
<path d="M114.715 81.1455C114.812 81.2372 114.934 81.3118 115.093 81.3459C115.42 81.4174 115.577 81.2125 115.654 81.0106C115.332 80.8952 114.911 80.9214 114.715 81.1455Z" fill="#FF99BA"/>
<path d="M121.678 82.1116C120.407 81.5364 122.105 78.2031 122.319 77.7957C122.167 78.0467 121.359 79.3735 121.2 79.3738C121.16 79.3729 121.031 79.2885 120.833 79.1434L120.831 79.1418C120.927 78.9936 121.016 78.827 121.089 78.6545C121.125 78.5777 120.952 78.7976 120.718 79.0597C120.655 79.0129 120.588 78.9604 120.513 78.907C120.707 78.6292 120.913 78.2717 121.039 77.8611C121.081 77.7224 120.678 78.2606 120.213 78.6848C119.445 78.1206 118.32 77.3314 117.135 76.7979C116.819 76.6537 116.538 76.5412 116.286 76.448C116.536 76.0611 116.86 75.673 116.767 75.7466C116.495 75.9543 116.27 76.1812 116.097 76.38C115.959 76.3307 115.831 76.2865 115.715 76.2492C116.037 75.6897 116.93 74.9546 116.734 75.0421C115.979 75.3841 115.451 75.8525 115.198 76.1107C114.685 75.9887 114.509 76.0083 114.559 75.9062C114.65 75.7226 115.913 74.3076 118.131 73.8079C120.543 73.2649 123.969 74.3019 124.566 76.9328C124.566 76.9328 125.554 78.3371 124.969 79.6934C124.385 81.0471 122.412 82.4432 121.678 82.1116Z" fill="#1D191F"/>
<path d="M120.968 81.7829C120.968 81.7829 122.972 80.9437 123.506 81.5806C124.041 82.2175 121.939 83.7656 120.893 83.6638C119.847 83.5617 119.946 82.7867 119.946 82.7867L120.968 81.7829Z" fill="#C8D4F2"/>
<path d="M122.89 82.0124C122.904 82.0171 122.897 82.0342 122.882 82.0329C122.138 81.9776 121.519 82.299 120.986 82.6777C121.287 82.5715 121.6 82.575 121.793 82.8749C121.803 82.8907 121.775 82.9043 121.759 82.8942C121.535 82.7469 121.331 82.7068 121.056 82.7975C120.861 82.8616 120.686 82.972 120.514 83.068C120.457 83.1 120.373 83.0355 120.426 82.9938C120.43 82.9906 120.435 82.9874 120.439 82.9846C120.829 82.3518 122.007 81.7273 122.89 82.0124Z" fill="#1D191F"/>
</svg>
