<svg width="703" height="607" viewBox="0 0 703 607" fill="none" xmlns="http://www.w3.org/2000/svg">
<path d="M0.000366211 542.095V606.707H702.816C702.816 606.707 672.996 553.623 605.526 513.178C605.526 513.178 593.073 514.423 593.852 506.057C594.632 497.693 599.301 487.578 593.852 492.247C588.404 496.915 588.404 509.12 586.07 503.796C583.735 498.47 586.847 486.773 582.956 491.067C579.064 495.361 575.173 503.706 572.059 499.144C568.945 494.583 508.237 477.467 503.568 476.688C498.897 475.91 501.354 465.932 500.047 465.683C493.449 464.434 500.003 475.131 492.833 472.019C485.666 468.907 464.65 468.713 455.311 462.974C445.971 457.237 273.962 440.899 147.874 468.517C21.7873 496.136 0.000366211 542.095 0.000366211 542.095Z" fill="#FEF86B"/>
<path d="M385.515 303.212C385.894 303.212 386.271 303.035 386.509 302.702C389.806 298.082 395.868 284.56 396.489 278.319C397.113 272.085 393.563 257.19 393.413 256.562C393.259 255.907 392.613 255.511 391.943 255.658C391.287 255.816 390.883 256.476 391.039 257.129C391.075 257.28 394.644 272.252 394.062 278.077C393.481 283.871 387.605 296.967 384.52 301.282C384.131 301.832 384.257 302.592 384.805 302.986C385.022 303.138 385.268 303.212 385.515 303.212Z" fill="#1D191F"/>
<path d="M368.18 440.945L376.207 440.366C367.502 438.036 362.102 424.021 358.733 414.389C358.101 412.587 357.496 410.86 356.889 409.275C353.887 401.455 353.624 377.127 353.782 367.777C355.039 363.371 358.389 352.652 360.736 349.156C361.756 347.644 362.106 345.954 361.754 344.271C361.01 340.733 357.403 338.452 354.218 336.437C353.202 335.795 351.73 334.862 351.117 334.295C350.405 329.782 345.148 328.372 341.257 327.332C340.039 327.005 338.882 326.695 337.959 326.352C334.186 322.886 317.683 291.321 314.053 274.378C310.985 260.06 316.179 255.021 316.234 254.97L311.47 249.412C310.579 250.154 302.887 257.207 306.894 275.912C310.01 290.453 328.059 330.26 334.934 333.031C336.312 333.583 337.863 334 339.365 334.4C340.785 334.781 343.071 335.395 343.936 335.936C344.392 338.881 347.267 340.702 350.301 342.621C351.487 343.371 353.556 344.681 354.355 345.545C350.902 351.137 347.046 364.678 346.606 366.245L346.471 367.162C346.404 370.61 345.934 401.164 350.055 411.896C350.638 413.417 351.218 415.075 351.822 416.803C355.596 427.59 355.735 437.612 368.18 440.945ZM351.19 335.02C351.19 335.022 351.19 335.024 351.19 335.026C351.19 335.026 351.19 335.022 351.19 335.02Z" fill="#FEF86B"/>
<path d="M232.383 367.881C238.156 365.045 253.132 362.11 262.096 360.212C265.931 359.399 269.243 358.697 271.724 358.063C277.038 356.708 280.721 358.208 283.971 359.534C285.16 360.018 286.283 360.475 287.419 360.762C291.976 361.893 295.066 357.425 297.316 354.153C297.552 353.807 297.843 353.386 298.121 352.994C298.144 353.007 298.17 353.019 298.191 353.032C301.041 354.698 304.947 356.974 308.636 355.891C310.391 355.377 311.788 354.188 312.677 352.454C313.802 350.255 314.338 347.98 314.81 345.97C315.501 343.041 315.996 341.185 317.439 340.032C322.413 336.053 322.394 334.182 322.508 333.611L318.768 327.52C318.762 327.552 315.764 331.997 312.867 334.317C309.38 337.106 308.481 340.924 307.686 344.293C307.301 345.93 306.936 347.48 306.304 348.824C305.145 348.616 302.819 347.257 301.884 346.709C300.54 345.925 299.568 345.359 298.542 345.106C295.247 344.274 293.219 347.192 291.282 350.004C290.589 351.016 289.374 352.783 288.592 353.476C288.061 353.293 287.431 353.038 286.738 352.754C283.085 351.264 277.571 349.012 269.915 350.971C267.58 351.568 264.336 352.252 260.579 353.049C250.715 355.141 241.211 357.903 234.623 361.139L232.383 367.881Z" fill="#FEF86B"/>
<path d="M190.898 407.536C191.127 407.536 191.357 407.471 191.565 407.338C205.173 398.464 235.833 395.965 236.14 395.94C236.812 395.887 237.313 395.302 237.259 394.629C237.206 393.957 236.603 393.41 235.948 393.509C234.665 393.608 204.363 396.077 190.23 405.294C189.665 405.663 189.507 406.419 189.874 406.984C190.11 407.34 190.5 407.536 190.898 407.536Z" fill="#1D191F"/>
<path d="M201.849 383.551C202.635 383.551 203.566 383.395 204.655 383.084C209.001 381.843 231.985 369.478 232.963 368.955C233.557 368.635 233.778 367.895 233.458 367.301C233.135 366.709 232.394 366.49 231.804 366.806C223.614 371.218 207.261 379.803 203.983 380.741C202.148 381.263 201.434 381.101 201.238 381.029C201.114 380.486 200.627 380.083 200.05 380.083C199.375 380.083 198.83 380.629 198.83 381.303C198.83 381.777 199.061 382.46 199.708 382.949C200.241 383.349 200.953 383.551 201.849 383.551ZM201.269 381.299V381.301V381.299Z" fill="#1D191F"/>
<path d="M189.068 367.269C189.068 367.269 200.66 378.555 200.66 379.775C200.66 380.995 192.425 388.316 191.814 390.756C191.205 393.196 185.712 390.145 184.187 390.756C182.661 391.367 182.967 395.638 187.238 396.552C191.508 397.466 191.203 408.449 189.677 409.975C188.152 411.5 175.035 418.21 167.713 425.837C160.392 433.464 156.427 441.089 153.376 442.309C150.326 443.528 147.275 444.443 146.361 438.343C145.446 432.242 144.53 419.127 152.462 409.669C160.394 400.214 163.748 399.297 166.188 399.297C168.628 399.297 172.595 399.603 171.07 396.246C169.544 392.89 166.188 389.84 167.41 387.094C168.63 384.351 178.085 366.355 189.068 367.269Z" fill="#1D191F"/>
<path d="M146.675 446.78C149.188 446.78 150.646 445.32 151.114 444.38C151.413 443.777 151.171 443.046 150.568 442.743C149.966 442.448 149.247 442.684 148.94 443.27C148.845 443.44 148.009 444.812 145.436 444.176C141.932 443.301 139.191 442.298 138.407 438.12C137.529 433.424 138.188 420.893 143.74 411.833C146.557 407.234 150.345 403.678 153.389 400.819C156.682 397.726 159.288 395.282 159.474 392.674C159.541 391.73 159.564 390.771 159.588 389.789C159.672 386.378 159.758 382.852 161.787 378.796C164.545 373.28 171.11 366.06 177.325 363.517C183.033 361.185 185.611 362.211 187.939 367.743C188.203 368.361 188.915 368.652 189.539 368.394C190.158 368.131 190.451 367.417 190.19 366.795C187.337 360.022 183.34 358.421 176.4 361.259C169.401 364.124 162.52 371.871 159.605 377.705C157.333 382.249 157.236 386.225 157.15 389.731C157.127 390.672 157.102 391.593 157.038 392.501C156.92 394.155 154.51 396.42 151.719 399.041C148.569 401.999 144.648 405.679 141.656 410.557C135.412 420.75 135.163 434.063 136.008 438.567C137.053 444.15 140.946 445.568 144.842 446.544C145.51 446.708 146.116 446.78 146.675 446.78Z" fill="#1D191F"/>
<path d="M363.827 255.653C369.817 255.653 380.663 254.865 386.343 249.607C389.4 246.775 390.904 244.51 392.232 242.511C393.378 240.783 394.368 239.294 396.178 237.602C400.863 233.224 398.936 228.14 398.849 227.925C398.603 227.295 397.893 226.992 397.267 227.236C396.643 227.483 396.336 228.186 396.576 228.812C396.635 228.966 397.956 232.598 394.509 235.82C392.493 237.705 391.378 239.384 390.199 241.16C388.886 243.137 387.527 245.182 384.685 247.816C378.826 253.243 365.825 253.308 361.961 253.184C361.284 253.155 360.724 253.694 360.705 254.368C360.686 255.042 361.215 255.603 361.889 255.624C362.454 255.641 363.107 255.653 363.827 255.653Z" fill="#1D191F"/>
<path d="M354.86 266.516C366.834 266.516 378.522 264.283 384.74 261.845C397.661 256.778 397.278 251.353 396.854 249.811C396.686 249.198 396.477 248.671 396.285 248.186C395.788 246.931 395.601 246.463 396.361 245.321C398.106 242.704 396.692 237.041 396.525 236.403C396.357 235.754 395.693 235.356 395.038 235.533C394.385 235.703 393.995 236.369 394.166 237.02C394.726 239.167 395.148 242.742 394.33 243.966C392.86 246.172 393.447 247.653 394.016 249.086C394.18 249.499 394.36 249.941 394.501 250.46C395.067 252.516 392.619 256.135 383.851 259.572C373.291 263.718 346.439 267.27 330.528 259.61C304.722 247.183 302.897 242.58 302.952 241.465C303.005 240.408 303.129 239.27 303.253 238.099C303.614 234.726 304.022 230.904 302.87 227.935C301.431 224.225 300 220.542 301.475 215.937C302.518 212.667 302.752 207.781 302.979 203.058C303.118 200.184 303.247 197.47 303.55 195.406C304.414 189.589 306.245 185.394 306.989 184.777C307.505 184.345 307.574 183.576 307.145 183.057C306.711 182.541 305.942 182.476 305.426 182.899C303.647 184.381 301.848 190.24 301.138 195.045C300.814 197.23 300.681 200.003 300.54 202.938C300.323 207.503 300.097 212.225 299.147 215.189C297.409 220.616 299.071 224.893 300.535 228.666C301.53 231.23 301.172 234.589 300.824 237.837C300.693 239.055 300.569 240.241 300.514 241.341C300.38 244.076 303.232 249.172 329.469 261.805C336.594 265.237 345.807 266.516 354.86 266.516Z" fill="#1D191F"/>
<path d="M245.079 268.617C251.3 268.617 258.192 267.229 261.329 266.508C266.229 265.387 267.209 258.951 267.923 254.255C268.185 252.531 268.583 249.927 269.065 249.516C271.979 247.574 272.447 245.871 272.447 241.403C272.447 239.092 273.772 237.328 275.304 235.285C276.25 234.025 277.227 232.725 278.011 231.155C279.717 227.744 285.631 211.071 284.19 206.263C283.187 202.9 287.279 195.33 294.023 192.701C301.349 189.846 315.989 180.785 316.608 180.399C317.179 180.045 317.356 179.293 317.002 178.72C316.644 178.147 315.888 177.976 315.323 178.326C315.174 178.419 300.257 187.655 293.138 190.428C285.448 193.426 280.423 202.171 281.854 206.964C282.897 210.443 277.973 225.78 275.83 230.066C275.146 231.435 274.235 232.649 273.355 233.82C271.711 236.011 270.009 238.278 270.009 241.403C270.009 245.564 269.603 246.228 267.704 247.492C266.352 248.395 265.998 250.698 265.515 253.888C264.873 258.116 264.07 263.379 260.79 264.131C249.501 266.719 236.742 267.403 235.387 262.804C234.256 258.957 234.745 252.845 235.172 247.454C235.484 243.535 235.779 239.835 235.425 237.356C234.894 233.629 241.819 207.695 245.959 192.202C247.969 184.676 249.556 178.733 250.053 176.365C251.519 169.41 294.13 138.576 305.042 134.129C314.443 130.3 328.461 125.29 341.962 125.676C342.322 125.712 342.672 125.537 342.91 125.269C345.32 122.566 348.394 119.545 349.595 118.85C349.787 119.052 350.074 119.362 350.339 119.646C353.253 122.794 360.06 130.168 369.812 128.923C378.223 127.85 383.098 125.895 385.401 124.911C385.441 125.88 385.612 127.087 386.488 127.964C386.547 128.023 386.615 128.078 386.684 128.124C386.891 128.259 391.888 131.383 405.561 130.147C418.826 128.942 426.133 128.276 438.852 115.559C442.406 112.005 446.55 107.658 450.936 103.055C461.161 92.3309 472.746 80.1765 477.175 77.9623C482.229 75.434 491.337 74.4164 494.614 74.1215C494.978 77.9686 496.853 89.2275 506.387 92.9987C506.364 94.5093 505.71 98.9842 499.86 106.634C499.002 107.757 497.913 109.194 496.645 110.871C486.799 123.885 463.742 154.363 456.423 157.502C454.059 158.515 450.138 159.923 445.598 161.551C433.264 165.976 417.916 171.483 413.336 176.063C409.468 179.931 406.126 194.648 403.179 207.632C401.455 215.225 399.673 223.075 398.619 224.339C397.044 226.231 393.799 227.883 391.191 229.211C388.54 230.559 387.008 231.37 386.338 232.377C385.966 232.938 386.117 233.694 386.678 234.069C387.236 234.438 387.994 234.292 388.369 233.73C388.717 233.207 390.702 232.196 392.297 231.385C395.105 229.956 398.598 228.178 400.492 225.903C401.855 224.266 403.235 218.4 405.559 208.172C408.147 196.771 411.69 181.155 415.061 177.787C419.256 173.592 434.958 167.958 446.424 163.846C451 162.204 454.952 160.786 457.386 159.744C465.299 156.352 487.787 126.628 498.593 112.344C499.86 110.673 500.943 109.238 501.8 108.117C509.855 97.5833 508.864 92.3856 508.725 91.8294C508.622 91.427 508.325 91.1025 507.935 90.9698C497.5 87.4303 496.973 72.9205 496.967 72.7731C496.956 72.4423 496.813 72.1284 496.569 71.9051C496.324 71.6817 496.006 71.5743 495.669 71.5869C495.145 71.6206 482.737 72.4549 476.086 75.7795C471.276 78.1834 460.04 89.9712 449.173 101.371C444.795 105.964 440.661 110.3 437.128 113.833C425.035 125.927 418.453 126.525 405.344 127.715C393.801 128.771 388.957 126.571 388.138 126.142C387.851 125.726 387.837 124.875 387.828 124.298C387.818 123.615 387.794 122.016 386.338 122.016C385.955 122.016 385.624 122.157 384.83 122.501C382.812 123.371 378.088 125.408 369.507 126.5C361.017 127.57 354.793 120.855 352.134 117.986C351.262 117.046 350.893 116.657 350.482 116.452C349.772 116.098 348.472 115.447 341.473 123.224C327.728 122.973 313.602 128.008 304.127 131.87C293.134 136.347 249.482 167.263 247.67 175.861C247.186 178.166 245.608 184.082 243.604 191.57C237.482 214.498 232.459 233.797 233.013 237.699C233.331 239.911 233.047 243.48 232.743 247.258C232.297 252.86 231.793 259.212 233.051 263.491C234.205 267.443 239.361 268.617 245.079 268.617Z" fill="#1D191F"/>
<path d="M369.967 139.203C373.917 139.203 377.689 138.56 381.034 137.408C393.214 133.209 393.079 129.098 392.929 128.316C392.799 127.651 392.152 127.223 391.499 127.349C390.869 127.47 390.448 128.053 390.517 128.679C390.496 128.89 390.03 131.725 380.238 135.101C369.358 138.851 353.612 136.776 342.943 123.688C342.515 123.163 341.746 123.089 341.223 123.513C340.701 123.939 340.623 124.708 341.048 125.23C349.196 135.216 360.13 139.2 369.967 139.203Z" fill="#1D191F"/>
<path d="M476.621 42.7063L627.516 16.2695L488.009 21.1491L476.621 42.7063Z" fill="#FEF86B"/>
<path d="M501.457 20.6791V13.8276L627.516 16.2695L501.457 20.6791Z" fill="#A9A547"/>
<path d="M493.285 13.6692L519.327 0L627.516 16.269L493.285 13.6692Z" fill="#FEF86B"/>
<path d="M507.531 93.3425C507.874 93.3425 508.216 93.1972 508.456 92.9191C508.641 92.7021 527.154 71.1996 532.687 66.8489C533.812 65.9662 534.992 65.0033 536.218 64.0026C541.188 59.949 546.826 55.354 552.542 52.929C560.126 49.714 569.822 34.1276 570.231 33.466C570.585 32.893 570.408 32.1407 569.835 31.7868C569.266 31.4307 568.512 31.6078 568.156 32.1829C568.059 32.3367 558.462 47.7651 551.589 50.681C545.553 53.2408 539.774 57.9538 534.676 62.1106C533.46 63.1008 532.293 64.0531 531.18 64.9296C525.458 69.4256 507.373 90.435 506.606 91.3262C506.166 91.8382 506.225 92.6093 506.735 93.0475C506.966 93.2456 507.251 93.3425 507.531 93.3425Z" fill="#1D191F"/>
<path d="M544.495 30.6319L624.261 16.2695L541.592 41.124L544.495 30.6319Z" fill="#A9A547"/>
<path d="M529.435 44.7766L499.805 53.6865L497.771 39.0439L532.998 32.7002C532.998 32.7002 532.218 37.2615 531.774 39.0692C531.327 40.8748 529.435 44.7766 529.435 44.7766Z" fill="#A9A547"/>
<path d="M380.636 126.597C380.747 126.597 380.859 126.582 380.975 126.548C381.624 126.361 381.995 125.685 381.809 125.038C381.786 124.956 379.517 116.92 381.769 111.352C382.022 110.728 381.719 110.016 381.095 109.763C380.474 109.506 379.761 109.812 379.507 110.437C376.936 116.794 379.361 125.354 379.466 125.716C379.618 126.249 380.107 126.597 380.636 126.597Z" fill="#1D191F"/>
<path d="M353.47 122.345C353.847 122.345 354.218 122.17 354.456 121.841C357.793 117.251 363.355 109.213 363.14 106.955C363.075 106.28 362.439 105.775 361.811 105.857C361.139 105.92 360.648 106.516 360.709 107.186C360.625 108.453 356.373 115.049 352.482 120.409C352.086 120.955 352.206 121.717 352.752 122.113C352.971 122.269 353.221 122.345 353.47 122.345Z" fill="#1D191F"/>
<path d="M217.136 312.125C217.414 312.125 217.709 312.094 218.006 312.028C221.375 311.28 234.557 297.773 237.02 294.487C239.317 291.426 242.706 289.548 243.958 288.977C244.721 289.818 246.195 292.736 246.406 295.378C246.655 298.498 247.133 301.555 248.953 302.796C249.535 303.197 250.533 303.58 251.93 303.159C255.672 302.027 255.097 298.547 254.301 293.73L254.027 292.039C253.401 288.071 251.159 283.86 249.821 281.342C249.486 280.708 249.113 280.011 248.932 279.608C249.897 277.969 253.873 271.451 256.576 267.032C256.926 266.457 256.744 265.707 256.171 265.355C255.605 265.008 254.846 265.185 254.494 265.76C253.222 267.839 246.859 278.247 246.547 278.873C246.16 279.65 246.509 280.308 247.67 282.49C248.938 284.871 251.056 288.855 251.618 292.422L251.896 294.131C252.722 299.143 252.762 300.361 251.226 300.824C250.647 300.999 250.424 300.847 250.331 300.784C249.225 300.028 248.934 296.383 248.839 295.184C248.563 291.706 246.566 287.726 245.096 286.753C244.43 286.314 243.872 286.407 243.591 286.498C242.3 286.93 237.882 289.275 235.069 293.025C231.837 297.333 219.529 309.193 217.479 309.648C217.249 309.696 216.855 309.751 216.746 309.534C216.531 309.123 216.693 307.648 218.564 305.948C220.976 303.759 228.957 293.391 228.26 290.871C228.11 290.322 227.689 289.926 227.135 289.816C225.993 289.591 224.847 290.416 218.343 296.166C215.001 299.122 209.949 303.588 208.66 303.847C207.956 303.989 207.491 304.048 207.185 304.069C207.333 303.778 207.594 303.344 208.055 302.71C209.073 301.311 211.083 299.107 213.025 296.973C215.838 293.884 218.495 290.966 219.432 289.232C219.75 288.638 219.529 287.899 218.937 287.578C218.349 287.267 217.605 287.479 217.283 288.074C216.489 289.546 213.691 292.618 211.222 295.327C209.144 297.611 207.181 299.764 206.083 301.273C204.977 302.794 204.063 304.368 204.842 305.586C205.634 306.82 207.402 306.584 209.14 306.237C210.946 305.874 214.435 302.881 219.965 297.991C221.438 296.686 223.218 295.115 224.647 293.933C222.742 297.137 219.101 302.164 216.929 304.138C214.601 306.254 213.659 308.874 214.584 310.657C215.067 311.603 216.006 312.125 217.136 312.125Z" fill="#1D191F"/>
<path d="M204.793 301.926C206.497 301.926 208.64 301.149 209.733 300.533C210.319 300.203 210.528 299.459 210.195 298.871C209.864 298.285 209.118 298.077 208.53 298.41C206.965 299.295 204.839 299.617 204.371 299.45C204.321 299.394 204.283 299.345 204.275 299.328C204.291 299.33 204.327 298.604 206.6 296.476C209.912 293.372 215.11 286.586 217.194 283.809C217.533 283.356 217.552 282.572 217.189 282.138C215.727 280.379 203.288 286.196 203.164 286.257C203.033 286.325 202.949 286.327 202.924 286.325C202.901 286.245 202.884 285.333 204.483 284.022C206.411 282.444 217.274 278.458 233.541 273.353L233.831 273.26C237.278 272.179 238.738 267.281 238.894 266.725C239.075 266.076 238.698 265.404 238.051 265.221C237.386 265.044 236.728 265.419 236.545 266.063C236.218 267.22 234.963 270.347 233.105 270.932L232.812 271.023C220.758 274.805 205.787 279.802 202.941 282.132C200.234 284.346 200.162 286.504 200.922 287.679C201.624 288.758 202.996 289.068 204.26 288.438C205.515 287.808 210.19 285.952 213.313 284.877C210.951 287.932 207.346 292.437 204.936 294.691C202.726 296.762 201.807 298.193 201.858 299.474C201.9 300.576 202.663 301.184 202.951 301.416C203.402 301.781 204.055 301.926 204.793 301.926Z" fill="#1D191F"/>
<path d="M398.091 20.6792C398.091 20.6792 413.172 24.5705 415.207 32.8252C417.24 41.0798 415.207 49.6209 408.699 48.8077C402.191 47.9944 393.65 42.2997 387.957 42.7063C382.262 43.1129 383.482 45.2534 385.517 48.8603C387.55 52.4672 383.891 58.5687 373.723 55.7203C363.555 52.8739 363.149 47.5857 355.828 49.6189C348.506 51.652 355.187 68.3276 353.474 70.7695C351.761 73.2092 351.449 76.4643 347.537 70.7695C343.625 65.0747 337.932 57.3467 331.831 59.3819C325.729 61.415 337.525 73.2112 343.625 75.6509C349.726 78.0907 349.726 78.0907 349.726 78.0907C349.726 78.0907 352.166 95.1645 355.828 97.6085C355.828 97.6085 331.424 94.3598 322.069 85.8187C312.715 77.2775 320.85 77.2775 319.223 72.8047C317.597 68.3298 308.242 68.0074 308.242 62.4748C308.242 56.9422 309.462 57.7555 318.003 53.6893C326.544 49.6231 324.105 47.5878 322.885 45.5547C321.665 43.5216 320.445 39.8598 327.36 37.8267C334.275 35.7936 350.638 30.9121 347.539 26.4393C344.442 21.9665 342.986 13.0166 353.476 13.8319C363.966 14.6473 374.001 21.4314 379.966 20.6834C385.922 19.9292 391.486 18.2626 398.091 20.6792Z" fill="#1D191F"/>
<path d="M378.193 112.663C378.286 112.663 378.381 112.652 378.478 112.629C379.171 112.462 380.106 112.258 381.225 112.014C388.327 110.465 403.101 107.242 410.968 101.658C420.596 94.8281 418.851 77.847 417.126 72.4324C415.48 67.2622 411.494 48.722 411.456 48.5345C411.387 48.2121 411.189 47.9319 410.911 47.757C410.626 47.5821 410.289 47.5295 409.971 47.6075C409.573 47.7044 409.356 47.7128 409.246 47.715C409.122 47.6539 408.989 47.6117 408.848 47.5949C406.075 47.2472 402.77 45.9072 399.571 44.6073C395.305 42.8776 391.264 41.2384 387.87 41.487C386.003 41.6197 383.756 41.9738 382.917 43.5307C382.036 45.1719 383.096 47.0513 384.438 49.4341C385.079 50.5697 384.92 52.0065 384.046 53.1189C382.35 55.2889 378.613 55.8199 374.049 54.5432C369.894 53.3802 367.41 51.7726 365.413 50.479C362.518 48.6082 360.233 47.1271 355.501 48.4397C349.648 50.0662 350.988 58.445 351.967 64.5633C352.298 66.6364 352.753 69.4744 352.458 70.0917C352.149 70.5299 351.87 71.0208 351.607 71.4801C351.352 71.931 350.967 72.6115 350.767 72.7337C350.821 72.6916 350.185 72.464 348.544 70.0748C345.118 65.0837 338.734 55.7821 331.445 58.2218C329.854 58.7506 328.954 59.8904 328.91 61.4283C328.769 66.2509 337.833 74.6425 343.176 76.7788L348.695 78.9868C349.431 81.9237 352.604 94.2804 354.763 98.1928C354.877 98.3993 355.014 98.6689 355.178 98.9892C356.537 101.656 359.364 107.206 364.821 110.078C365.413 110.391 366.151 110.162 366.469 109.566C366.783 108.969 366.555 108.232 365.957 107.918C361.191 105.409 358.598 100.325 357.355 97.881C357.175 97.5334 357.026 97.2405 356.902 97.013C354.652 92.9362 350.956 77.9439 350.918 77.7943C350.825 77.4109 350.552 77.099 350.187 76.9515L344.086 74.5119C339.394 72.6347 331.257 64.8014 331.356 61.5C331.367 61.1692 331.443 60.7942 332.224 60.533C337.093 58.9107 341.983 64.8224 346.54 71.4548C348.407 74.1705 349.724 75.1839 350.977 75.146C352.374 75.087 353.099 73.8082 353.739 72.681C353.963 72.2849 354.201 71.8614 354.481 71.4633C355.315 70.275 355.022 68.1449 354.386 64.1735C353.554 58.9654 352.41 51.8317 356.164 50.7888C359.839 49.7649 361.353 50.7466 364.101 52.5248C366.237 53.9069 368.894 55.626 373.405 56.888C381.385 59.1255 384.862 56.0475 385.98 54.619C387.466 52.725 387.704 50.2262 386.591 48.2521C385.843 46.9227 384.834 45.1361 385.081 44.6789C385.112 44.6199 385.464 44.0996 388.058 43.9142C390.893 43.7056 394.85 45.3131 398.668 46.8616C401.923 48.1826 405.287 49.5479 408.317 49.9756C408.593 50.0936 408.873 50.1526 409.322 50.1462C410.217 54.282 413.35 68.5664 414.812 73.1635C416.331 77.925 417.983 93.6862 409.568 99.6591C402.106 104.954 387.659 108.106 380.717 109.62C379.575 109.869 378.625 110.078 377.922 110.246C377.266 110.404 376.862 111.061 377.018 111.719C377.14 112.288 377.641 112.663 378.193 112.663ZM409.598 47.9846C409.598 47.9867 409.598 47.9867 409.6 47.9867C409.598 47.9846 409.598 47.9846 409.598 47.9846ZM409.596 47.9804C409.596 47.9804 409.596 47.9824 409.598 47.9824C409.596 47.9824 409.596 47.9804 409.596 47.9804ZM409.543 47.9276C409.56 47.9445 409.577 47.9614 409.596 47.9804C409.579 47.9614 409.56 47.9445 409.543 47.9276Z" fill="#1D191F"/>
<path d="M414.052 66.7643C414.246 66.7643 414.44 66.7179 414.621 66.6231C420.94 63.2879 424.563 56.6851 425.849 51.6181C426.236 50.0843 426.759 47.3138 425.88 45.9949C425.246 45.0405 424.161 44.556 422.916 44.6824C420.914 44.8699 418.079 46.7154 416.121 51.3294C413.793 56.8198 411.842 59.3608 411.819 59.3861C411.406 59.917 411.503 60.6838 412.032 61.0989C412.565 61.5118 413.33 61.417 413.743 60.8903C413.829 60.7787 415.898 58.1092 418.365 52.2838C420.013 48.4009 422.143 47.2043 423.143 47.1116C423.632 47.0631 423.801 47.278 423.849 47.3496C424.545 48.8834 422.063 59.9339 413.484 64.4657C412.887 64.7796 412.66 65.517 412.974 66.1132C413.193 66.5282 413.616 66.7643 414.052 66.7643Z" fill="#1D191F"/>
<path d="M364.302 63.3999C364.519 63.3999 364.733 63.3788 364.942 63.3325C365.985 63.1113 366.727 62.3633 366.977 61.2804C367.306 59.8562 370.359 57.8105 372.419 56.8118C373.024 56.519 373.279 55.7878 372.986 55.181C372.691 54.5743 371.962 54.3215 371.355 54.6143C370.352 55.0989 365.302 57.6735 364.597 60.7326C364.554 60.9201 364.504 60.9307 364.432 60.9454C364.076 61.0276 363.427 60.7642 363.063 60.2775C362.757 59.8709 362.736 59.4306 363.004 58.9313C364.586 55.9627 365.699 54.2856 367.051 53.9359C367.704 53.7673 368.094 53.1016 367.925 52.4485C367.757 51.7975 367.095 51.3972 366.436 51.5742C363.988 52.2104 362.517 54.6565 360.851 57.7852C360.136 59.1293 360.231 60.5725 361.116 61.746C361.891 62.7763 363.13 63.3999 364.302 63.3999Z" fill="#1D191F"/>
<path d="M408.088 54.9078C408.219 54.9078 408.347 54.8866 408.474 54.8445C410.001 54.3346 410.928 53.5045 411.23 52.371C411.689 50.6371 410.37 49.1012 410.216 48.9306C409.765 48.4313 408.994 48.3891 408.493 48.8379C407.993 49.2866 407.949 50.0515 408.392 50.5529C408.606 50.7973 408.962 51.3998 408.868 51.7496C408.813 51.9539 408.55 52.1687 408.141 52.3563C407.022 51.8401 404.233 50.7109 401.018 50.5866C400.293 50.5571 399.756 50.1463 399.418 49.3625C399.031 48.4524 399.109 47.4705 399.265 47.0702C399.815 47.144 400.379 46.8259 400.577 46.2887C400.801 45.6692 400.531 44.995 399.92 44.7506C399.09 44.4177 398.239 44.5883 397.626 45.1951C396.479 46.3307 396.503 48.5956 397.107 50.1483C397.792 51.9076 399.183 52.9567 400.925 53.0242C404.469 53.1653 407.486 54.7475 407.517 54.7644C407.692 54.8592 407.89 54.9078 408.088 54.9078Z" fill="#1D191F"/>
<path d="M405.037 62.1804C406.714 61.5462 407.736 61.1628 408.815 60.9269C409.346 60.792 409.889 60.6718 410.532 60.5686C411.175 60.4485 411.88 60.379 412.784 60.1388C411.891 58.5735 409.976 57.9055 408.168 58.3248C406.375 58.7715 404.921 60.3432 405.037 62.1804Z" fill="#1D191F"/>
<path d="M382.871 65.543C382.117 64.5191 380.988 63.8638 379.783 63.5099C378.571 63.137 377.244 63.1055 375.982 63.3793C374.741 63.708 373.523 64.2199 372.603 65.09C371.642 65.8927 370.932 66.9441 370.533 68.126C371.741 67.7152 372.714 67.2327 373.702 66.8724C374.669 66.4784 375.617 66.2151 376.563 65.9981C377.505 65.7432 378.481 65.6631 379.509 65.5767C380.545 65.5177 381.62 65.5177 382.871 65.543Z" fill="#1D191F"/>
<path d="M397.914 80.073C397.992 80.073 398.068 80.0667 398.148 80.0499C398.314 80.0183 402.244 79.2451 404.532 78.1664C405.326 77.7914 405.863 77.1677 406.084 76.3629C406.58 74.5636 405.286 72.5137 405.02 72.1218L398.999 60.2645C398.944 60.1571 398.873 60.0559 398.79 59.9695C397.528 58.6654 396.317 58.5095 395.527 58.598C393.631 58.8255 392.512 60.6416 392.39 60.8481C392.249 61.0903 392.194 61.3727 392.238 61.6487C392.253 61.7393 393.601 70.6239 393.749 74.3256C393.934 78.9775 397.44 79.9888 397.59 80.0288C397.697 80.0583 397.807 80.073 397.914 80.073ZM396.915 61.5434L402.924 73.3564C403.398 74.0854 403.876 75.1978 403.731 75.7161C403.714 75.7772 403.691 75.8635 403.489 75.9583C401.833 76.7421 398.984 77.3805 398.015 77.5849C397.493 77.3363 396.283 76.5146 396.193 74.2266C396.056 70.8599 395.017 63.7197 394.726 61.7688C394.984 61.457 395.398 61.0672 395.826 61.0187C396.165 60.985 396.511 61.1578 396.915 61.5434Z" fill="#1D191F"/>
<path d="M412.782 65.4709C411.589 65.0958 411.069 65.3255 409.9 65.7847C406.735 67.0257 405.635 71.764 406.31 73.4831C406.984 75.2044 409.179 73.2557 412.344 72.0148C413.37 71.6123 413.479 71.9368 414.341 71.6861L412.782 65.4709Z" fill="#FEF86B"/>
<path d="M387.81 77.2641C388.164 79.4636 384.275 78.8546 379.715 79.5899C375.156 80.3252 371.654 82.1287 371.301 79.9271C370.947 77.7275 373.871 72.3571 378.43 71.6218C382.989 70.8866 387.454 75.0624 387.81 77.2641Z" fill="#FEF86B"/>
<path d="M399.212 89.2761C396.46 88.4313 394.126 87.9972 391.88 87.304C390.742 87.0133 389.702 86.5625 388.593 86.1285C387.472 85.6818 386.451 85.0477 385.109 84.3945C385.363 85.8103 386.09 87.1798 387.184 88.1637C388.248 89.1834 389.579 89.9208 390.97 90.3401C392.373 90.7193 393.816 90.8794 395.226 90.7025C396.627 90.5402 398.015 90.1399 399.212 89.2761Z" fill="#1D191F"/>
<path d="M345.655 191.205C345.655 202.86 350.537 212.309 368.043 212.309C380.406 212.309 387.83 202.86 387.83 191.205C387.83 179.55 382.871 170.101 368.043 170.101C353.411 170.101 345.655 179.55 345.655 191.205Z" fill="#FEF86B"/>
<path d="M370.202 193.812C370.343 193.812 370.472 193.81 370.594 193.803C371.285 193.768 372.572 193.7 372.933 192.641C373.272 191.644 372.454 190.947 371.858 190.439C371.637 190.249 371.205 189.881 371.051 189.649C371.087 189.628 371.146 189.577 371.233 189.518C372.819 188.408 383.399 188.756 392.712 189.731C393.377 189.801 393.982 189.316 394.052 188.646C394.123 187.976 393.637 187.376 392.964 187.306C389.653 186.958 372.964 185.336 369.835 187.519C369.035 188.079 368.607 188.751 368.573 189.518C368.538 190.239 368.862 190.839 369.277 191.336C368.264 191.263 366.882 191.098 365.268 190.905C358.216 190.062 346.418 188.65 335.993 191.408C335.342 191.581 334.955 192.249 335.125 192.9C335.298 193.551 335.96 193.941 336.617 193.768C346.589 191.128 358.098 192.504 364.979 193.327C367.299 193.603 369.048 193.812 370.202 193.812Z" fill="#1D191F"/>
<path d="M540.475 51.247C540.947 51.247 541.398 50.9711 541.598 50.5076C542.795 47.7139 542.818 42.3687 542.812 41.2879L545.698 31.1435C545.816 30.739 545.713 30.305 545.431 29.9932C545.152 29.6814 544.735 29.5338 544.316 29.6076L534.106 31.3963C533.62 31.4827 531.173 32.1864 530.72 37.7253C530.516 40.2156 529.749 41.9053 528.401 44.1533C528.053 44.7306 528.241 45.4805 528.82 45.8261C529.395 46.1695 530.145 45.9862 530.493 45.4068C531.995 42.9039 532.91 40.8771 533.15 37.9254C533.451 34.289 534.62 33.7792 534.631 33.775L542.816 32.3466L540.414 40.7929C540.381 40.9087 540.364 41.0267 540.366 41.1489C540.395 42.7628 540.267 47.4147 539.35 49.5489C539.087 50.1683 539.371 50.8847 539.991 51.1501C540.151 51.2154 540.313 51.247 540.475 51.247Z" fill="#1D191F"/>
<path d="M495.737 74.0243C495.952 74.0243 496.165 73.9696 496.361 73.8537C499.142 72.1956 523.623 57.4877 526.905 51.422C527.118 51.0323 527.101 50.5583 526.859 50.1854C526.853 50.1727 525.865 48.5715 525.658 46.176C525.599 45.5039 524.986 45.0004 524.337 45.0658C523.665 45.1226 523.17 45.7147 523.227 46.3868C523.402 48.3904 524.013 49.9474 524.422 50.7922C520.844 55.7833 502.241 67.5079 495.111 71.7574C494.532 72.1029 494.342 72.8509 494.688 73.4302C494.917 73.8116 495.322 74.0243 495.737 74.0243Z" fill="#1D191F"/>
<path d="M371.802 491.685C371.802 491.685 372.957 473.883 373.979 473.008C375 472.134 387.039 473.792 389.523 472.555C392.005 471.318 393.383 478.107 394.988 478.947C396.591 479.788 399.954 476.474 397.66 472.237C395.365 468 404.789 460.388 407.161 460.574C409.534 460.759 424.558 466.945 436.196 467.617C447.834 468.289 457.066 466.148 460.275 467.832C463.484 469.515 466.435 471.415 461.977 476.554C457.519 481.693 447.181 491.858 433.571 491.987C419.963 492.115 416.79 489.958 415.041 487.912C413.292 485.866 410.707 482.325 408.986 486.007C407.265 489.69 407.113 494.688 403.938 495.634C400.765 496.575 378.902 501.545 371.802 491.685Z" fill="#1D191F"/>
<path d="M392.158 509.818C395.649 509.818 398.961 509.441 401.627 508.78C407.037 507.434 410.427 504.676 413.418 502.244C414.223 501.587 415.015 500.942 415.822 500.348C417.337 499.234 420.988 499.636 425.204 500.097C429.934 500.618 435.823 501.263 442.032 500.279C455.02 498.216 466.321 488.914 469.484 484.987C473.366 480.169 471.782 475.932 469.823 472.005C468.011 468.37 465.005 468.042 463.662 468.366C463.007 468.529 462.609 469.19 462.771 469.843C462.934 470.49 463.576 470.894 464.231 470.739C464.45 470.696 466.298 470.399 467.638 473.094C469.435 476.697 470.573 479.75 467.581 483.458C464.269 487.572 453.261 496.027 441.65 497.868C435.766 498.806 430.058 498.176 425.472 497.672C420.55 497.133 416.657 496.703 414.373 498.385C413.534 499.004 412.715 499.67 411.878 500.35C408.948 502.733 405.918 505.196 401.037 506.412C394.423 508.057 383.623 507.724 377.01 504.326C370.881 501.172 369.881 498.233 372.889 492.228C373.19 491.628 372.946 490.895 372.343 490.591C371.751 490.29 371.012 490.528 370.706 491.137C367.114 498.3 368.616 502.752 375.896 506.494C380.455 508.839 386.535 509.818 392.158 509.818Z" fill="#1D191F"/>
<path d="M402.702 468.906C403.149 468.906 403.579 468.66 403.794 468.234C404.089 467.642 403.861 466.928 403.286 466.614C403.109 466.502 397.612 462.748 391.618 438.047C391.458 437.394 390.803 437.007 390.143 437.15C389.488 437.31 389.088 437.969 389.244 438.625C395.602 464.825 401.504 468.449 402.153 468.778C402.33 468.866 402.515 468.906 402.702 468.906Z" fill="#1D191F"/>
<path d="M377.952 477.409C378.59 477.409 379.128 476.912 379.168 476.266C379.743 467.086 367.612 441.642 367.095 440.563C366.805 439.95 366.071 439.699 365.467 439.988C364.86 440.278 364.601 441.007 364.892 441.616C365.016 441.875 377.265 467.564 376.732 476.112C376.69 476.784 377.202 477.363 377.874 477.405C377.899 477.409 377.925 477.409 377.952 477.409Z" fill="#1D191F"/>
<path d="M368.436 442.496C376.44 442.496 390.822 438.238 397.722 434.212C404.917 430.015 402.74 414.456 400.823 400.728C400.587 399.036 400.355 397.38 400.149 395.785C399.298 389.265 399.519 376.702 399.736 364.549C399.991 350.191 400.231 336.632 398.903 330.996C396.453 320.584 375.284 281.702 374.384 280.054C374.066 279.46 373.32 279.241 372.73 279.568C372.138 279.89 371.919 280.629 372.244 281.221C372.461 281.624 394.155 321.46 396.529 331.554C397.785 336.893 397.534 350.931 397.294 364.505C397.077 376.748 396.854 389.404 397.726 396.102C397.936 397.703 398.168 399.369 398.404 401.067C400.128 413.392 402.273 428.732 396.491 432.105C389.313 436.29 372.427 441.034 366.212 439.888C363.171 439.336 352.797 436.349 346.999 421.133C342.29 408.766 340.98 367.861 340.98 363.61C340.98 362.483 342.99 359.097 344.459 356.626C347.381 351.702 348.729 349.273 347.497 347.899C346.498 346.784 344.785 347.566 344.136 347.859C341.302 349.146 338.688 351.251 336.781 352.787C336.322 353.156 335.806 353.571 335.353 353.914C335.382 353.805 335.409 353.689 335.445 353.562C335.97 351.634 336.56 349.928 337.032 348.558C338.06 345.59 338.625 343.953 337.664 342.853C337.144 342.257 336.335 342.067 335.25 342.284C332.049 342.923 330.307 342.672 329.03 341.397C327.385 339.636 298.472 292.824 296.416 282.835C294.107 271.61 294.307 259.148 296.867 255.052C299.852 250.274 303.482 245.426 303.52 245.376C303.923 244.836 303.813 244.072 303.274 243.669C302.737 243.267 301.972 243.372 301.565 243.914C301.529 243.962 297.84 248.892 294.798 253.761C291.448 259.121 291.901 272.994 294.029 283.326C296.157 293.671 325.497 341.313 327.305 343.121C329.664 345.48 332.721 345.27 335.679 344.684C335.549 345.381 335.117 346.631 334.725 347.76C334.24 349.163 333.636 350.914 333.09 352.917C332.66 354.495 332.334 356.095 333.452 356.826C334.674 357.62 335.961 356.577 338.309 354.687C340.215 353.151 342.592 351.238 345.143 350.077C345.194 350.056 345.238 350.035 345.284 350.016C344.745 351.35 343.352 353.703 342.356 355.38C339.979 359.381 338.538 361.931 338.538 363.61C338.538 364.031 339.486 408.264 344.72 422.001C350.971 438.411 362.415 441.679 365.771 442.292C366.545 442.431 367.44 442.496 368.436 442.496Z" fill="#1D191F"/>
<path d="M257.621 403.978C258.694 403.978 259.678 403.938 260.541 403.87C265.598 403.483 283.173 397.714 298.68 392.626C307.985 389.571 316.779 386.685 321.157 385.532C333.004 382.416 340.403 373.3 340.713 372.914C341.132 372.388 341.048 371.621 340.521 371.202C339.997 370.78 339.232 370.862 338.807 371.389C338.737 371.478 331.58 380.268 320.538 383.175C316.086 384.344 307.261 387.243 297.917 390.311C283.306 395.106 265.119 401.075 260.356 401.443C253.226 401.993 241.152 400.481 237.075 394.072C232.969 387.618 232.461 372.061 233.557 368.218L233.705 367.694C235.011 363.065 238.07 352.225 248.022 348.907C260.491 344.75 282.259 338.781 284.578 339.178C285.061 339.298 285.592 340.484 285.91 341.192C286.399 342.277 286.902 343.398 288.071 343.423C289.306 343.412 289.932 342.14 290.214 341.586C290.652 340.709 291.093 339.66 291.539 338.592C292.218 336.97 293.631 333.595 294.413 333.407C295.188 333.999 296.223 335.314 297.133 336.472C299.084 338.958 300.392 340.583 301.869 340.075C303.157 339.633 303.157 337.996 303.157 337.381C303.157 335.807 302.868 334.313 302.611 332.996C301.949 329.573 301.926 328.393 304.195 327.542C309.597 325.517 310.781 316.563 310.781 313.282C310.781 312.608 310.236 312.062 309.561 312.062C308.887 312.062 308.341 312.608 308.341 313.282C308.341 315.415 307.492 323.699 303.338 325.258C298.949 326.905 299.623 330.386 300.215 333.458C300.437 334.604 300.666 335.786 300.708 336.989C300.178 336.394 299.541 335.585 299.052 334.966C297.951 333.563 296.91 332.24 295.958 331.521C295.1 330.881 294.299 330.91 293.775 331.051C291.83 331.58 290.652 334.393 289.291 337.648C288.908 338.56 288.533 339.46 288.16 340.239C288.154 340.223 288.145 340.208 288.139 340.191C287.574 338.937 286.801 337.216 285.151 336.805C282.044 336.045 255.476 343.855 247.253 346.594C236.075 350.321 232.649 362.463 231.362 367.034L231.216 367.548C229.965 371.924 230.418 388.151 235.019 395.384C239.38 402.238 250.447 403.978 257.621 403.978Z" fill="#1D191F"/>
<path d="M94.7787 483.719C95.5182 483.719 95.9648 483.66 96.0659 483.643C96.7317 483.54 97.1889 482.918 97.0857 482.252C96.9824 481.587 96.3441 481.125 95.7015 481.233C95.5393 481.252 81.0485 482.992 68.1335 458.43C57.0599 437.358 56.5417 431.018 56.6976 429.446C57.1148 429.731 57.6352 430.216 58.1134 430.66C59.2279 431.697 60.6163 432.986 62.4493 433.728C64.8806 434.705 91.0286 456.954 96.38 480.297C96.5274 480.955 97.1763 481.372 97.84 481.214C98.4973 481.064 98.9083 480.409 98.7566 479.754C93.144 455.272 66.2268 432.617 63.3594 431.465C61.9436 430.894 60.7911 429.819 59.7735 428.873C58.7117 427.887 57.7952 427.034 56.6891 426.817C55.9728 426.68 55.2754 426.95 54.8245 427.557C51.9297 431.444 60.5657 449.282 65.974 459.566C77.6754 481.821 90.683 483.719 94.7787 483.719Z" fill="#1D191F"/>
<path d="M92.9121 480.836C93.2598 480.836 93.6032 480.688 93.8454 480.402C94.2795 479.883 94.2121 479.114 93.6981 478.68C93.5316 478.541 77.035 464.543 69.8886 449.357C69.602 448.75 68.873 448.489 68.2663 448.774C67.6553 449.06 67.3941 449.787 67.6827 450.396C75.0609 466.073 91.433 479.963 92.1262 480.547C92.3558 480.743 92.634 480.836 92.9121 480.836Z" fill="#1D191F"/>
<path d="M95.8029 451.422C95.8387 451.422 95.8726 451.42 95.9063 451.418C96.5784 451.363 97.0797 450.771 97.0207 450.103C95.3563 430.065 85.5848 409.411 67.9716 388.705C67.2321 387.837 66.7222 387.241 66.5136 386.942C66.1765 386.453 65.7806 385.699 65.355 384.898C63.9287 382.214 62.774 380.095 61.1032 380.569C59.6516 380.971 58.9943 382.713 59.4346 391.12C60.3195 408.036 71.8038 440.588 72.2884 441.966C72.5138 442.602 73.2177 442.937 73.8477 442.71C74.484 442.482 74.8145 441.785 74.5912 441.151C74.4711 440.818 62.7382 407.553 61.8702 390.991C61.6553 386.876 61.75 384.776 61.8848 383.716C62.3378 384.426 62.8624 385.41 63.2016 386.046C63.6756 386.942 64.1286 387.787 64.5078 388.332C64.7375 388.665 65.296 389.329 66.1134 390.292C83.3896 410.597 92.9694 430.791 94.5895 450.305C94.6443 450.939 95.1772 451.422 95.8029 451.422Z" fill="#1D191F"/>
<path d="M95.1854 463.427C95.297 463.427 95.4149 463.41 95.5287 463.376C96.1755 463.189 96.5465 462.51 96.3548 461.864C89.2484 437.559 72.6991 407.012 72.5327 406.704C72.2082 406.116 71.4666 405.899 70.8766 406.215C70.2846 406.538 70.0654 407.277 70.3877 407.871C70.5542 408.175 86.9791 438.496 94.0139 462.55C94.1719 463.081 94.6565 463.427 95.1854 463.427Z" fill="#1D191F"/>
<path d="M102.503 481.25C102.809 481.25 103.114 481.136 103.35 480.908C104.191 480.097 123.919 460.788 121.62 436.736C119.617 415.767 114.504 395.853 110.458 393.251C109.675 392.747 108.992 392.817 108.56 392.967C106.139 393.801 105.636 397.37 104.997 401.893C104.521 405.283 103.978 409.124 102.596 412.366C99.1951 420.358 91.0165 456.924 95.405 476.733C95.5504 477.39 96.1825 477.805 96.8609 477.66C97.5183 477.514 97.9332 476.861 97.7878 476.204C93.5046 456.882 101.513 421.139 104.84 413.325C106.348 409.783 106.915 405.772 107.414 402.235C107.81 399.424 108.301 395.961 109.218 395.343C111.478 396.782 116.954 413.557 119.191 436.97C121.378 459.861 101.856 478.96 101.658 479.149C101.171 479.617 101.157 480.39 101.624 480.875C101.865 481.125 102.183 481.25 102.503 481.25Z" fill="#1D191F"/>
<path d="M100.906 478.361C101.371 478.361 101.816 478.092 102.018 477.639C112.456 454.345 114.255 421.628 114.272 421.299C114.308 420.627 113.789 420.052 113.119 420.021C113.096 420.019 113.075 420.019 113.054 420.019C112.407 420.019 111.87 420.524 111.836 421.177C111.82 421.5 110.039 453.772 99.7915 476.644C99.5155 477.259 99.7915 477.982 100.407 478.256C100.571 478.328 100.739 478.361 100.906 478.361Z" fill="#1D191F"/>
<path d="M102.341 418.064C102.983 418.064 103.521 417.564 103.559 416.915C105.432 384.776 92.1079 357.035 85.7052 343.701C84.1693 340.507 82.96 337.985 82.5555 336.628C81.1418 331.89 79.3321 331.097 78.0954 331.257C76.2582 331.5 73.7658 333.714 73.3234 350.048C72.7714 370.649 78.7568 406.678 78.8158 407.041C78.9274 407.706 79.5511 408.155 80.221 408.041C80.8826 407.93 81.3337 407.3 81.222 406.636C81.163 406.278 75.2131 370.476 75.763 350.116C76.1717 334.917 78.4323 333.678 78.4555 333.668C78.5629 333.752 79.3974 334.584 80.2149 337.323C80.6763 338.867 81.8624 341.339 83.5058 344.758C89.8179 357.903 102.958 385.262 101.125 416.772C101.085 417.444 101.599 418.024 102.271 418.062C102.295 418.064 102.318 418.064 102.341 418.064Z" fill="#1D191F"/>
<path d="M96.3825 446.21C96.9956 446.21 97.5246 445.749 97.5941 445.123C97.9965 441.467 96.684 435.897 94.3011 425.786C93.1002 420.696 91.6063 414.359 89.9208 406.525C84.9992 383.696 82.1825 352.068 82.1552 351.752C82.0983 351.082 81.4935 350.595 80.8319 350.643C80.1599 350.702 79.6648 351.294 79.7237 351.967C79.7532 352.283 82.5828 384.062 87.5339 407.042C89.2257 414.896 90.7215 421.246 91.9266 426.347C94.2483 436.194 95.5273 441.617 95.1691 444.857C95.0954 445.527 95.5799 446.13 96.2478 446.204C96.292 446.208 96.3383 446.21 96.3825 446.21Z" fill="#1D191F"/>
<path d="M77.4861 489.825C78.0107 489.825 78.4954 489.484 78.6534 488.957C78.8493 488.315 78.4847 487.632 77.8379 487.436C77.0183 487.187 76.1842 486.93 75.3519 486.669C75.4741 486.602 75.5858 486.522 75.6932 486.425C75.965 486.176 76.3906 485.614 76.1863 484.649C75.9545 483.578 75.1413 482.352 74.3533 481.162C74.2711 481.04 74.1847 480.907 74.0941 480.768C78.6617 482.481 84.9928 484.366 89.3666 482.477C89.986 482.209 90.2705 481.49 90.0029 480.873C89.7332 480.254 89.0169 479.965 88.3996 480.237C84.2407 482.036 76.8772 479.219 74.4585 478.297C73.6052 477.968 72.0145 477.355 71.1676 478.419C70.3122 479.485 71.155 480.753 72.318 482.51C72.7098 483.098 73.1608 483.783 73.4663 484.358C72.7731 484.196 71.8272 483.903 71.0624 483.665C69.0398 483.033 66.7495 482.319 64.826 482.319C64.8196 482.319 64.8112 482.319 64.8028 482.319C63.4355 482.321 63.052 482.972 62.9719 483.515C62.8055 484.655 62.694 485.405 77.1322 489.772C77.2502 489.808 77.3702 489.825 77.4861 489.825Z" fill="#1D191F"/>
<path d="M106.605 480.523C106.792 480.523 106.986 480.479 107.167 480.384C107.372 480.277 112.243 477.702 116.149 473.488C118.132 471.348 119.608 470.821 120.259 471.011C120.525 471.087 120.689 471.316 120.754 471.685C120.923 472.633 121.513 472.989 121.848 473.111C123.007 473.55 124.151 472.627 125.472 471.559C125.575 471.479 125.686 471.388 125.804 471.293C125.79 471.441 125.779 471.588 125.767 471.725C125.552 474.182 125.225 477.896 127.867 479.107C128.472 479.388 129.205 479.124 129.485 478.509C129.768 477.896 129.5 477.171 128.887 476.891C127.808 476.396 128.053 473.604 128.198 471.936C128.358 470.115 128.461 468.912 127.456 468.339C126.359 467.718 125.236 468.615 123.942 469.656C123.656 469.888 123.257 470.206 122.918 470.45C122.545 469.574 121.846 468.929 120.95 468.668C119.865 468.35 117.588 468.341 114.356 471.828C110.747 475.728 106.082 478.195 106.036 478.22C105.438 478.534 105.206 479.272 105.522 479.868C105.739 480.285 106.162 480.523 106.605 480.523Z" fill="#1D191F"/>
<path d="M529.194 479.033C531.18 479.033 533.361 478.909 535.689 478.595C545.262 477.301 559.203 472.361 571.265 456.176C591.249 429.352 592.022 407.518 592.353 398.196C592.403 396.79 592.439 395.676 592.538 394.882C593.058 390.689 592.511 385.702 590.079 384.655C589.437 384.377 588.154 384.162 586.782 385.824C585.748 387.078 585.505 388.551 585.271 389.975C584.827 392.68 584.323 395.746 578.348 399.211C565.886 406.444 524.329 433.125 512.834 472.73C512.646 473.378 513.019 474.055 513.666 474.242C514.319 474.432 514.991 474.057 515.179 473.41C526.417 434.678 567.308 408.441 579.572 401.322C586.546 397.275 587.199 393.285 587.678 390.369C587.884 389.113 588.046 388.121 588.661 387.375C588.95 387.025 589.148 386.916 589.201 386.903C589.616 387.145 590.695 389.897 590.113 394.576C590.008 395.421 589.963 396.609 589.911 398.105C589.588 407.198 588.834 428.501 569.306 454.712C557.788 470.17 544.552 474.904 535.476 476.155C525.603 477.512 518.358 475.178 518.288 475.155C517.659 474.94 516.959 475.287 516.746 475.93C516.534 476.57 516.881 477.259 517.522 477.472C517.768 477.559 522.313 479.033 529.194 479.033Z" fill="#1D191F"/>
<path d="M517.638 474.744C517.707 474.744 517.777 474.74 517.844 474.728C518.628 474.595 537.259 471.258 557.33 453.35C577.423 435.42 583.43 411.044 583.489 410.802C583.645 410.147 583.241 409.489 582.585 409.331C581.926 409.188 581.271 409.58 581.115 410.235C581.058 410.471 575.209 434.129 555.704 451.529C536.19 468.94 517.619 472.29 517.431 472.322C516.765 472.435 516.321 473.067 516.434 473.729C516.54 474.325 517.056 474.744 517.638 474.744Z" fill="#1D191F"/>
<path d="M505.709 474.323C506.286 474.323 506.796 473.91 506.905 473.324C507.028 472.661 506.589 472.024 505.928 471.902C505.696 471.86 482.835 467.084 481.887 424.559C480.839 377.634 490.385 355.162 496.19 349.284C497.418 348.041 498.478 347.436 499.011 347.647C501.267 348.549 501.459 358.878 501.573 365.051C501.727 373.317 505.702 381.266 511.203 392.268C513.078 396.02 515.204 400.272 517.399 404.987C525.639 422.703 521.217 453.265 521.173 453.573C521.074 454.239 521.533 454.86 522.201 454.957C522.854 455.064 523.488 454.599 523.585 453.931C523.779 452.652 528.165 422.345 519.614 403.959C517.408 399.214 515.272 394.946 513.388 391.178C508.03 380.463 504.16 372.72 504.015 365.007C503.812 354.062 503.416 346.781 499.919 345.384C497.54 344.43 495.219 346.8 494.456 347.571C486.315 355.817 478.515 382.84 479.447 424.616C480.445 469.273 504.468 474.123 505.49 474.31C505.563 474.317 505.635 474.323 505.709 474.323Z" fill="#1D191F"/>
<path d="M534.174 485.187C534.188 485.187 534.203 485.187 534.216 485.187C541.406 484.938 541.653 483.662 541.788 482.977C541.956 482.1 541.406 481.373 540.151 480.817C537.837 479.787 536.179 479.884 534.591 479.966C533.293 480.038 532.062 480.105 530.324 479.566C527.097 478.567 526.595 477.352 526.591 477.341C526.444 476.684 525.778 476.317 525.144 476.458C524.486 476.606 524.084 477.299 524.231 477.956C524.324 478.367 525.015 480.478 529.604 481.896C531.763 482.564 533.343 482.475 534.723 482.404C535.678 482.349 536.499 482.307 537.435 482.488C536.455 482.612 535.28 482.707 534.131 482.745C533.459 482.768 532.933 483.333 532.954 484.007C532.979 484.667 533.518 485.187 534.174 485.187Z" fill="#1D191F"/>
<path d="M497.239 478.157C497.568 478.157 497.897 478.024 498.139 477.763C498.594 477.268 498.562 476.494 498.067 476.037C497.273 475.306 496.506 474.434 495.99 473.715C496.032 473.764 496.07 473.808 496.11 473.852C496.98 474.872 498.291 476.416 499.957 475.548C502.032 474.472 502.662 472.083 502.725 471.815C502.883 471.16 502.481 470.502 501.824 470.342C501.162 470.191 500.511 470.589 500.351 471.244C500.243 471.674 499.755 472.904 498.828 473.387C498.824 473.277 498.284 472.645 497.962 472.27C497.071 471.231 495.583 469.483 493.814 470.713C493.276 471.082 492.956 471.646 492.91 472.3C492.775 474.261 495.314 476.825 496.413 477.836C496.647 478.049 496.944 478.157 497.239 478.157Z" fill="#1D191F"/>
<path d="M505.854 468.977C506.023 468.977 506.193 468.941 506.358 468.87C506.971 468.592 507.245 467.869 506.969 467.254C506.779 466.834 488.045 424.565 494.014 373.891C494.096 373.221 493.615 372.616 492.946 372.538C492.292 372.431 491.671 372.939 491.593 373.607C485.538 424.978 504.55 467.833 504.744 468.261C504.946 468.71 505.388 468.977 505.854 468.977Z" fill="#1D191F"/>
<path d="M523.143 448.884C523.583 448.884 524.013 448.644 524.228 448.223C524.39 447.909 540.335 416.234 535.19 368.752C531.941 338.764 525.353 320.522 520.992 308.454C518.552 301.691 516.938 297.225 517.381 294.45C517.61 293.016 519.521 280.385 516.028 278.82C515.318 278.497 514.193 278.463 512.887 280.069C509.213 284.578 498.139 318.706 498.786 346.877C498.803 347.549 499.327 348.08 500.035 348.069C500.707 348.053 501.24 347.494 501.228 346.82C500.577 318.43 511.949 285.085 514.781 281.607C514.914 281.445 515.023 281.329 515.11 281.249C515.739 282.593 515.984 287.734 514.971 294.063C514.429 297.461 516.129 302.163 518.697 309.278C523.019 321.239 529.548 339.315 532.765 369.011C537.828 415.724 522.218 446.796 522.06 447.104C521.753 447.704 521.989 448.438 522.587 448.745C522.764 448.842 522.956 448.884 523.143 448.884Z" fill="#1D191F"/>
<path d="M522.744 421.491C523.401 421.491 523.945 420.968 523.964 420.307C523.976 419.881 524.227 409.604 520.253 387.417C516.309 365.409 511.824 312.624 511.78 312.093C511.723 311.421 511.12 310.949 510.463 310.981C509.791 311.037 509.294 311.627 509.351 312.297C509.395 312.828 513.891 365.727 517.854 387.845C521.777 409.737 521.528 420.132 521.526 420.233C521.507 420.907 522.036 421.468 522.71 421.489C522.721 421.491 522.733 421.491 522.744 421.491Z" fill="#1D191F"/>
<path d="M552.866 419.871C553.207 419.871 553.544 419.729 553.787 419.451C553.964 419.251 571.442 398.947 575.736 371.71C580.027 344.496 581.805 335.394 584.57 331.465C586.177 329.179 586.242 326.702 584.73 325.296C583.895 324.515 580.575 322.452 573.037 328.608C563.105 336.724 539.717 366.525 533.826 385.974C533.63 386.616 533.995 387.299 534.642 387.495C535.28 387.693 535.967 387.328 536.163 386.679C541.83 367.977 565.096 338.249 574.581 330.5C579.332 326.622 582.263 326.335 583.07 327.083C583.55 327.532 583.535 328.699 582.575 330.062C579.505 334.425 577.754 343.251 573.326 371.331C569.137 397.883 552.118 417.654 551.947 417.852C551.505 418.36 551.555 419.129 552.067 419.573C552.297 419.772 552.579 419.871 552.866 419.871Z" fill="#1D191F"/>
<path d="M525.985 442.167C526.335 442.167 526.684 442.018 526.924 441.727C527.023 441.605 537.223 429.286 550.734 409.64C564.355 389.833 571.628 354.278 571.931 352.774C572.064 352.115 571.636 351.47 570.977 351.337C570.315 351.204 569.672 351.632 569.54 352.292C569.466 352.654 562.06 388.866 548.724 408.258C535.28 427.805 525.148 440.046 525.047 440.168C524.615 440.684 524.687 441.455 525.207 441.887C525.433 442.073 525.707 442.167 525.985 442.167Z" fill="#1D191F"/>
<path d="M561.62 343.723C562.145 343.723 562.63 343.382 562.79 342.853C562.868 342.594 570.551 316.77 572.941 299.96C573.518 295.889 574.068 292.546 574.514 289.826C575.69 282.665 576.13 279.983 574.725 278.62C573.773 277.699 572.403 277.962 571.955 278.053C567.992 278.83 534.653 304.291 526.605 333.676C526.426 334.325 526.809 334.997 527.46 335.176C528.117 335.355 528.783 334.971 528.96 334.32C536.593 306.451 568.78 281.165 572.424 280.446C572.915 280.351 573.073 280.408 573.075 280.406C573.488 281.019 572.848 284.917 572.106 289.432C571.658 292.167 571.108 295.525 570.526 299.618C568.164 316.25 560.531 341.901 560.455 342.156C560.262 342.802 560.63 343.483 561.275 343.677C561.389 343.706 561.505 343.723 561.62 343.723Z" fill="#1D191F"/>
<path d="M534.774 380.167C535.352 380.167 535.864 379.754 535.973 379.166C535.994 379.044 538.32 366.78 547.791 352.999C557.573 338.763 563.495 306.982 563.741 305.637C563.863 304.972 563.425 304.337 562.762 304.215C562.092 304.108 561.464 304.536 561.342 305.195C561.283 305.522 555.268 337.811 545.778 351.619C535.994 365.862 533.664 378.212 533.569 378.73C533.449 379.392 533.889 380.03 534.551 380.15C534.627 380.159 534.701 380.167 534.774 380.167Z" fill="#1D191F"/>
<path d="M520.374 311.555C520.389 311.555 520.406 311.555 520.418 311.555C521.093 311.53 521.617 310.961 521.594 310.289C521.158 298.647 522.597 290.955 526.724 282.852L527.194 281.931C535.341 265.938 544.875 246.726 546.278 240.081C547.184 235.798 548.585 234.154 549.257 234.127C549.257 234.127 549.259 234.125 549.261 234.125C549.4 234.125 551.151 234.272 553.292 241.343C556.903 253.263 548.389 297.699 548.3 298.147C548.174 298.809 548.606 299.45 549.267 299.578C549.918 299.694 550.57 299.275 550.698 298.611C551.056 296.759 559.41 253.131 555.628 240.637C553.806 234.618 551.728 231.685 549.282 231.685C549.24 231.685 549.196 231.687 549.152 231.687C545.996 231.824 544.5 236.689 543.889 239.575C542.372 246.757 529.764 271.507 525.02 280.823L524.55 281.746C520.216 290.251 518.701 298.28 519.152 310.38C519.18 311.039 519.721 311.555 520.374 311.555Z" fill="#1D191F"/>
<path d="M529.101 331.08C529.733 331.08 530.265 330.593 530.316 329.953C530.327 329.797 531.504 314.331 532.663 304.475C533.792 294.863 545.355 276.468 545.473 276.283C545.833 275.714 545.66 274.96 545.091 274.6C544.533 274.244 543.775 274.406 543.408 274.981C542.919 275.754 531.433 294.035 530.24 304.188C529.075 314.097 527.891 329.611 527.878 329.765C527.828 330.437 528.332 331.023 529.004 331.076C529.037 331.08 529.071 331.08 529.101 331.08Z" fill="#1D191F"/>
</svg>
