<svg width="44" height="44" viewBox="0 0 44 44" fill="none" xmlns="http://www.w3.org/2000/svg">
<g id="customer 1" clip-path="url(#clip0_46_160)">
<g id="Group">
<g id="Group_2">
<path id="Vector" d="M42.6236 21.6933C41.1525 20.4808 38.8272 20.3768 37.301 22.0147L33.5123 26.0819C33.0224 24.5076 31.5521 23.3613 29.8189 23.3613H23.0578C22.5448 23.3613 22.373 23.1653 21.4818 22.4788C18.084 19.5167 12.9805 19.5261 9.59303 22.5071L7.10789 24.6949C5.99079 24.1037 4.68634 24.0891 3.56314 24.6503L0.712766 26.075C0.0759694 26.3938 -0.181757 27.1681 0.136126 27.8048L7.87007 43.2727C8.1889 43.9094 8.96311 44.1672 9.59991 43.8493L12.4503 42.4237C13.8553 41.7217 14.6372 40.2882 14.5865 38.8292H29.8189C32.6434 38.8292 35.3426 37.48 37.0372 35.22L43.2252 26.9688C44.4256 25.3696 44.2357 23.0244 42.6236 21.6933ZM11.297 40.1181L9.59982 40.967L3.0183 27.8048L4.71634 26.9559C5.35313 26.6379 6.12648 26.8949 6.44531 27.5325L11.8736 38.3892C12.1916 39.0259 11.9338 39.7992 11.297 40.1181ZM41.1628 25.422L34.9748 33.6732C33.7641 35.2879 31.8366 36.2511 29.8189 36.2511H13.6868L8.85655 26.5898L11.2961 24.4424C13.7237 22.3069 17.3845 22.3069 19.812 24.4424C21.2419 25.7013 22.1313 25.9393 23.0577 25.9393H29.8189C30.5296 25.9393 31.1078 26.5177 31.1078 27.2283C31.1078 27.9389 30.5295 28.5173 29.8189 28.5173H23.2356C22.524 28.5173 21.9466 29.0948 21.9466 29.8062C21.9466 30.5177 22.5241 31.0952 23.2356 31.0952H30.6825C31.7524 31.0952 32.7836 30.6466 33.5123 29.8638L39.1872 23.7721C39.7063 23.2152 40.502 23.2616 40.9901 23.6887C41.5005 24.1355 41.5556 24.8995 41.1628 25.422Z" fill="black"/>
</g>
</g>
<g id="Group_3">
<g id="Group_4">
<path id="Vector_2" d="M27.1039 8.78372C27.9864 7.85826 28.5304 6.60709 28.5304 5.22951C28.5304 2.39203 26.2378 -0.0123291 23.3745 -0.0123291C20.5327 -0.0123291 18.1326 2.38773 18.1326 5.22951C18.1326 6.5649 18.656 7.82551 19.6064 8.79403C17.2493 10.1157 15.5547 12.6524 15.5547 15.6274V16.9163C15.5547 17.6278 16.1322 18.2053 16.8437 18.2053H29.8195C30.5309 18.2053 31.1084 17.6278 31.1084 16.9163V15.6274C31.1083 12.7108 29.5041 10.1346 27.1039 8.78372ZM23.3745 2.56571C24.7717 2.56571 25.9524 3.78594 25.9524 5.2296C25.9524 6.65092 24.7958 7.80755 23.3745 7.80755C21.9308 7.80755 20.7106 6.62686 20.7106 5.2296C20.7106 3.81086 21.9557 2.56571 23.3745 2.56571ZM18.1326 15.6274C18.1326 12.7856 20.5327 10.3855 23.3745 10.3855C26.2171 10.3855 28.5304 12.7366 28.5304 15.6274H18.1326Z" fill="black"/>
</g>
</g>
</g>
<defs>
<clipPath id="clip0_46_160">
<rect width="44" height="44" fill="white" transform="translate(0 -0.00671387)"/>
</clipPath>
</defs>
</svg>
