<svg width="40" height="40" viewBox="0 0 40 40" fill="none" xmlns="http://www.w3.org/2000/svg">
<path d="M24.6236 10.7558L22.225 10.752C19.5303 10.752 17.7888 12.5386 17.7888 15.304V17.4028H15.3772C15.1688 17.4028 15 17.5718 15 17.7802V20.8211C15 21.0295 15.1689 21.1983 15.3772 21.1983H17.7888V28.8715C17.7888 29.0799 17.9576 29.2487 18.166 29.2487H21.3125C21.5209 29.2487 21.6897 29.0797 21.6897 28.8715V21.1983H24.5095C24.7179 21.1983 24.8866 21.0295 24.8866 20.8211L24.8878 17.7802C24.8878 17.6801 24.848 17.5843 24.7773 17.5135C24.7067 17.4427 24.6105 17.4028 24.5104 17.4028H21.6897V15.6236C21.6897 14.7685 21.8935 14.3344 23.0074 14.3344L24.6232 14.3338C24.8314 14.3338 25.0002 14.1648 25.0002 13.9566V11.133C25.0002 10.9249 24.8316 10.7562 24.6236 10.7558Z" fill="black"/>
</svg>
