<svg width="545" height="487" viewBox="0 0 545 487" fill="none" xmlns="http://www.w3.org/2000/svg">
<path d="M529.22 352.025C520.307 331.782 503.189 314.891 482.627 306.576C461.209 297.916 436.617 301.069 414.057 298.168C394.465 295.649 380.328 286.916 368.629 271.389C357.42 256.511 347.369 240.035 329.041 233.153C314.559 227.716 298.095 229.223 283.702 234.889C257.18 245.33 237.148 267.531 220.277 289.647C204.874 309.841 192.311 331.952 163.82 332.673C135.311 333.395 108.17 317.158 79.4649 321.46C41.5269 327.147 9.93251 358.68 3.31156 396.22C-2.89334 431.403 12.677 465.527 39.4259 485.576H499.198C532.904 449.875 550.591 400.558 529.22 352.025Z" fill="#F7F0E3"/>
<path d="M250.998 174.329C259.053 182.546 262.662 196.39 258.222 209.154C253.922 221.513 244.495 231.75 233.17 238.331C224.058 243.626 212.172 246.547 203.21 241.002C196.514 236.858 193.041 228.729 192.848 220.865C192.655 213.001 195.303 205.337 198.577 198.182C203.192 188.097 209.402 178.316 218.654 172.183C231.407 163.729 243.256 166.43 250.998 174.329Z" fill="#F7F0E3"/>
<path d="M144.234 30.2482H77.54V0.5H144.234V30.2482ZM78.9269 28.8636H142.847V1.88469H78.9269V28.8636Z" fill="#E9DDCA"/>
<path d="M100.846 58.6965H34.1523V28.9482H100.846V58.6965ZM35.5392 57.3118H99.4595V30.3329H35.5392V57.3118Z" fill="#E9DDCA"/>
<path d="M523.708 90.3953C519.39 76.0577 511.794 62.8943 500.921 50.8597C490.026 38.8251 475.166 28.8904 456.342 21.0332C437.519 13.1755 413.602 9.24707 384.592 9.24707C361.45 9.24707 337.865 12.3628 313.837 18.5946C289.787 24.849 268.927 33.7449 251.232 45.3054L274.264 108.439L261.92 118.424L279.822 123.676C297.494 114.442 313.594 107.736 328.121 103.559C342.626 99.4042 358.039 97.3268 374.383 97.3268C390.704 97.3268 403.061 101.256 411.454 109.113C419.847 116.993 424.032 126.453 424.032 137.562C424.032 150.974 419.714 162.873 411.121 173.282C402.485 183.691 392.962 194.212 382.532 204.847C375.29 212.23 368.248 219.862 361.449 227.72C354.651 235.599 348.627 244.022 343.423 253.053C338.197 262.062 334.012 271.771 330.845 282.18C327.656 292.589 326.084 304.262 326.084 317.2C326.084 321.377 326.172 326.344 326.416 332.124C326.456 333.191 326.513 334.23 326.576 335.256H309.652L328.121 347.726H417.92C417.455 344.949 417.234 341.72 417.234 338.017C417.234 334.314 417.234 331.537 417.234 329.686C417.234 321.828 418.828 314.084 421.995 306.452C425.162 298.821 429.148 291.55 433.91 284.596C438.671 277.664 443.986 271.071 449.899 264.84C455.789 258.585 461.459 252.692 466.906 247.138C474.148 239.755 481.633 231.897 489.34 223.566C497.046 215.234 503.867 206.473 509.758 197.216C515.648 187.959 520.52 177.912 524.373 167.028C528.227 156.168 530.176 144.269 530.176 131.309C530.175 118.37 528.005 104.733 523.708 90.3953Z" fill="#FBC343"/>
<path d="M355.371 92.9225C339.22 92.9225 323.988 94.9327 309.653 98.9535C295.296 102.996 279.385 109.486 261.92 118.423L233.666 42.5768C251.152 31.3889 271.769 22.7794 295.536 16.7263C319.282 10.6954 342.59 7.67969 365.46 7.67969C394.13 7.67969 417.767 11.4819 436.369 19.0862C454.972 26.6905 469.657 36.305 480.425 47.9519C491.17 59.5988 498.677 72.3383 502.945 86.214C507.19 100.09 509.335 113.288 509.335 125.809C509.335 138.352 507.409 149.867 503.601 160.378C499.793 170.911 494.978 180.634 489.157 189.594C483.336 198.553 476.595 207.031 468.979 215.094C461.363 223.158 453.965 230.762 446.809 237.907C441.425 243.283 435.822 248.986 430.001 255.039C424.157 261.07 418.905 267.451 414.199 274.159C409.494 280.89 405.554 287.926 402.425 295.311C399.295 302.697 397.719 310.192 397.719 317.796C397.719 319.588 397.719 322.276 397.719 325.86C397.719 329.443 397.938 332.568 398.398 335.256H309.653C308.734 330.776 308.186 325.75 307.967 320.157C307.726 314.562 307.639 309.755 307.639 305.713C307.639 293.192 309.193 281.895 312.344 271.821C315.474 261.748 319.61 252.351 324.775 243.633C329.918 234.892 335.871 226.741 342.59 219.115C349.309 211.511 356.268 204.125 363.425 196.98C373.733 186.688 383.144 176.505 391.679 166.431C400.171 156.358 404.438 144.842 404.438 131.862C404.438 121.111 400.302 111.955 392.007 104.329C383.713 96.7247 371.501 92.9225 355.371 92.9225Z" fill="#FEF86B"/>
<path d="M424.065 434.757C424.065 450.922 418.824 463.395 408.341 472.194C397.859 481.012 386.013 485.402 372.784 485.402C359.538 485.402 347.691 481.012 337.209 472.194C326.745 463.395 321.504 450.922 321.504 434.757C321.504 418.61 326.745 406.137 337.21 397.319C353.345 383.724 377.216 380.694 396.107 390.236C412.871 398.704 424.065 415.898 424.065 434.757Z" fill="#FBC343"/>
<path d="M406.498 434.757C406.498 450.922 401.257 463.395 390.775 472.194C380.293 481.012 368.447 485.402 355.218 485.402C341.972 485.402 330.125 481.012 319.643 472.194C309.179 463.395 303.938 450.922 303.938 434.757C303.938 418.61 309.179 406.137 319.643 397.319C330.125 388.52 341.971 384.111 355.218 384.111C368.447 384.111 380.293 388.52 390.775 397.319C401.257 406.137 406.498 418.61 406.498 434.757Z" fill="#FEF86B"/>
<path d="M140.654 205.58C141.638 200.338 138.179 195.293 132.93 194.31C127.68 193.328 122.627 196.781 121.643 202.022C120.659 207.264 124.117 212.309 129.367 213.292C134.617 214.274 139.67 210.821 140.654 205.58Z" fill="#D3DFFF"/>
<path d="M145.28 223.731C145.833 220.783 143.871 217.942 140.898 217.386C137.924 216.829 135.065 218.768 134.512 221.716C133.958 224.664 135.92 227.505 138.894 228.062C141.868 228.618 144.727 226.679 145.28 223.731Z" fill="#D3DFFF"/>
<path d="M134.205 182.078C149.075 167.231 149.075 143.159 134.205 128.313C119.335 113.466 95.2262 113.466 80.3562 128.313C65.4862 143.159 65.4862 167.231 80.3562 182.078C95.2262 196.925 119.335 196.925 134.205 182.078Z" fill="#D3DFFF"/>
<path d="M80.0065 466.37L83.5642 480.064C84.492 483.636 87.9503 486.049 91.7764 485.789C103.442 484.997 127.679 482.144 141.59 471.907L137.636 452.17C118.509 451.091 100.622 452.154 85.1337 457.359C81.2557 458.663 79.0127 462.544 80.0065 466.37Z" fill="#102048"/>
<path d="M124.614 392.344L80.1602 405.517L113.174 450.681L160.57 454.445L225.943 426.844L201.101 389.521L124.614 392.344Z" fill="#FEF86B"/>
<path d="M179.419 398.617C277.044 369.762 292.733 455.909 140.413 471.591C135.033 465.546 128.746 455.058 126.249 446.291L206.687 409.177L179.419 398.617Z" fill="#FEF86B"/>
<path d="M183.566 460.357C179.001 458.897 174.625 456.013 174.625 456.013L158.936 460.927L162.531 477.968L178.83 481.275C183.795 472.207 184.085 464.762 183.566 460.357Z" fill="#F9B384"/>
<path d="M126.597 446.888L125.9 445.691C142.681 435.954 185.665 412.561 222.287 405.662L222.544 407.023C186.133 413.882 143.316 437.187 126.597 446.888Z" fill="#FBC343"/>
<path d="M124.615 392.344C33.7455 375.093 10.211 462.286 162.531 477.968C167.912 471.923 172.129 464.78 174.625 456.013C151.228 440.381 125.067 425.524 96.3951 411.371L124.615 392.344Z" fill="#FEF86B"/>
<path d="M174.252 456.597C169.93 453.85 165.426 450.946 160.657 447.872C136.72 432.441 109.588 414.951 86.5371 404.977L87.0885 403.707C110.245 413.725 137.427 431.249 161.409 446.709C166.176 449.782 170.678 452.685 174.997 455.429L174.252 456.597Z" fill="#FBC343"/>
<path d="M57.9442 435.576L56.7305 434.907C60.1414 428.741 65.6047 424.582 72.9687 422.546L73.3389 423.881C66.249 425.841 61.2135 429.667 57.9442 435.576Z" fill="#FBC343"/>
<path d="M247.602 430.327C244.332 424.418 239.297 420.593 232.207 418.632L232.577 417.298C239.942 419.334 245.405 423.493 248.815 429.658L247.602 430.327Z" fill="#FBC343"/>
<path d="M154.022 477.202L153.008 476.257C160.277 468.484 164.741 460.278 166.656 451.171L168.013 451.455C166.045 460.817 161.468 469.239 154.022 477.202Z" fill="#FBC343"/>
<path d="M228.885 455.281C217.243 448.1 194.673 460.509 189.008 461.136C187.356 461.319 185.445 460.958 183.566 460.358C184.085 464.762 183.795 472.207 178.83 481.275L181.599 481.836C181.599 481.836 200.738 488.841 221.041 484.764C239.781 481 238.038 460.927 228.885 455.281Z" fill="#102048"/>
<path d="M108.538 279.921C108.538 279.921 131.423 260.491 130.576 256.798C129.97 254.16 123.488 258.029 123.488 258.029C123.488 258.029 132.579 247.259 132.117 245.952C131.291 243.615 125.003 247.971 125.003 247.971C125.003 247.971 129.253 241.863 127.221 240.868C125.189 239.873 120.76 243.636 120.76 243.636C120.76 243.636 123.348 240.245 122.132 239.356C120.916 238.466 115.67 242.124 115.67 242.124C115.67 242.124 117.552 237.848 113.554 239.469C109.555 241.09 81.5146 266.783 81.5146 266.783L108.538 279.921Z" fill="#F9B384"/>
<path d="M117.902 256.875C117.791 256.875 117.679 256.835 117.59 256.755C113.662 253.171 111.93 252.301 107.596 250.97C107.352 250.895 107.215 250.637 107.29 250.393C107.365 250.149 107.624 250.012 107.868 250.088C112.359 251.466 114.152 252.367 118.214 256.073C118.403 256.245 118.416 256.537 118.244 256.725C118.152 256.825 118.027 256.875 117.902 256.875Z" fill="#E28B6D"/>
<path d="M111.007 267.415C110.985 267.415 110.964 267.413 110.942 267.41C110.689 267.375 110.513 267.141 110.548 266.889C110.998 263.676 112.011 261.668 113.645 260.751C115.042 259.966 116.86 260.047 119.048 260.99C119.283 261.091 119.391 261.363 119.289 261.597C119.188 261.831 118.916 261.94 118.682 261.838C116.773 261.015 115.231 260.92 114.098 261.556C112.752 262.312 111.865 264.149 111.464 267.017C111.432 267.247 111.234 267.415 111.007 267.415Z" fill="#E28B6D"/>
<path d="M109.928 247.99C109.806 247.99 109.683 247.941 109.592 247.845C109.416 247.659 109.425 247.367 109.611 247.193L115.354 241.789C115.539 241.613 115.832 241.622 116.007 241.808C116.182 241.994 116.174 242.286 115.988 242.46L110.245 247.864C110.156 247.949 110.042 247.99 109.928 247.99Z" fill="#E28B6D"/>
<path d="M115.244 249.836C115.128 249.836 115.013 249.794 114.923 249.707C114.739 249.531 114.733 249.239 114.91 249.055L120.426 243.317C120.603 243.132 120.895 243.126 121.08 243.303C121.264 243.48 121.27 243.772 121.093 243.956L115.577 249.694C115.486 249.789 115.365 249.836 115.244 249.836Z" fill="#E28B6D"/>
<path d="M120.675 253.067C120.562 253.067 120.449 253.026 120.36 252.943C120.173 252.769 120.163 252.477 120.337 252.29L124.665 247.655C124.839 247.47 125.131 247.459 125.318 247.632C125.505 247.806 125.515 248.098 125.341 248.285L121.013 252.92C120.922 253.018 120.799 253.067 120.675 253.067Z" fill="#E28B6D"/>
<path d="M194.988 409.881L111.316 413.112L102.07 336.954C102.07 336.954 130.082 310.426 140.859 300.657L159.052 299.726C215.499 325.343 206.256 357.339 194.988 409.881Z" fill="#3A6BEA"/>
<path d="M159.052 299.726C159.052 299.726 223.631 305.24 243.989 349.416C263.911 392.642 182.044 408.034 182.044 408.034L159.052 299.726Z" fill="#3A6BEA"/>
<path d="M85.2338 309.192L111.92 276.768L86.965 261.667C76.5552 268.894 56.4249 285.263 39.3653 303.8C35.5998 307.891 32.6586 312.67 31.1771 317.932C29.913 322.423 29.6834 326.858 30.3938 331.201C32.2455 342.52 41.1634 351.256 53.0677 352.647C63.2345 353.836 102.069 350.801 133.504 341.57L142.75 305.941C137.999 303.249 102.689 302.782 85.2338 309.192Z" fill="#3A6BEA"/>
<path d="M164.962 282.793L164.951 283.975L164.763 302.338L164.74 304.328C164.705 307.441 163.427 310.262 161.364 312.309C159.313 314.346 156.488 315.622 153.358 315.645C147.052 315.68 141.894 310.624 141.836 304.316L141.613 281.623L164.962 282.793Z" fill="#F9B384"/>
<path d="M164.95 283.976L164.762 302.338C154.541 298.184 150.333 287.135 150.333 287.135L164.95 283.976Z" fill="#102048"/>
<path d="M168.994 251.931C172.657 256.32 183.353 281.19 172.51 289.675C160.309 299.224 141.741 283.531 141.741 283.531L139.25 254.565L155.367 250.322L168.994 251.931Z" fill="#F9B384"/>
<path d="M131.039 250.336C131.039 250.336 95.2893 268.952 124.439 322.616C128.182 329.508 136.475 332.517 143.569 329.153C151.179 325.546 154.06 316.264 149.928 308.934C145.16 300.477 140.558 289.586 142.522 281.483L131.039 250.336Z" fill="#102048"/>
<path d="M141.248 265.975C145.025 262.204 145.025 256.091 141.248 252.32C137.472 248.549 131.349 248.549 127.572 252.32C123.796 256.091 123.796 262.204 127.572 265.975C131.349 269.746 137.472 269.746 141.248 265.975Z" fill="#FEF86B"/>
<path d="M146.311 270.75C145.267 264.726 144.63 260.595 150.728 257.49C150.728 257.49 172.217 261.392 176.32 253.296C180.423 245.201 174.171 232.425 161.082 241.3C127.577 234.766 123.084 266.073 133.243 276.509L143.269 274.972C145.287 274.663 146.659 272.758 146.311 270.75Z" fill="#102048"/>
<path d="M162.95 272.194C163.739 272.194 164.379 271.555 164.379 270.767C164.379 269.979 163.739 269.341 162.95 269.341C162.161 269.341 161.521 269.979 161.521 270.767C161.521 271.555 162.161 272.194 162.95 272.194Z" fill="#102048"/>
<path d="M172.621 267.439C173.41 267.439 174.05 266.8 174.05 266.012C174.05 265.225 173.41 264.586 172.621 264.586C171.832 264.586 171.192 265.225 171.192 266.012C171.192 266.8 171.832 267.439 172.621 267.439Z" fill="#102048"/>
<path d="M171.633 275.157C171.532 275.157 171.432 275.12 171.354 275.046C171.192 274.892 171.185 274.637 171.34 274.475C171.913 273.873 172.54 273.026 172.276 272.412C172.002 271.775 170.844 271.5 170.314 271.5C169.174 271.5 168.627 269.475 168.529 269.069C168.476 268.852 168.61 268.634 168.827 268.582C169.044 268.528 169.263 268.663 169.315 268.88C169.523 269.735 169.995 270.692 170.314 270.692C170.86 270.692 172.528 270.949 173.02 272.094C173.371 272.911 173.003 273.899 171.926 275.031C171.846 275.115 171.739 275.157 171.633 275.157Z" fill="#102048"/>
<path d="M171.705 280.57C171.627 280.57 171.549 280.548 171.479 280.501C168.789 278.688 166.073 280.208 166.046 280.224C165.853 280.335 165.605 280.269 165.493 280.075C165.382 279.882 165.449 279.635 165.642 279.524C165.771 279.45 168.828 277.74 171.931 279.832C172.116 279.956 172.165 280.207 172.04 280.392C171.962 280.508 171.835 280.57 171.705 280.57Z" fill="#102048"/>
<path d="M162.325 264.589C163.138 266.117 161.721 266.423 160.062 267.303C158.403 268.184 156.704 268.506 156.316 267.777C155.928 267.049 156.959 265.745 158.618 264.864C160.278 263.984 161.696 263.407 162.325 264.589Z" fill="#102048"/>
<path d="M168.377 261.832C168.734 263.196 169.752 262.598 171.233 262.211C172.714 261.825 173.911 261.081 173.74 260.431C173.57 259.781 172.231 259.568 170.75 259.955C169.269 260.341 168.1 260.777 168.377 261.832Z" fill="#102048"/>
<path opacity="0.4" d="M159.227 280.514C160.937 278.939 161.045 276.278 159.468 274.57C157.89 272.862 155.225 272.755 153.515 274.33C151.804 275.905 151.697 278.566 153.274 280.274C154.852 281.981 157.517 282.089 159.227 280.514Z" fill="#EB5D60"/>
<path d="M145.492 281.37C147.417 278.879 146.679 275.089 143.845 272.905C141.01 270.721 137.151 270.97 135.227 273.461C133.302 275.952 134.039 279.741 136.874 281.925C139.708 284.109 143.567 283.86 145.492 281.37Z" fill="#F9B384"/>
<path d="M142.867 279.549C142.643 279.549 142.462 279.369 142.462 279.145C142.462 277.953 141.88 276.851 140.905 276.197C140.072 275.637 139.077 275.506 138.247 275.843C138.04 275.926 137.804 275.829 137.72 275.622C137.635 275.415 137.734 275.18 137.941 275.095C139.022 274.656 140.299 274.816 141.357 275.526C142.556 276.33 143.271 277.683 143.271 279.145C143.271 279.369 143.09 279.549 142.867 279.549Z" fill="#102048"/>
<path d="M84.8875 308.866L70.291 324.631L70.9699 325.258L85.5664 309.493L84.8875 308.866Z" fill="#102048"/>
<path d="M187.725 376.631L187.455 375.748C198.081 372.514 208.394 368.646 217.739 356.977L218.461 357.553C208.951 369.428 198.495 373.354 187.725 376.631Z" fill="#102048"/>
<path d="M194.186 340.883H103.794C100.544 340.883 97.9082 343.73 97.9082 347.241V411.678C97.9082 415.189 100.544 418.035 103.794 418.035H194.186C197.437 418.035 200.072 415.189 200.072 411.678V347.241C200.072 343.73 197.437 340.883 194.186 340.883Z" fill="#D3DFFF"/>
<path d="M153.762 375.387C154.105 375.387 154.383 375.687 154.383 376.058V382.861C154.383 383.232 154.105 383.532 153.762 383.532H144.218C143.875 383.532 143.597 383.232 143.597 382.861V376.058C143.597 375.687 143.875 375.387 144.218 375.387H153.762ZM153.762 373.541H144.218C142.856 373.541 141.748 374.67 141.748 376.058V382.861C141.748 384.249 142.856 385.379 144.218 385.379H153.762C155.124 385.379 156.233 384.249 156.233 382.861V376.058C156.233 374.67 155.124 373.541 153.762 373.541Z" fill="#1F3C88"/>
<path d="M545 484.654H0V486.5H545V484.654Z" fill="#102048"/>
</svg>
