<svg width="169" height="130" viewBox="0 0 169 130" fill="none" xmlns="http://www.w3.org/2000/svg">
<path d="M70.535 128.576C28.6103 123.506 -5.46072 91.8509 0.729204 56.667C6.00991 26.6608 38.9525 3.3094 78.457 1.10428C81.3175 0.944202 84.211 0.894652 87.1313 0.962325C109.169 1.4707 128.75 8.51012 143.232 19.1625C157.646 29.7637 167.01 43.9432 168.716 58.8193C173.256 98.3985 122.68 134.883 70.535 128.576Z" fill="#F4F7FA"/>
<path d="M31.1893 126.757C21.3851 125.751 8.95447 123.108 3.96197 115.655C2.7742 113.882 1.58251 110.438 4.58021 109.141C7.32037 107.956 10.864 109.208 12.9007 110.751C14.3981 111.885 15.5667 114.417 17.2492 115.217C19.7118 116.389 21.0375 113.192 20.9858 111.872C20.8699 108.922 16.3256 107.714 13.3054 107.074C8.29236 106.01 2.45558 105.099 2.76968 100.587C3.08378 96.0759 8.59191 93.3698 12.8293 95.3434C16.3205 96.9698 15.829 100.441 18.2146 102.524C20.3339 104.374 21.0714 101.371 20.9299 99.8983C20.6225 96.7002 17.1013 94.3871 14.5105 92.244C11.5812 89.821 8.34493 84.9461 11.4673 81.7423C13.264 79.8987 17.8285 79.4669 20.5262 79.778C33.7316 81.3006 24.9751 94.9479 27.3761 96.4706C29.7771 97.9932 32.0487 95.3278 32.0428 91.2749C32.0368 87.222 32.8136 84.2331 38.1099 85.5301C43.4061 86.8272 44.4144 97.4134 38.3668 101.482C32.3193 105.55 38.7464 109.989 40.3699 107.073C41.542 104.968 42.5724 99.4548 45.9599 98.85C51.6043 97.8443 51.5206 107.048 49.8962 109.19C47.619 112.193 42.4701 112.846 39.5947 115.436C38.7593 116.189 36.8733 118.053 37.606 119.153C38.6277 120.687 41.4785 119.046 42.5258 118.335C44.8804 116.736 48.1394 111.303 51.4565 114.911C55.5522 119.367 48.7024 125.971 31.1893 126.757Z" fill="#A4B8EA"/>
<g opacity="0.8">
<path d="M29.777 126.094C30.0073 126.094 30.1961 125.883 30.2004 125.699C30.2042 125.539 30.477 109.458 21.7005 90.3699C21.6197 90.1945 21.376 90.0888 21.1567 90.1531C20.937 90.2175 20.8243 90.404 20.905 90.5795C29.6275 109.55 29.357 125.531 29.3533 125.69C29.3489 125.877 29.5349 126.094 29.7688 126.094C29.7716 126.094 29.7744 126.094 29.777 126.094Z" fill="white"/>
</g>
<path d="M23.3888 125.435C23.7174 123.789 27.6579 123.32 29.2459 123.081C30.1668 122.942 31.4775 122.799 31.9506 122.039C32.4476 121.241 31.6917 120.624 30.723 120.483C28.9886 120.23 27.1226 121.11 25.5108 121.51C23.7794 121.94 21.983 122.143 20.2659 121.549C18.8968 121.075 17.495 119.95 17.197 118.766C16.3725 115.49 20.4834 115.678 23.1623 116.138C24.4622 116.362 27.0182 116.53 27.2474 115.063C27.4912 113.502 25.0044 112.715 23.4683 112.669C21.4607 112.608 19.4873 112.96 17.4958 113.076C15.7001 113.18 13.5741 113.023 13.076 111.373C12.6913 110.098 13.5904 108.633 14.8883 107.877C17.889 106.128 21.8427 109.11 25.0458 109.104C26.1782 109.102 28.0473 108.438 28.3607 107.467C28.6786 106.478 27.0695 105.812 26.1873 105.451C23.5725 104.381 11.5622 103.012 15.8644 98.871C16.9472 97.8287 19.0394 96.9524 20.728 96.9155C23.9136 96.8459 27.4933 98.5726 29.9476 100.062C33.8082 102.405 37.1856 105.63 39.3786 109.085C44.2254 116.72 41.8775 121.84 41.8775 121.84C40.4723 123.691 38.2979 125.615 35.903 126.658C33.0877 127.883 28.7277 128.421 25.6657 127.469C24.6753 127.16 23.1851 126.454 23.3888 125.435Z" fill="#2A51B3"/>
<path opacity="0.7" d="M154.483 79.9303L150.414 80.1496C149.947 78.6996 149.333 77.2989 148.572 75.9637L151.948 74.1545C152.869 73.6609 153.106 72.662 152.477 71.9231L148.54 67.297C147.909 66.5565 146.649 66.355 145.725 66.8475L142.304 68.6708C141.005 67.6077 139.594 66.6328 138.084 65.7596L139.888 62.8017C140.375 62.0041 139.949 61.0355 138.937 60.6379L132.598 58.1469C131.583 57.7478 130.362 58.0716 129.873 58.8707L128.057 61.8381C126.28 61.4253 124.442 61.136 122.561 60.969L122.244 57.6413C122.16 56.748 121.175 56.0668 120.044 56.1201L112.959 56.4538C111.823 56.5073 110.971 57.2771 111.056 58.173L111.373 61.5106C109.528 61.8589 107.746 62.3256 106.045 62.9102L103.655 60.1278C103.011 59.3774 101.721 59.1713 100.775 59.6677L94.8447 62.7777C93.8946 63.2759 93.6489 64.2895 94.2965 65.041L96.6943 67.824C95.3324 68.8516 94.0884 69.9726 92.9733 71.1722L89.1367 69.6921C88.0979 69.2914 86.8489 69.623 86.3476 70.4331L83.2085 75.505C82.7059 76.3169 83.1433 77.2991 84.1849 77.6983L87.9934 79.1581C87.4737 80.5835 87.1177 82.0596 86.9208 83.57L82.7039 83.7972C81.5495 83.8593 80.6827 84.6424 80.7686 85.5462L81.3056 91.1979C81.3915 92.1016 82.3974 92.7816 83.5514 92.7167L87.7338 92.4816C88.2055 93.9638 88.8325 95.3935 89.6108 96.7559L86.17 98.5899C85.2147 99.0991 84.9676 100.119 85.6184 100.867L89.6837 105.543C90.3331 106.29 91.6316 106.481 92.5839 105.971L95.9978 104.141C97.3375 105.224 98.7962 106.212 100.354 107.093L98.5694 110.008C98.0707 110.823 98.5054 111.799 99.5398 112.188L105.996 114.616C107.027 115.004 108.264 114.658 108.76 113.845L110.521 110.958C112.342 111.361 114.226 111.633 116.15 111.778L116.453 114.969C116.538 115.865 117.527 116.534 118.661 116.462L125.735 116.017C126.864 115.945 127.71 115.164 127.625 114.27L127.323 111.088C129.184 110.71 130.978 110.214 132.684 109.597L134.943 112.218C135.578 112.955 136.846 113.142 137.776 112.636L143.578 109.477C144.504 108.972 144.742 107.967 144.11 107.231L141.845 104.594C143.186 103.549 144.411 102.414 145.501 101.201L149.121 102.588C150.129 102.975 151.338 102.637 151.821 101.835L154.843 96.8262C155.326 96.0261 154.903 95.0635 153.898 94.6759L150.27 93.2764C150.764 91.8638 151.101 90.4033 151.279 88.9094L155.314 88.6825C156.425 88.6201 157.257 87.8514 157.172 86.9656L156.646 81.4259C156.562 80.5401 155.594 79.8705 154.483 79.9303ZM117.805 69.9763C129.209 69.3979 139.095 76.2161 139.949 85.2022C140.803 94.1881 132.309 102.018 120.914 102.695C109.451 103.376 99.4079 96.5666 98.5447 87.4819C97.6814 78.3972 106.333 70.5582 117.805 69.9763Z" fill="#D8DEE8"/>
<path opacity="0.7" d="M141.624 30.7829L139.387 30.9034C139.13 30.1063 138.793 29.3362 138.374 28.6021L140.23 27.6075C140.737 27.3361 140.867 26.787 140.521 26.3807L138.356 23.8374C138.01 23.4303 137.317 23.3195 136.809 23.5903L134.929 24.5927C134.214 24.0083 133.439 23.4722 132.609 22.9922L133.6 21.3661C133.868 20.9276 133.634 20.395 133.077 20.1765L129.592 18.807C129.034 18.5876 128.363 18.7656 128.094 19.205L127.096 20.8363C126.119 20.6094 125.108 20.4504 124.074 20.3586L123.9 18.5291C123.854 18.0379 123.312 17.6635 122.691 17.6928L118.795 17.8762C118.171 17.9056 117.703 18.3288 117.749 18.8214L117.924 20.6563C116.909 20.8478 115.929 21.1043 114.994 21.4257L113.68 19.896C113.326 19.4835 112.617 19.3702 112.097 19.6431L108.837 21.3529C108.314 21.6268 108.179 22.184 108.535 22.5972L109.854 24.1272C109.105 24.6921 108.421 25.3084 107.808 25.9679L105.699 25.1542C105.127 24.9339 104.441 25.1162 104.165 25.5615L102.439 28.3499C102.163 28.7963 102.404 29.3363 102.976 29.5558L105.07 30.3583C104.784 31.1419 104.589 31.9535 104.48 32.7838L102.162 32.9087C101.527 32.9429 101.051 33.3734 101.098 33.8703L101.393 36.9775C101.44 37.4743 101.993 37.8481 102.628 37.8125L104.927 37.6832C105.187 38.4981 105.531 39.2841 105.959 40.0331L104.068 41.0414C103.542 41.3213 103.406 41.882 103.764 42.2934L105.999 44.8638C106.356 45.2744 107.07 45.3796 107.594 45.099L109.471 44.0931C110.207 44.6888 111.009 45.2315 111.865 45.7163L110.884 47.3188C110.61 47.7666 110.849 48.3033 111.418 48.5171L114.967 49.8521C115.534 50.0652 116.214 49.8753 116.487 49.4283L117.455 47.8409C118.456 48.0624 119.492 48.2118 120.55 48.2915L120.716 50.0462C120.763 50.5388 121.307 50.9063 121.93 50.8671L125.82 50.622C126.44 50.5829 126.905 50.153 126.859 49.6619L126.692 47.9124C127.715 47.7048 128.702 47.4318 129.64 47.0926L130.881 48.5338C131.23 48.9391 131.928 49.0419 132.439 48.7636L135.629 47.0267C136.138 46.7494 136.269 46.1968 135.921 45.7922L134.676 44.3423C135.413 43.7677 136.087 43.1438 136.686 42.4767L138.676 43.2397C139.23 43.4519 139.895 43.2665 140.161 42.8257L141.822 40.0718C142.087 39.6319 141.855 39.1027 141.302 38.8896L139.308 38.1202C139.58 37.3436 139.765 36.5407 139.863 35.7194L142.081 35.5947C142.692 35.5604 143.149 35.1377 143.103 34.6508L142.813 31.6052C142.767 31.1181 142.235 30.75 141.624 30.7829ZM121.46 25.3105C127.729 24.9925 133.164 28.7409 133.634 33.6812C134.103 38.6214 129.433 42.9263 123.169 43.2984C116.867 43.6727 111.345 39.929 110.871 34.9345C110.396 29.94 115.153 25.6304 121.46 25.3105Z" fill="#D8DEE8"/>
<path d="M145.327 123.004C146.55 123.793 146.619 124.354 146.579 124.627C146.516 125.068 146.1 125.239 145.105 126.071C143.758 127.196 143.964 127.346 143.278 127.753C141.765 128.651 139.625 128.592 139.496 128.286C139.406 128.072 140.373 127.897 141.475 126.878C142.491 125.938 142.835 125.007 142.927 124.734C143.094 124.237 143.138 123.807 143.146 123.51L145.327 123.004Z" fill="#5D80D9"/>
<path d="M141.231 120.599L143.64 123.95C144.22 124.155 144.774 124.051 145.289 123.454L144.349 119.38L141.231 120.599Z" fill="url(#paint0_linear_46_818)"/>
<path d="M138.312 77.616C135.966 80.7788 132.16 86.8831 131.39 95.1373C130.63 103.284 133.204 109.494 134.282 111.809C136.301 116.148 139.814 120.704 141.855 122.875C143.231 122.415 144.041 121.695 145.417 121.235C145.21 120.637 144.572 118.662 144.171 117.486C143.859 116.575 143.286 114.889 143.168 114.528C142.18 111.511 142.96 109.246 142.688 105.515C142.371 101.162 141.122 101.668 141.31 99.0552C141.59 95.1536 144.359 94.2427 147.537 88.5951C149.712 84.7296 151.997 80.6694 149.897 78.4496C147.254 75.6556 139.21 77.4122 138.312 77.616Z" fill="#5D80D9"/>
<path d="M155.289 126.069C156.022 126.442 156.465 127.327 156.131 127.885C155.802 128.433 154.965 128.26 152.931 128.759C150.752 129.294 150.321 129.834 148.715 129.833C148.066 129.832 146.89 129.743 146.791 129.394C146.722 129.15 147.222 128.906 148.866 128.023C151.2 126.771 151.176 126.736 151.697 126.544C153.006 126.061 154.32 125.577 155.289 126.069Z" fill="#5D80D9"/>
<path d="M151.804 123.415L152.698 126.677C152.823 126.823 154.096 127.172 154.988 126.677L154.659 123.415H151.804Z" fill="url(#paint1_linear_46_818)"/>
<path opacity="0.3" d="M149.897 78.4496C147.253 75.6556 139.209 77.4123 138.312 77.616C137.347 78.9155 136.138 80.7193 134.993 82.9571C137.844 82.5094 139.081 82.9159 139.658 83.4558C141.896 85.5515 134.889 90.1789 136.33 97.2005C136.893 99.9468 138.364 101.183 138.095 104.537C137.895 107.033 136.924 108.296 136.253 110.124C135.85 111.22 135.538 112.568 135.523 114.198C137.539 117.736 140.187 121.101 141.854 122.875C143.231 122.415 144.041 121.695 145.417 121.235C145.21 120.637 144.572 118.662 144.17 117.486C143.859 116.575 143.285 114.889 143.167 114.528C142.179 111.511 142.959 109.246 142.687 105.515C142.37 101.162 141.122 101.668 141.309 99.0552C141.59 95.1536 144.358 94.2427 147.536 88.5951C149.712 84.7296 151.997 80.6694 149.897 78.4496Z" fill="#2A51B3"/>
<path d="M144.594 79.3303C144.367 86.6085 144.711 95.042 146.21 104.338C147.431 111.906 149.207 118.733 151.162 124.724C151.433 124.846 152.382 125.238 153.597 125.055C154.457 124.925 155.033 124.569 155.289 124.388C155.075 123.164 154.859 121.313 155.036 119.075C155.34 115.229 156.474 114.445 156.961 110.465C157.388 106.974 156.938 104.123 156.72 102.801C156.049 98.731 155.138 98.6473 155.12 96.2101C155.092 92.4571 157.241 91.1132 158.422 87.5375C159.21 85.1522 159.628 81.591 157.647 76.7076C153.296 77.5818 148.945 78.4562 144.594 79.3303Z" fill="#5D80D9"/>
<path d="M139.944 50.2904C138.346 51.007 136.127 52.1941 134.058 54.0859C129.287 58.449 126.337 65.6287 129.403 67.9778C131.489 69.576 136.438 69.0918 138.142 67.1952C139.395 65.8002 138.493 64.0868 138.06 61.6515C137.594 59.031 137.611 55.2308 139.944 50.2904Z" fill="#2A51B3"/>
<path d="M158.471 78.4631C156.704 59.8671 151.072 52.2546 151.564 49.9948C150.855 49.5878 148.055 48.9409 141.71 49.6078C141.167 49.7669 139.72 50.2333 138.286 51.2805C138.286 51.2805 137.952 51.5234 137.496 51.9499C141.953 52.6221 146.494 54.649 148.128 57.5205C150.96 63.0115 145.702 69.1486 148.128 73.9936C149.404 76.5397 151.444 78.7965 153.88 80.9063C156.664 80.3517 158.573 79.535 158.471 78.4631Z" fill="#5D80D9"/>
<path opacity="0.3" d="M157.646 76.7076C156.373 76.9636 155.099 77.2195 153.825 77.4754C154.492 79.3081 155.131 82.0585 154.362 85.1811C153.3 89.4929 150.555 90.439 150.152 94.3272C149.788 97.8251 151.856 98.5385 152.846 103.204C153.861 107.985 152.325 110.234 152.004 114.233C151.785 116.97 152.141 120.55 154.226 124.908C154.741 124.745 155.101 124.52 155.288 124.388C155.075 123.164 154.859 121.313 155.036 119.075C155.34 115.229 156.474 114.445 156.961 110.465C157.388 106.974 156.938 104.123 156.72 102.801C156.049 98.731 155.138 98.6473 155.12 96.2101C155.092 92.4571 157.241 91.1132 158.422 87.5375C159.21 85.1522 159.628 81.591 157.646 76.7076Z" fill="#5D80D9"/>
<path d="M138.286 51.2806C138.286 51.2806 136.598 52.5074 135.614 54.3097C134.131 57.025 135.728 59.3559 136.207 63.7901C136.732 68.6542 135.989 76.7572 134.275 79.6602C134.245 79.7108 134.171 79.8551 134.201 80.0381C134.665 82.8437 158.827 82.2079 158.471 78.4631C156.705 59.8671 151.072 52.2546 151.565 49.9949C150.856 49.5878 148.055 48.9409 141.71 49.6078C141.168 49.7669 139.721 50.2334 138.286 51.2806Z" fill="#5D80D9"/>
<path d="M145.468 44.9377C145.468 44.9377 147.029 48.849 147.534 49.3196C148.039 49.7903 145.506 51.0205 143.564 50.4658C141.78 49.9565 143.565 47.7857 143.565 47.7857L145.468 44.9377Z" fill="#A4B8EA"/>
<path d="M140.626 44.0246C140.014 43.254 140.1 41.9828 140.97 41.2318C141.719 40.5856 142.797 40.5561 143.443 40.5382C145.314 40.4865 147.591 41.2552 148.268 42.6704C148.668 43.509 147.456 45.1198 147.262 45.4108C147.043 45.7401 146.696 45.8355 146.359 46.0735C145.893 46.4034 145.163 46.9288 143.968 47.8092C143.911 47.5231 143.817 47.1674 143.648 46.7774C143.584 46.6274 143.322 46.0407 142.887 45.5402C142.016 44.537 141.205 44.7551 140.626 44.0246Z" fill="#5D80D9"/>
<path d="M145.616 47.1104C145.616 47.1104 144.236 48.6287 141.822 48.3464C139.661 48.0936 139.735 44.182 141.206 43.4456C141.697 43.2 142.636 43.1453 143.373 43.3625C143.808 43.4908 143.944 43.6483 144.66 43.847C145.321 44.0302 145.518 43.9828 145.708 44.1327C145.945 44.3205 146.089 44.7523 145.549 45.8624C145.998 45.5539 146.508 45.4572 146.847 45.6129C146.901 45.6377 147.042 45.7285 147.114 45.8566C147.373 46.3207 146.807 46.8555 145.616 47.1104Z" fill="#C8D4F2"/>
<path d="M140.918 46.466C140.918 46.466 141.368 46.6919 142.182 46.7077C142.222 46.7085 142.264 46.7206 142.268 46.7371C142.28 46.7997 141.732 47.0417 141.264 46.9032C140.931 46.8049 140.692 46.5306 140.745 46.4681C140.767 46.4417 140.843 46.4503 140.918 46.466Z" fill="#5D80D9"/>
<path opacity="0.3" d="M151.658 62.0428C149.021 62.7821 145.523 64.8595 145.288 67.5213C144.928 71.6096 152.551 73.8528 151.536 76.7173C151.259 77.4984 150.383 78.2029 144.675 79.8479C142.366 80.5136 140.22 81.0564 138.272 81.5056C145.257 82.3277 158.738 81.267 158.471 78.4628C157.795 71.344 156.552 65.8395 155.303 61.624C154.038 61.5843 152.808 61.7205 151.658 62.0428Z" fill="#2A51B3"/>
<path d="M143.356 70.408C147.645 73.8853 153.769 74.9806 158.476 73.241C165.014 70.8252 166.025 63.9754 164.501 59.6885C161.956 52.5317 150.865 48.3581 147.371 50.2647C144.844 51.6434 144.868 56.9779 147.879 59.6482C150.586 62.0483 154.744 61.442 155.875 63.8871C156.722 65.7186 155.085 67.564 154.945 67.7177C153.124 69.7078 149.157 70.383 145.405 69.0164C144.722 69.4802 144.039 69.9441 143.356 70.408Z" fill="#2A51B3"/>
<path d="M134.864 64.415C135.214 63.519 136.348 63.06 137.241 62.9607C138.115 62.8634 139.555 63.022 140.128 63.9343C140.664 64.7874 140.242 65.981 139.01 66.6282C138.836 66.2845 138.526 65.8324 137.978 65.6952C136.971 65.443 136.099 66.4907 135.355 66.217C134.762 65.9988 134.608 65.0725 134.864 64.415Z" fill="#C8D4F2"/>
<path d="M138.983 69.8461L142.284 70.3043C142.923 70.3931 143.472 69.937 143.336 69.4303L142.135 64.9714C142.048 64.6488 141.702 64.4126 141.289 64.395L137.337 64.2262C136.685 64.1983 136.207 64.7091 136.426 65.2006L138.277 69.3702C138.388 69.619 138.658 69.8009 138.983 69.8461Z" fill="white"/>
<path d="M144.744 69.4656C144.473 67.913 143.654 67.5066 143.357 67.3912C142.86 67.1976 142.615 67.3479 140.878 67.3259C139.327 67.3063 138.96 67.1792 138.763 67.3912C138.392 67.7925 139.155 68.8472 140.021 69.4656C141.234 70.3324 142.738 70.4068 143.357 70.4079L144.744 69.4656Z" fill="#C8D4F2"/>
<path d="M96.6307 7.09252L110.913 121.804C111.126 123.513 109.653 125.006 107.635 125.124L38.0457 129.778C33.8035 129.897 31.5144 128.072 31.284 126.265L15.8092 4.8418C15.5768 3.0178 17.6961 1.40343 21.9815 1.47312L92.5188 3.84801C94.5683 3.9097 96.4162 5.36979 96.6307 7.09252Z" fill="#2A51B3"/>
<path d="M99.7945 6.94646L114.137 122.249C114.351 123.966 112.872 125.468 110.846 125.586L38.6993 129.81C36.4468 129.942 34.4094 128.563 34.178 126.746L18.6339 4.67954C18.4005 2.84581 20.0872 1.40206 22.3759 1.47113L95.6656 3.68483C97.7236 3.74706 99.5791 5.21476 99.7945 6.94646Z" fill="#1D191F"/>
<path d="M98.2755 13.3085L111.578 120.177C111.778 121.782 110.393 123.182 108.497 123.29L40.6388 127.141C38.5441 127.26 36.6497 125.973 36.4343 124.281L22.0875 11.5338C21.8703 9.82751 23.4367 8.47549 25.5624 8.52952L94.4157 10.2795C96.3395 10.3284 98.0741 11.6915 98.2755 13.3085Z" fill="#D8DEE8"/>
<path d="M61.7783 6.24059C61.8559 6.85741 61.3107 7.34106 60.5597 7.32086C59.808 7.30062 59.135 6.78323 59.0572 6.1653C58.9793 5.54728 59.5265 5.06359 60.2784 5.08504C61.0296 5.10644 61.7008 5.62377 61.7783 6.24059Z" fill="white"/>
<g opacity="0.3">
<path d="M55.0984 62.5227C47.9282 45.6039 60.4084 37.0804 53.3407 21.4098C49.4954 12.8836 41.7978 6.53208 33.3296 1.80198L22.376 1.47113C20.0873 1.40201 18.4006 2.84576 18.6339 4.67949L34.178 126.746C34.4092 128.563 36.4468 129.942 38.6991 129.81L100.987 126.163C100.792 113.418 96.7369 104.347 92.2275 97.8985C79.8358 80.1789 62.523 80.0417 55.0984 62.5227Z" fill="#F4F7FA"/>
</g>
<path d="M96.1402 21.9476C106.882 29.054 117.624 36.1604 128.366 43.2668C100.654 53.2185 103.879 83.6366 76.1667 93.5883C65.4246 86.4819 54.6825 79.3756 43.9404 72.2692C71.6527 62.3174 68.4278 31.8994 96.1402 21.9476Z" fill="#2A51B3"/>
<path d="M122.933 42.903C99.4243 53.4819 100.31 80.199 76.8014 90.7778C67.6586 84.7295 58.5158 78.6811 49.373 72.6328C72.8819 62.0539 71.9959 35.3368 95.5048 24.7579C104.648 30.8063 113.79 36.8546 122.933 42.903Z" fill="white"/>
<path d="M54.248 69.5128C54.3688 69.5926 54.4749 69.6684 54.5844 69.7525C54.5938 69.76 54.6028 69.7667 54.6123 69.7742C55.8629 70.735 56.4495 71.9499 56.3049 73.1121C56.1803 74.128 55.4909 75.099 54.1842 75.8151C53.9936 75.9195 53.7879 76.0171 53.5718 76.11C52.7547 76.4612 51.817 76.6948 50.8231 76.8221C48.5289 75.3044 46.2347 73.7867 43.9404 72.2689C46.8861 71.2111 49.4822 69.9221 51.8031 68.4509C52.6387 68.6461 53.5241 69.0339 54.248 69.5128Z" fill="#5D80D9"/>
<path d="M82.316 88.0809C83.0699 88.5796 83.5723 89.1275 83.9927 89.7931C81.6811 91.2546 79.0968 92.5357 76.1666 93.5879C73.8191 92.0349 71.4716 90.4819 69.124 88.9289C69.6684 88.5042 70.3577 88.106 71.1746 87.7549C71.3907 87.6621 71.6117 87.5746 71.8357 87.4924C75.1808 86.267 79.2821 86.2675 82.0176 87.8941C82.0281 87.9 82.0385 87.9066 82.0496 87.9132C82.1393 87.9661 82.2321 88.0254 82.316 88.0809Z" fill="#2A51B3"/>
<path d="M96.1401 21.9476C98.4343 23.4654 100.729 24.9831 103.023 26.5008C102.478 26.9255 101.789 27.3237 100.972 27.6748C100.756 27.7677 100.535 27.8553 100.311 27.9374C97 29.1498 92.9593 29.1689 90.2237 27.5917C90.0956 27.5187 89.9914 27.4553 89.8707 27.3753C89.1472 26.8967 88.5614 26.311 88.2773 25.7656C90.5983 24.2945 93.1944 23.0054 96.1401 21.9476Z" fill="#5D80D9"/>
<path d="M121.324 38.6077C123.672 40.1607 126.019 41.7137 128.367 43.2667C125.436 44.3189 122.852 45.6 120.54 47.0615C119.522 46.7748 118.693 46.4426 117.939 45.9435C117.855 45.888 117.766 45.8265 117.686 45.7673C117.676 45.7599 117.666 45.7531 117.657 45.7461C116.438 44.8483 115.812 43.7137 115.836 42.603C115.86 41.4875 116.548 40.4016 117.973 39.621C118.163 39.5166 118.364 39.4159 118.58 39.323C119.397 38.9719 120.33 38.7351 121.324 38.6077Z" fill="#5D80D9"/>
<path d="M91.7695 48.8846C96.9136 52.2876 98.4335 58.9339 95.4692 63.931C92.505 68.9282 85.6471 70.0321 80.4569 66.5986C75.3129 63.1954 73.7929 56.5493 76.7571 51.5522C79.7215 46.555 86.5793 45.451 91.7695 48.8846Z" fill="#2A51B3"/>
<path d="M88.0003 54.8489C87.0948 55.0187 86.1581 55.5099 85.0758 56.5168C84.3132 56.0123 83.5506 55.5078 82.7879 55.0033C82.8178 54.9615 82.8476 54.9197 82.8775 54.8779C83.1768 54.4697 83.5124 54.1019 83.873 53.7944C84.0796 53.6177 84.3002 53.4517 84.5288 53.3045C84.7847 53.14 84.7847 52.7838 84.535 52.5829C84.2206 52.3301 83.9061 52.0775 83.5917 51.8248C83.394 51.6671 83.1097 51.6623 82.9254 51.8118C82.616 52.0604 82.3115 52.3395 82.0322 52.6134C81.653 52.9848 81.3038 53.3752 80.9728 53.8025C80.7062 53.6261 80.4396 53.4498 80.1731 53.2735C79.9397 53.1189 79.6335 53.1432 79.4777 53.3502C79.3207 53.5575 79.3942 53.8351 79.6294 53.9906C79.9015 54.1706 80.1737 54.3507 80.4458 54.5307C79.7934 55.6066 79.5199 56.6134 79.6448 57.5242C79.7715 58.4414 80.2862 59.1994 81.1925 59.7988C82.0687 60.3786 82.9592 60.5819 83.8588 60.4091C84.7545 60.2372 85.6847 59.6882 86.6427 58.7682C87.4897 59.3318 88.3368 59.8953 89.1838 60.4589C88.8519 60.9208 88.4762 61.3454 88.0581 61.7321C87.7899 61.9799 87.5031 62.2112 87.1996 62.4262C86.9396 62.6107 86.9356 62.9848 87.1991 63.1926C87.6058 63.5133 88.0125 63.834 88.4192 64.1548C88.6222 64.3148 88.9075 64.3097 89.092 64.1497C89.3966 63.885 89.6874 63.5984 89.9642 63.2913C90.3378 62.8772 90.6992 62.4087 91.0368 61.9097C91.0777 61.8485 91.1186 61.7872 91.1595 61.726C91.4495 61.9178 91.7395 62.1097 92.0295 62.3015C92.2648 62.457 92.5674 62.4346 92.7021 62.2124C92.7035 62.2101 92.7049 62.2078 92.7064 62.2055C92.841 61.9835 92.7652 61.7113 92.5309 61.5564C92.2369 61.3619 91.9429 61.1674 91.6489 60.9728C92.0678 60.1733 92.2998 59.4086 92.3351 58.6944C92.3526 58.3851 92.3356 58.0779 92.2795 57.7835C92.0968 56.8163 91.5453 56.0394 90.6288 55.433C89.7812 54.8723 88.9023 54.681 88.0003 54.8489ZM87.3258 58.113C87.69 57.8156 88.0523 57.6067 88.3689 57.5566C88.6845 57.5059 89.0005 57.5785 89.3084 57.7821C89.6475 58.0064 89.8439 58.2861 89.9084 58.6078C89.9725 58.9302 89.894 59.2735 89.66 59.6572C88.882 59.1424 88.1039 58.6278 87.3258 58.113ZM83.4619 57.6782C83.1721 57.7342 82.8903 57.672 82.6183 57.4922C82.3304 57.3018 82.1599 57.055 82.1058 56.7513C82.0519 56.4473 82.1377 56.0808 82.2978 55.756C82.9981 56.2192 83.6983 56.6824 84.3986 57.1457C84.0559 57.4574 83.7521 57.6214 83.4619 57.6782Z" fill="white"/>
<path opacity="0.2" d="M128.262 43.1975C128.297 43.2206 128.332 43.2437 128.367 43.2668C100.654 53.2186 103.879 83.6366 76.1671 93.5884C65.6521 86.6322 55.1371 79.6761 44.6221 72.72C46.1518 72.5905 47.8031 72.5135 49.5843 72.5375C51.6409 72.5659 53.8701 72.728 56.3053 73.1125C59.0097 73.5394 61.9682 74.2398 65.2463 75.3468C81.4421 80.835 86.0963 76.2139 88.9033 68.4093C89.6743 66.3403 90.34 64.0628 91.1468 61.7474C91.5026 60.7292 91.8996 59.703 92.3418 58.6839C93.2099 56.689 94.2543 54.7211 95.5153 52.8934C99.6401 46.6437 106.881 42.4141 115.836 42.6031C117.477 42.6213 119.15 42.7755 120.827 43.0662C121.264 43.1418 121.722 43.1992 122.205 43.2402C123.948 43.3907 125.974 43.3319 128.262 43.1975Z" fill="#5D80D9"/>
<path d="M101.242 47.7463C102.204 48.0507 102.702 48.8638 102.349 49.5539L80.0856 93.2711C79.7049 94.0145 78.3704 94.5492 77.3783 94.2198L41.1104 82.1768C40.1394 81.8544 39.7369 80.7307 40.1366 80.0034L62.5864 36.9736C62.9558 36.2978 64.0275 35.9892 64.9686 36.2872L101.242 47.7463Z" fill="#5D80D9"/>
<path d="M101.835 46.8805C102.803 47.1868 103.304 48.0065 102.948 48.7026L80.2723 92.9769C79.8891 93.7251 78.758 94.0666 77.7596 93.7352L41.2648 81.6233C40.2877 81.299 39.818 80.4344 40.2201 79.7025L62.9113 36.0474C63.2839 35.3655 64.3633 35.0533 65.3111 35.3531L101.835 46.8805Z" fill="#5D80D9"/>
<g opacity="0.7">
<path d="M74.4429 77.1725L70.6013 84.3577C70.4299 84.6784 69.9515 84.8503 69.5383 84.7396L67.2728 84.1323C66.8594 84.0215 66.6624 83.6684 66.8351 83.3479L70.7044 76.1665C70.8746 75.8506 71.3492 75.6826 71.7592 75.7929L74.0052 76.3975C74.4149 76.5078 74.6119 76.8564 74.4429 77.1725Z" fill="#F4F7FA"/>
<path d="M79.4981 67.7177L75.7268 74.7715C75.5584 75.0863 75.086 75.2538 74.6768 75.1436L72.4336 74.5394C72.0242 74.4292 71.828 74.0813 71.9975 73.7667L75.796 66.7168C75.9631 66.4066 76.4319 66.2428 76.8379 66.3526L79.062 66.9542C79.4678 67.0639 79.664 67.4074 79.4981 67.7177Z" fill="#F4F7FA"/>
<path d="M84.4611 58.434L80.7582 65.3599C80.5929 65.6689 80.1262 65.8323 79.721 65.7226L77.4997 65.1214C77.0943 65.0117 76.8988 64.669 77.0653 64.3602L80.7949 57.4381C80.959 57.1335 81.4221 56.9739 81.8241 57.0831L84.0267 57.6817C84.4285 57.7908 84.624 58.1293 84.4611 58.434Z" fill="#F4F7FA"/>
<path d="M89.3359 49.3175L85.6995 56.1189C85.5373 56.4225 85.0762 56.5817 84.6749 56.4725L82.4751 55.8744C82.0736 55.7652 81.8788 55.4276 82.0423 55.1242L85.7048 48.3265C85.866 48.0274 86.3236 47.8718 86.7217 47.9805L88.9034 48.576C89.3012 48.6846 89.4959 49.0182 89.3359 49.3175Z" fill="#F4F7FA"/>
</g>
<path d="M63.593 77.6618L61.7813 81.0694C61.4516 81.6895 60.5014 81.9727 59.6705 81.6984L55.1451 80.2043C54.3167 79.9308 53.9117 79.2015 54.2443 78.584L56.0725 75.1904C56.403 74.5768 57.3483 74.2969 58.1736 74.5678L62.6827 76.0478C63.5106 76.3196 63.9206 77.0456 63.593 77.6618Z" fill="#54C390"/>
<path d="M63.0302 77.7584L61.4732 80.6848C61.168 81.2582 60.2941 81.5186 59.5255 81.265L55.6391 79.9823C54.8725 79.7293 54.4995 79.0584 54.807 78.4871L56.3765 75.5714C56.6824 75.0032 57.5524 74.7454 58.3165 74.9963L62.1905 76.2683C62.9567 76.5199 63.3337 77.1882 63.0302 77.7584ZM54.9999 78.5506C54.7351 79.0426 55.0564 79.6203 55.7165 79.8382L59.6025 81.1205C60.2643 81.3389 61.0169 81.1146 61.2796 80.6209L62.837 77.6948C63.0984 77.2038 62.7739 76.6282 62.1141 76.4116L58.2397 75.1393C57.5816 74.9232 56.8322 75.1452 56.569 75.6346L54.9999 78.5506Z" fill="url(#paint2_linear_46_818)"/>
<path d="M56.1592 80.069L58.7581 75.2252L56.1592 80.069Z" fill="#F4F7FA"/>
<path d="M58.8543 75.2571L56.2556 80.101L56.0625 80.0373L58.6617 75.1938L58.8543 75.2571Z" fill="url(#paint3_linear_46_818)"/>
<path d="M57.6201 80.5511L60.2145 75.7035L57.6201 80.5511Z" fill="#F4F7FA"/>
<path d="M60.3108 75.735L57.7168 80.5829L57.5234 80.5191L60.1181 75.6718L60.3108 75.735Z" fill="url(#paint4_linear_46_818)"/>
<path d="M59.082 81.0335L61.6719 76.1819L59.082 81.0335Z" fill="#F4F7FA"/>
<path d="M61.7684 76.2138L59.1788 81.0656L58.9854 81.0017L61.5755 76.1505L61.7684 76.2138Z" fill="url(#paint5_linear_46_818)"/>
<path d="M61.8171 78.2796L61.0944 79.636C60.9107 79.9808 60.3818 80.1382 59.9193 79.9857L56.5273 78.8676C56.0658 78.7155 55.8397 78.3097 56.0244 77.9659L56.7515 76.6132C56.9359 76.2704 57.4635 76.1139 57.9241 76.2653L61.3104 77.3786C61.7722 77.5304 62.0003 77.9358 61.8171 78.2796Z" fill="#FEC045"/>
<path d="M61.9134 78.3114L61.1907 79.6679C60.9854 80.0533 60.3975 80.2283 59.8805 80.0579L56.4884 78.9397C55.9725 78.7696 55.7211 78.3185 55.9278 77.9342L56.655 76.5816C56.861 76.1984 57.4474 76.0244 57.9624 76.1937L61.3485 77.3068C61.8646 77.4765 62.1181 77.927 61.9134 78.3114ZM56.1206 77.9977C55.9566 78.3027 56.1563 78.6608 56.5657 78.7957L59.9575 79.9137C60.3678 80.049 60.8344 79.9101 60.9974 79.6042L61.7202 78.2478C61.8828 77.9428 61.6816 77.5851 61.2719 77.4504L57.8854 76.337C57.4766 76.2026 57.0111 76.3407 56.8476 76.6449L56.1206 77.9977Z" fill="url(#paint6_linear_46_818)"/>
<path opacity="0.15" d="M78.4717 75.2785C77.1495 79.1205 75.9783 81.4602 73.469 83.7038C70.0231 86.785 65.7296 88.1896 63.0459 88.8519L77.7596 93.7351C78.7579 94.0664 79.889 93.7249 80.2722 92.9767L102.948 48.7025C103.304 48.0063 102.803 47.1866 101.835 46.8804L95.9876 45.0308C87.0705 49.8839 83.7054 54.8345 82.3034 58.5457C80.6097 63.0297 81.6124 66.1526 78.4717 75.2785Z" fill="url(#paint7_linear_46_818)"/>
<g opacity="0.42">
<path d="M82.5944 77.2933L77.4736 87.2038C77.3761 87.3925 77.0894 87.4786 76.8366 87.3951L74.7547 86.7078C74.5021 86.6244 74.3757 86.402 74.4735 86.2137L79.6134 76.3194C79.7097 76.1339 79.9937 76.0493 80.2445 76.1312L82.3122 76.8066C82.5633 76.8886 82.6904 77.1076 82.5944 77.2933Z" fill="url(#paint8_linear_46_818)"/>
<path d="M92.49 58.2836L85.6758 71.4669C85.5788 71.6548 85.2924 71.7413 85.0395 71.6591L82.9573 70.9826C82.7048 70.9006 82.578 70.68 82.6754 70.4924L89.5141 57.33C89.6095 57.1463 89.8924 57.0617 90.1428 57.1419L92.2071 57.803C92.4577 57.8834 92.5851 58.0996 92.49 58.2836Z" fill="url(#paint9_linear_46_818)"/>
</g>
<path opacity="0.26" d="M71.3389 42.3861C73.8495 43.1839 75.0056 45.5029 73.9273 47.5467C72.8592 49.571 70.0001 50.5572 67.5352 49.7679C65.0739 48.9797 63.903 46.7077 64.9255 44.6749C65.958 42.6226 68.8319 41.5894 71.3389 42.3861Z" fill="url(#paint10_linear_46_818)"/>
<g opacity="0.53">
<path d="M61.9699 73.2678C62.1341 73.5866 61.942 73.9563 61.5386 74.0928C61.1333 74.2298 60.6715 74.0788 60.5094 73.7563C60.348 73.4353 60.5459 73.0676 60.949 72.9343C61.3504 72.8015 61.8064 72.9505 61.9699 73.2678Z" fill="#F4F7FA"/>
<path d="M65.7811 72.3776C65.754 72.4329 65.7001 72.4797 65.6261 72.5047C65.4777 72.5547 65.3043 72.4982 65.2393 72.3786C64.2799 70.6116 61.7143 69.7759 59.4476 70.4897C59.2942 70.538 59.1215 70.4816 59.0621 70.364C59.0028 70.2466 59.0791 70.1127 59.2322 70.065C61.7918 69.2658 64.686 70.208 65.7761 72.1985C65.8088 72.258 65.8083 72.3221 65.7811 72.3776Z" fill="#F4F7FA"/>
<path d="M64.7024 72.7404C64.6745 72.7963 64.6198 72.8435 64.5448 72.8688C64.3945 72.9195 64.2201 72.8626 64.1558 72.7419C63.4561 71.4302 61.5568 70.811 59.8822 71.3473C59.7282 71.3966 59.5543 71.3398 59.4942 71.2207C59.4341 71.1017 59.5104 70.9658 59.664 70.917C61.6358 70.2908 63.8698 71.0188 64.6991 72.5595C64.7314 72.6197 64.7304 72.6843 64.7024 72.7404Z" fill="#F4F7FA"/>
<path d="M63.6107 73.1081C63.5819 73.1646 63.5262 73.2124 63.4504 73.2379C63.2982 73.2892 63.1229 73.2319 63.0592 73.1102C62.6165 72.2651 61.3962 71.8669 60.3228 72.2166C60.1681 72.267 59.9931 72.2098 59.9321 72.0891C59.8712 71.9685 59.9474 71.8305 60.1017 71.7807C60.7704 71.5647 61.4992 71.5647 62.1577 71.7795C62.8165 71.9944 63.3314 72.4004 63.609 72.9256C63.6411 72.9862 63.6394 73.0516 63.6107 73.1081Z" fill="#F4F7FA"/>
</g>
<path d="M73.1023 69.0431C73.1023 76.9522 65.3581 83.1738 55.4602 82.9311C45.1594 82.6785 36.4961 75.574 36.4961 67.0723C36.4961 58.5706 45.1594 52.399 55.4602 53.2555C65.3581 54.0786 73.1023 61.134 73.1023 69.0431Z" fill="url(#paint11_linear_46_818)"/>
<path d="M75.7771 68.3611C75.7771 76.2702 68.033 82.4918 58.135 82.2491C47.8343 81.9965 39.1709 74.892 39.1709 66.3903C39.1709 57.8886 47.8342 51.717 58.135 52.5735C68.033 53.3966 75.7771 60.4521 75.7771 68.3611Z" fill="url(#paint12_linear_46_818)"/>
<path d="M75.0001 68.319C75.0001 75.8797 67.5903 81.8174 58.1348 81.5728C48.3124 81.3188 40.0654 74.5388 40.0654 66.4382C40.0654 58.3375 48.3124 52.4455 58.1348 53.2491C67.5903 54.0228 75.0001 60.7583 75.0001 68.319Z" fill="url(#paint13_linear_46_818)"/>
<path d="M74.4431 68.2889C74.4431 75.6003 67.2733 81.335 58.1343 81.0899C48.653 80.8357 40.7021 74.2873 40.7021 66.4724C40.7021 58.6574 48.653 52.9651 58.1343 53.7318C67.2732 54.4708 74.4431 60.9777 74.4431 68.2889Z" fill="#A19B01"/>
<path d="M58.0414 56.2195C58.5278 56.2564 58.9214 56.6061 58.9214 57.0005V58.3466C59.8938 58.4333 60.8676 58.5683 61.8428 58.7514C62.5618 58.8863 63.2761 59.047 63.9855 59.2332C64.4105 59.3448 64.7002 59.6875 64.6568 60.0411L64.4498 61.729C64.3949 62.1769 63.8405 62.4399 63.3187 62.254C62.8514 62.0876 62.3723 61.9451 61.8813 61.8264C61.0244 61.6194 60.1209 61.4844 59.17 61.4218L58.9214 61.4055V65.2606C61.4583 65.8274 63.3215 66.59 64.5256 67.5491C65.7238 68.5036 66.3208 69.6932 66.3208 71.1214C66.3208 72.6657 65.6608 73.9024 64.3355 74.8351C63.003 75.7728 61.1349 76.3001 58.7192 76.4143V77.9C58.7192 78.2946 58.3253 78.602 57.8385 78.5865L57.823 78.5861C57.3353 78.5706 56.9392 78.237 56.9392 77.8411V76.3755L56.5472 76.3613C55.4147 76.3206 54.33 76.2282 53.2936 76.0843C52.526 75.9777 51.7765 75.8401 51.0452 75.6713C50.6029 75.5693 50.2992 75.2329 50.3398 74.8714L50.5834 72.7015C50.6361 72.2324 51.2261 71.9594 51.7847 72.1354C52.4357 72.3404 53.0949 72.5132 53.7621 72.6537C54.8019 72.8727 55.8558 73.0131 56.9236 73.0755L56.9393 68.7872C54.5041 68.306 52.6809 67.5932 51.4831 66.6492C50.2796 65.7006 49.6758 64.4868 49.6758 63.0109C49.6758 61.4835 50.3305 60.3046 51.6351 59.4772C52.933 58.6539 54.7781 58.2443 57.1586 58.2454V56.8692C57.1584 56.4733 57.5541 56.1825 58.0414 56.2195ZM57.1584 61.3655C56.4058 61.4092 55.8189 61.5743 55.3988 61.8609C54.9781 62.148 54.7675 62.5339 54.7675 63.0181C54.7675 63.4769 54.9623 63.8604 55.3516 64.1682C55.7402 64.4755 56.343 64.721 57.1584 64.9043V61.3655H57.1584ZM58.7192 69.1308V73.0634C59.5373 73.0647 60.1646 72.9086 60.6026 72.5958C61.0398 72.2835 61.2581 71.8424 61.2581 71.272C61.2581 70.752 61.0552 70.3207 60.649 69.9778C60.242 69.6342 59.5993 69.3519 58.7192 69.1308Z" fill="url(#paint14_linear_46_818)"/>
<path opacity="0.3" d="M55.1831 70.0797C55.7341 65.7336 60.7357 63.8938 60.083 59.8961C59.6807 57.4322 57.3422 55.3557 54.7334 53.7344C46.8208 54.3971 40.7021 59.6293 40.7021 66.4727C40.7021 74.2877 48.653 80.8361 58.1343 81.0903C59.0549 81.115 59.954 81.0768 60.8282 80.9853C57.0628 77.993 54.7097 73.8135 55.1831 70.0797Z" fill="url(#paint15_linear_46_818)"/>
<path d="M63.6655 37.5161C63.6655 42.843 58.4497 47.0333 51.7833 46.8698C44.8456 46.6997 39.0107 41.9147 39.0107 36.1887C39.0107 30.4627 44.8456 26.306 51.7833 26.8829C58.4497 27.4373 63.6655 32.1893 63.6655 37.5161Z" fill="url(#paint16_linear_46_818)"/>
<path d="M65.4673 37.057C65.4673 42.3839 60.2515 46.5742 53.5851 46.4107C46.6473 46.2406 40.8125 41.4556 40.8125 35.7296C40.8125 30.0036 46.6473 25.8469 53.5851 26.4238C60.2515 26.9782 65.4673 31.7302 65.4673 37.057Z" fill="url(#paint17_linear_46_818)"/>
<path d="M64.944 37.0286C64.944 42.1209 59.9534 46.1199 53.585 45.9553C46.9695 45.7842 41.415 41.2177 41.415 35.7619C41.415 30.306 46.9695 26.3376 53.585 26.8789C59.9534 27.3999 64.944 31.9363 64.944 37.0286Z" fill="#93D9B9"/>
<path d="M64.5688 37.0085C64.5688 41.9328 59.7398 45.7952 53.5846 45.6302C47.1988 45.459 41.8438 41.0485 41.8438 35.785C41.8438 30.5215 47.1988 26.6877 53.5846 27.2041C59.7398 27.7018 64.5688 32.0843 64.5688 37.0085Z" fill="#D7CE01"/>
<path d="M53.5214 28.8792C53.8489 28.9041 54.114 29.1395 54.114 29.4052V30.3118C54.7689 30.3702 55.4248 30.4612 56.0816 30.5844C56.566 30.6753 57.0469 30.7835 57.5247 30.9089C57.811 30.9841 58.0061 31.2149 57.9769 31.453L57.8374 32.5899C57.8004 32.8916 57.4271 33.0687 57.0755 32.9435C56.7608 32.8315 56.4382 32.7354 56.1074 32.6555C55.5303 32.5161 54.9218 32.4252 54.2814 32.383L54.1139 32.372V34.9685C55.8226 35.3503 57.0775 35.8638 57.8884 36.5098C58.6954 37.1527 59.0975 37.9539 59.0975 38.9158C59.0975 39.956 58.653 40.7889 57.7603 41.4171C56.8629 42.0486 55.6047 42.4038 53.9777 42.4806V43.4813C53.9777 43.7471 53.7125 43.9541 53.3846 43.9437L53.3741 43.9434C53.0456 43.933 52.7788 43.7083 52.7788 43.4416V42.4545L52.5148 42.445C51.752 42.4175 51.0214 42.3554 50.3234 42.2584C49.8064 42.1866 49.3016 42.0939 48.809 41.9802C48.5111 41.9115 48.3066 41.6849 48.334 41.4414L48.498 39.98C48.5334 39.6641 48.9308 39.4802 49.307 39.5987C49.7455 39.7369 50.1895 39.8532 50.6389 39.9479C51.3391 40.0954 52.049 40.1899 52.7682 40.232L52.7788 37.3437C51.1386 37.0196 49.9107 36.5396 49.1039 35.9037C48.2934 35.2649 47.8867 34.4473 47.8867 33.4532C47.8867 32.4246 48.3277 31.6305 49.2064 31.0732C50.0805 30.5187 51.3233 30.2429 52.9265 30.2436V29.3167C52.9267 29.0501 53.1931 28.8543 53.5214 28.8792ZM52.9267 32.3451C52.4198 32.3746 52.0245 32.4857 51.7415 32.6788C51.4582 32.8721 51.3163 33.132 51.3163 33.4582C51.3163 33.7671 51.4475 34.0254 51.7097 34.2327C51.9715 34.4398 52.3775 34.605 52.9267 34.7285V32.3451ZM53.9778 37.5751V40.2238C54.5289 40.2246 54.9514 40.1196 55.2464 39.9089C55.5408 39.6985 55.6879 39.4014 55.6879 39.0173C55.6879 38.667 55.5512 38.3766 55.2776 38.1456C55.0035 37.9142 54.5707 37.7241 53.9778 37.5751Z" fill="url(#paint18_linear_46_818)"/>
<path opacity="0.3" d="M51.5969 38.2143C51.968 35.2872 55.3366 34.048 54.897 31.3556C54.6261 29.6961 53.051 28.2975 51.294 27.2056C45.9647 27.6519 41.8438 31.1759 41.8438 35.785C41.8438 41.0485 47.1988 45.459 53.5845 45.6302C54.2045 45.6468 54.8101 45.6211 55.3989 45.5595C52.8629 43.5441 51.278 40.7291 51.5969 38.2143Z" fill="url(#paint19_linear_46_818)"/>
<path d="M102.113 77.4046L106.089 114.475C106.191 115.431 105.828 116.329 105.065 116.972C104.412 117.525 103.535 117.9 102.511 117.969L43.9459 121.908C41.4646 122.075 39.339 120.666 39.1628 118.777L35.483 79.3383C35.3097 77.482 37.1535 75.8665 39.6206 75.8024L97.8222 74.2907C100.031 74.2334 101.926 75.6589 102.113 77.4046Z" fill="#1D191F"/>
<path opacity="0.2" d="M105.129 116.973C104.476 117.526 103.575 117.9 102.551 117.969L43.9655 121.908C41.4842 122.075 39.339 120.666 39.1628 118.777L35.483 79.3384C35.3097 77.4821 37.1535 75.8666 39.6206 75.8025L40.2982 75.7849C40.5439 76.8029 40.8735 77.9458 41.1884 79.0425C41.2321 79.1949 41.2769 79.3596 41.3199 79.5057C41.6852 80.7716 41.9984 81.8127 42.054 81.9467C43.8804 86.3138 46.4622 91.3317 51.9169 93.7732C60.2521 97.5064 70.8055 96.8359 79.5709 98.88C85.3434 100.226 91.2695 102.046 95.862 105.091C99.2175 107.316 102.049 110.06 103.706 113.27C104.306 114.432 104.775 115.687 105.129 116.973Z" fill="#1D191F"/>
<g opacity="0.7">
<path d="M97.8262 116.356C97.8254 116.356 97.8243 116.356 97.8235 116.356L95.8059 116.455C95.5766 116.47 95.3737 116.318 95.3545 116.136C95.3353 115.953 95.5044 115.817 95.7337 115.802L97.7472 115.696C97.748 115.696 97.7488 115.696 97.7494 115.696C98.0946 115.696 98.4303 115.587 98.7526 115.502C98.9689 115.444 99.2047 115.523 99.277 115.696C99.3495 115.869 99.2352 116.081 99.0184 116.138C98.6337 116.24 98.2372 116.356 97.8262 116.356ZM92.6467 116.63L89.4713 116.837C89.2392 116.852 89.0355 116.716 89.0164 116.532C88.9973 116.348 89.1701 116.187 89.4022 116.172L92.5774 115.966C92.8081 115.951 93.0104 116.088 93.0296 116.271C93.0487 116.454 92.8773 116.615 92.6467 116.63ZM86.2769 117.046L83.0636 117.256C82.8287 117.271 82.6228 117.134 82.604 116.949C82.585 116.764 82.7602 116.602 82.995 116.587L86.2082 116.379C86.4415 116.364 86.6461 116.501 86.6651 116.685C86.6841 116.869 86.5103 117.031 86.2769 117.046ZM79.831 117.467L76.5793 117.68C76.3416 117.695 76.1335 117.557 76.1148 117.371C76.096 117.185 76.2735 117.022 76.5112 117.007L79.7627 116.796C79.9989 116.781 80.2055 116.919 80.2244 117.104C80.2433 117.289 80.0672 117.452 79.831 117.467ZM73.3077 117.894L70.0164 118.109C69.7758 118.125 69.5656 117.986 69.5469 117.798C69.5283 117.611 69.7083 117.447 69.9489 117.431L73.2399 117.218C73.4789 117.203 73.6878 117.341 73.7065 117.528C73.7253 117.714 73.5468 117.878 73.3077 117.894ZM66.7052 118.325L63.3739 118.543C63.1304 118.559 62.9179 118.419 62.8994 118.231C62.8809 118.043 63.0634 117.877 63.3069 117.861L66.6379 117.646C66.8798 117.63 67.091 117.769 67.1096 117.957C67.1281 118.145 66.9471 118.31 66.7052 118.325ZM60.0223 118.762L56.6502 118.983C56.4037 118.999 56.1889 118.858 56.1705 118.669C56.1522 118.479 56.3372 118.313 56.5837 118.297L59.9555 118.078C60.2003 118.062 60.4138 118.203 60.4322 118.391C60.4507 118.58 60.2672 118.746 60.0223 118.762ZM53.2575 119.204L49.8438 119.427C49.5943 119.444 49.3772 119.302 49.3589 119.112C49.3408 118.921 49.5284 118.753 49.7779 118.737L53.1912 118.516C53.4391 118.5 53.6548 118.641 53.6731 118.831C53.6914 119.021 53.5053 119.188 53.2575 119.204ZM46.4096 119.572C46.3795 119.574 46.3486 119.573 46.3173 119.571C45.0712 119.459 43.8963 119.024 43.0104 118.343C42.8334 118.207 42.8369 117.986 43.0179 117.85C43.1992 117.714 43.4889 117.714 43.6654 117.85C44.4078 118.421 45.3918 118.787 46.4355 118.881C46.6849 118.903 46.8606 119.075 46.828 119.266C46.7996 119.433 46.6211 119.558 46.4096 119.572ZM101.354 114.621C101.265 114.627 101.173 114.609 101.093 114.567C100.903 114.466 100.85 114.261 100.975 114.109C101.506 113.466 101.744 112.719 101.661 111.947C101.642 111.766 101.81 111.607 102.036 111.594C102.263 111.58 102.462 111.715 102.481 111.896C102.579 112.816 102.297 113.708 101.664 114.475C101.592 114.562 101.476 114.613 101.354 114.621ZM41.9164 116.102C41.6709 116.117 41.4468 115.99 41.4203 115.803C41.413 115.752 41.3999 115.707 41.395 115.655L41.1617 113.168C41.1437 112.977 41.295 112.808 41.5478 112.793C41.8003 112.778 41.9805 112.919 41.9984 113.11L42.232 115.595C42.2361 115.638 42.2877 115.677 42.2938 115.72C42.3207 115.911 42.1622 116.085 41.9095 116.101C41.9039 116.101 41.9217 116.102 41.9164 116.102ZM102.019 110.997C101.792 111.011 101.67 110.876 101.651 110.694L101.386 108.209C101.367 108.028 101.458 107.87 101.685 107.857C101.911 107.844 102.033 107.98 102.052 108.16L102.317 110.644C102.336 110.825 102.245 110.983 102.019 110.997ZM41.3662 110.86C41.1135 110.874 40.9331 110.733 40.9152 110.541L40.669 107.918C40.651 107.727 40.8023 107.559 41.0549 107.545C41.3073 107.532 41.4873 107.674 41.5053 107.865L41.7517 110.486C41.7697 110.677 41.6187 110.845 41.3662 110.86ZM101.49 106.03C101.264 106.043 101.142 105.907 101.122 105.726L100.858 103.246C100.839 103.065 100.93 102.909 101.156 102.897C101.383 102.885 101.504 103.021 101.524 103.202L101.788 105.68C101.807 105.861 101.716 106.018 101.49 106.03ZM40.8738 105.617C40.6213 105.63 40.441 105.487 40.4231 105.297L40.1774 102.678C40.1595 102.488 40.3108 102.322 40.5632 102.309C40.8154 102.297 40.9954 102.44 41.0133 102.631L41.2592 105.246C41.2771 105.437 41.1262 105.604 40.8738 105.617ZM100.962 101.074C100.736 101.085 100.614 100.949 100.595 100.768L100.331 98.293C100.312 98.1128 100.403 97.958 100.629 97.9471C100.855 97.9362 100.977 98.0734 100.996 98.2535L101.26 100.726C101.279 100.907 101.188 101.062 100.962 101.074ZM40.3824 100.385C40.1301 100.397 39.9499 100.254 39.932 100.063L39.6869 97.4506C39.669 97.2604 39.8203 97.0962 40.0725 97.0849C40.3246 97.0736 40.5045 97.2177 40.5223 97.4078L40.7677 100.018C40.7856 100.208 40.6347 100.373 40.3824 100.385ZM100.436 96.1277C100.209 96.1382 100.087 96.0005 100.068 95.8204L99.8053 93.3503C99.7862 93.1704 99.8773 93.0171 100.103 93.0072C100.329 92.9974 100.451 93.1355 100.47 93.3152L100.733 95.7831C100.752 95.963 100.661 96.1171 100.436 96.1277ZM39.8922 95.1648C39.64 95.1757 39.4598 95.031 39.442 94.841L39.1974 92.2342C39.1796 92.0443 39.3309 91.8819 39.5829 91.8717C39.8349 91.8616 40.0146 92.0067 40.0325 92.1964L40.2773 94.8007C40.2951 94.9905 40.1442 95.1539 39.8922 95.1648ZM99.9099 91.1916C99.6839 91.2011 99.5618 91.0624 99.5427 90.8827L99.2804 88.4177C99.2613 88.2382 99.3525 88.0863 99.5783 88.0775C99.804 88.0688 99.9259 88.2078 99.945 88.3872L100.207 90.85C100.226 91.0295 100.136 91.1821 99.9099 91.1916ZM39.403 89.9557C39.151 89.9655 38.9709 89.8197 38.9531 89.6301L38.709 87.0289C38.6912 86.8396 38.8424 86.6787 39.0943 86.6698C39.346 86.6608 39.5257 86.8069 39.5435 86.9962L39.7878 89.5948C39.8057 89.7843 39.6548 89.946 39.403 89.9557ZM99.3854 86.2656C99.1596 86.274 99.0375 86.1345 99.0184 85.9551L98.7566 83.4953C98.7375 83.3162 98.8287 83.1658 99.0545 83.1581C99.2801 83.1503 99.4019 83.2903 99.421 83.4692L99.6829 85.9268C99.7019 86.1061 99.611 86.2572 99.3854 86.2656ZM38.9148 84.7579C38.663 84.7665 38.4829 84.6198 38.4652 84.4306L38.2819 82.4777C38.26 82.2445 38.2715 82.0094 38.3002 81.7797C38.3238 81.5917 38.5514 81.46 38.8018 81.4814C39.053 81.5046 39.1928 81.676 39.1694 81.8636C39.1452 82.0561 39.0977 82.2536 39.1161 82.4493L39.2996 84.4004C39.3174 84.5894 39.1665 84.7494 38.9148 84.7579ZM98.8619 81.3497C98.6362 81.3571 98.5141 81.2167 98.495 81.0377L98.4444 80.5621C98.3798 79.9552 98.0492 79.368 97.604 78.8621C97.4719 78.712 97.4838 78.5118 97.6682 78.4143C97.8528 78.317 98.0782 78.3604 98.2101 78.5104C98.7407 79.1139 99.0315 79.8156 99.1086 80.5387L99.1593 81.0139C99.1783 81.1927 99.0875 81.3423 98.8619 81.3497ZM40.2023 79.8807C40.0789 79.8844 39.9527 79.8507 39.8561 79.7795C39.6737 79.6453 39.6664 79.429 39.8398 79.2964C40.7066 78.6336 41.8663 78.212 43.1038 78.1087C43.3507 78.0916 43.5809 78.2228 43.617 78.4096C43.6528 78.5964 43.4814 78.7646 43.234 78.7856C42.1972 78.8727 41.2261 79.2266 40.4999 79.7824C40.4184 79.8448 40.3116 79.8775 40.2023 79.8807ZM95.4165 77.5247C95.3674 77.5262 95.3167 77.5205 95.2666 77.5071C94.7619 77.3725 94.2375 77.3119 93.7078 77.3271L92.3076 77.3673C92.0795 77.3739 91.8792 77.2335 91.8603 77.0539C91.8414 76.8742 92.0111 76.7234 92.2392 76.717L93.6392 76.6777C94.2704 76.6599 94.8957 76.7326 95.4976 76.8936C95.7161 76.952 95.8413 77.1365 95.7774 77.3058C95.7285 77.4365 95.5813 77.52 95.4165 77.5247ZM89.1681 77.4574L86.01 77.5481C85.7792 77.5547 85.5768 77.4136 85.558 77.2329C85.5392 77.0522 85.7113 76.9004 85.9421 76.8939L89.0999 76.8052C89.3292 76.7987 89.5304 76.9395 89.5493 77.1195C89.5681 77.2995 89.3974 77.4508 89.1681 77.4574ZM82.8334 77.6393L79.6379 77.731C79.4044 77.7377 79.1999 77.5958 79.1812 77.414C79.1626 77.2322 79.3369 77.0795 79.5705 77.0729L82.7657 76.9832C82.9977 76.9767 83.2009 77.1182 83.2197 77.2993C83.2384 77.4804 83.0654 77.6326 82.8334 77.6393ZM76.4236 77.8233L73.19 77.9161C72.9537 77.9229 72.747 77.7801 72.7285 77.5972C72.71 77.4144 72.8867 77.2607 73.1231 77.2541L76.3563 77.1632C76.5912 77.1566 76.7965 77.299 76.8151 77.4812C76.8336 77.6634 76.6584 77.8165 76.4236 77.8233ZM69.9373 78.0095L66.6653 78.1034C66.4261 78.1103 66.2172 77.9667 66.1988 77.7827C66.1805 77.5987 66.3596 77.4441 66.5987 77.4374L69.8705 77.3455C70.1081 77.3388 70.3157 77.482 70.3341 77.6652C70.3526 77.8485 70.1749 78.0027 69.9373 78.0095ZM63.3731 78.198L60.0616 78.293C59.8196 78.2999 59.6085 78.1555 59.5903 77.9704C59.572 77.7853 59.7536 77.6298 59.9957 77.623L63.3069 77.5299C63.5473 77.5232 63.7571 77.6672 63.7754 77.8516C63.7938 78.0359 63.6137 78.191 63.3731 78.198ZM56.73 78.3886L53.3782 78.4848C53.1332 78.4919 52.9198 78.3466 52.9017 78.1604C52.8837 77.9742 53.0678 77.8176 53.3127 77.8107L56.6643 77.7165C56.9077 77.7097 57.1197 77.8545 57.1379 78.0401C57.156 78.2256 56.9734 78.3816 56.73 78.3886ZM50.006 78.5817L46.6132 78.6791C46.3652 78.6862 46.1496 78.5401 46.1316 78.3527C46.1137 78.1653 46.3003 78.0078 46.5483 78.0008L49.9408 77.9055C50.1872 77.8985 50.4014 78.0442 50.4194 78.2309C50.4375 78.4175 50.2523 78.5746 50.006 78.5817Z" fill="white"/>
</g>
<path d="M104.472 87.6139C104.116 87.4399 103.688 87.4127 103.315 87.5414L91.4064 91.6101C89.6981 92.1998 88.5319 93.5815 88.6866 95.0679L89.0976 99.0178C89.2622 100.599 90.8633 101.921 92.8254 102.266L105.15 104.421C105.539 104.489 105.961 104.408 106.258 104.2C106.553 103.993 106.726 103.684 106.692 103.368L105.082 88.4141C105.047 88.0869 104.829 87.7877 104.472 87.6139Z" fill="#546286"/>
<path d="M96.6056 96.5938C96.721 97.6867 95.6975 98.6274 94.316 98.6946C92.931 98.7621 91.7125 97.9264 91.5976 96.8284C91.4827 95.7308 92.5146 94.7909 93.899 94.7286C95.2798 94.6665 96.4901 95.5014 96.6056 96.5938Z" fill="#1D191F"/>
<defs>
<linearGradient id="paint0_linear_46_818" x1="145.362" y1="119.269" x2="142.716" y2="124.712" gradientUnits="userSpaceOnUse">
<stop stop-color="#FFC444"/>
<stop offset="0.9964" stop-color="#F36F56"/>
</linearGradient>
<linearGradient id="paint1_linear_46_818" x1="151.933" y1="127.465" x2="154.428" y2="120.996" gradientUnits="userSpaceOnUse">
<stop stop-color="#FFC444"/>
<stop offset="0.9964" stop-color="#F36F56"/>
</linearGradient>
<linearGradient id="paint2_linear_46_818" x1="57.5481" y1="80.8223" x2="58.8521" y2="75.1102" gradientUnits="userSpaceOnUse">
<stop stop-color="#FF9085"/>
<stop offset="1" stop-color="#FB6FBB"/>
</linearGradient>
<linearGradient id="paint3_linear_46_818" x1="56.2448" y1="80.0986" x2="57.4287" y2="74.9124" gradientUnits="userSpaceOnUse">
<stop stop-color="#FF9085"/>
<stop offset="1" stop-color="#FB6FBB"/>
</linearGradient>
<linearGradient id="paint4_linear_46_818" x1="57.7029" y1="80.5797" x2="58.8875" y2="75.3908" gradientUnits="userSpaceOnUse">
<stop stop-color="#FF9085"/>
<stop offset="1" stop-color="#FB6FBB"/>
</linearGradient>
<linearGradient id="paint5_linear_46_818" x1="59.162" y1="81.0617" x2="60.3472" y2="75.8701" gradientUnits="userSpaceOnUse">
<stop stop-color="#FF9085"/>
<stop offset="1" stop-color="#FB6FBB"/>
</linearGradient>
<linearGradient id="paint6_linear_46_818" x1="58.1373" y1="79.6657" x2="58.8832" y2="76.3983" gradientUnits="userSpaceOnUse">
<stop stop-color="#FF9085"/>
<stop offset="1" stop-color="#FB6FBB"/>
</linearGradient>
<linearGradient id="paint7_linear_46_818" x1="72.4873" y1="89.4071" x2="93.6006" y2="8.41994" gradientUnits="userSpaceOnUse">
<stop stop-color="#FB6FBB"/>
<stop offset="1" stop-color="#FF9085"/>
</linearGradient>
<linearGradient id="paint8_linear_46_818" x1="75.7898" y1="87.159" x2="78.4038" y2="75.7084" gradientUnits="userSpaceOnUse">
<stop stop-color="#FB6FBB"/>
<stop offset="1" stop-color="#FF9085"/>
</linearGradient>
<linearGradient id="paint9_linear_46_818" x1="84.0095" y1="71.4266" x2="87.4132" y2="56.5165" gradientUnits="userSpaceOnUse">
<stop stop-color="#FB6FBB"/>
<stop offset="1" stop-color="#FF9085"/>
</linearGradient>
<linearGradient id="paint10_linear_46_818" x1="68.1253" y1="49.9366" x2="69.1659" y2="42.0112" gradientUnits="userSpaceOnUse">
<stop stop-color="#FF9085"/>
<stop offset="1" stop-color="#FB6FBB"/>
</linearGradient>
<linearGradient id="paint11_linear_46_818" x1="48.5257" y1="69.6617" x2="28.2526" y2="77.8089" gradientUnits="userSpaceOnUse">
<stop stop-color="#FCB148"/>
<stop offset="0.0521" stop-color="#FDBA46"/>
<stop offset="0.1424" stop-color="#FFC244"/>
<stop offset="0.3183" stop-color="#FFC444"/>
<stop offset="0.4849" stop-color="#FDB946"/>
<stop offset="0.7754" stop-color="#F99C4D"/>
<stop offset="0.8658" stop-color="#F8924F"/>
<stop offset="1" stop-color="#F8924F"/>
</linearGradient>
<linearGradient id="paint12_linear_46_818" x1="65.7956" y1="52.6916" x2="52.8413" y2="88.4792" gradientUnits="userSpaceOnUse">
<stop stop-color="#FFDB44"/>
<stop offset="1" stop-color="#FEEF06"/>
</linearGradient>
<linearGradient id="paint13_linear_46_818" x1="62.2896" y1="88.1459" x2="59.9165" y2="71.9121" gradientUnits="userSpaceOnUse">
<stop stop-color="#FCB148"/>
<stop offset="0.0521" stop-color="#FDBA46"/>
<stop offset="0.1424" stop-color="#FFC244"/>
<stop offset="0.3183" stop-color="#FFC444"/>
<stop offset="0.4849" stop-color="#FDB946"/>
<stop offset="0.7754" stop-color="#F99C4D"/>
<stop offset="0.8658" stop-color="#F8924F"/>
<stop offset="1" stop-color="#F8924F"/>
</linearGradient>
<linearGradient id="paint14_linear_46_818" x1="53.8892" y1="56.65" x2="58.8689" y2="80.0204" gradientUnits="userSpaceOnUse">
<stop stop-color="#FFDB44"/>
<stop offset="1" stop-color="#FEEF06"/>
</linearGradient>
<linearGradient id="paint15_linear_46_818" x1="50.0337" y1="63.8411" x2="60.3585" y2="91.2864" gradientUnits="userSpaceOnUse">
<stop stop-color="#FCB148"/>
<stop offset="0.0521" stop-color="#FDBA46"/>
<stop offset="0.1424" stop-color="#FFC244"/>
<stop offset="0.3183" stop-color="#FFC444"/>
<stop offset="0.4849" stop-color="#FDB946"/>
<stop offset="0.7754" stop-color="#F99C4D"/>
<stop offset="0.8658" stop-color="#F8924F"/>
<stop offset="1" stop-color="#F8924F"/>
</linearGradient>
<linearGradient id="paint16_linear_46_818" x1="47.1129" y1="37.9328" x2="33.4587" y2="43.42" gradientUnits="userSpaceOnUse">
<stop stop-color="#FCB148"/>
<stop offset="0.0521" stop-color="#FDBA46"/>
<stop offset="0.1424" stop-color="#FFC244"/>
<stop offset="0.3183" stop-color="#FFC444"/>
<stop offset="0.4849" stop-color="#FDB946"/>
<stop offset="0.7754" stop-color="#F99C4D"/>
<stop offset="0.8658" stop-color="#F8924F"/>
<stop offset="1" stop-color="#F8924F"/>
</linearGradient>
<linearGradient id="paint17_linear_46_818" x1="58.7446" y1="26.5033" x2="50.0197" y2="50.6067" gradientUnits="userSpaceOnUse">
<stop stop-color="#FFDB44"/>
<stop offset="1" stop-color="#FEEF06"/>
</linearGradient>
<linearGradient id="paint18_linear_46_818" x1="50.7248" y1="29.1692" x2="54.0787" y2="44.9095" gradientUnits="userSpaceOnUse">
<stop stop-color="#FFDB44"/>
<stop offset="1" stop-color="#FEEF06"/>
</linearGradient>
<linearGradient id="paint19_linear_46_818" x1="48.1287" y1="34.0126" x2="55.0825" y2="52.4974" gradientUnits="userSpaceOnUse">
<stop stop-color="#FCB148"/>
<stop offset="0.0521" stop-color="#FDBA46"/>
<stop offset="0.1424" stop-color="#FFC244"/>
<stop offset="0.3183" stop-color="#FFC444"/>
<stop offset="0.4849" stop-color="#FDB946"/>
<stop offset="0.7754" stop-color="#F99C4D"/>
<stop offset="0.8658" stop-color="#F8924F"/>
<stop offset="1" stop-color="#F8924F"/>
</linearGradient>
</defs>
</svg>
