<svg width="159" height="126" viewBox="0 0 159 126" fill="none" xmlns="http://www.w3.org/2000/svg">
<path d="M140.261 107.407C137.03 110.09 133.972 111.821 131.556 113.189C103.159 129.263 69.558 124.577 62.4167 123.433C51.8714 121.743 31.4874 118.477 16.7502 104.805C-5.54596 84.1197 -2.07411 51.5308 15.2203 30.0183C18.3837 26.0833 35.0938 4.24323 69.057 0.740773C89.6112 -1.37887 113.571 2.89619 130.922 14.3643C167.343 38.4369 164.75 87.0678 140.261 107.407Z" fill="url(#paint0_linear_46_741)"/>
<path d="M80.1875 120.124C80.1875 120.124 111.196 57.5662 157.262 50.7323C158.08 50.611 158.824 51.1329 158.784 51.7961C158.318 59.5126 152.418 100.351 80.1875 120.124Z" fill="#5D80D9"/>
<path opacity="0.62" d="M148.986 60.8792C146.634 63.56 144.169 66.1701 141.67 68.7607C141.046 69.4087 140.408 70.0482 139.778 70.6924C139.143 71.3334 138.521 71.9831 137.875 72.617L135.944 74.5234C135.297 75.1569 134.664 75.7994 134.001 76.4226C132.685 77.6748 131.381 78.9356 130.055 80.1807L126.033 83.8883C123.305 86.3266 120.579 88.7669 117.767 91.1447L115.675 92.9402C114.985 93.5452 114.255 94.1183 113.547 94.709L109.275 98.2363L104.894 101.677C104.162 102.249 103.437 102.827 102.691 103.388L100.431 105.051C98.9215 106.156 97.4274 107.276 95.8923 108.36L91.2249 111.554L90.0528 112.347C89.6588 112.608 89.2759 112.88 88.8729 113.133L86.4618 114.654C85.6604 115.164 84.8477 115.662 84.0413 116.166C83.234 116.669 82.4258 117.171 81.6128 117.668C81.5506 117.706 81.4616 117.696 81.4139 117.646C81.3681 117.598 81.3774 117.531 81.4339 117.492L81.4379 117.489C82.2146 116.957 82.996 116.43 83.7786 115.904C84.5617 115.378 85.3386 114.847 86.1269 114.328L88.4848 112.762C89.2621 112.232 90.0155 111.68 90.7867 111.144L95.4037 107.921L99.9258 104.614L102.189 102.962C102.567 102.687 102.927 102.397 103.297 102.116L104.407 101.271L108.843 97.8888C111.729 95.5751 114.662 93.2974 117.449 90.9052C118.856 89.72 120.28 88.5469 121.639 87.3262C123.01 86.1141 124.393 84.9107 125.754 83.6912L129.789 79.9995C131.121 78.7594 132.429 77.5038 133.75 76.2566C134.415 75.636 135.051 74.996 135.7 74.365L137.639 72.4661C138.288 71.8347 138.912 71.1874 139.55 70.5489C140.183 69.9072 140.823 69.27 141.45 68.6245C143.946 66.0372 146.408 63.4245 148.752 60.751L148.753 60.7491C148.798 60.6979 148.887 60.6854 148.951 60.7213C149.015 60.7573 149.031 60.828 148.986 60.8791L148.986 60.8792Z" fill="white"/>
<g opacity="0.79">
<path d="M72.6729 84.2464C72.6729 84.2464 87.7474 29.0047 133.254 0.368575C133.848 -0.00479721 134.726 0.231342 134.907 0.817016C137.77 10.0672 152.673 69.0674 72.6729 84.2464Z" fill="#A4B8EA"/>
<path opacity="0.62" d="M128.422 16.3047C127.9 17.9073 127.292 19.4861 126.65 21.0578C126.007 22.6286 125.332 24.1912 124.615 25.7416C123.175 28.8409 121.608 31.9027 119.919 34.9215C119.5 35.6774 119.058 36.425 118.628 37.1774C118.196 37.9287 117.73 38.6668 117.282 39.4123C116.838 40.159 116.357 40.8915 115.891 41.6297L115.185 42.7344L114.455 43.829C112.51 46.7484 110.46 49.6259 108.252 52.4252C106.037 55.2199 103.734 57.9738 101.251 60.6227C100.943 60.9555 100.642 61.2916 100.329 61.6216L99.3764 62.6016L98.4236 63.5816C98.1042 63.9071 97.7943 64.2387 97.4594 64.5545L95.4806 66.4679L94.9838 66.9447L94.469 67.4095L93.4397 68.339C87.9779 73.3155 81.8645 77.8331 75.2546 81.8101C75.2001 81.843 75.1227 81.8342 75.0815 81.7908C75.0415 81.7483 75.0509 81.6883 75.1019 81.655L75.1047 81.6532L77.5046 80.0901L78.7063 79.3112L79.8693 78.4954L82.1925 76.8626L84.4387 75.1627C84.8104 74.8773 85.1934 74.6013 85.5596 74.3114L86.6474 73.433C87.3689 72.8445 88.1056 72.268 88.8145 71.67C90.2081 70.4559 91.6345 69.2659 92.9612 68.0041L93.9727 67.0699L94.4784 66.6029L94.9663 66.1237L96.923 64.2109C97.2548 63.8957 97.5618 63.5647 97.8783 63.2396L98.8222 62.2613L99.766 61.2831C100.075 60.9538 100.374 60.6181 100.679 60.286C103.139 57.6421 105.418 54.8935 107.611 52.1047C109.815 49.3206 111.875 46.4639 113.825 43.5605L114.558 42.4723L115.266 41.3737C115.734 40.6398 116.216 39.9114 116.663 39.1685C117.578 37.6921 118.462 36.2034 119.333 34.7092C121.06 31.7162 122.665 28.6774 124.147 25.6006C124.899 24.0653 125.608 22.5172 126.286 20.96C126.626 20.1817 126.954 19.4 127.271 18.6156C127.592 17.8326 127.899 17.0445 128.183 16.2546L128.184 16.2526C128.203 16.2003 128.271 16.17 128.337 16.185C128.401 16.1999 128.439 16.2532 128.422 16.3047Z" fill="white"/>
</g>
<g opacity="0.76">
<path d="M49.0241 81.2817C49.0241 81.2817 43.1454 32.2775 7.51095 3.76167C7.04632 3.38988 6.25653 3.52149 6.024 4.01286C2.35123 11.7737 -18.1747 61.5515 49.0241 81.2817Z" fill="#A4B8EA"/>
<path opacity="0.62" d="M9.85362 17.9132C10.4619 20.7387 11.2488 23.5447 12.1484 26.3223C13.0339 29.1036 14.0306 31.862 15.139 34.591C15.6996 35.9538 16.2719 37.3133 16.8725 38.6649C17.1623 39.3438 17.485 40.013 17.7949 40.6861L18.265 41.694L18.7578 42.6949C20.068 45.3648 21.48 48.0036 23.025 50.5916C24.5582 53.1833 26.1713 55.7474 27.9544 58.2359C28.1746 58.5481 28.3891 58.863 28.6138 59.1732L29.3026 60.0967L29.9914 61.0203C30.2228 61.3274 30.4451 61.6389 30.6909 61.9386L32.1335 63.7538L32.4926 64.2085L32.8687 64.6541L33.6211 65.5455C34.6031 66.7462 35.6806 67.8931 36.7267 69.0584C37.2614 69.634 37.8228 70.1935 38.3697 70.762L39.1952 71.6116C39.4738 71.8926 39.769 72.1629 40.0527 72.4406L41.7712 74.0972L43.5652 75.7023L44.4635 76.5045L45.3999 77.278L47.2686 78.83L47.2708 78.8319C47.3182 78.8713 47.3167 78.9338 47.2674 78.9715C47.2195 79.0084 47.144 79.0079 47.0964 78.9717C41.8864 74.9945 37.1794 70.5855 33.0962 65.8327L32.3255 64.9443L31.94 64.5001L31.5718 64.0467L30.1074 62.229C29.8586 61.9283 29.6333 61.6159 29.3992 61.3082L28.7017 60.3819L28.0043 59.4558C27.7767 59.1447 27.5594 58.829 27.3365 58.5159C25.5307 56.0202 23.8956 53.4488 22.341 50.8491C20.7941 48.2455 19.3958 45.5875 18.0927 42.9017L17.6033 41.8946L17.1366 40.8808C16.8291 40.2039 16.5087 39.5307 16.2213 38.8481C15.9309 38.1664 15.6233 37.4894 15.3471 36.804C15.0741 36.1177 14.7895 35.4345 14.5259 34.746C12.4075 29.2423 10.6474 23.6431 9.60872 17.9404C9.59893 17.8865 9.64566 17.8364 9.71328 17.8285C9.77968 17.8209 9.84142 17.8568 9.85279 17.9093L9.85362 17.9132Z" fill="white"/>
</g>
<path d="M17.4242 6.67602C16.9139 25.9063 15.259 92.2386 16.049 115.745C16.1328 118.235 18.2696 120.234 20.9351 120.315C34.1185 120.718 82.4482 121.74 104.012 120.895C108.503 120.719 112.075 117.32 112.168 113.121C112.616 92.9364 113.605 36.1649 111.255 10.1578C110.973 7.04184 108.355 4.56042 105.025 4.24908C90.6675 2.90727 42.13 -0.372699 23.5003 0.756768C20.1404 0.960466 17.5077 3.53153 17.4242 6.67602Z" fill="#1E397D"/>
<path d="M23.3067 12.5757C22.5971 28.0974 20.3588 79.7343 21.0691 98.8285C21.173 101.619 23.5275 103.876 26.5115 104.039C38.7978 104.711 80.7156 106.192 98.7365 104.844C101.981 104.601 104.528 102.149 104.703 99.1125C105.616 83.2772 108.238 35.196 107.557 16.3157C107.449 13.3038 104.951 10.8441 101.739 10.5746C88.4467 9.45966 43.9043 6.80685 28.5907 7.5874C25.716 7.73394 23.4295 9.88857 23.3067 12.5757Z" fill="#5D80D9"/>
<path d="M56.2637 4.57125C56.2637 5.16131 56.7558 5.64799 57.3866 5.67876C60.5004 5.83109 69.2722 6.26215 73.1925 6.47463C73.9654 6.51656 74.5721 5.86745 74.4254 5.15723L74.4004 5.03602C74.3003 4.5514 73.8702 4.18664 73.3441 4.14159C70.6942 3.91472 62.6984 3.28571 57.4006 3.46241C56.7643 3.4837 56.2637 3.97635 56.2637 4.57125Z" fill="#5D80D9"/>
<path d="M62.3905 45.1304C72.5463 45.1304 80.7791 38.5557 80.7791 30.4455C80.7791 22.3353 72.5463 15.7606 62.3905 15.7606C52.2348 15.7606 44.002 22.3353 44.002 30.4455C44.002 38.5557 52.2348 45.1304 62.3905 45.1304Z" fill="#5D80D9"/>
<path d="M68.0206 24.8968C68.0206 27.3833 65.4965 30.0677 62.3829 30.0677C59.2692 30.0677 56.7451 27.3833 56.7451 24.8968C56.7451 22.4103 59.2692 20.6462 62.3829 20.6462C65.4965 20.6462 68.0206 22.4103 68.0206 24.8968Z" fill="white"/>
<path d="M55.3861 39.641H69.1489C70.5976 39.641 71.8803 38.8932 72.3217 37.7913L73.0623 35.9428C73.6046 34.5894 72.723 33.124 71.0517 32.6361C65.4508 31.0007 59.6593 31.2105 53.7265 32.787C52.0645 33.2287 51.1421 34.6484 51.6008 35.9984L52.171 37.6772C52.5648 38.8363 53.8822 39.641 55.3861 39.641Z" fill="white"/>
<g opacity="0.71">
<path opacity="0.65" d="M97.6595 68.5828H30.5478C30.3429 68.5828 30.1768 68.4502 30.1768 68.2865V60.5427C30.1768 60.379 30.3429 60.2463 30.5478 60.2463H97.6595C97.8645 60.2463 98.0306 60.379 98.0306 60.5427V68.2865C98.0306 68.4502 97.8645 68.5828 97.6595 68.5828Z" fill="white"/>
<path opacity="0.65" d="M97.2933 82.1846H30.1816C29.9767 82.1846 29.8105 82.052 29.8105 81.8883V74.1445C29.8105 73.9808 29.9767 73.8481 30.1816 73.8481H97.2933C97.4983 73.8481 97.6644 73.9808 97.6644 74.1445V81.8883C97.6644 82.052 97.4983 82.1846 97.2933 82.1846Z" fill="white"/>
<path opacity="0.65" d="M84.1905 98.4072H41.2725C41.0196 98.4072 40.8145 98.2435 40.8145 98.0415V88.1447C40.8145 87.9427 41.0195 87.7789 41.2725 87.7789H84.1905C84.4434 87.7789 84.6484 87.9427 84.6484 88.1447V98.0415C84.6484 98.2435 84.4434 98.4072 84.1905 98.4072Z" fill="white"/>
</g>
<path opacity="0.75" d="M72.9381 66.7661H33.8422C33.4779 66.7661 33.1826 66.5303 33.1826 66.2393V62.6613C33.1826 62.3704 33.4779 62.1345 33.8422 62.1345H72.9381C73.3024 62.1345 73.5977 62.3704 73.5977 62.6613V66.2393C73.5978 66.5302 73.3025 66.7661 72.9381 66.7661Z" fill="white"/>
<g opacity="0.75">
<path d="M35.5007 79.5419C36.7156 79.14 37.2925 78.0277 36.7893 77.0575C36.286 76.0873 34.8932 75.6266 33.6783 76.0284C32.4634 76.4303 31.8865 77.5426 32.3897 78.5128C32.893 79.483 34.2858 79.9437 35.5007 79.5419Z" fill="white"/>
<path d="M41.1193 79.7829C42.4342 79.7829 43.5002 78.9316 43.5002 77.8815C43.5002 76.8314 42.4342 75.9801 41.1193 75.9801C39.8043 75.9801 38.7383 76.8314 38.7383 77.8815C38.7383 78.9316 39.8043 79.7829 41.1193 79.7829Z" fill="white"/>
<path d="M49.7215 78.5697C50.0237 77.5477 49.2312 76.5236 47.9515 76.2823C46.6718 76.041 45.3894 76.6738 45.0872 77.6958C44.785 78.7178 45.5775 79.7419 46.8572 79.9832C48.1369 80.2245 49.4193 79.5917 49.7215 78.5697Z" fill="white"/>
<path d="M53.9396 80.1245C55.2545 80.1245 56.3205 79.2732 56.3205 78.2231C56.3205 77.1729 55.2545 76.3217 53.9396 76.3217C52.6246 76.3217 51.5586 77.1729 51.5586 78.2231C51.5586 79.2732 52.6246 80.1245 53.9396 80.1245Z" fill="white"/>
<path d="M60.4708 80.0753C61.7858 80.0753 62.8518 79.224 62.8518 78.1739C62.8518 77.1238 61.7858 76.2725 60.4708 76.2725C59.1558 76.2725 58.0898 77.1238 58.0898 78.1739C58.0898 79.224 59.1558 80.0753 60.4708 80.0753Z" fill="white"/>
<path d="M67.004 80.1732C68.319 80.1732 69.385 79.3219 69.385 78.2718C69.385 77.2217 68.319 76.3704 67.004 76.3704C65.689 76.3704 64.623 77.2217 64.623 78.2718C64.623 79.3219 65.689 80.1732 67.004 80.1732Z" fill="white"/>
</g>
<path d="M94.1934 84.4786L101.488 85.9349L99.6641 96.8569C99.6641 96.8569 102.399 99.0413 103.311 101.954C104.223 104.866 105.064 117.096 105.064 117.096L106.794 117.931L107.005 118.629L101.969 124.036L102.804 119.732C102.937 119.049 102.707 117.664 102.78 117.635C100.044 111.81 94.1934 95.4006 94.1934 95.4006V84.4786Z" fill="url(#paint1_linear_46_741)"/>
<path d="M92.0619 118.703C92.1408 118.702 92.2184 118.707 92.2978 118.703C91.9454 115.192 90.3345 99.7368 88.7226 93.9442C86.899 87.391 91.4579 74.2845 91.4579 74.2845L99.664 80.8378L95.105 93.216C98.2292 96.9584 94.5954 118.875 94.6737 118.865L94.6687 118.914L95.8583 120.22L95.7136 120.928L88.4467 124.353L91.306 120.645C91.7599 120.056 92.0106 119.389 92.0619 118.703Z" fill="url(#paint2_linear_46_741)"/>
<path d="M101.292 45.2205C101.292 45.2205 117.269 59.6007 101.292 66.9739L99.6641 66.0326C99.6641 66.0326 107.596 59.9668 99.6641 52.5413L101.292 45.2205Z" fill="url(#paint3_linear_46_741)"/>
<path d="M87.9677 124.89H90.2868C90.7208 124.89 91.1302 124.731 91.3949 124.456C92.1178 123.706 93.6157 122.242 94.3319 122.204C95.2961 122.152 95.1727 124.89 95.1727 124.89H95.7131L96.3977 121.488C96.5699 120.633 96.037 119.785 95.0746 119.384C95.0746 119.384 94.8543 120.685 93.6592 121.261C92.4642 121.837 88.7962 123.899 88.7962 123.899C88.7962 123.899 88.3469 123.848 87.8536 123.919C87.122 124.024 87.2241 124.89 87.9677 124.89Z" fill="#5D80D9"/>
<path d="M101.789 124.679L103.926 123.961C104.326 123.826 104.626 123.553 104.737 123.218C105.039 122.302 105.709 120.489 106.351 120.232C107.215 119.886 108.43 122.448 108.43 122.448L108.928 122.28L107.908 118.933C107.651 118.091 106.748 117.474 105.666 117.403C105.666 117.403 106.095 118.671 105.273 119.572C104.451 120.472 102.071 123.509 102.071 123.509C102.071 123.509 101.632 123.601 101.212 123.819C100.589 124.143 101.103 124.909 101.789 124.679Z" fill="#5D80D9"/>
<path d="M89.368 63.2037C89.368 63.2037 89.6362 64.5162 89.2434 68.1243C88.8504 71.7325 86.9724 80.2038 87.3548 88.309C87.3548 88.309 92.6936 89.3026 101.969 88.832C101.969 88.832 105.884 76.1773 104.93 71.3664C103.976 66.5556 98.8035 63.1042 98.8035 63.1042L89.368 63.2037Z" fill="url(#paint4_linear_46_741)"/>
<path d="M93.3127 39.093L92.6602 45.2204H98.8596L97.3182 35.8673L93.3127 39.093Z" fill="url(#paint5_linear_46_741)"/>
<path d="M100.697 44.3732C98.5571 44.279 93.7734 44.1046 90.3846 44.2521C88.6003 44.3297 87.1056 45.352 86.7406 46.7489L85.9141 49.9122C85.6062 51.0904 85.6523 52.3101 86.0484 53.4714L89.3683 63.2037C89.3683 63.2037 92.3212 64.6208 98.8038 63.1044C98.8038 63.1044 104.497 52.2628 102.166 45.3275C101.985 44.7888 101.394 44.4039 100.697 44.3732Z" fill="url(#paint6_linear_46_741)"/>
<path d="M86.9022 46.1816C85.989 48.1026 85.1643 50.1169 84.2782 52.0035C83.8277 52.9476 83.3707 53.8733 82.8818 54.7233C82.6345 55.1466 82.3628 55.5356 82.1135 55.8883C81.864 56.2375 81.5829 56.528 81.4365 56.6616C81.4077 56.6814 81.5039 56.6966 81.5361 56.6978C81.5555 56.6997 80.9188 56.7812 80.7234 56.8073L79.9603 56.8037C78.8665 56.7588 77.6275 56.6048 76.3848 56.4119C73.8783 56.0387 71.2723 55.5147 68.5965 55.1183L68.5759 55.1153C68.0639 55.0394 67.5718 55.3094 67.4768 55.7183C67.4142 55.9879 67.5412 56.2514 67.7809 56.4209C68.8598 57.1793 70.0035 57.8024 71.1898 58.4088C71.7869 58.7004 72.3945 58.9862 73.0121 59.2606C73.6418 59.5169 74.2732 59.7754 74.9292 60.0143C76.2497 60.4738 77.6139 60.8971 79.1855 61.1689C79.5985 61.2241 80.0062 61.282 80.4311 61.3275C80.9077 61.3407 81.3406 61.3744 81.8611 61.3503C82.1376 61.3285 82.4153 61.3014 82.6923 61.2692C82.84 61.2484 82.9486 61.2462 83.1276 61.2068C83.3175 61.1613 83.5069 61.1103 83.6936 61.0544C84.0839 60.9425 84.3362 60.8071 84.6532 60.6663C84.9164 60.5277 85.1564 60.3828 85.3892 60.2342C86.2483 59.6497 86.7819 59.0697 87.2521 58.5128C87.721 57.9564 88.0926 57.399 88.4263 56.8526C89.0955 55.7614 89.6181 54.6801 90.0422 53.5913C90.9014 51.4095 91.4837 49.2651 91.7294 46.9874C91.847 45.8964 90.8349 44.9358 89.4688 44.8418C88.3381 44.764 87.3192 45.3043 86.9348 46.1113L86.9022 46.1816Z" fill="url(#paint7_linear_46_741)"/>
<path d="M69.4391 56.097L68.3327 53.9999L62.5101 52.8413C62.5101 52.8413 62.0443 53.6473 64.4898 53.9999C64.4898 53.9999 63.6163 54.7709 64.0822 55.6777C64.548 56.5844 69.4973 57.4928 69.4391 56.097Z" fill="url(#paint8_linear_46_741)"/>
<path d="M90.6885 32.0164C90.4671 32.1207 88.723 37.0332 90.1845 39.0929C91.6461 41.1526 96.1093 38.8456 97.3188 35.8672C98.5284 32.8889 96.5851 29.2394 90.6885 32.0164Z" fill="url(#paint9_linear_46_741)"/>
<path d="M102.256 35.8676C103.257 39.7845 106.574 38.7126 108.924 40.4552C112.731 43.2796 118.178 40.3681 123.474 43.0446C127.297 44.9769 129.139 49.9202 127.304 53.9114C124.763 59.4394 116.08 61.7127 111.58 60.029C107.279 58.4199 107.892 53.6006 102.105 51.7381C99.6484 50.9473 98.4357 51.4611 96.9644 50.2892C94.389 48.2376 95.0839 44.2564 95.3516 42.7227C95.9326 39.3946 97.3298 38.7921 96.662 37.3295C95.3632 34.4846 89.3048 35.0716 88.7998 33.0632C88.3401 31.2343 92.7313 27.7678 96.8637 28.314C103.257 29.1592 101.81 34.1225 102.256 35.8676Z" fill="#1E397D"/>
<path opacity="0.6" d="M125.395 52.9752C125.471 52.9752 125.539 52.9343 125.558 52.8729C126.376 50.159 126.005 47.9333 124.453 46.2575C121.879 43.4762 116.874 43.2011 116.824 43.1987C116.745 43.1883 116.653 43.2501 116.647 43.324C116.641 43.3977 116.711 43.4611 116.804 43.4655C116.852 43.4679 121.705 43.7368 124.186 46.418C125.674 48.027 126.027 50.1777 125.232 52.8102C125.211 52.8819 125.266 52.9543 125.356 52.9715C125.369 52.9739 125.382 52.9752 125.395 52.9752Z" fill="white"/>
<path opacity="0.72" d="M109.005 55.4596C109.012 55.4596 109.019 55.4588 109.026 55.4574C109.071 55.4481 109.098 55.4115 109.086 55.3757C108.289 52.9326 106.89 51.2359 104.928 50.3323C103.501 49.6749 102.165 49.6138 100.986 49.5598C99.849 49.5075 98.8674 49.4624 98.0772 48.9013C96.4439 47.7414 96.5384 44.9526 98.3584 40.6122C98.3731 40.5773 98.3492 40.5394 98.3054 40.5276C98.2613 40.5159 98.2142 40.5349 98.1994 40.57C96.3562 44.9657 96.2778 47.8023 97.966 49.0011C98.7997 49.5932 99.8082 49.6397 100.976 49.6932C102.137 49.7465 103.452 49.8068 104.844 50.4482C106.766 51.333 108.139 53.0024 108.924 55.4097C108.934 55.4397 108.968 55.4596 109.005 55.4596Z" fill="white"/>
<path opacity="0.72" d="M99.8875 34.8952C99.8963 34.8952 99.9051 34.8942 99.9143 34.8918C99.9581 34.8801 99.9817 34.842 99.9669 34.807C99.333 33.3011 97.5068 33.5249 95.5718 33.7624C94.3471 33.9128 93.081 34.0676 92.0071 33.8139C91.2057 33.6241 90.7298 33.3301 90.5921 32.9398C90.357 32.2753 91.1802 31.5344 91.1884 31.5268C91.2195 31.4994 91.2165 31.4571 91.1822 31.4326C91.1482 31.4078 91.0949 31.4101 91.0642 31.4375C91.0276 31.4699 90.1713 32.2399 90.4307 32.9758C90.5849 33.4131 91.0993 33.7382 91.9593 33.9418C93.0699 34.2045 94.3544 34.047 95.5973 33.8946C97.5396 33.6565 99.219 33.45 99.8081 34.8499C99.8198 34.8777 99.8525 34.8952 99.8875 34.8952Z" fill="white"/>
<g opacity="0.3">
<path d="M39.1233 111.482C39.2615 111.715 39.1704 112.003 38.9027 112.145C38.3175 112.456 37.7072 112.75 37.0892 113.019C36.7885 113.15 36.4176 113.052 36.2608 112.799C36.259 112.796 36.2572 112.793 36.2555 112.79C36.1068 112.539 36.2241 112.234 36.5211 112.105C37.1083 111.849 37.6879 111.57 38.2439 111.275C38.5299 111.123 38.9095 111.194 39.0914 111.435C39.1033 111.45 39.1138 111.466 39.1233 111.482ZM34.3174 113.442C34.328 113.46 34.3376 113.478 34.3459 113.498C34.4603 113.766 34.2943 114.06 33.9752 114.156C33.3194 114.351 32.6472 114.526 31.9772 114.673C31.6494 114.745 31.3146 114.582 31.2262 114.306C31.1394 114.031 31.3349 113.749 31.6624 113.677C32.2993 113.537 32.9378 113.371 33.5609 113.185C33.857 113.097 34.1806 113.211 34.3174 113.442ZM29.114 114.464C29.1445 114.515 29.1652 114.572 29.1739 114.632C29.2141 114.914 28.9741 115.17 28.6375 115.204C27.9475 115.272 27.2451 115.316 26.5501 115.334C26.2111 115.343 25.9275 115.119 25.9157 114.835C25.9044 114.551 26.1699 114.313 26.5087 114.305C27.1688 114.287 27.8355 114.246 28.4909 114.181C28.7558 114.155 29.0016 114.274 29.114 114.464ZM23.7649 114.484C23.8153 114.569 23.8383 114.666 23.8255 114.768C23.7897 115.05 23.4872 115.255 23.1501 115.224C22.4584 115.161 21.7617 115.072 21.0791 114.96C20.7466 114.905 20.529 114.634 20.5932 114.355C20.6577 114.076 20.9799 113.894 21.3128 113.949C21.9609 114.056 22.6227 114.14 23.28 114.2C23.4965 114.22 23.6746 114.332 23.7649 114.484ZM18.542 113.503C18.6126 113.622 18.6286 113.764 18.5732 113.899C18.4634 114.168 18.1144 114.311 17.7937 114.218C17.1372 114.029 16.4811 113.813 15.8438 113.576C15.5333 113.461 15.3921 113.157 15.5287 112.897C15.6652 112.637 16.0274 112.52 16.3379 112.634C16.9436 112.859 17.5673 113.064 18.1911 113.245C18.3503 113.291 18.4726 113.386 18.542 113.503ZM13.7054 111.578C13.7968 111.733 13.7943 111.922 13.6786 112.079C13.5005 112.32 13.1224 112.395 12.8338 112.245C12.2423 111.938 11.659 111.605 11.1005 111.257C10.8279 111.087 10.7708 110.765 10.9728 110.537C11.1745 110.308 11.5591 110.261 11.8315 110.431C12.3623 110.762 12.9163 111.078 13.4783 111.369C13.5796 111.422 13.6561 111.495 13.7054 111.578ZM2.37206 95.2087C2.40993 95.2727 2.43247 95.344 2.43566 95.4199C2.45891 95.9729 2.5113 96.5325 2.59151 97.0831C2.63257 97.3655 2.39306 97.6219 2.05662 97.6556C1.72003 97.6895 1.41383 97.488 1.37271 97.2055C1.28827 96.6256 1.23297 96.0362 1.2084 95.4539C1.19641 95.1696 1.46149 94.9316 1.80034 94.9223C2.04887 94.9153 2.2681 95.0333 2.37206 95.2087ZM9.49787 108.805C9.61139 108.997 9.57444 109.235 9.38589 109.395C9.14808 109.598 8.75942 109.6 8.5176 109.4C8.02197 108.99 7.54156 108.558 7.08963 108.114C6.8704 107.897 6.89899 107.572 7.15675 107.388C7.4143 107.204 7.80191 107.23 8.02257 107.446C8.45163 107.867 8.9079 108.278 9.37847 108.667C9.42833 108.709 9.46835 108.755 9.49787 108.805ZM3.16234 99.6471C3.18037 99.6775 3.19533 99.7099 3.20616 99.744C3.37646 100.279 3.57678 100.815 3.80101 101.338C3.9159 101.605 3.75049 101.9 3.4316 101.996C3.11265 102.092 2.75945 101.953 2.64577 101.685C2.40993 101.135 2.19917 100.571 2.01974 100.008C1.93222 99.7328 2.12682 99.4508 2.45435 99.3781C2.7412 99.3143 3.03497 99.4322 3.16234 99.6471ZM6.13207 105.315C6.27016 105.548 6.17945 105.835 5.91251 105.977C5.62665 106.13 5.24712 106.059 5.06445 105.819C4.69091 105.327 4.3376 104.815 4.01469 104.298C4.01255 104.294 4.01057 104.291 4.00864 104.288C3.86022 104.037 3.97692 103.733 4.27328 103.603C4.57371 103.472 4.94477 103.569 5.1021 103.822C5.40901 104.313 5.74468 104.799 6.09963 105.266C6.11151 105.282 6.12239 105.298 6.13207 105.315Z" fill="url(#paint10_linear_46_741)"/>
<path d="M2.60995 91.5993C2.66383 91.6901 2.68647 91.7952 2.66756 91.9031C2.6215 92.1658 2.58137 92.4335 2.54778 92.6991C2.51227 92.9818 2.20997 93.1864 1.87283 93.1558C1.53557 93.1254 1.29061 92.8714 1.32678 92.5885C1.36186 92.3091 1.40419 92.0275 1.45256 91.7512C1.50182 91.4699 1.81379 91.2758 2.14912 91.3179C2.35603 91.3437 2.52343 91.4532 2.60995 91.5993Z" fill="url(#paint11_linear_46_741)"/>
</g>
<g opacity="0.3">
<path d="M12.3457 78.209C12.4777 78.4317 12.4016 78.7077 12.1529 78.8565C11.8954 79.0103 11.6374 79.1713 11.3863 79.3349C11.1187 79.5092 10.733 79.4683 10.5246 79.2436C10.3153 79.0178 10.3641 78.6952 10.6315 78.521C10.896 78.3488 11.1676 78.1792 11.4387 78.0171C11.7146 77.8523 12.098 77.9065 12.2953 78.1382C12.3146 78.161 12.3314 78.1847 12.3457 78.209Z" fill="url(#paint12_linear_46_741)"/>
<path d="M47.6641 85.631C47.79 85.8434 47.912 86.0584 48.0303 86.2759C48.171 86.5349 48.0351 86.8401 47.7266 86.9576C47.4182 87.0751 47.0521 86.9595 46.913 86.7014C46.6401 86.1994 46.3437 85.7079 46.028 85.2349C45.8626 84.986 45.9676 84.6729 46.2633 84.5344C46.5593 84.3958 46.9335 84.485 47.0992 84.7335C47.2945 85.026 47.4846 85.328 47.6641 85.631ZM49.1715 88.8229C49.1868 88.8487 49.1997 88.876 49.21 88.9045C49.4076 89.4551 49.5796 90.0187 49.721 90.5798C49.7913 90.8581 49.5792 91.131 49.2477 91.1892C48.9159 91.2474 48.589 91.0687 48.5199 90.7905C48.3855 90.2577 48.222 89.7223 48.0344 89.1991C47.9366 88.9266 48.1205 88.6397 48.445 88.5584C48.7358 88.4855 49.0406 88.6021 49.1715 88.8229ZM45.3279 82.4636C45.4569 82.6812 45.3877 82.9514 45.1486 83.1027C44.878 83.2739 44.4931 83.2283 44.2883 83.0012C43.8969 82.5666 43.478 82.1401 43.0428 81.7336C42.8164 81.5213 42.8366 81.196 43.0886 81.0064C43.3409 80.8166 43.7291 80.8347 43.9558 81.0466C44.414 81.4747 44.8552 81.9239 45.2675 82.3816C45.2911 82.4078 45.3111 82.4353 45.3279 82.4636ZM50.1254 93.1675C50.1601 93.2261 50.1819 93.2912 50.1878 93.3604C50.2364 93.9331 50.2563 94.5143 50.2472 95.088C50.2426 95.3723 49.9641 95.5991 49.6251 95.5946C49.2859 95.5901 49.0148 95.3562 49.0195 95.0716C49.0282 94.5269 49.0093 93.9749 48.9631 93.4311C48.9388 93.1474 49.1937 92.9015 49.5318 92.882C49.7874 92.8672 50.0178 92.986 50.1254 93.1675ZM41.7082 79.2549C41.814 79.4334 41.7907 79.655 41.6277 79.8167C41.409 80.0336 41.0216 80.0603 40.7625 79.8763C40.2672 79.5245 39.7468 79.1856 39.216 78.8688C38.9394 78.7037 38.8741 78.3822 39.0704 78.1505C39.2666 77.919 39.6497 77.8651 39.9262 78.0302C40.4851 78.3636 41.0329 78.7205 41.5546 79.0909C41.6205 79.1377 41.672 79.1938 41.7082 79.2549ZM37.3386 76.7884C37.4232 76.9311 37.428 77.1044 37.3336 77.2563C37.1768 77.5081 36.806 77.6052 36.5053 77.4731C35.9286 77.2198 35.3326 76.9839 34.7339 76.7719C34.421 76.6616 34.2738 76.3596 34.4052 76.0972C34.5365 75.8352 34.8962 75.7126 35.209 75.8232C35.8391 76.0462 36.4663 76.2945 37.0731 76.5611C37.1924 76.6136 37.2828 76.6943 37.3386 76.7884ZM32.4341 75.1783C32.4984 75.2868 32.5177 75.4145 32.4774 75.5407C32.3899 75.8152 32.0533 75.9777 31.7258 75.9036C31.0969 75.7614 30.4544 75.6397 29.8155 75.5423C29.4818 75.4914 29.2597 75.2236 29.3197 74.9434C29.3798 74.6636 29.6987 74.4781 30.0326 74.529C30.7049 74.6317 31.3814 74.7596 32.043 74.9093C32.22 74.9494 32.3583 75.0504 32.4341 75.1783ZM27.2306 74.5029C27.2751 74.5781 27.2984 74.6633 27.294 74.7531C27.2802 75.0372 26.9944 75.2575 26.6557 75.2453C26.0057 75.2216 25.3474 75.2211 24.6988 75.2437C24.3601 75.2555 24.0733 75.0343 24.0584 74.7506C24.0435 74.4664 24.3062 74.2265 24.6449 74.2147C25.3281 74.1909 26.0214 74.1915 26.7056 74.2163C26.9376 74.2248 27.134 74.34 27.2306 74.5029ZM21.9779 74.8018C22.003 74.8441 22.0214 74.89 22.0321 74.9387C22.0933 75.2185 21.8725 75.4865 21.5391 75.5371C20.9009 75.634 20.2593 75.7551 19.6318 75.8972C19.3045 75.9712 18.9671 75.8078 18.8781 75.534C18.789 75.2594 18.9821 74.9768 19.3093 74.9027C19.9699 74.7532 20.6454 74.6257 21.3173 74.5237C21.5927 74.4819 21.8591 74.6013 21.9779 74.8018ZM16.9381 76.0606C16.9437 76.0701 16.9489 76.0798 16.9539 76.0896C17.0863 76.3517 16.9404 76.6537 16.6283 76.764C16.1876 76.9198 15.7476 77.0888 15.3199 77.2665C15.1651 77.3308 15.0114 77.3966 14.8591 77.4633C14.5588 77.5949 14.1876 77.4972 14.0301 77.2451C13.8645 76.9925 13.988 76.682 14.288 76.5504C14.4483 76.48 14.6097 76.4111 14.7727 76.3434C15.2225 76.1565 15.6857 75.9787 16.1491 75.8149C16.4495 75.7086 16.7946 75.8186 16.9381 76.0606Z" fill="url(#paint13_linear_46_741)"/>
<path d="M49.9134 97.5919C49.9678 97.6837 49.9903 97.7897 49.9707 97.8984C49.9208 98.174 49.863 98.4538 49.7988 98.7302C49.7341 99.0093 49.4118 99.191 49.079 99.136C48.7461 99.0809 48.5286 98.8105 48.5935 98.5312C48.6543 98.2687 48.7093 98.0029 48.7567 97.7413C48.8075 97.4603 49.1206 97.2675 49.4558 97.3109C49.6613 97.3376 49.8274 97.4468 49.9134 97.5919Z" fill="url(#paint14_linear_46_741)"/>
</g>
<path d="M43.1697 99.6176C43.2201 99.5242 43.1942 99.414 43.1052 99.3434L40.5655 97.3275C40.8806 95.9859 40.9428 94.592 40.724 93.1957L43.4092 91.331C43.5035 91.2656 43.5376 91.1572 43.4944 91.0611L42.0152 87.7707C41.972 87.6745 41.8608 87.6119 41.7385 87.6145L38.2497 87.6919C37.3145 86.5209 36.1697 85.5067 34.8758 84.6712L35.1983 81.755C35.2095 81.6528 35.1423 81.5557 35.0308 81.5132L31.2134 80.0583C31.1018 80.0157 30.9706 80.0372 30.8866 80.1117L28.4892 82.2371C26.889 81.9696 25.2269 81.914 23.5627 82.0943L21.3331 79.8375C21.2549 79.7584 21.1256 79.7294 21.011 79.7654L17.0916 80.9983C16.9771 81.0343 16.9025 81.1274 16.9061 81.23L17.0067 84.1565C15.6128 84.9381 14.4063 85.8958 13.4134 86.9791L9.9357 86.7017C9.81388 86.692 9.69822 86.7482 9.64781 86.8416L7.92239 90.04C7.87192 90.1334 7.89787 90.2436 7.98687 90.3143L10.5266 92.3301C10.2114 93.6717 10.1492 95.0656 10.3681 96.4619L7.68276 98.3266C7.58859 98.392 7.5544 98.5004 7.59755 98.5965L9.07681 101.887C9.12002 101.983 9.23112 102.046 9.35354 102.043L12.8424 101.966C13.7775 103.137 14.9224 104.151 16.2163 104.986L15.8938 107.903C15.8825 108.005 15.9498 108.102 16.0613 108.144L19.8787 109.599C19.9902 109.642 20.1215 109.62 20.2056 109.546L22.6029 107.421C24.2032 107.688 25.8653 107.744 27.5294 107.563L29.759 109.82C29.8371 109.899 29.9665 109.928 30.081 109.892L34.0004 108.659C34.1149 108.623 34.1894 108.53 34.1859 108.428L34.0853 105.501C35.4791 104.72 36.6855 103.762 37.6786 102.678L41.1561 102.956C41.2781 102.966 41.3936 102.909 41.4441 102.816L43.1697 99.6176Z" fill="url(#paint15_linear_46_741)"/>
<path opacity="0.7" d="M29.3174 93.2643C30.2321 94.8075 29.6858 96.7231 27.9521 97.732C26.0463 98.8409 23.417 98.4406 22.0902 96.8396C21.4473 96.0641 21.2028 95.1257 21.4011 94.1976C21.5993 93.2694 22.2169 92.4623 23.1401 91.9252C25.0459 90.8162 27.6753 91.2166 29.002 92.8175C29.1216 92.9619 29.2267 93.1113 29.3174 93.2643ZM22.6522 96.0245C22.7229 96.1436 22.8042 96.2592 22.8964 96.3705C23.9135 97.598 25.9299 97.9048 27.3908 97.0548C28.8518 96.2045 29.2138 94.5142 28.1959 93.2866C27.1788 92.0591 25.1625 91.7523 23.7016 92.6023C22.9937 93.0143 22.5202 93.633 22.3681 94.3447C22.2446 94.9232 22.3455 95.5069 22.6522 96.0245Z" fill="white"/>
<path opacity="0.7" d="M34.7239 90.9377C34.881 91.2027 35.0231 91.4759 35.1493 91.7565C35.1891 91.8448 35.2271 91.9338 35.2635 92.0231C35.4425 92.4639 35.5796 92.9158 35.6725 93.3718C35.6737 93.378 35.675 93.3842 35.6763 93.3905C35.6798 93.4081 35.6833 93.4258 35.6866 93.4435C35.6934 93.4779 35.6996 93.5124 35.7058 93.5467C35.722 93.6373 35.6653 93.7227 35.5726 93.7614C35.5501 93.7707 35.5254 93.7773 35.4992 93.7806C35.3651 93.7972 35.2404 93.7191 35.2201 93.6068C35.1169 93.0276 34.9384 92.4538 34.6898 91.9012C33.4563 89.156 30.6606 87.278 27.4699 86.7107C25.6952 86.3949 23.7983 86.4849 21.9797 87.0571C21.6607 87.1573 21.3503 87.2704 21.0493 87.3956C19.0235 88.2374 17.4195 89.6272 16.475 91.3783C15.3898 93.3896 15.3045 95.637 16.2347 97.7061C18.1563 101.979 23.857 104.151 28.9448 102.55C29.2585 102.452 29.5651 102.34 29.8632 102.216C31.1554 101.679 32.2924 100.91 33.1895 99.9621C33.2127 99.9376 33.2411 99.9187 33.2725 99.9058C33.3549 99.8716 33.4573 99.8778 33.5344 99.9292C33.6405 100 33.659 100.13 33.5743 100.219C32.6325 101.214 31.4388 102.021 30.0822 102.585C29.7692 102.715 29.4475 102.832 29.1183 102.936C23.7765 104.616 17.7904 102.334 15.775 97.8507C14.7984 95.6785 14.8881 93.3193 16.0273 91.2078C17.0189 89.3695 18.7027 87.9105 20.8294 87.0266C21.1454 86.8953 21.4714 86.7766 21.806 86.6713C24.3938 85.8573 27.2067 85.9381 29.7269 86.8986C31.9214 87.7348 33.6651 89.1513 34.7239 90.9377Z" fill="white"/>
<g opacity="0.3">
<path d="M62.9439 121.215C63.017 121.338 62.9886 121.492 62.862 121.59C62.6259 121.773 62.3799 121.952 62.1309 122.123C61.9691 122.234 61.7304 122.214 61.5972 122.078C61.4635 121.943 61.4879 121.742 61.6497 121.631C61.8869 121.468 62.1214 121.297 62.3468 121.122C62.5001 121.003 62.7401 121.011 62.8826 121.14C62.9079 121.163 62.9282 121.188 62.9439 121.215Z" fill="url(#paint16_linear_46_741)"/>
<path d="M60.6315 122.701C60.7172 122.846 60.6603 123.024 60.4944 123.111C60.0258 123.359 59.5366 123.589 59.0407 123.795C58.9362 123.838 58.8309 123.881 58.7247 123.923C58.535 123.997 58.3113 123.917 58.2197 123.77C58.1304 123.611 58.2115 123.421 58.4007 123.347C58.5023 123.307 58.603 123.266 58.7028 123.225C59.1758 123.028 59.6424 122.809 60.0893 122.573C60.2665 122.479 60.5005 122.524 60.6125 122.673C60.6194 122.682 60.6259 122.692 60.6315 122.701ZM57.0703 124.103C57.0783 124.116 57.0855 124.131 57.0913 124.145C57.1569 124.312 57.0489 124.492 56.85 124.547C56.2119 124.722 55.5551 124.866 54.8982 124.974C54.6927 125.008 54.4932 124.894 54.4524 124.723C54.4117 124.55 54.545 124.384 54.7504 124.35C55.3773 124.247 56.0037 124.109 56.6122 123.942C56.7935 123.892 56.9877 123.963 57.0703 124.103ZM53.2083 124.737C53.2297 124.773 53.2432 124.814 53.247 124.856C53.262 125.032 53.1045 125.183 52.8957 125.196C52.2265 125.234 51.5468 125.238 50.876 125.207C50.6667 125.198 50.5065 125.048 50.5175 124.872C50.5285 124.697 50.707 124.562 50.916 124.572C51.5558 124.602 52.2035 124.598 52.8418 124.561C52.9996 124.552 53.1418 124.625 53.2083 124.737ZM49.276 124.556C49.311 124.615 49.3243 124.683 49.3098 124.753C49.273 124.926 49.076 125.041 48.8698 125.009C48.208 124.909 47.548 124.774 46.9076 124.606C46.7076 124.554 46.5959 124.375 46.6575 124.208C46.7192 124.04 46.9315 123.947 47.1318 123.999C47.742 124.158 48.3719 124.288 49.0028 124.383C49.1258 124.402 49.2242 124.468 49.276 124.556ZM45.5136 123.574C45.5625 123.656 45.5686 123.756 45.5201 123.846C45.4344 124.006 45.21 124.077 45.0189 124.005C44.4066 123.773 43.8054 123.507 43.2322 123.215C43.0525 123.124 42.9956 122.928 43.1041 122.778C43.2127 122.628 43.446 122.58 43.6248 122.672C44.1719 122.95 44.7453 123.204 45.3297 123.425C45.4128 123.457 45.4759 123.51 45.5136 123.574ZM42.1476 121.857C42.2109 121.964 42.1997 122.096 42.1059 122.196C41.9763 122.334 41.738 122.357 41.5734 122.248C41.0464 121.898 40.5403 121.517 40.0696 121.117C39.9225 120.99 39.9243 120.79 40.0732 120.667C40.2221 120.544 40.4624 120.545 40.6093 120.671C41.0582 121.053 41.5405 121.416 42.043 121.749C42.0886 121.779 42.1234 121.816 42.1476 121.857ZM39.383 119.504C39.4622 119.637 39.4205 119.803 39.2745 119.897C39.1084 120.004 38.8703 119.977 38.7426 119.838C38.335 119.392 37.9555 118.919 37.6142 118.431C37.5108 118.278 37.5686 118.085 37.7492 117.996C37.9296 117.907 38.1619 117.959 38.2683 118.11C38.5934 118.575 38.9555 119.026 39.3442 119.451C39.3594 119.468 39.3723 119.486 39.383 119.504ZM36.7166 115.095C36.7263 115.112 36.7346 115.129 36.741 115.148C36.897 115.593 37.0848 116.039 37.2993 116.473C37.3313 116.539 37.3637 116.603 37.397 116.667C37.4803 116.829 37.3924 117.016 37.2003 117.085C37.008 117.155 36.7786 117.082 36.7013 116.92C36.6661 116.851 36.6315 116.783 36.5979 116.714C36.374 116.26 36.1771 115.793 36.0136 115.326C35.9545 115.157 36.0693 114.981 36.2703 114.932C36.4492 114.888 36.6361 114.96 36.7166 115.095Z" fill="url(#paint17_linear_46_741)"/>
</g>
<g opacity="0.3">
<path d="M66.2907 105.229C66.383 105.385 66.3092 105.574 66.1244 105.653C65.9383 105.733 65.7095 105.671 65.6139 105.515C65.3257 105.044 65.0008 104.584 64.6482 104.147C64.533 104.002 64.5756 103.804 64.7492 103.705C64.9227 103.607 65.1584 103.646 65.276 103.791C65.6455 104.249 65.9863 104.732 66.2884 105.225C66.2884 105.225 66.2899 105.228 66.2907 105.229ZM67.0723 106.72C67.0784 106.73 67.0838 106.741 67.0886 106.752C67.3182 107.271 67.5123 107.808 67.6657 108.347C67.7142 108.518 67.5889 108.689 67.3852 108.729C67.1813 108.77 66.9769 108.663 66.928 108.493C66.7816 107.979 66.5963 107.467 66.3775 106.971C66.3047 106.807 66.4049 106.624 66.6012 106.563C66.7849 106.506 66.9872 106.576 67.0723 106.72ZM64.1168 102.537C64.1918 102.664 64.1594 102.821 64.0269 102.918C63.8696 103.034 63.63 103.02 63.492 102.887C63.0763 102.488 62.6286 102.107 62.1605 101.755C62.0048 101.636 61.9914 101.436 62.1314 101.305C62.271 101.175 62.5109 101.164 62.6669 101.282C63.1575 101.652 63.627 102.051 64.0625 102.469C64.0846 102.491 64.1026 102.514 64.1168 102.537ZM67.9709 109.883C67.9901 109.915 68.0031 109.951 68.0083 109.989C68.0823 110.54 68.1164 111.1 68.1095 111.653C68.1074 111.829 67.9358 111.97 67.7263 111.968C67.5175 111.965 67.3494 111.821 67.3512 111.645C67.3576 111.118 67.3251 110.584 67.2547 110.059C67.2314 109.884 67.381 109.727 67.5891 109.708C67.7517 109.693 67.902 109.766 67.9709 109.883ZM61.2331 100.365C61.2929 100.466 61.287 100.59 61.2049 100.689C61.0849 100.833 60.8485 100.868 60.6769 100.767C60.1609 100.464 59.6175 100.184 59.0612 99.9354C58.8758 99.8527 58.8057 99.6599 58.904 99.5049C59.0021 99.35 59.2318 99.2914 59.4168 99.3741C59.9998 99.6349 60.5698 99.928 61.1109 100.246C61.1648 100.277 61.2058 100.319 61.2331 100.365ZM57.8138 98.8348C57.8596 98.9121 57.868 99.0043 57.8284 99.0909C57.7532 99.2546 57.5337 99.3361 57.3383 99.2726C56.7494 99.0815 56.1418 98.9186 55.5326 98.7886C55.3293 98.7452 55.2062 98.5718 55.2575 98.4018C55.3086 98.2316 55.5146 98.1288 55.7176 98.1722C56.3565 98.3085 56.9935 98.4791 57.6105 98.6794C57.7026 98.7092 57.773 98.766 57.8138 98.8348ZM54.0575 98.0348C54.0896 98.0891 54.1039 98.1515 54.094 98.2162C54.0679 98.3904 53.8781 98.5135 53.6702 98.4911C53.0446 98.4234 52.4086 98.3875 51.78 98.3845C51.571 98.3832 51.4015 98.2401 51.4023 98.0645C51.4031 97.8888 51.5734 97.7473 51.783 97.7483C52.442 97.7517 53.1092 97.7892 53.7655 97.86C53.8962 97.8742 54.0028 97.9426 54.0575 98.0348Z" fill="url(#paint18_linear_46_741)"/>
<path d="M67.9297 113.146C67.9623 113.201 67.9763 113.265 67.9658 113.33C67.9229 113.6 67.87 113.87 67.8092 114.132C67.7691 114.305 67.5701 114.417 67.3644 114.383C67.1594 114.349 67.025 114.182 67.0645 114.009C67.1227 113.759 67.1729 113.502 67.2142 113.244C67.2419 113.07 67.4329 112.948 67.6403 112.972C67.7699 112.987 67.8755 113.055 67.9297 113.146Z" fill="url(#paint19_linear_46_741)"/>
</g>
<path d="M63.4044 114.731C63.4382 114.669 63.4209 114.595 63.3613 114.548L61.6618 113.199C61.8727 112.301 61.9144 111.368 61.7679 110.434L63.5647 109.186C63.6278 109.142 63.6507 109.07 63.6217 109.006L62.632 106.804C62.603 106.739 62.5287 106.697 62.4468 106.699L60.1122 106.751C59.4864 105.967 58.7204 105.289 57.8546 104.73L58.0704 102.778C58.0779 102.71 58.0329 102.645 57.9583 102.617L55.4039 101.643C55.3291 101.615 55.2414 101.629 55.1851 101.679L53.5809 103.101C52.5101 102.922 51.3979 102.885 50.2843 103.005L48.7924 101.495C48.7401 101.442 48.6536 101.423 48.5769 101.447L45.9542 102.272C45.8776 102.296 45.8277 102.358 45.8301 102.427L45.8974 104.385C44.9647 104.908 44.1574 105.549 43.493 106.274L41.1659 106.088C41.0843 106.082 41.0069 106.12 40.9732 106.182L39.8186 108.322C39.7849 108.385 39.8023 108.459 39.8618 108.506L41.5613 109.855C41.3503 110.752 41.3087 111.685 41.4552 112.62L39.6582 113.867C39.5952 113.911 39.5723 113.984 39.6012 114.048L40.5911 116.25C40.62 116.314 40.6943 116.356 40.7762 116.354L43.1107 116.302C43.7365 117.086 44.5026 117.765 45.3684 118.324L45.1526 120.275C45.145 120.343 45.1901 120.408 45.2647 120.437L47.8191 121.41C47.8938 121.439 47.9816 121.425 48.0379 121.375L49.6421 119.952C50.7129 120.132 51.8251 120.169 52.9387 120.048L54.4306 121.558C54.4829 121.611 54.5695 121.631 54.6461 121.606L57.2687 120.781C57.3454 120.757 57.3952 120.695 57.3929 120.626L57.3256 118.668C58.2582 118.145 59.0656 117.504 59.73 116.779L62.0571 116.965C62.1386 116.971 62.216 116.934 62.2498 116.871L63.4044 114.731Z" fill="url(#paint20_linear_46_741)"/>
<path opacity="0.7" d="M54.1819 110.464C54.4545 110.924 54.5441 111.443 54.4344 111.957C54.2993 112.589 53.8785 113.139 53.2497 113.505C51.9521 114.26 50.161 113.987 49.2569 112.897C48.3544 111.803 48.6743 110.304 49.9722 109.549C50.6011 109.183 51.3628 109.045 52.1167 109.16C52.871 109.274 53.5275 109.629 53.9652 110.157C54.0468 110.256 54.1193 110.359 54.1819 110.464ZM49.7214 112.311C49.7669 112.387 49.8195 112.462 49.8793 112.535C50.5443 113.337 51.8618 113.537 52.8165 112.982C53.2788 112.712 53.5887 112.308 53.6878 111.843C53.7871 111.378 53.664 110.908 53.3426 110.519C53.0206 110.131 52.5376 109.87 51.9831 109.785C51.4281 109.701 50.8679 109.803 50.4053 110.072C49.5369 110.577 49.2631 111.537 49.7214 112.311Z" fill="white"/>
<path opacity="0.7" d="M57.9482 108.849C58.0551 109.03 58.1519 109.216 58.2386 109.408C58.4105 109.79 58.5362 110.187 58.6124 110.589C58.6157 110.607 58.6189 110.625 58.6222 110.643C58.6473 110.783 58.5597 110.915 58.4166 110.974C58.3818 110.989 58.3436 110.999 58.3032 111.004C58.0961 111.03 57.9039 110.909 57.8723 110.736C57.8054 110.36 57.6897 109.989 57.5291 109.632L57.529 109.632C57.5202 109.612 57.511 109.592 57.5021 109.573C57.1126 108.731 56.488 108.002 55.688 107.433C55.2536 107.124 54.7672 106.863 54.2377 106.656C54.2335 106.654 54.2292 106.653 54.2248 106.651C54.2115 106.646 54.1985 106.641 54.1852 106.636C52.6311 106.043 50.8965 105.994 49.3009 106.496C49.0943 106.56 48.8935 106.634 48.6985 106.715C47.3871 107.26 46.3488 108.159 45.7371 109.293C45.0347 110.595 44.9797 112.05 45.5819 113.389C46.1843 114.728 47.3716 115.793 48.9255 116.385C50.4797 116.977 52.2143 117.027 53.8099 116.525C54.013 116.462 54.2114 116.389 54.4043 116.309C55.241 115.961 55.977 115.464 56.5576 114.85C56.5935 114.812 56.6373 114.783 56.6858 114.763C56.8132 114.71 56.9714 114.72 57.0903 114.799C57.2541 114.909 57.2823 115.109 57.152 115.246C56.5022 115.933 55.6787 116.49 54.743 116.879C54.5268 116.969 54.305 117.05 54.0779 117.121C52.2925 117.683 50.3519 117.627 48.6131 116.964C46.8746 116.301 45.5452 115.112 44.8723 113.613C44.1984 112.114 44.2601 110.486 45.0463 109.03C45.7304 107.761 46.8921 106.755 48.3594 106.145C48.5772 106.054 48.8021 105.972 49.0329 105.9C52.4893 104.813 56.3363 106.13 57.9482 108.849Z" fill="white"/>
<defs>
<linearGradient id="paint0_linear_46_741" x1="178.251" y1="162.27" x2="74.3859" y2="0.741887" gradientUnits="userSpaceOnUse">
<stop stop-color="#DAE3FE"/>
<stop offset="1" stop-color="#E9EFFD"/>
</linearGradient>
<linearGradient id="paint1_linear_46_741" x1="110.527" y1="123.073" x2="96.7388" y2="78.6259" gradientUnits="userSpaceOnUse">
<stop stop-color="#FEBBBA"/>
<stop offset="1" stop-color="#FF928E"/>
</linearGradient>
<linearGradient id="paint2_linear_46_741" x1="110.839" y1="259.249" x2="67.3183" y2="-377.692" gradientUnits="userSpaceOnUse">
<stop stop-color="#FEBBBA"/>
<stop offset="1" stop-color="#FF928E"/>
</linearGradient>
<linearGradient id="paint3_linear_46_741" x1="108.393" y1="56.0972" x2="99.6641" y2="56.0972" gradientUnits="userSpaceOnUse">
<stop stop-color="#FEBBBA"/>
<stop offset="1" stop-color="#FF928E"/>
</linearGradient>
<linearGradient id="paint4_linear_46_741" x1="115.464" y1="54.6112" x2="102.152" y2="77.1846" gradientUnits="userSpaceOnUse">
<stop stop-color="#4F52FF"/>
<stop offset="1" stop-color="#4042E2"/>
</linearGradient>
<linearGradient id="paint5_linear_46_741" x1="98.8597" y1="40.5438" x2="92.6602" y2="40.5438" gradientUnits="userSpaceOnUse">
<stop stop-color="#FEBBBA"/>
<stop offset="1" stop-color="#FF928E"/>
</linearGradient>
<linearGradient id="paint6_linear_46_741" x1="170.903" y1="33.611" x2="146.823" y2="43.5122" gradientUnits="userSpaceOnUse">
<stop stop-color="#FF928E"/>
<stop offset="1" stop-color="#FE7062"/>
</linearGradient>
<linearGradient id="paint7_linear_46_741" x1="62.4864" y1="43.3667" x2="109.505" y2="77.0963" gradientUnits="userSpaceOnUse">
<stop stop-color="#FEBBBA"/>
<stop offset="1" stop-color="#FF928E"/>
</linearGradient>
<linearGradient id="paint8_linear_46_741" x1="57.1591" y1="50.7929" x2="104.178" y2="84.5225" gradientUnits="userSpaceOnUse">
<stop stop-color="#FEBBBA"/>
<stop offset="1" stop-color="#FF928E"/>
</linearGradient>
<linearGradient id="paint9_linear_46_741" x1="88.5347" y1="40.5418" x2="97.2203" y2="24.6378" gradientUnits="userSpaceOnUse">
<stop stop-color="#FEBBBA"/>
<stop offset="1" stop-color="#FF928E"/>
</linearGradient>
<linearGradient id="paint10_linear_46_741" x1="27.1931" y1="116.941" x2="16.1898" y2="89.1733" gradientUnits="userSpaceOnUse">
<stop stop-color="#FF928E"/>
<stop offset="1" stop-color="#FE7062"/>
</linearGradient>
<linearGradient id="paint11_linear_46_741" x1="2.47428" y1="93.0012" x2="1.82072" y2="91.3519" gradientUnits="userSpaceOnUse">
<stop stop-color="#FF928E"/>
<stop offset="1" stop-color="#FE7062"/>
</linearGradient>
<linearGradient id="paint12_linear_46_741" x1="11.7312" y1="79.2119" x2="11.2792" y2="78.0713" gradientUnits="userSpaceOnUse">
<stop stop-color="#FF928E"/>
<stop offset="1" stop-color="#FE7062"/>
</linearGradient>
<linearGradient id="paint13_linear_46_741" x1="41.6466" y1="98.8148" x2="30.302" y2="70.1858" gradientUnits="userSpaceOnUse">
<stop stop-color="#FF928E"/>
<stop offset="1" stop-color="#FE7062"/>
</linearGradient>
<linearGradient id="paint14_linear_46_741" x1="49.7496" y1="98.9815" x2="49.1042" y2="97.3526" gradientUnits="userSpaceOnUse">
<stop stop-color="#FF928E"/>
<stop offset="1" stop-color="#FE7062"/>
</linearGradient>
<linearGradient id="paint15_linear_46_741" x1="30.1193" y1="81.4634" x2="21.3733" y2="121.543" gradientUnits="userSpaceOnUse">
<stop stop-color="#FF928E"/>
<stop offset="1" stop-color="#FE7062"/>
</linearGradient>
<linearGradient id="paint16_linear_46_741" x1="62.4821" y1="121.995" x2="62.1593" y2="121.18" gradientUnits="userSpaceOnUse">
<stop stop-color="#FF928E"/>
<stop offset="1" stop-color="#FE7062"/>
</linearGradient>
<linearGradient id="paint17_linear_46_741" x1="52.6932" y1="126.313" x2="46.565" y2="110.848" gradientUnits="userSpaceOnUse">
<stop stop-color="#FF928E"/>
<stop offset="1" stop-color="#FE7062"/>
</linearGradient>
<linearGradient id="paint18_linear_46_741" x1="65.7449" y1="112.788" x2="58.6872" y2="94.9777" gradientUnits="userSpaceOnUse">
<stop stop-color="#FF928E"/>
<stop offset="1" stop-color="#FE7062"/>
</linearGradient>
<linearGradient id="paint19_linear_46_741" x1="67.8694" y1="114.252" x2="67.3805" y2="113.018" gradientUnits="userSpaceOnUse">
<stop stop-color="#FF928E"/>
<stop offset="1" stop-color="#FE7062"/>
</linearGradient>
<linearGradient id="paint20_linear_46_741" x1="57.3555" y1="96.1064" x2="48.5709" y2="133.086" gradientUnits="userSpaceOnUse">
<stop stop-color="#FF928E"/>
<stop offset="1" stop-color="#FE7062"/>
</linearGradient>
</defs>
</svg>
