<svg width="40" height="40" viewBox="0 0 40 40" fill="none" xmlns="http://www.w3.org/2000/svg">
<path d="M11.4719 31.25C11.3974 31.25 11.3229 31.25 11.2479 31.2497C9.48414 31.2539 7.85449 31.2091 6.26966 31.1127C4.81666 31.0243 3.49035 30.5222 2.43391 29.6608C1.41454 28.8296 0.71843 27.7057 0.364966 26.3207C0.0573371 25.115 0.0410286 23.9314 0.0254069 22.7866C0.0140767 21.9652 0.00240335 20.9918 0 20.002C0.00240335 19.0081 0.0140767 18.0348 0.0254069 17.2134C0.0410286 16.0687 0.0573371 14.8851 0.364966 13.6792C0.71843 12.2942 1.41454 11.1704 2.43391 10.3392C3.49035 9.47778 4.81666 8.97567 6.26983 8.88727C7.85467 8.79096 9.48465 8.74599 11.2521 8.75028C13.0164 8.7465 14.6455 8.79096 16.2303 8.88727C17.6833 8.97567 19.0096 9.47778 20.0661 10.3392C21.0856 11.1704 21.7816 12.2942 22.135 13.6792C22.4427 14.885 22.459 16.0687 22.4746 17.2134C22.4859 18.0348 22.4978 19.0081 22.5 19.9979V20.002C22.4978 20.9918 22.4859 21.9652 22.4746 22.7866C22.459 23.9312 22.4428 25.1148 22.135 26.3207C21.7816 27.7057 21.0856 28.8296 20.0661 29.6608C19.0096 30.5222 17.6833 31.0243 16.2303 31.1127C14.7126 31.205 13.1535 31.25 11.4719 31.25ZM11.2479 29.4918C12.9829 29.496 14.576 29.4522 16.1236 29.3581C17.2222 29.2913 18.1748 28.9348 18.9552 28.2984C19.6766 27.7102 20.1734 26.8985 20.4317 25.8861C20.6879 24.8824 20.7026 23.8047 20.7169 22.7625C20.728 21.9466 20.7397 20.9802 20.7421 20C20.7397 19.0196 20.728 18.0533 20.7169 17.2374C20.7026 16.1953 20.6879 15.1176 20.4317 14.1137C20.1734 13.1012 19.6766 12.2896 18.9552 11.7013C18.1748 11.0651 17.2222 10.7086 16.1236 10.6418C14.576 10.5476 12.9829 10.5041 11.252 10.5079C9.51727 10.5038 7.92402 10.5476 6.37643 10.6418C5.27776 10.7086 4.32517 11.0651 3.54477 11.7013C2.82342 12.2896 2.32662 13.1012 2.06826 14.1137C1.81213 15.1176 1.79736 16.1951 1.78311 17.2374C1.77196 18.054 1.76028 19.021 1.75788 20.002C1.76028 20.9788 1.77196 21.9459 1.78311 22.7625C1.79736 23.8047 1.81213 24.8824 2.06826 25.8861C2.32662 26.8985 2.82342 27.7102 3.54477 28.2984C4.32517 28.9346 5.27776 29.2912 6.37643 29.3579C7.92402 29.4522 9.51761 29.4961 11.2479 29.4918ZM11.206 25.4931C8.17706 25.4931 5.71259 23.0289 5.71259 20C5.71259 16.971 8.17706 14.5068 11.206 14.5068C14.235 14.5068 16.6993 16.971 16.6993 20C16.6993 23.0289 14.235 25.4931 11.206 25.4931ZM11.206 16.2646C9.1463 16.2646 7.47047 17.9404 7.47047 20C7.47047 22.0596 9.1463 23.7353 11.206 23.7353C13.2658 23.7353 14.9415 22.0596 14.9415 20C14.9415 17.9404 13.2658 16.2646 11.206 16.2646ZM17.3146 12.749C16.5866 12.749 15.9962 13.3391 15.9962 14.0673C15.9962 14.7955 16.5866 15.3857 17.3146 15.3857C18.0428 15.3857 18.633 14.7955 18.633 14.0673C18.633 13.3391 18.0428 12.749 17.3146 12.749Z" fill="black"/>
</svg>
