<svg width="40" height="40" viewBox="0 0 40 40" fill="none" xmlns="http://www.w3.org/2000/svg">
<path d="M28.7497 28.7497V22.3404C28.7497 19.1904 28.0716 16.7842 24.3966 16.7842C22.6248 16.7842 21.4435 17.7467 20.9623 18.6654H20.9185V17.0686H17.4404V28.7497H21.0717V22.9529C21.0717 21.4216 21.356 19.956 23.2373 19.956C25.0966 19.956 25.1185 21.6841 25.1185 23.0404V28.7279H28.7497V28.7497Z" fill="black"/>
<path d="M11.5342 17.0693H15.1654V28.7505H11.5342V17.0693Z" fill="black"/>
<path d="M13.35 11.25C12.1906 11.25 11.25 12.1906 11.25 13.35C11.25 14.5094 12.1906 15.4718 13.35 15.4718C14.5094 15.4718 15.45 14.5094 15.45 13.35C15.45 12.1906 14.5094 11.25 13.35 11.25Z" fill="black"/>
</svg>
