<svg width="29" height="32" viewBox="0 0 29 32" fill="none" xmlns="http://www.w3.org/2000/svg">
<path d="M27.02 13.4451L4.42529 0.399902C3.50171 -0.133301 2.39893 -0.133301 1.4751 0.399902C1.46753 0.404297 1.46069 0.40918 1.45312 0.413574C1.43994 0.421387 1.42676 0.429443 1.41382 0.437988C0.527832 0.977783 0 1.9126 0 2.95483V29.0452C0 30.1118 0.551514 31.0669 1.4751 31.6001C1.93701 31.8667 2.4436 32 2.9502 32C3.45679 32 3.96362 31.8667 4.42529 31.6001L27.0203 18.5549C27.9438 18.0217 28.4954 17.0667 28.4954 16C28.4954 14.9333 27.9438 13.9783 27.02 13.4451ZM1.89868 29.2671C1.88501 29.1985 1.87671 29.125 1.87671 29.0452V2.95483C1.87671 2.81445 1.90039 2.69214 1.93823 2.58569L14.7085 15.9058L1.89868 29.2671ZM4.6377 2.68945L19.2764 11.1411L16.0085 14.5498L4.6377 2.68945ZM4.23267 29.5444L16.0083 17.2615L19.3928 20.7917L4.23267 29.5444ZM26.0818 16.9297L21.0662 19.8254L17.3083 15.9058L20.9497 12.1074L26.0818 15.0703C26.5662 15.3501 26.6187 15.8137 26.6187 16C26.6187 16.1863 26.5662 16.6499 26.0818 16.9297Z" fill="black"/>
</svg>
