<svg width="37" height="36" viewBox="0 0 37 36" fill="none" xmlns="http://www.w3.org/2000/svg">
<g clip-path="url(#clip0_236_46)">
<path d="M18.4996 15.0001C20.1496 15.0001 21.4996 16.3501 21.4996 18.0001C21.4996 19.6501 20.1496 21.0001 18.4996 21.0001C16.8496 21.0001 15.4996 19.6501 15.4996 18.0001C15.4996 16.3501 16.8496 15.0001 18.4996 15.0001ZM31.2346 30.7351C38.2546 23.7151 38.2546 12.3001 31.2346 5.28006C30.6496 4.69506 29.7046 4.69506 29.1196 5.28006C28.5346 5.86506 28.5346 6.81006 29.1196 7.39506C34.9696 13.2451 34.9696 22.7551 29.1196 28.6051C28.5346 29.1901 28.5346 30.1351 29.1196 30.7201C29.4196 31.0201 29.7946 31.1551 30.1846 31.1551C30.5746 31.1551 30.9496 31.0051 31.2496 30.7201L31.2346 30.7351ZM25.9246 25.4251C27.9046 23.4451 28.9996 20.8051 28.9996 18.0001C28.9996 15.1951 27.9046 12.5551 25.9246 10.5751C25.3396 9.99006 24.3946 9.99006 23.8096 10.5751C23.2246 11.1601 23.2246 12.1051 23.8096 12.6901C25.2196 14.1001 25.9996 15.9901 25.9996 18.0001C25.9996 20.0101 25.2196 21.8851 23.8096 23.3101C23.2246 23.8951 23.2246 24.8401 23.8096 25.4251C24.1096 25.7251 24.4846 25.8601 24.8746 25.8601C25.2646 25.8601 25.6396 25.7101 25.9396 25.4251H25.9246ZM7.89457 30.7351C8.47957 30.1501 8.47957 29.2051 7.89457 28.6201C2.04457 22.7701 2.04457 13.2601 7.89457 7.41006C8.47957 6.82506 8.47957 5.88006 7.89457 5.29506C7.30957 4.71006 6.36457 4.71006 5.77957 5.29506C-1.24043 12.2851 -1.24043 23.7151 5.76457 30.7351C6.06457 31.0351 6.43957 31.1701 6.82957 31.1701C7.21957 31.1701 7.59457 31.0201 7.89457 30.7351ZM13.2046 25.4251C13.7896 24.8401 13.7896 23.8951 13.2046 23.3101C10.2796 20.3851 10.2796 15.6301 13.2046 12.7051C13.7896 12.1201 13.7896 11.1751 13.2046 10.5901C12.6196 10.0051 11.6746 10.0051 11.0896 10.5901C6.99457 14.6851 6.99457 21.3451 11.0896 25.4401C11.3896 25.7401 11.7646 25.8751 12.1546 25.8751C12.5446 25.8751 12.9196 25.7251 13.2196 25.4401L13.2046 25.4251Z" fill="black"/>
</g>
<defs>
<clipPath id="clip0_236_46">
<rect width="36" height="36" fill="white" transform="translate(0.5)"/>
</clipPath>
</defs>
</svg>
