<svg width="37" height="36" viewBox="0 0 37 36" fill="none" xmlns="http://www.w3.org/2000/svg">
<path d="M23.607 22.2891C22.1345 23.3958 20.3423 23.9942 18.5002 23.9942C16.6582 23.9942 14.866 23.3958 13.3934 22.2891C13.073 22.0658 12.678 21.9763 12.2926 22.0395C11.9071 22.1028 11.5616 22.3139 11.3293 22.6279C11.097 22.9419 10.9964 23.3342 11.0487 23.7213C11.101 24.1083 11.3023 24.4598 11.6096 24.7008C13.5991 26.1906 16.0176 26.9958 18.5031 26.9958C20.9885 26.9958 23.407 26.1906 25.3965 24.7008C25.7163 24.4635 25.9288 24.1089 25.9871 23.715C26.0455 23.321 25.9449 22.92 25.7076 22.6002C25.5901 22.4419 25.4426 22.3082 25.2734 22.2069C25.1043 22.1055 24.9168 22.0385 24.7218 22.0096C24.3278 21.9513 23.9269 22.0518 23.607 22.2891Z" fill="black"/>
<path d="M33.7032 11.577C32.0275 7.62139 28.8789 4.47275 24.9233 2.79703C22.8901 1.94083 20.7063 1.49976 18.5002 1.49976C16.2942 1.49976 14.1103 1.94083 12.0772 2.79703C8.12163 4.47275 4.97299 7.62139 3.29728 11.577C2.44107 13.6101 2 15.7939 2 18C2 20.2061 2.44107 22.3899 3.29728 24.423C4.97299 28.3786 8.12163 31.5273 12.0772 33.203C14.1103 34.0592 16.2942 34.5002 18.5002 34.5002C20.7063 34.5002 22.8901 34.0592 24.9233 33.203C28.8789 31.5273 32.0275 28.3786 33.7032 24.423C34.5594 22.3899 35.0005 20.2061 35.0005 18C35.0005 15.7939 34.5594 13.6101 33.7032 11.577ZM30.9399 23.2545C29.6368 26.3518 27.2292 28.8544 24.1846 30.2764C21.14 31.6983 17.6756 31.9382 14.464 30.9494C11.2525 29.9606 8.52297 27.8137 6.80542 24.9255C5.08787 22.0373 4.50483 18.6139 5.16953 15.32C5.83422 12.026 7.6992 9.09663 10.4024 7.1005C13.1056 5.10438 16.454 4.18395 19.7977 4.51794C23.1414 4.85193 26.2417 6.4165 28.4966 8.90789C30.7515 11.3993 32.0002 14.6397 32.0002 18C32.0027 19.8049 31.6422 21.5918 30.9399 23.2545Z" fill="black"/>
<path d="M14 17.2498H14.0077C14.6045 17.2498 15.1768 17.0127 15.5987 16.5907C16.0207 16.1688 16.2577 15.5965 16.2577 14.9998C16.2577 14.403 16.0207 13.8307 15.5987 13.4088C15.1768 12.9868 14.6045 12.7498 14.0077 12.7498H14C13.4033 12.7498 12.831 12.9868 12.409 13.4088C11.9871 13.8307 11.75 14.403 11.75 14.9998C11.75 15.5965 11.9871 16.1688 12.409 16.5907C12.831 17.0127 13.4033 17.2498 14 17.2498Z" fill="black"/>
<path d="M22.9922 17.2498C24.2348 17.2498 25.2422 16.2424 25.2422 14.9998C25.2422 13.7571 24.2348 12.7498 22.9922 12.7498C21.7495 12.7498 20.7422 13.7571 20.7422 14.9998C20.7422 16.2424 21.7495 17.2498 22.9922 17.2498Z" fill="black"/>
</svg>
