<svg width="40" height="40" viewBox="0 0 40 40" fill="none" xmlns="http://www.w3.org/2000/svg">
<path d="M23.4718 26.5692C23.4718 26.5692 28.4236 23.0033 28.0898 16.5164C28.0898 16.5164 29.7589 15.0509 30 14.4061C30 14.4061 28.5719 15.0314 27.8857 14.9532C27.8857 14.9532 29.5178 13.7027 29.4251 12.6867C29.4251 12.6867 27.8301 13.6246 27.0512 13.7027C27.0512 13.7027 24.1209 11.104 21.4132 13.5464C21.4132 13.5464 20.0779 14.6797 20.3376 17.4933C20.3376 17.4933 16.2604 17.4933 12.3628 13.2338C12.3628 13.2338 10.8049 16.6336 13.5497 18.6461C13.5497 18.6461 12.6781 18.861 11.7878 18.0795C11.7878 18.0795 11.7322 21.362 14.9406 22.2413C14.9406 22.2413 13.9763 22.5343 13.2344 22.339C13.2344 22.339 13.8835 24.9767 16.7952 25.1135C16.7952 25.1135 14.9592 27.2237 11.25 26.8329C11.25 26.8329 16.1554 31.3171 23.4718 26.5692Z" fill="black"/>
</svg>
